<?xml version="1.0" standalone="no"?>
<!DOCTYPE svg PUBLIC "-//W3C//DTD SVG 1.1//EN" "http://www.w3.org/Graphics/SVG/1.1/DTD/svg11.dtd" >
<svg xmlns="http://www.w3.org/2000/svg" xmlns:xlink="http://www.w3.org/1999/xlink" version="1.1">
<metadata>
Created by FontForge 20170731 at Mon Sep  7 12:10:49 2020
 By Aleksey,,,
Copyright (c) 2008 by by Nick Shinn. Published by Shinn Type Foundry. All rights reserved.
</metadata>
<defs>
<font id="BeaufortW01-Regular" horiz-adv-x="1071" >
  <font-face 
    font-family="BeaufortW01-Regular"
    font-weight="400"
    font-stretch="normal"
    units-per-em="2048"
    panose-1="2 2 5 3 5 0 0 2 0 4"
    ascent="1520"
    descent="-528"
    x-height="961"
    cap-height="1364"
    bbox="-109 -451 2128 1839"
    underline-thickness="102"
    underline-position="-374"
    unicode-range="U+0002-2122"
  />
<missing-glyph horiz-adv-x="460" 
 />
    <glyph glyph-name=".notdef" horiz-adv-x="460" 
 />
    <glyph glyph-name=".null" horiz-adv-x="0" 
 />
    <glyph glyph-name="uni000D" unicode="&#xd;" horiz-adv-x="460" 
 />
    <glyph glyph-name="uni0002" horiz-adv-x="0" 
 />
    <glyph glyph-name="uni0009" unicode="&#x9;" horiz-adv-x="460" 
 />
    <glyph glyph-name="uni000A" unicode="&#xa;" horiz-adv-x="0" 
 />
    <glyph glyph-name="space" unicode=" " horiz-adv-x="460" 
 />
    <glyph glyph-name="exclam" unicode="!" horiz-adv-x="577" 
d="M209 1108q-5 89 -13 134q-9 50 -21 77q-13 29 -21 35q-10 8 -15 10h301q-2 0 -12 -7q-8 -6 -21 -33q-10 -21 -23 -77q-11 -49 -13 -139l-17 -549q-2 -49 -12 -93q-16 -64 -20 -79q-18 -47 -31 -74q-13 27 -31 74q-10 28 -22 79q-12 48 -13 93zM406 86q0 -44 -31 -78
q-30 -33 -84 -33q-55 0 -85 33t-30 78t30 78t85 33q54 0 84 -33q31 -34 31 -78z" />
    <glyph glyph-name="quotedbl" unicode="&#x22;" horiz-adv-x="944" 
d="M729 1114q0 -78 -11 -133q-13 -65 -26 -100q-16 -49 -37 -86h-6q-21 37 -37 86q-12 33 -24 100q-10 57 -10 133v250h151v-250zM367 1114q0 -68 -13 -133t-26 -100q-16 -49 -37 -86h-4q-21 37 -37 86q-14 38 -25 100q-10 57 -10 133v250h152v-250z" />
    <glyph glyph-name="numbersign" unicode="#" horiz-adv-x="1077" 
d="M821 885l-92 -379h221v-78h-243l-107 -428h-90l100 428h-284l-109 -428h-90l102 428h-186v78h207l92 379h-207v80h225l99 399h94l-98 -399h286l99 399h98l-98 -399h188v-80h-207zM438 885l-90 -379h285l90 379h-285z" />
    <glyph glyph-name="dollar" unicode="$" 
d="M963 367q0 -143 -97 -240t-284 -113v-157h-107v155q-98 4 -198 32q-94 26 -164 71v303q47 -146 145 -216q100 -71 217 -83v520q-73 33 -138 69q-70 39 -113 78q-49 44 -77 96t-28 122q0 80 26 139q27 61 75 105q50 45 113 70q68 27 142 34v143h107v-143q24 -3 84 -13
q37 -6 83 -20q36 -11 72 -27q40 -18 56 -30v-263q-38 119 -118 175t-177 73v-483q83 -41 149 -78q73 -41 121 -85q52 -47 81 -103q30 -57 30 -131zM475 1249q-100 -11 -160 -65q-61 -55 -61 -137q0 -45 18 -80q17 -33 50 -64q31 -29 70 -51q40 -22 83 -43v440zM815 319
q0 57 -18 97q-17 39 -52 72q-38 37 -74 57q-45 26 -89 47v-473q45 5 85 19q37 13 74 40q32 23 54 61q20 34 20 80z" />
    <glyph glyph-name="percent" unicode="%" horiz-adv-x="1421" 
d="M680 1114q0 -56 -17 -103q-18 -48 -53 -90q-35 -41 -88 -65q-55 -25 -123 -25q-66 0 -121 25q-53 24 -88 65q-34 39 -52 90q-17 47 -17 103q0 54 18 105q17 49 55 90q34 37 87 62q51 24 118 24q68 0 123 -25q53 -24 88 -63q35 -40 53 -90q17 -48 17 -103zM567 1112
q0 81 -47 140t-125 59t-120 -56q-42 -55 -42 -139q0 -80 46 -140q45 -58 122 -58q79 0 122 55q44 56 44 139zM1292 254q0 -56 -17 -103q-19 -52 -52 -91t-88 -64t-123 -25q-67 0 -122 25q-53 24 -87 64q-33 39 -52 91q-18 49 -18 103q0 50 19 104q19 53 54 91q34 37 87 62
q51 24 119 24t123 -25q53 -24 88 -64q34 -38 52 -90q17 -48 17 -102zM1180 252q0 81 -47 140t-125 59t-120 -56q-42 -55 -42 -139q0 -82 45 -140q45 -59 123 -59t122 56t44 139zM375 0h-119l795 1395h114z" />
    <glyph glyph-name="ampersand" unicode="&#x26;" horiz-adv-x="1544" 
d="M1511 176q-34 -105 -86 -154t-114 -49q-37 0 -83 18t-93 45q-56 33 -96 60q-36 25 -87 64q-92 -86 -202 -138q-112 -53 -242 -53q-104 0 -183 30q-78 29 -131 78q-52 48 -79 110q-27 63 -27 128q0 67 25 126q24 57 65 104q42 48 95 88q54 41 114 78q-65 83 -117 176
q-51 91 -51 190q0 71 27 131q28 62 72 102q45 41 109 65q63 24 136 24q81 0 144 -24q67 -25 107 -63q44 -41 68 -93q23 -52 23 -113q0 -68 -27 -122q-26 -52 -72 -101q-43 -45 -101 -87q-45 -32 -117 -77q83 -98 178 -191q100 -98 211 -190q38 49 81 121q39 66 70 136
q35 81 50 135q18 66 18 116q0 52 -18 76q-18 23 -41 39h311q-40 -21 -72 -77q-31 -54 -59 -139q-16 -47 -42 -109q-28 -67 -57 -124q-29 -59 -71 -126t-82 -116q39 -29 74 -53q40 -28 85 -53t86 -41q43 -17 76 -17q36 0 64 18t61 52zM766 1087q0 45 -16 81q-17 38 -45 68
q-28 29 -69 46q-39 16 -87 16q-86 0 -139 -53q-54 -54 -54 -139q0 -35 16 -78q14 -39 40 -82q21 -36 53 -81q24 -34 57 -74q121 79 180 141q64 67 64 155zM862 227q-99 81 -214 195q-104 102 -195 213q-87 -58 -146 -123t-59 -154q0 -59 23 -106t65 -86q39 -36 95 -58
q57 -22 114 -22q92 0 170 39t147 102z" />
    <glyph glyph-name="quotesingle" unicode="'" horiz-adv-x="526" 
d="M340 1114q0 -73 -12 -133q-12 -59 -27 -100q-16 -49 -37 -86h-4q-21 37 -37 86q-12 33 -24 100q-11 63 -11 133v250h152v-250z" />
    <glyph glyph-name="parenleft" unicode="(" horiz-adv-x="638" 
d="M606 -408q-113 40 -208 132q-94 91 -159 214q-67 127 -104 271q-37 145 -37 305q0 154 36 301t102 270q67 124 158 214q92 91 208 135q-83 -65 -146 -166q-65 -103 -104 -221q-41 -124 -62 -255q-22 -140 -22 -270t22 -273q21 -138 64 -259q43 -122 107 -227
q63 -104 145 -171z" />
    <glyph glyph-name="parenright" unicode=")" horiz-adv-x="638" 
d="M541 512q0 -154 -36 -301q-35 -143 -103 -271q-65 -123 -160 -215q-96 -93 -209 -133q82 67 145 169q64 103 107 224q43 119 64 258q22 143 22 271q0 129 -22 270q-21 136 -63 257q-41 119 -106 224q-63 102 -145 169q112 -40 208 -134q93 -92 159 -216q68 -128 103 -271
q36 -147 36 -301z" />
    <glyph glyph-name="asterisk" unicode="*" horiz-adv-x="817" 
d="M748 1196q-72 -13 -145 -46q-75 -34 -138 -75q60 -40 136 -80q68 -36 142 -47l-108 -157q-16 34 -62 97q-45 63 -139 146q-13 -50 -26 -120q-11 -60 -11 -103q0 -45 9 -94l-179 57q29 29 69 91q38 59 89 186q-119 -10 -190 -32q-65 -20 -107 -40v195q34 -21 102 -42
q73 -23 195 -30q-47 117 -87 180q-41 64 -69 92l181 60q-9 -49 -9 -99q0 -35 9 -102q7 -55 24 -115q93 84 138 139q46 57 65 99z" />
    <glyph glyph-name="plus" unicode="+" horiz-adv-x="1357" 
d="M737 522v-522h-112v522h-502v109h502v518h112v-518h500v-109h-500z" />
    <glyph glyph-name="comma" unicode="," horiz-adv-x="483" 
d="M414 -16q0 -55 -19 -118t-58 -112q-42 -53 -101 -86q-62 -35 -146 -41q42 16 81 47q37 30 67 69q28 37 45 83q16 44 16 90q0 25 -4 44q-5 24 -14 38q-21 -14 -50 -14q-53 0 -79 32q-27 33 -27 74q0 46 32 83q31 36 91 36q37 0 69 -19t53 -49q19 -27 32 -71q12 -40 12 -86
z" />
    <glyph glyph-name="hyphen" unicode="-" horiz-adv-x="722" 
d="M111 453v125h503v-125h-503z" />
    <glyph glyph-name="period" unicode="." horiz-adv-x="483" 
d="M362 94q0 -47 -30 -83t-88 -36q-57 0 -90 36t-33 83t32 82t91 35q58 0 88 -35q30 -34 30 -82z" />
    <glyph glyph-name="slash" unicode="/" horiz-adv-x="882" 
d="M219 -27h-129l600 1409h125z" />
    <glyph glyph-name="zero" unicode="0" 
d="M991 713q0 -177 -36 -315q-37 -140 -97 -233q-64 -98 -145 -146q-85 -50 -181 -50q-92 0 -174 43q-81 43 -143 127q-61 83 -97 211q-36 127 -36 293q0 178 36 319t97 235q63 96 144 145q85 51 180 51q92 0 175 -44q81 -43 144 -130q61 -84 97 -213q36 -128 36 -293z
M831 614q0 178 -26 301q-27 126 -71 210t-100 122q-57 39 -116 39q-56 0 -106 -34q-51 -35 -90 -100q-40 -67 -62 -168q-22 -100 -22 -236q0 -179 26 -302t71 -208q43 -81 100 -122q56 -40 118 -40q55 0 105 33q53 35 90 98q39 65 61 167q22 100 22 240z" />
    <glyph glyph-name="one" unicode="1" 
d="M401 0q2 1 21 11q14 8 34 34q15 20 30 71q14 48 14 124v880q-3 -4 -23.5 -26t-32.5 -36q-20 -24 -62 -72q-9 -10 -29.5 -33t-30.5 -35t-26.5 -30t-21.5 -24v144q22 23 85 94q48 54 92 107q13 16 41.5 51t43.5 52q10 11 33 39.5t33 39.5h51v-1151q0 -78 15 -124
q17 -52 31 -71q20 -26 34 -34q19 -10 21 -11h-353z" />
    <glyph glyph-name="two" unicode="2" 
d="M963 0h-914l309 334q180 195 285 351t105 306q0 149 -81 226q-79 75 -198 75q-51 0 -94 -15q-42 -15 -75 -41q-31 -25 -49 -60q-18 -34 -18 -74q0 -45 25 -84q23 -36 72 -47l-133 -115q-41 18 -73 69q-32 50 -32 115q0 64 28 129q27 63 81 114q55 52 132 81q82 31 183 31
q76 0 148 -24q70 -23 128 -72q55 -46 90 -118q33 -67 33 -165q0 -88 -35 -171q-34 -81 -98 -176q-65 -96 -145 -188q-93 -106 -182 -202l-138 -150h433q73 0 116 14q51 17 77 32q30 18 44 35q18 21 19 23z" />
    <glyph glyph-name="three" unicode="3" 
d="M977 344q0 -80 -35 -150t-96 -119q-65 -52 -147 -78q-89 -28 -185 -28q-108 0 -185 30q-79 31 -128 70q-52 41 -77 81q-27 43 -34 65l162 107q4 -106 77 -179q71 -71 208 -71q129 0 204 65q76 66 76 170q0 75 -38 136q-39 62 -105 103t-159 64q-94 23 -198 23l31 102
l44 -4q36 -2 48 -2q79 0 142 26q60 25 104 66q43 40 66 95q22 53 22 114q0 51 -18 99q-17 44 -54 85q-35 38 -86 59t-116 21q-108 0 -175 -47t-67 -114q0 -31 14 -53q15 -24 37 -36l-155 -79q-18 30 -29 58q-12 31 -12 67q0 68 33 123q34 56 93 97q56 39 135 62
q78 23 165 23t162 -25q71 -24 125 -70q53 -46 80 -105q28 -62 28 -132q0 -59 -21 -118q-21 -58 -58 -107t-92 -87q-57 -40 -122 -57q92 -23 150 -57q66 -39 104 -83q40 -46 61 -100t21 -110z" />
    <glyph glyph-name="four" unicode="4" 
d="M844 334v-123q0 -66 9 -107q9 -43 19 -63q11 -24 21 -31l14 -10h-272q2 0 11 6t20 29q10 21 19 64q9 42 9 114v121h-663l813 1091v-972h164v-119h-164zM694 1059l-450 -606h450v606z" />
    <glyph glyph-name="five" unicode="5" 
d="M967 416q0 -103 -34 -184q-35 -85 -96 -141q-63 -59 -151 -90q-90 -32 -194 -32q-77 0 -146 22q-65 21 -117 56q-50 34 -86 79q-35 44 -53 89l164 100q6 -53 29 -97t57 -77t80 -51q45 -18 94 -18q75 0 129 22q55 22 93 63q39 43 58 94q19 53 19 116q0 163 -126 254
q-127 92 -359 92h-172l147 651h410q65 0 113 5q43 4 69 11q24 6 33 13l10 8l-39 -168h-502l-96 -395h98q125 0 232 -29q102 -28 179 -83q76 -55 116 -133q41 -80 41 -177z" />
    <glyph glyph-name="six" unicode="6" 
d="M985 446q0 -85 -28 -174q-27 -86 -84 -153q-59 -70 -141 -109q-87 -41 -197 -41q-101 0 -185 38q-80 37 -139 106q-57 68 -87 160q-30 93 -30 204q0 141 47 284q46 139 128 262q81 121 192 216q110 93 239 143l248 -36q-110 -28 -213 -79t-197 -132q-90 -77 -169 -190
q-74 -105 -125 -247l6 -4q53 92 138 145q85 54 190 54q99 0 177 -38t128 -100t76 -144q26 -83 26 -165zM840 405q0 66 -20 134q-19 66 -59 117q-41 53 -99 85q-60 33 -142 33q-61 0 -112 -28q-49 -27 -84 -71q-36 -46 -54 -102q-18 -57 -18 -114q0 -72 21 -141
q20 -65 64 -122q41 -53 102 -88q59 -34 141 -34q63 0 112 28t82 75q32 46 49 106q17 62 17 122z" />
    <glyph glyph-name="seven" unicode="7" 
d="M643 571q-95 -193 -132 -334q-37 -143 -42 -237h-223q33 78 95 208q36 77 113 232l116 238q78 158 111 224q38 76 94 194q58 122 67 143h-523q-66 0 -107 -14q-48 -16 -72 -34q-30 -22 -43 -40q-19 -27 -23 -33l45 246h913z" />
    <glyph glyph-name="eight" unicode="8" 
d="M989 367q0 -90 -38 -163q-38 -72 -101 -125q-62 -52 -148 -81q-85 -29 -178 -29q-90 0 -171 24q-84 25 -141 69q-60 46 -96 114t-36 156q0 59 19 115t57 106q39 51 92 87q54 37 129 58q-63 21 -108 55q-48 36 -76 76q-34 49 -47 93q-15 49 -15 100q0 82 34 150
q34 69 91 118q58 50 132 77q78 28 159 28q79 0 150 -24q75 -26 124 -66q55 -46 84 -106q31 -65 31 -140q0 -53 -14 -101q-16 -54 -44 -96q-30 -45 -75 -81t-107 -54q152 -47 223 -146q70 -98 70 -214zM791 1012q0 61 -21 112q-21 52 -58 90q-39 40 -89 61q-51 21 -113 21
q-105 0 -169 -64q-65 -65 -65 -173q0 -59 22 -114q21 -52 58 -92q36 -39 88 -62t113 -23q48 0 89 16q40 16 75 49q33 32 51 76q19 47 19 103zM836 332q0 64 -25 123q-23 55 -70 99t-105 67q-60 24 -132 24q-122 0 -197 -73q-74 -72 -74 -189q0 -63 25 -122q22 -53 69 -98
q44 -42 103 -66q58 -23 131 -23q124 0 199 68q76 69 76 190z" />
    <glyph glyph-name="nine" unicode="9" 
d="M985 885q0 -141 -47 -284q-45 -137 -128 -261q-79 -119 -192 -215q-110 -93 -239 -143l-248 36q109 28 213 79q108 53 200 132q89 76 169 189q74 105 125 248l-9 4q-53 -92 -138 -145q-85 -54 -189 -54q-102 0 -178 39q-78 40 -126 101q-51 65 -76 144q-26 83 -26 167
q0 100 33 187q34 90 92 151q61 64 141 99q83 36 181 36q113 0 195 -42q83 -42 139 -112q53 -66 81 -163q27 -93 27 -193zM827 905q0 72 -21 141q-19 64 -63 122q-40 53 -99 88q-58 34 -134 34q-69 0 -118 -28q-48 -28 -84 -76q-31 -42 -51 -108q-17 -57 -17 -124
q0 -69 19 -133q20 -66 58 -118q37 -50 98 -83q59 -32 136 -32q68 0 119 27t86 73t53 102q18 57 18 115z" />
    <glyph glyph-name="colon" unicode=":" horiz-adv-x="483" 
d="M362 741q0 -48 -31 -83t-89 -35t-89 35q-32 37 -32 83t31 82q30 35 90 35q57 0 89 -35q31 -34 31 -82zM362 94q0 -48 -31 -83q-31 -36 -89 -36t-89 36q-32 37 -32 83t31 82q30 35 90 35q57 0 89 -35q31 -34 31 -82z" />
    <glyph glyph-name="semicolon" unicode=";" horiz-adv-x="483" 
d="M369 741q0 -46 -32 -83q-31 -35 -89 -35t-89 35q-32 37 -32 83t31 83q30 36 90 36q58 0 89 -36q32 -37 32 -83zM416 -16q0 -55 -19 -118t-58 -112q-42 -53 -101 -86q-62 -35 -146 -41q42 16 81 47q37 30 67 69q28 37 45 83q16 44 16 90q0 25 -4 44q-5 24 -14 38
q-21 -14 -50 -14q-53 0 -79 32q-27 33 -27 74q0 46 32 83q31 36 91 36q37 0 69 -19t53 -49q19 -27 32 -71q12 -40 12 -86z" />
    <glyph glyph-name="less" unicode="&#x3c;" horiz-adv-x="1357" 
d="M188 526v99l981 536v-127l-845 -454v-11l845 -448v-127z" />
    <glyph glyph-name="equal" unicode="=" horiz-adv-x="1357" 
d="M123 739v109h1114v-109h-1114zM123 319v109h1114v-109h-1114z" />
    <glyph glyph-name="greater" unicode="&#x3e;" horiz-adv-x="1357" 
d="M188 -6v127l848 452v11l-848 450v127l981 -536v-99z" />
    <glyph glyph-name="question" unicode="?" horiz-adv-x="933" 
d="M862 1106q0 -71 -31 -133q-29 -59 -75 -112q-42 -49 -100 -99q-48 -42 -99 -94q-44 -46 -76 -98q-30 -50 -30 -107q0 -68 55 -107q-11 -11 -22 -12q-16 -2 -21 -2q-54 0 -97 43q-44 44 -44 109q0 62 27 115q25 48 69 99q31 36 88 89q56 52 88 88q44 48 69 95
q27 50 27 110q0 98 -61 149q-62 51 -146 51q-45 0 -87 -13t-84 -41q-33 -22 -73 -69q-34 -40 -57 -98v240q61 39 151 63q92 25 181 25q72 0 135 -18q67 -19 111 -52q49 -36 75 -90q27 -56 27 -131zM539 82q0 -43 -29 -75t-82 -32t-82 32t-29 75q0 42 29 76q28 32 82 32
t82 -32q29 -34 29 -76z" />
    <glyph glyph-name="at" unicode="@" horiz-adv-x="1916" 
d="M1790 629q0 -109 -35 -222q-35 -112 -99 -203q-63 -90 -155 -148q-88 -56 -201 -56q-101 0 -147 46q-47 47 -51 167q-61 -120 -146 -167q-83 -46 -172 -46q-111 0 -177 85q-66 86 -66 245q0 102 31 210q31 106 92 200q61 93 144 150q85 58 193 58q38 0 62 -4
q32 -5 57 -14q26 -7 58 -20q28 -11 59 -11q48 0 111 33l-115 -674q-4 -13 -4 -28v-25q0 -56 26 -92q27 -37 82 -37q64 0 129 40q66 41 118 113q52 73 85 175t33 225q0 125 -43 235q-44 113 -128 194q-87 84 -211 131q-126 48 -290 48q-180 0 -328 -62q-150 -63 -258 -171
q-109 -109 -169 -256t-60 -318q0 -158 51 -294q50 -134 155 -236q104 -101 257 -158t360 -57q211 0 376 73q168 74 282 203l73 -35q-129 -146 -312 -228q-184 -83 -423 -83q-228 0 -395 59q-171 61 -284 166q-114 106 -171 254q-57 147 -57 324q0 183 62 342q63 161 181 281
q120 122 287 191q171 71 387 71q163 0 302 -49q137 -48 235 -136t154 -213q55 -123 55 -276zM1155 709q0 71 -35 115t-135 44q-64 0 -118 -51t-93 -130q-38 -78 -61 -173q-23 -97 -23 -178q0 -126 41 -185t100 -59q68 0 124 49q57 49 96 123q19 37 40 104q14 45 33 127
q16 70 23 121q8 61 8 93z" />
    <glyph glyph-name="A" unicode="A" horiz-adv-x="1417" 
d="M1188 236q30 -77 60 -124t56 -71q29 -27 43 -33q19 -8 23 -8h-375q5 0 15 3q6 2 21 11q12 8 20 25q8 18 8 45q0 22 -9 51q-9 27 -26 70l-84 217h-526l-82 -209q-16 -40 -23 -65q-8 -29 -8 -50q0 -31 10 -50q11 -20 24 -30q11 -9 25 -14q11 -4 19 -4h-334q6 0 20 7t38 31
q23 23 54 71q29 44 64 129l486 1183zM676 1085l-223 -561h446z" />
    <glyph glyph-name="B" unicode="B" horiz-adv-x="1183" 
d="M1067 354q0 -65 -25 -131q-24 -62 -72 -112t-121 -80q-74 -31 -169 -31h-567q6 0 21 6q16 7 31 27q17 24 28 59q12 39 12 105v974q0 63 -14 102q-14 40 -29 57q-16 20 -33 27q-15 7 -23 7h517q96 0 169 -28q70 -27 116 -73q47 -47 68 -105t21 -120q0 -57 -18 -111
q-19 -58 -52 -99q-34 -42 -81 -73q-45 -29 -103 -40q75 -7 136 -41q59 -32 101 -82q41 -48 64 -111t23 -127zM891 362q0 132 -79 212q-80 81 -214 81h-227v-553h247q84 0 136 24q57 26 84 60q30 38 42 83q11 43 11 93zM823 1026q0 58 -20 99q-23 47 -55 75q-35 31 -81 47
q-48 17 -98 17h-198v-508h213q105 0 172 71t67 199z" />
    <glyph glyph-name="C" unicode="C" horiz-adv-x="1288" 
d="M1223 168q-78 -90 -192 -144q-116 -55 -259 -55q-168 0 -297 59q-128 59 -210 154q-84 98 -124 219q-41 125 -41 254q0 137 45 271q44 132 137 238t226 170q136 65 315 65q109 0 205 -26q98 -26 162 -62v-297q-50 136 -149 205t-257 69q-124 0 -219 -51
q-93 -50 -157 -134q-65 -85 -96 -190t-31 -217q0 -118 32 -223q33 -109 99 -194q69 -89 163 -139q98 -52 230 -52q115 0 224 57q110 57 194 156v-133z" />
    <glyph glyph-name="D" unicode="D" horiz-adv-x="1439" 
d="M1339 694q0 -142 -43 -267q-44 -127 -129 -221q-87 -96 -216 -151t-306 -55h-532q7 0 21 7t33 29q18 21 30 61t12 110v962q0 66 -13 102q-14 37 -30 57t-33 27t-24 9h542q164 0 290 -49q127 -49 216 -138q88 -88 135 -212t47 -271zM1159 682q0 278 -137 430t-412 152
h-235v-1162h289q131 0 227 52q91 49 153 134t88 186q27 104 27 208z" />
    <glyph glyph-name="E" unicode="E" horiz-adv-x="1067" 
d="M963 0h-852q6 0 21 6t33 27t30 58t12 104v976q0 66 -13 102q-13 37 -32 57q-18 20 -36 27q-17 7 -24 7h820v-221l-10 28q-7 20 -28 41q-20 20 -64 36q-45 16 -113 16h-334v-516h278q51 0 79 11q33 13 46 25q18 17 22 28q2 5 4 11t3 8v-268q0 3 -5 18q-4 11 -22 28
q-17 15 -46 27q-28 11 -79 11h-280v-545h344q54 0 105 7q46 6 77 22t55 44q22 26 45 71z" />
    <glyph glyph-name="F" unicode="F" horiz-adv-x="993" 
d="M926 1147q-4 21 -16 41q-11 20 -37 38q-23 16 -68 27q-46 11 -111 11h-323v-516h288q51 0 79 11q33 13 46 25q18 17 22 28q2 5 4 11t3 8v-270q-5 23 -22 43q-16 16 -47 30q-29 13 -82 13h-291v-459q0 -61 12 -98q11 -34 29 -57q17 -21 31 -27q15 -6 22 -6h-354q6 0 21 6
q14 6 33 26q18 20 30 56q12 37 12 102v981q0 64 -13 100q-14 38 -31 57q-19 20 -35 27q-18 7 -24 9h822v-217z" />
    <glyph glyph-name="G" unicode="G" horiz-adv-x="1390" 
d="M1059 444q0 56 -14 92t-29 52q-16 17 -33 25q-18 8 -22 8h356q-5 0 -22 -7q-14 -6 -31 -24q-18 -19 -29 -52q-12 -34 -12 -92v-383q-90 -45 -214 -69q-130 -25 -241 -25q-164 0 -292 58q-126 57 -210 153t-126 220t-42 257q0 137 45 271q44 129 136 237q89 104 228 169
t322 65q116 0 217 -26t166 -62v-285q-44 124 -152 194q-109 70 -269 70q-125 0 -220 -49q-94 -49 -161 -132q-67 -84 -101 -189q-35 -108 -35 -224q0 -113 35 -224q34 -109 103 -196q68 -86 169 -138t236 -52q59 0 125 13q69 14 117 32v313z" />
    <glyph glyph-name="H" unicode="H" horiz-adv-x="1474" 
d="M1278 190q0 -62 12 -99q11 -35 28 -57q14 -19 31 -27q14 -7 21 -7h-352q6 0 21 6q16 6 31 26q17 22 28 57q12 38 12 101v455h-745v-455q0 -62 12 -99t27 -57q15 -19 32 -27q15 -7 23 -7h-355q7 0 22 6t32 26q16 19 28 57q13 41 13 101v984q0 59 -13 100q-12 37 -29 57
q-18 21 -33 27t-22 6h357q-5 0 -20 -6q-14 -5 -31 -26q-16 -20 -30 -57q-13 -36 -13 -101v-426h745v426q0 62 -12 100q-11 34 -29 57q-16 21 -32 27q-15 6 -21 6h354q-6 0 -21 -6q-16 -7 -31 -27q-18 -25 -28 -57q-12 -37 -12 -100v-984z" />
    <glyph glyph-name="I" unicode="I" horiz-adv-x="565" 
d="M365 184q0 -59 12 -95q12 -35 27 -55q15 -19 32 -27q15 -7 23 -7h-350q6 0 21 6q16 6 31 26t27 55q13 39 13 97v994q0 58 -13 97q-12 37 -29 55q-19 20 -33 26q-17 7 -22 8h355q-5 0 -20 -6q-14 -5 -31 -26q-17 -20 -30 -56t-13 -98v-994z" />
    <glyph glyph-name="J" unicode="J" horiz-adv-x="565" 
d="M201 1180q0 56 -13 95q-12 36 -28 55q-17 20 -33 26q-20 7 -23 8h355q-5 0 -20 -6q-13 -5 -31 -25q-18 -19 -29 -55q-12 -38 -12 -100v-1065q0 -116 -37 -196q-38 -81 -90 -132q-52 -50 -115 -75q-59 -23 -111 -23q88 48 137 146q50 100 50 280v1067z" />
    <glyph glyph-name="K" unicode="K" horiz-adv-x="1323" 
d="M997 209q57 -68 106 -109t83 -62q40 -24 56 -30q22 -8 28 -8h-312l-593 678v-490q0 -61 12 -98q11 -35 27 -57q15 -21 32 -27t23 -6h-353q7 0 22 6q16 6 31 26q16 20 27 56q13 41 13 100v986q0 59 -13 100q-12 36 -28 57t-32 27q-15 6 -22 6h355q-5 0 -20 -6
q-14 -5 -31 -26q-16 -20 -30 -57q-13 -36 -13 -101v-455l436 444q59 62 79 98q21 37 21 60q0 26 -17 33q-16 8 -26 10h387q-8 0 -30 -7q-19 -6 -62 -29q-40 -21 -94 -61q-54 -39 -123 -110l-406 -412z" />
    <glyph glyph-name="L" unicode="L" horiz-adv-x="1079" 
d="M967 0h-858q6 0 20 7q16 8 30 28q15 21 27 61q13 44 13 109v969q0 59 -13 100q-12 36 -28 57t-32 27q-15 6 -22 6h353q-7 0 -22 -6q-16 -6 -32 -27t-28 -57q-13 -41 -13 -100v-1072h334q52 0 116 6q48 4 84 21t60 48q23 30 45 85z" />
    <glyph glyph-name="M" unicode="M" horiz-adv-x="1720" 
d="M1520 190q0 -62 11 -96q13 -40 25 -57q14 -20 30 -28q14 -7 24 -9h-340q4 1 22 8q14 5 29 27q17 23 26 57q11 34 11 98v959l-516 -1174l-516 1174v-946q0 -65 13 -103q14 -40 31 -60q21 -25 34 -30q22 -9 26 -10h-326q8 2 26 9q19 8 36 28q19 22 33 60t14 106v979
q0 61 -13 94q-13 34 -32 54t-36 26q-5 2 -10 3.5t-8 3t-5 1.5h297l468 -1061l461 1061h277q-5 -1 -22 -8q-15 -6 -30 -27q-18 -25 -28 -56q-12 -36 -12 -95v-988z" />
    <glyph glyph-name="N" unicode="N" horiz-adv-x="1439" 
d="M1137 1174q0 59 -14 98q-13 37 -31 56q-18 20 -36 27t-24 9h324q-6 0 -23 -6q-16 -6 -34 -27q-15 -18 -31 -57q-15 -38 -15 -100v-1233l-929 1149v-902q0 -63 14 -98q14 -36 33 -56q17 -19 37 -27q17 -7 24 -7h-330q6 0 23 6q15 5 34 26q15 16 31 56q15 37 15 100v965
q0 51 -18 88q-18 38 -42 62q-22 22 -51 38q-31 17 -45 23h266l822 -1018v828z" />
    <glyph glyph-name="O" unicode="O" horiz-adv-x="1519" 
d="M1419 698q0 -152 -48 -286q-47 -132 -137 -232q-85 -96 -213 -154q-125 -57 -278 -57q-142 0 -264 54q-119 53 -203 146q-83 92 -130 221q-46 126 -46 280q0 150 51 288q48 131 139 232q86 96 214 153q126 56 276 56q142 0 262 -53q120 -55 202 -147q82 -93 129 -222
q46 -128 46 -279zM1255 651q0 141 -35 253q-36 114 -104 201q-66 84 -163 133q-95 48 -214 48q-105 0 -191 -40q-89 -42 -149 -113q-61 -72 -96 -177q-35 -103 -35 -227q0 -143 37 -260q38 -120 105 -205q68 -86 162 -134t212 -48q104 0 192 41q86 40 148 117q64 80 97 180
q34 103 34 231z" />
    <glyph glyph-name="P" unicode="P" horiz-adv-x="1124" 
d="M1049 969q0 -82 -30 -157q-30 -74 -90 -133q-60 -58 -149 -93q-90 -35 -205 -35q-55 0 -119 8q-57 7 -89 19v-390q0 -61 12 -98q11 -35 29 -56q17 -20 32 -27t25 -7h-352q6 0 21 6t32 26q18 21 29 56q12 37 12 100v983q0 66 -13 102q-14 38 -31 57q-18 20 -34 27
q-15 7 -23 7h506q109 0 191 -33t136 -88q56 -57 82 -127q28 -75 28 -147zM879 956q0 61 -21 118q-21 58 -59 97q-41 43 -99 66q-62 25 -135 25h-198v-582q26 -10 86 -16q67 -7 118 -7q74 0 131 24q61 26 97 63q37 38 59 95q21 54 21 117z" />
    <glyph glyph-name="Q" unicode="Q" horiz-adv-x="1519" 
d="M1563 -164q-45 -30 -96 -44q-48 -13 -97 -13q-66 0 -133 18q-63 17 -133 47q-63 27 -126 65q-58 35 -110 71q-36 -6 -60 -8q-32 -3 -65 -3q-142 0 -264 54q-119 53 -203 146q-83 92 -130 221q-46 126 -46 280q0 150 51 288q48 131 139 232q86 96 214 153q126 56 276 56
q142 0 262 -53q120 -55 202 -147q82 -93 129 -222q46 -128 46 -279q0 -110 -23 -202q-24 -97 -68 -180q-43 -81 -107 -150q-62 -67 -144 -113q53 -47 118 -89q58 -37 126 -68q65 -29 122 -44q62 -16 105 -16h15zM1255 651q0 141 -35 253q-36 114 -104 201q-66 84 -163 133
q-95 48 -214 48q-105 0 -191 -40q-89 -42 -149 -113q-61 -72 -96 -177q-35 -103 -35 -227q0 -143 37 -260q38 -120 105 -205q68 -86 162 -134t212 -48q104 0 192 41q86 40 148 117q64 80 97 180q34 103 34 231z" />
    <glyph glyph-name="R" unicode="R" horiz-adv-x="1212" 
d="M887 0l-287 479q-40 71 -81 95t-95 24h-51v-410q0 -61 12 -98q10 -32 28 -57q15 -21 31 -27t23 -6h-350q6 0 21 6t32 26q18 21 29 56q12 37 12 100v981q0 66 -13 102q-14 38 -31 58q-18 21 -34 27q-3 1 -7 2.5t-6.5 2.5l-5 2t-3.5 1h479q98 0 182 -29q80 -28 140 -80
q59 -51 90 -118q32 -69 32 -148q0 -62 -21 -125q-21 -62 -67 -116q-47 -55 -116 -90q-72 -37 -168 -44q27 -10 55 -40q30 -32 51 -68l238 -389q40 -66 86 -87q52 -24 77 -30h-282zM864 979q0 54 -19 104q-19 51 -59 92q-39 40 -97 64q-61 25 -134 25h-186v-570h186
q85 0 144 24q60 25 96 62t53 90q16 49 16 109z" />
    <glyph glyph-name="S" unicode="S" horiz-adv-x="974" 
d="M893 338q0 -56 -19 -118q-18 -58 -57 -105q-58 -72 -148 -108q-94 -38 -227 -38q-102 0 -192 30q-91 30 -160 77v311q53 -170 152 -242q98 -71 225 -71q54 0 100 14q49 15 87 42t62 71q23 42 23 102q0 89 -47 150q-44 57 -117 106t-152 88q-87 43 -153 93
q-70 53 -116 123q-48 73 -48 175q0 86 34 151q37 70 92 114q59 47 134 71q78 25 158 25q86 0 167 -27q84 -28 128 -65v-271q-40 139 -127 200q-86 60 -192 60q-60 0 -106 -18t-78 -50q-31 -31 -49 -72q-17 -38 -17 -83q0 -82 48 -136t119 -98q77 -47 154 -86q82 -41 155 -97
q72 -55 119 -130q48 -77 48 -188z" />
    <glyph glyph-name="T" unicode="T" horiz-adv-x="1241" 
d="M1178 1135q-10 34 -26 59q-16 26 -42 40q-27 15 -68 21q-47 7 -102 7h-235v-1072q0 -62 12 -99t27 -57q15 -19 32 -27q15 -7 23 -7h-355q7 0 22 6t32 26q16 19 28 56q13 41 13 102v1072h-238q-50 0 -97 -7q-43 -6 -68 -19q-26 -13 -45 -38q-17 -23 -28 -61l17 227h1081z
" />
    <glyph glyph-name="U" unicode="U" horiz-adv-x="1380" 
d="M1073 1171q0 64 -13 100q-14 38 -31 57q-19 20 -35 27q-18 8 -25 9h338q-6 0 -24 -6q-17 -6 -35 -27q-16 -18 -30 -58q-14 -39 -14 -102v-706q0 -245 -118 -370q-119 -126 -392 -126q-271 0 -390 122q-118 121 -118 366v719q0 60 -12 98q-11 35 -30 57t-32 27
q-15 6 -22 6h356q-4 0 -19 -6q-14 -6 -32 -25q-15 -17 -29 -55q-14 -39 -14 -100v-717q0 -199 87 -290t280 -91q101 0 173 28q66 26 108 77q40 49 57 119q16 67 16 153v714z" />
    <glyph glyph-name="V" unicode="V" horiz-adv-x="1409" 
d="M1108 1272q0 29 -10 46t-24 28q-12 9 -26 14q-12 4 -20 4h342q-4 0 -21 -7q-18 -7 -42 -30q-29 -27 -55 -65q-31 -45 -60 -119l-492 -1200l-487 1206q-30 72 -57 112q-25 37 -54 64q-24 23 -42 30q-20 8 -23 9h381q-5 0 -14 -3q-8 -3 -19 -12q-10 -8 -18 -25
q-9 -18 -9 -42q0 -41 33 -119l346 -848l344 861q14 36 20 54q7 22 7 42z" />
    <glyph glyph-name="W" unicode="W" horiz-adv-x="1970" 
d="M1665 1262q0 30 -9 51q-8 18 -23 30q-16 13 -25 16q-13 5 -19 5h342q-7 0 -24 -7q-19 -8 -43 -29q-27 -23 -54 -65q-27 -40 -55 -118l-422 -1202l-348 991l-360 -991l-416 1208q-24 68 -52 112q-23 36 -53 64q-23 22 -43 30q-17 7 -24 7h383q-5 0 -12 -4q-12 -7 -18 -13
q-7 -7 -16 -28q-7 -17 -7 -47q0 -19 5 -51t19 -68l273 -793l270 738l-19 61q-21 65 -45 106q-22 37 -46 61q-22 22 -39 29q-19 8 -23 9h358q-5 0 -13 -4q-11 -5 -18 -14q-12 -14 -18 -28q-8 -19 -8 -48q0 -44 27 -117l276 -788l279 798q20 57 20 99z" />
    <glyph glyph-name="X" unicode="X" horiz-adv-x="1378" 
d="M1073 242q55 -83 96 -127q46 -49 74 -73q32 -27 50 -34q21 -8 26 -8h-408q2 0 14 2q9 2 18 9q7 6 16 20q8 13 8 32q0 20 -16 60q-15 37 -54 90l-240 344l-241 -334q-49 -67 -64 -98q-18 -37 -18 -62q0 -38 21 -50q20 -11 32 -13h-348q6 0 23 7q19 8 48 31q28 22 72 68
q44 45 99 123l309 428l-336 496q-48 71 -85 111q-35 38 -66 62q-28 22 -44 29q-17 8 -22 9h395q-7 -2 -29 -12t-22 -49q0 -25 13 -54q16 -36 46 -78l252 -366l250 348q44 66 59 95q19 38 19 59q0 34 -19 45q-18 10 -26 12h344q-4 0 -22 -6q-14 -5 -46 -25q-30 -19 -66 -55
q-40 -40 -83 -100l-342 -476z" />
    <glyph glyph-name="Y" unicode="Y" horiz-adv-x="1318" 
d="M1010 1298q0 40 -20 52q-21 13 -29 14h311q-6 0 -21 -7q-19 -9 -41 -28q-24 -21 -58 -61q-31 -37 -73 -109l-342 -586v-383q0 -58 13 -99q12 -37 27 -57q15 -19 32 -27q15 -7 22 -7h-356q7 0 22 6q14 5 31 26q17 20 29 57q12 38 12 101v381l-344 592q-41 69 -71 106
q-26 32 -58 60q-22 19 -41 28q-15 7 -20 7h377q-4 0 -12 -3q-6 -3 -16 -9q-8 -6 -15 -19q-7 -14 -7 -33q0 -21 14 -54q14 -32 42 -81l270 -465l256 443q38 66 50 95q16 38 16 60z" />
    <glyph glyph-name="Z" unicode="Z" horiz-adv-x="1198" 
d="M1094 0h-1024l766 1262h-461q-135 0 -195 -39q-59 -38 -74 -105v246h981l-763 -1262h475q77 0 133 8q55 8 88 25q35 18 56 48q23 33 40 75z" />
    <glyph glyph-name="bracketleft" unicode="[" horiz-adv-x="583" 
d="M106 -324v1710h388v-86h-263v-1533h263v-91h-388z" />
    <glyph glyph-name="backslash" unicode="\" horiz-adv-x="882" 
d="M676 -27l-598 1409h125l600 -1409h-127z" />
    <glyph glyph-name="bracketright" unicode="]" horiz-adv-x="583" 
d="M90 -324v91h262v1533h-262v86h387v-1710h-387z" />
    <glyph glyph-name="asciicircum" unicode="^" horiz-adv-x="1357" 
d="M1044 465l-362 924h-10l-357 -924h-127l437 1071h112l434 -1071h-127z" />
    <glyph glyph-name="underscore" unicode="_" horiz-adv-x="1058" 
d="M0 -260v76h1059v-76h-1059z" />
    <glyph glyph-name="grave" unicode="`" horiz-adv-x="913" 
d="M207 1364h229l131 -307z" />
    <glyph glyph-name="a" unicode="a" horiz-adv-x="958" 
d="M831 -39q-64 11 -107 57t-54 97q-39 -72 -124 -109q-84 -37 -181 -37q-55 0 -105 15q-51 15 -87 43q-39 29 -59 70q-22 44 -22 98q0 50 29 103q27 50 95 101q65 49 173 93q102 42 262 77v107q0 117 -52 173t-142 56q-106 0 -155 -43q-50 -44 -50 -98q0 -37 14 -59
q16 -26 37 -33l-166 -68q-10 18 -18 47q-8 30 -8 66q0 52 23 99q24 50 72 89q50 41 120 64q72 24 168 24q157 0 232 -82q75 -83 75 -206v-443q0 -75 35 -133q34 -57 116 -57q14 0 33 4zM651 485q-217 -50 -310 -112q-95 -63 -95 -150q0 -74 49 -114q50 -41 121 -41
q45 0 87 15q40 14 75 43q32 26 53 64q20 36 20 80v215z" />
    <glyph glyph-name="b" unicode="b" horiz-adv-x="1056" 
d="M977 522q0 -104 -31 -206q-30 -98 -88 -176q-57 -76 -140 -123q-82 -46 -190 -46q-72 0 -122 10q-49 10 -74 19q-34 13 -47 19q-20 10 -41 10q-28 0 -49 -18q-22 -19 -39 -40v1153q0 57 -9 102q-8 38 -21 59q-14 22 -33 29q-18 7 -44 7h-18l278 109v-613q49 78 136 127
q86 49 180 49q76 0 141 -31q63 -30 112 -93q44 -57 72 -148q27 -88 27 -199zM817 479q0 74 -15 146q-14 68 -46 127q-28 53 -79 89q-46 33 -112 33q-53 0 -101 -24q-47 -24 -83 -64q-34 -38 -55 -90q-21 -51 -21 -102v-348q0 -84 56 -130t167 -46q71 0 123 34q51 33 90 93
q37 57 57 131q19 72 19 151z" />
    <glyph glyph-name="c" unicode="c" horiz-adv-x="903" 
d="M844 281q-39 -159 -135 -235q-97 -77 -213 -77q-104 0 -183 38q-76 36 -130 103q-53 65 -78 149t-25 179q0 124 36 226q37 105 97 175q63 73 145 113q85 41 181 41q119 0 201 -72q83 -72 89 -206l-161 -72q5 15 6 32q2 24 2 34q0 87 -52 133q-53 47 -126 47
q-61 0 -112 -28q-48 -26 -87 -79q-36 -49 -56 -120t-20 -154q0 -78 20 -155q20 -76 59 -134q40 -60 99 -95q60 -36 140 -36q79 0 157 48t146 145z" />
    <glyph glyph-name="d" unicode="d" horiz-adv-x="1058" 
d="M776 -43l-2 178q-51 -74 -137 -119q-89 -47 -176 -47q-97 0 -168 37q-73 38 -119 102q-49 68 -72 151q-24 87 -24 190q0 111 33 210q33 98 93 172q60 73 144 117q83 43 189 43q78 0 136 -26q59 -27 93 -68v246q0 60 -7 92q-8 35 -22 54q-15 20 -32 27t-43 7h-19l272 107
v-1172q0 -59 8 -99t19 -59t30 -27q17 -7 36 -7h20zM768 645q0 116 -58 181q-59 67 -169 67q-74 0 -130 -34q-59 -36 -96 -90q-39 -56 -58 -128q-19 -70 -19 -147q0 -189 70 -299q70 -111 196 -111q46 0 92 18t85 52t62 73q25 42 25 88v330z" />
    <glyph glyph-name="e" unicode="e" horiz-adv-x="933" 
d="M874 276q-44 -152 -137 -229q-95 -78 -231 -78q-107 0 -187 41q-79 40 -133 111q-53 69 -80 159q-26 85 -26 185q0 111 30 207t84 168q53 71 131 112q77 41 173 41q94 0 161 -42q69 -43 112 -111q45 -71 67 -159q21 -84 26 -183h-635q0 -96 27 -171t72 -126
q46 -52 104 -78q60 -27 125 -27q82 0 165 44q82 43 152 136zM694 582q0 58 -11 110q-13 60 -36 105q-25 48 -64 77q-42 31 -100 31q-63 0 -106 -29q-47 -31 -77 -76q-31 -45 -49 -105q-19 -60 -20 -113h463z" />
    <glyph glyph-name="f" unicode="f" horiz-adv-x="645" 
d="M354 860v-674q0 -59 11 -97t24 -55q15 -20 28 -27t19 -7h-317q5 0 19 6q13 6 29 25q15 18 27 55q11 34 11 100v674h-170v101h170v45q0 188 80 298q79 109 221 109q34 0 58 -3q25 -3 34 -7v-182q-24 47 -63 65q-41 19 -72 19q-53 0 -81 -49q-28 -50 -28 -164v-131h244
v-101h-244z" />
    <glyph glyph-name="g" unicode="g" horiz-adv-x="1021" 
d="M948 -84q0 -57 -33 -114q-33 -56 -99 -100q-69 -46 -167 -72q-101 -27 -235 -27q-66 0 -124 11q-67 13 -114 35q-54 25 -83 60q-32 38 -32 86q0 35 19 71q15 28 46 63q27 30 62 53q30 20 66 34q-59 16 -95 52q-34 34 -34 82q0 26 15 55q14 26 40 54q23 24 57 47t66 38
q-91 34 -144 114t-53 177q0 65 25 132q24 64 72 115q48 52 119 81q72 30 167 30q42 0 78 -7q43 -8 78 -19q69 -23 137 -23q45 0 86 10q43 10 80 37v-129q-19 -5 -74 -10q-45 -4 -92 -4q37 -40 55 -97q17 -54 17 -114q0 -63 -25 -125q-24 -59 -70 -104q-48 -46 -115 -71
q-70 -26 -157 -26q-51 0 -88 6q-65 -27 -99 -59q-34 -33 -34 -63q0 -31 41 -51q40 -19 113 -21l246 -6q74 -1 130 -20q53 -18 88 -45q34 -26 49 -63q15 -36 15 -73zM698 635q0 50 -14 95q-16 50 -43 86q-30 39 -73 63q-44 24 -101 24q-54 0 -91 -19q-38 -20 -65 -51t-39 -73
q-12 -40 -12 -84q0 -56 16 -104q16 -49 47 -89q30 -39 73 -61q44 -23 100 -23q50 0 87 21q39 22 63 53q26 33 39 75q13 40 13 87zM813 -127q0 60 -52 85t-167 30q-53 0 -123 2q-50 2 -86 3q-26 1 -41 1q-63 -33 -103 -73q-38 -38 -38 -83q0 -56 66 -94q65 -37 206 -37
q74 0 133 10q63 11 108 31t71 51t26 74z" />
    <glyph glyph-name="h" unicode="h" horiz-adv-x="1069" 
d="M915 178q0 -59 12 -94q14 -39 24 -53q15 -20 28 -25q15 -6 20 -6h-307q4 0 17 5q11 4 24 24t23 52q10 33 10 93v463q0 68 -15 113q-14 42 -40 73q-24 29 -58 41q-36 13 -69 13q-50 0 -98 -21q-49 -22 -88 -56q-40 -35 -64 -84q-25 -50 -25 -104v-438q0 -58 10 -91
q10 -34 24 -52q15 -19 27 -25q14 -6 19 -6h-313q6 0 19 6q11 5 28 25q11 14 25 53q12 35 12 94v940q0 65 -7 101q-7 38 -21 59q-13 21 -34 28q-20 7 -45 7h-18l274 117v-619q23 37 64 72q40 34 85 57q46 24 96 39q46 14 97 14q121 0 193 -78q71 -77 71 -237v-500z" />
    <glyph glyph-name="i" unicode="i" horiz-adv-x="460" 
d="M307 178q0 -62 11 -94q13 -37 26 -53q16 -19 30 -25q15 -6 21 -6h-327q5 0 20 6q14 6 30 25q13 16 26 53q12 35 12 94v543q0 102 -26 133t-71 31h-22l270 114v-821zM322 1270q0 -41 -28 -72t-79 -31q-49 0 -78 31q-28 29 -28 72q0 41 27 71q28 31 79 31t79 -31t28 -71z
" />
    <glyph glyph-name="j" unicode="j" horiz-adv-x="460" 
d="M309 -27q0 -102 -16 -169t-47 -109t-75 -60q-43 -18 -97 -18q-62 0 -107 19q-49 20 -76 42q21 -6 48 -6q52 0 96 13q42 12 68 46q27 35 42 91q15 57 15 149v762q0 92 -27 122t-70 30h-22l268 114v-1026zM315 1270q0 -42 -27 -72q-28 -31 -79 -31q-49 0 -78 31t-29 72
q0 40 28 71t79 31t79 -31q27 -30 27 -71z" />
    <glyph glyph-name="k" unicode="k" horiz-adv-x="1058" 
d="M1038 31q-34 -27 -82 -39q-46 -12 -100 -12q-72 0 -133 40q-58 38 -133 132q-71 85 -137 167q-26 29 -52 63q-27 35 -45 56q-8 9 -20 24t-13 17q-13 16 -16 19v-320q0 -61 10 -94q11 -36 25 -53q17 -20 28 -25q14 -6 19 -6h-315q6 0 19 6q11 5 28 25q11 14 25 53
q12 35 12 94v942q0 65 -7 100q-7 38 -21 57q-14 20 -34 27t-45 7h-16l272 108v-889l289 271q43 41 56 65q16 29 16 43t-8 24t-17 15q-12 7 -20 9q-14 4 -17 4h398q-1 0 -4.5 -1.5t-8.5 -3.5t-11 -4q-20 -6 -53 -22q-35 -16 -81 -48q-44 -30 -107 -85l-278 -250l307 -361
q84 -99 141 -129t99 -30q11 0 30 4z" />
    <glyph glyph-name="l" unicode="l" horiz-adv-x="460" 
d="M307 178q0 -61 10 -94q11 -36 25 -53q17 -20 28 -25q14 -6 19 -6h-315q6 0 19 6q12 6 27 25q10 14 24 53q12 35 12 94v942q0 59 -8 99q-8 38 -20 57q-13 20 -33 28q-18 7 -44 7h-16l272 108v-1241z" />
    <glyph glyph-name="m" unicode="m" horiz-adv-x="1609" 
d="M1456 178q0 -61 10 -94q11 -36 25 -53q17 -20 28 -25q13 -6 19 -6h-309q6 0 18 6t26 25q12 15 23 53q11 36 11 94v443q0 139 -46 197q-47 59 -118 59q-50 0 -99 -22q-46 -21 -82 -57q-37 -37 -58 -83q-21 -47 -21 -101v-436q0 -61 10 -94q11 -38 23 -53q15 -19 27 -25
q13 -6 20 -6h-308q7 0 19 6q10 5 25 25q13 18 24 53q10 33 10 94v443q0 70 -13 118q-14 50 -36 80q-23 31 -52 44q-31 14 -63 14q-47 0 -96 -22q-47 -21 -83 -57q-35 -35 -58 -83t-23 -101v-436q0 -61 10 -94q11 -35 24 -53q14 -19 26 -25t18 -6h-313q6 0 19 6t28 24
q12 14 25 52q12 34 12 94v524q0 60 -6 96q-6 34 -20 56q-13 21 -32 27q-18 6 -43 6h-22l270 114l2 -192q28 47 67 80q40 34 85 58t92 36t90 12q86 0 145 -49q60 -49 76 -137q21 32 61 71q33 32 81 59q47 27 97 41q53 15 105 15q66 0 111 -26q49 -28 78 -72q32 -47 46 -105
q15 -60 15 -131v-481z" />
    <glyph glyph-name="n" unicode="n" horiz-adv-x="1067" 
d="M915 178q0 -58 11 -94q12 -38 24 -53q17 -20 28 -25q14 -6 19 -6h-311q7 0 19 6q11 6 25 24t24 52q10 33 10 94v461q0 126 -51 183t-129 57q-47 0 -99 -22q-48 -20 -89 -57q-40 -35 -64 -84q-25 -50 -25 -102v-438q0 -58 10 -91q11 -35 25 -52q17 -20 28 -25q14 -6 19 -6
h-315q6 0 19 6t28 24q12 14 25 52q12 34 12 94v524q0 60 -6 97q-6 35 -20 56q-14 20 -32 26t-43 6h-22l270 114v-192q22 35 66 73q35 30 88 59q43 24 97 40q46 14 95 14q51 0 98 -16q49 -17 85 -53t59 -98q22 -59 22 -148v-500z" />
    <glyph glyph-name="o" unicode="o" horiz-adv-x="1103" 
d="M1018 498q0 -91 -29 -187q-28 -94 -88 -170q-60 -77 -149 -124q-90 -48 -213 -48q-117 0 -203 44q-83 42 -141 114q-54 68 -82 158q-27 88 -27 178q0 91 29 187q29 94 87 171q58 76 148 124t211 48q119 0 205 -44q85 -43 142 -114q55 -68 83 -160q27 -89 27 -177z
M856 455q0 76 -20 152q-21 79 -62 143t-102 104q-62 41 -146 41q-77 0 -130 -37q-54 -37 -88 -94q-34 -55 -49 -125q-15 -67 -15 -129q0 -79 20 -155q20 -77 62 -142q41 -64 103 -104q64 -41 146 -41q78 0 130 37t87 95q34 56 49 125t15 130z" />
    <glyph glyph-name="p" unicode="p" horiz-adv-x="1056" 
d="M977 512q0 -103 -31 -205q-29 -96 -89 -173q-59 -76 -142 -119q-85 -44 -193 -44q-76 0 -131 22q-53 20 -88 62v-248q0 -59 10 -92q11 -36 25 -53q15 -18 28 -24l8 -4t6.5 -3.5t4.5 -1.5h-309q6 0 18 6q11 5 27 25q12 15 24 53q11 36 11 94v908q0 53 -8 88q-8 34 -19 51
q-13 19 -29 25t-37 6h-18l254 114l2 -184q55 88 135 133t168 45q72 0 137 -29q67 -30 120 -90q53 -61 84 -149q32 -91 32 -213zM813 475q0 91 -18 164q-18 74 -53 127q-35 54 -83 82q-50 29 -110 29q-47 0 -91 -21t-78 -55t-55 -84q-22 -52 -22 -105v-327q0 -104 52 -160
q53 -57 163 -57q74 0 129 34q53 33 92 92q38 59 56 130q18 74 18 151z" />
    <glyph glyph-name="q" unicode="q" horiz-adv-x="1056" 
d="M901 -195q0 -58 10 -91q10 -34 24 -52q13 -18 26 -24l18 -9h-303q6 0 18 6t25 25q11 16 22 53q11 36 11 94v340q-52 -87 -137 -132q-83 -44 -175 -44q-74 0 -141 32q-65 31 -114 92q-47 59 -75 148q-28 90 -28 199q0 104 31 206q30 99 89 176q58 76 141 123q82 46 189 46
q74 0 116 -9q48 -10 70 -20q36 -16 46 -21q18 -9 47 -9q32 0 50 17q17 16 40 42v-1188zM754 719q0 83 -56 130q-55 46 -166 46q-70 0 -125 -35t-92 -93q-37 -57 -55 -132q-18 -73 -18 -152q0 -83 16 -153q17 -73 49 -126q34 -55 80 -85q48 -31 109 -31q48 0 95 24t83 63
q37 40 58 90q22 52 22 104v350z" />
    <glyph glyph-name="r" unicode="r" horiz-adv-x="745" 
d="M694 758q-27 39 -65 64q-40 26 -86 26q-45 0 -90 -28q-41 -25 -77 -79q-32 -47 -54 -120q-21 -69 -21 -156v-285q0 -61 10 -94q11 -36 25 -53q16 -19 28 -26q13 -7 19 -7h-313q5 0 19 6q11 5 28 25q12 14 25 54q12 36 12 95v547q0 46 -7 83q-6 32 -18 48q-12 17 -29 23
q-16 6 -37 6h-20l254 112v-258q15 45 45 90q29 44 71 81q43 38 89 59q48 22 102 22q42 0 90 -22v-213z" />
    <glyph glyph-name="s" unicode="s" horiz-adv-x="757" 
d="M696 250q0 -129 -91 -205t-251 -76q-80 0 -154 23t-118 57v240q45 -122 115 -174t159 -52q31 0 69 8q37 8 65 23q30 17 50 44q19 26 19 69q0 41 -17 69q-21 34 -50 57t-77 49q-12 7 -44.5 24.5t-51.5 27.5q-51 27 -93 54q-36 23 -71 60q-29 31 -46 72q-17 42 -17 93
q0 60 23 112q23 53 64 89q43 38 99 59q54 20 123 20q143 0 242 -65v-209q-88 182 -244 182q-73 0 -125 -39q-53 -39 -53 -104q0 -30 8 -56q8 -24 32 -47q25 -23 64 -48q38 -24 103 -58q32 -17 107 -60q51 -29 85 -62q35 -34 56 -77q20 -41 20 -100z" />
    <glyph glyph-name="t" unicode="t" horiz-adv-x="663" 
d="M633 201q-29 -123 -96 -177q-69 -55 -152 -55q-94 0 -154 69q-59 68 -59 193v629h-127l274 326v-225h281v-101h-281v-586q0 -100 36 -143t89 -43q47 0 99 32q51 32 90 81z" />
    <glyph glyph-name="u" unicode="u" horiz-adv-x="1054" 
d="M752 -37v203q-60 -95 -155 -146t-194 -51q-115 0 -187 75q-73 76 -73 257v467q0 68 -13 104q-14 37 -32 56q-18 18 -37 23q-16 4 -26 10h260v-635q0 -124 51 -182t127 -58q51 0 101 26q54 28 90 65q37 38 62 90q24 50 24 100v417q0 62 -12 96q-13 36 -25 50
q-15 17 -29 21q-11 3 -20 10h235v-715q0 -53 6 -86q6 -32 20 -51q15 -20 32 -25q19 -6 44 -6h21z" />
    <glyph glyph-name="v" unicode="v" horiz-adv-x="1021" 
d="M766 864q0 30 -11 47q-12 18 -27 30q-11 9 -29 15q-15 5 -19 5h336q-2 0 -20 -7q-19 -8 -37 -23q-26 -22 -46 -50q-26 -35 -47 -88l-360 -861l-365 877q-21 50 -43 79t-41 45t-32 21q-17 7 -19 7h359q-3 0 -16 -5q-9 -4 -23 -12q-13 -8 -22 -23t-9 -40q0 -34 20 -78
l222 -547l206 522q23 57 23 86z" />
    <glyph glyph-name="w" unicode="w" horiz-adv-x="1492" 
d="M1239 866q0 30 -10 47q-11 19 -24 29q-12 9 -26 14q-15 5 -20 5h326q-2 0 -21 -7t-38 -22q-23 -18 -45 -50q-23 -33 -44 -89l-323 -861l-264 701l-275 -701l-332 877q-17 47 -40 78q-20 27 -41 45q-20 17 -33 21q-6 2 -12.5 5t-8.5 3h340q-2 0 -15 -5q-12 -5 -22 -13
q-11 -10 -18 -23q-8 -16 -8 -39q0 -29 18 -78l207 -553l190 514q-2 3 -8 23q-1 3 -2.5 8t-3 9t-2.5 7q-18 49 -39 78q-22 30 -39 44q-17 15 -32 21q-16 7 -17 7h336q-4 0 -17 -5q-10 -4 -23 -12q-11 -7 -19 -24q-9 -20 -9 -41q0 -28 19 -76l194 -547l181 522q10 28 15 50
q5 23 5 38z" />
    <glyph glyph-name="x" unicode="x" horiz-adv-x="993" 
d="M809 162q43 -59 64 -83q19 -22 48 -49q20 -19 31 -24q12 -6 17 -6h-320q4 0 18 8q13 7 13 37q0 21 -11 46q-14 31 -40 71l-148 215l-143 -199q-34 -49 -48 -80t-14 -51q0 -29 15 -37l20 -10h-284q1 0 18 5q12 4 39 24t59 55q38 42 80 100l199 279l-215 311q-34 51 -73 95
q-33 38 -54 56q-19 17 -36 26q-4 2 -7.5 4.5t-6 4t-3.5 1.5h329l-22 -12q-17 -9 -17 -38q0 -18 12 -45q13 -28 38 -65l145 -211l150 207q30 42 44 72q11 25 11 46q0 27 -17 35l-20 11h285q-3 0 -20 -7t-39 -22t-56 -49t-72 -88l-207 -291z" />
    <glyph glyph-name="y" unicode="y" horiz-adv-x="993" 
d="M989 961l-18 -10q-18 -9 -33 -24q-22 -22 -41 -50q-21 -31 -43 -84l-266 -678q-78 -197 -170 -335q-91 -136 -201 -177l-184 166q23 -11 49 -15q24 -4 49 -4q43 0 81 12q37 12 75 44q35 29 74 89q40 61 81 144l-297 762q-22 52 -43 81q-20 27 -42 47q-18 17 -34 23
q-4 2 -9 4t-8 3.5t-5 1.5h350q-11 -4 -33 -23t-22 -61q0 -25 7 -47q6 -19 18 -50l202 -536l199 510q29 73 29 116q0 22 -9 44q-7 18 -19 28q-9 8 -23 14q-13 5 -17 5h303z" />
    <glyph glyph-name="z" unicode="z" horiz-adv-x="874" 
d="M68 0l536 877h-328q-79 0 -124 -39t-56 -103v226h727l-528 -867h379q66 0 110 36t54 99v-229h-770z" />
    <glyph glyph-name="braceleft" unicode="{" horiz-adv-x="757" 
d="M680 -387q-102 2 -172 13q-75 12 -121 39q-47 27 -71 79q-23 49 -23 137v320q0 104 -14 160q-15 61 -45 95q-29 33 -73 47q-40 13 -102 19q54 7 102 22q43 13 73 46t45 92q14 56 14 160v319q0 88 23 137q24 51 71 80q46 28 121 39q74 11 172 15q-65 -10 -112 -27
q-44 -16 -74 -44q-28 -26 -42 -69q-14 -42 -14 -100v-279q0 -124 -20 -195q-22 -77 -54 -118q-34 -42 -76 -59q-45 -18 -83 -19q43 -5 83 -19q41 -15 76 -59q33 -42 54 -118q20 -73 20 -197v-279q0 -118 57 -168q59 -51 185 -69z" />
    <glyph glyph-name="bar" unicode="|" horiz-adv-x="458" 
d="M170 -451v2048h119v-2048h-119z" />
    <glyph glyph-name="braceright" unicode="}" horiz-adv-x="757" 
d="M664 522q-62 -6 -103 -19q-44 -14 -73 -47q-28 -33 -44 -95q-14 -56 -14 -160v-320q0 -88 -23 -137q-24 -52 -71 -79q-46 -27 -121 -39q-70 -11 -172 -13q126 18 185 69q57 50 57 168v279q0 121 21 197q20 74 55 118t76 59q40 14 83 19q-38 1 -83 19q-42 17 -76 59
q-34 43 -55 118t-21 195v279q0 58 -14 100q-14 43 -42 69q-30 28 -74 44q-47 17 -112 27q98 -4 172 -15q75 -11 121 -39q47 -29 71 -80q23 -49 23 -137v-319q0 -104 14 -160q15 -60 44 -92q30 -33 73 -46q49 -15 103 -22z" />
    <glyph glyph-name="asciitilde" unicode="~" horiz-adv-x="1357" 
d="M1182 764q6 -147 -56 -220t-170 -73q-79 0 -152 29q-74 29 -140 63q-73 37 -132 64q-62 28 -124 28q-56 0 -86 -43q-31 -45 -31 -131h-111q-2 73 16 126q18 55 50 91q34 38 78 56q45 18 98 18q75 0 145 -29q77 -32 138 -63q81 -41 131 -64q62 -28 127 -28q60 0 85 52
q25 51 25 124h109z" />
    <glyph glyph-name="uni00A0" unicode="&#xa0;" horiz-adv-x="595" 
 />
    <glyph glyph-name="exclamdown" unicode="&#xa1;" horiz-adv-x="577" 
d="M371 -109q2 -85 12 -134q12 -55 21 -76q13 -28 22 -35q3 -2 6 -4.5t5 -4.5t3 -2h-301q2 0 13 8q9 6 21 32q11 23 22 77q9 45 14 139l16 547q1 37 11 90q8 44 19 74q18 48 20 54q9 22 14 28q2 -8 12 -28q9 -17 22 -54q9 -25 20 -74q10 -43 11 -90zM401 915q0 -44 -29 -74
q-30 -32 -83 -32q-54 0 -81 32q-28 33 -28 74q0 42 28 75q27 32 81 32q53 0 83 -32q29 -30 29 -75z" />
    <glyph glyph-name="cent" unicode="&#xa2;" 
d="M883 485q-34 -139 -112 -217q-76 -76 -175 -94v-188h-104v182q-92 7 -165 49q-69 39 -117 105q-46 62 -70 144q-23 78 -23 169q0 111 27 204q27 92 77 165q48 70 118 117q68 46 153 61v200h104v-196q55 -5 101 -25q48 -21 85 -55q38 -34 60 -84t24 -111l-161 -69
q8 26 8 63q0 87 -57 133q-58 47 -130 47q-60 0 -110 -27q-47 -26 -83 -79q-33 -49 -52 -121q-19 -73 -19 -153q0 -81 21 -158t59 -134q40 -61 97 -94q58 -34 136 -34q83 0 160 49q80 51 148 151z" />
    <glyph glyph-name="sterling" unicode="&#xa3;" 
d="M1008 51q-79 -82 -258 -82q-68 0 -128 11q-65 12 -105 22q-73 18 -94 23q-44 10 -99 10q-58 0 -111 -13q-57 -14 -96 -40l-51 124q75 6 122 44q48 39 74 104q27 67 36 164q9 96 9 219h-155v100h157q1 115 15 250q12 120 52 210q41 92 116 145q78 55 204 55q68 0 132 -18
q65 -18 104 -48l-88 -170q-11 53 -51 95t-119 42q-74 0 -114 -43t-58 -118q-19 -79 -23 -179q-4 -91 -4 -221h232v-100h-232q0 -86 -7 -160q-8 -82 -25 -148q-19 -73 -50 -122q-33 -53 -84 -80q9 2 26.5 4.5l24.5 3.5q24 4 50 4q42 0 76 -6q42 -7 67 -13q48 -11 65 -14
q33 -6 76 -6q88 0 150 25q59 24 100 84z" />
    <glyph glyph-name="currency" unicode="&#xa4;" horiz-adv-x="1093" 
d="M821 336l-129 127q-59 -43 -147 -43q-46 0 -80 11q-40 13 -66 32l-127 -127l-71 72l129 124q-43 67 -43 150q0 40 9 78q8 35 32 71l-127 125l71 70l127 -125q59 43 146 43q47 0 84 -12q36 -11 65 -33l121 121l70 -70l-121 -123q41 -64 41 -145q0 -41 -10 -77
q-10 -37 -33 -70l129 -129zM711 682q0 67 -41 123q-40 55 -125 55q-84 0 -124 -55t-40 -123q0 -37 10 -67q11 -33 31 -57q22 -26 51 -41q30 -15 72 -15q41 0 72 15q32 15 53 41q18 22 30 57q11 33 11 67z" />
    <glyph glyph-name="yen" unicode="&#xa5;" horiz-adv-x="1069" 
d="M793 1286q0 47 -20 62q-19 14 -30 16h295q-5 0 -20 -7t-39 -29t-51 -61q-31 -44 -58 -108l-120 -278h243v-86h-280l-88 -203h368v-88h-379v-295q0 -69 14 -111q15 -44 29 -62q17 -22 33 -29q15 -7 23 -7h-359q6 0 23 6q15 5 34 28q14 17 31 62q15 40 15 113v295h-391v88
h378l-90 203h-288v86h251l-127 282q-29 64 -56 103q-26 38 -50 60t-39 29q-17 8 -22 9h346q-6 -2 -25 -14q-18 -12 -18 -58q0 -25 7 -53q10 -39 27 -76l203 -461l189 441q41 97 41 143z" />
    <glyph glyph-name="brokenbar" unicode="&#xa6;" horiz-adv-x="458" 
d="M168 666v716h121v-716h-121zM168 -358v716h121v-716h-121z" />
    <glyph glyph-name="section" unicode="&#xa7;" horiz-adv-x="1196" 
d="M1036 518q0 -100 -52 -165q-53 -66 -157 -111q72 -43 115 -100q43 -56 43 -140q0 -77 -33 -140q-34 -65 -89 -107q-57 -43 -131 -67q-75 -24 -161 -24q-148 0 -249 52q-104 54 -160 124l15 20q17 23 31 39q4 5 32 41l12 16l6 9q39 -53 84 -90q41 -35 92 -59
q48 -23 93 -32q47 -9 87 -9q44 0 83 13q40 13 71 38t49 59q19 36 19 80q0 64 -50 109q-50 46 -123 82q-63 31 -162 69q-87 33 -162 75q-74 41 -124 96q-49 53 -49 134q0 99 61 167q62 70 166 110q-101 55 -142 114q-40 58 -40 130q0 77 35 139q33 59 95 104q60 43 140 66
q78 22 170 22q104 0 187 -29q86 -30 135 -87q0 -4 -12 -22q-5 -7 -15.5 -21.5t-12.5 -17.5q-20 -28 -30 -41q-14 -19 -16 -25q-51 64 -130 101q-77 36 -151 36q-51 0 -94 -13q-44 -13 -79 -36q-31 -20 -54 -55q-21 -32 -21 -70q0 -66 51 -114q47 -44 126 -83q68 -33 162 -69
q88 -33 163 -76q76 -43 126 -101t50 -141zM893 489q0 48 -43 88q-40 37 -105 72q-69 37 -129 61q-50 20 -116 52q-97 -34 -145 -80q-46 -45 -46 -109q0 -53 46 -93q42 -37 111 -72q73 -37 136 -61q72 -27 123 -54q66 27 117 72t51 124z" />
    <glyph glyph-name="dieresis" unicode="&#xa8;" horiz-adv-x="913" 
d="M735 1270q0 -40 -25 -66t-67 -26q-44 0 -70 26t-26 66q0 39 26 64q28 26 70 26q44 0 68 -26t24 -64zM379 1270q0 -38 -26 -66q-25 -26 -68 -26q-44 0 -69 26q-26 28 -26 66t26 64t69 26q42 0 68 -26t26 -64z" />
    <glyph glyph-name="copyright" unicode="&#xa9;" horiz-adv-x="1544" 
d="M1468 682q0 -178 -59 -308q-60 -133 -158 -220q-99 -89 -223 -132q-129 -45 -256 -45t-257 45q-124 43 -224 132q-98 87 -158 220q-59 130 -59 308t59 308q60 133 158 220q100 89 224 132q127 44 257 44t256 -44q124 -43 223 -132q98 -87 158 -220q59 -130 59 -308z
M1384 682q0 161 -52 280q-51 117 -138 198q-83 78 -197 119q-110 40 -225 40t-225 -40q-111 -41 -198 -120q-88 -80 -140 -198q-53 -120 -53 -277q0 -159 53 -280q52 -118 140 -199q87 -79 198 -120q110 -40 225 -40q116 0 224 40q111 41 196 120q87 81 139 198
q53 120 53 279zM1057 340q-40 -54 -115 -91q-78 -38 -160 -38q-104 0 -182 39t-129 102q-52 64 -77 146q-25 81 -25 168q0 90 27 177q26 84 82 154q55 68 135 110q81 42 188 42q73 0 133 -21q62 -22 106 -53v-241q-41 125 -103 177t-140 52q-70 0 -128 -29t-95 -78t-58 -117
q-20 -66 -20 -149q0 -78 21 -147q21 -68 63 -121q41 -51 97 -81q57 -30 128 -30q76 0 137 35q57 33 115 105v-111z" />
    <glyph glyph-name="ordfeminine" unicode="&#xaa;" horiz-adv-x="745" 
d="M612 653q-44 7 -75 38t-41 65q-31 -48 -93 -72q-64 -25 -127 -25q-82 0 -140 43t-58 123q0 76 90 148q89 71 311 121v73q0 85 -37 122q-38 38 -100 38q-73 0 -110 -31q-35 -29 -35 -67q0 -51 45 -66l-131 -51q-12 26 -15 37q-6 21 -6 47q0 37 18 73t52 64q33 28 87 46
q53 18 122 18q117 0 170 -59t53 -150v-316q0 -55 25 -95t85 -40q4 0 33 6zM479 1028q-153 -35 -220 -80q-66 -45 -66 -104q0 -53 33 -80q35 -29 85 -29q35 0 62 11q31 12 54 31q22 18 38 45q14 24 14 57v149z" />
    <glyph glyph-name="guillemotleft" unicode="&#xab;" horiz-adv-x="851" 
d="M662 147l-256 369l256 369h129l-254 -369l256 -369h-131zM319 147l-253 369l256 369h129l-256 -369l256 -369h-132z" />
    <glyph glyph-name="logicalnot" unicode="&#xac;" horiz-adv-x="1359" 
d="M1124 285v438h-1001v108h1114v-546h-113z" />
    <glyph glyph-name="uni00AD" unicode="&#xad;" horiz-adv-x="737" 
d="M115 451v127h508v-127h-508z" />
    <glyph glyph-name="registered" unicode="&#xae;" horiz-adv-x="1542" 
d="M1468 682q0 -178 -59 -308q-60 -132 -157 -220q-98 -88 -222 -132q-129 -45 -256 -45t-257 45q-124 43 -224 132q-99 89 -159 220q-60 132 -60 308t60 308q60 131 159 220q100 89 224 132q127 44 257 44t256 -44q124 -44 222 -132q97 -88 157 -220q59 -130 59 -308z
M1384 682q0 161 -52 280q-51 117 -138 198q-83 78 -197 119q-110 40 -225 40t-225 -40q-111 -41 -198 -120q-88 -80 -140 -198q-53 -120 -53 -277q0 -159 53 -280q52 -118 140 -199q87 -79 198 -120q110 -40 225 -40q116 0 224 40q111 41 196 120q87 81 139 198
q53 120 53 279zM961 244l-132 248q-39 74 -68 101q-26 25 -69 25h-43v-235q0 -34 5 -61q4 -19 14 -40q9 -18 15 -24q2 -2 11 -14h-194q9 12 11 14q4 4 14 24q9 18 13 40q5 27 5 61v618q0 37 -6 63q-5 21 -15 41q-7 14 -16 23l-12 13h294q63 0 115 -22q49 -21 81 -56
q31 -34 48 -80t17 -92q0 -47 -15 -90t-42 -78t-68 -56q-43 -23 -95 -24q22 -7 50 -37q25 -27 61 -92l88 -162q26 -48 51 -73q25 -24 41 -35h-159zM944 881q0 34 -10 64q-10 31 -32 56q-21 24 -53 39q-31 15 -75 15h-127v-353h131q79 0 123 55q43 53 43 124z" />
    <glyph glyph-name="macron" unicode="&#xaf;" horiz-adv-x="913" 
d="M141 1206v86h629v-86h-629z" />
    <glyph glyph-name="degree" unicode="&#xb0;" horiz-adv-x="839" 
d="M694 1135q0 -56 -18 -104t-53 -83q-34 -34 -84 -55q-49 -21 -109 -21q-58 0 -108 21t-84 55q-36 36 -55 83t-19 104q0 56 19 103t55 83q34 34 84 55q49 21 108 21q60 0 109 -21q50 -21 84 -55q35 -35 53 -83t18 -103zM602 1135q0 78 -47 128t-125 50t-125 -50t-47 -128
q0 -77 47 -129t123 -52q77 0 126 52q48 51 48 129z" />
    <glyph glyph-name="plusminus" unicode="&#xb1;" horiz-adv-x="1357" 
d="M737 696v-438h-112v438h-496v111h496v426h112v-426h492v-111h-492zM129 0v109h1100v-109h-1100z" />
    <glyph glyph-name="uni00B2" unicode="&#xb2;" horiz-adv-x="710" 
d="M510 694q35 0 62 8q23 7 42 19q17 11 24 19q7 9 9 14l-29 -158h-561l187 203q104 110 163 196q58 85 58 164q0 78 -45 120t-105 42q-53 0 -88 -30q-34 -30 -34 -70q0 -29 17 -49q19 -22 44 -29l-90 -88q-37 13 -60 46q-24 35 -24 81q0 40 16 78q17 40 50 70q35 32 85 51
q52 20 119 20q47 0 92 -15q47 -16 81 -41q37 -28 58 -70t21 -99q0 -51 -20 -95q-21 -47 -57 -96q-34 -46 -83 -102q-46 -52 -100 -109l-78 -80h246z" />
    <glyph glyph-name="uni00B3" unicode="&#xb3;" horiz-adv-x="710" 
d="M627 791q0 -49 -23 -90q-22 -40 -61 -67q-42 -29 -90 -43q-54 -16 -109 -16q-104 0 -175 39q-70 39 -93 107l127 82q5 -66 47 -106q43 -40 108 -40q62 0 100 32t38 85q0 78 -78 125q-80 48 -197 49l21 80q17 -5 30 -6q20 -2 31 -2q79 0 125 48q47 49 47 110q0 52 -40 96
q-40 45 -107 45q-56 0 -90 -25q-33 -24 -33 -59q0 -14 8 -30q8 -15 23 -23l-119 -56q-29 35 -29 84q0 36 18 71q16 31 55 60q36 27 85 42q53 16 110 16q116 0 183 -58q65 -56 65 -139q0 -70 -50 -131q-49 -60 -128 -78q94 -23 147 -78q54 -57 54 -124z" />
    <glyph glyph-name="acute" unicode="&#xb4;" horiz-adv-x="913" 
d="M379 1057l137 307h219z" />
    <glyph glyph-name="mu" unicode="&#xb5;" horiz-adv-x="1046" 
d="M743 -37v197q-62 -104 -140 -148q-76 -43 -154 -43q-45 0 -90 16q-41 15 -72 50v-406h-148v1137q0 70 -14 105q-16 40 -33 57q-18 18 -37 23q-16 4 -26 10h258v-635q0 -240 184 -240q48 0 100 25q50 24 87 64q39 43 61 90q22 48 22 100v419q0 64 -11 96q-13 36 -25 50
q-15 17 -29 21q-13 4 -21 10h236v-715q0 -52 6 -87q6 -36 19 -53q14 -18 33 -24t44 -6h21z" />
    <glyph glyph-name="paragraph" unicode="&#xb6;" horiz-adv-x="1280" 
d="M1067 1366q-6 -42 -12 -98q-3 -34 -7 -104q-4 -78 -4 -120v-1413h-104v1643h-184v-1643h-103v707q-134 0 -233 43q-102 44 -170 115q-72 75 -105 163q-34 90 -34 191q0 100 34 190q34 91 105 165t176 117q108 44 250 44h391z" />
    <glyph glyph-name="periodcentered" unicode="&#xb7;" horiz-adv-x="481" 
d="M362 494q0 -48 -31 -82q-32 -35 -89 -35q-60 0 -90 35q-31 36 -31 82t31 83q29 35 90 35q58 0 89 -35t31 -83z" />
    <glyph glyph-name="cedilla" unicode="&#xb8;" horiz-adv-x="913" 
d="M655 -219q0 -56 -49 -102t-147 -46q-41 0 -81 12q-43 13 -69 29q11 -3 35 -5q12 -1 33 -1q71 0 112 36t41 79q0 39 -37 67q-39 30 -110 31l78 137h90l-57 -96q83 -10 122 -52t39 -89z" />
    <glyph glyph-name="uni00B9" unicode="&#xb9;" horiz-adv-x="544" 
d="M152 596q2 1 17 9q13 7 27 27q11 16 24 56q11 34 11 100v402q-67 -75 -84 -94q-45 -51 -75 -84v114q36 37 125 141q7 8 108 130h49v-609q0 -62 12 -100q13 -40 25 -56q15 -20 28 -27q15 -8 17 -9h-284z" />
    <glyph glyph-name="ordmasculine" unicode="&#xba;" horiz-adv-x="825" 
d="M750 1040q0 -66 -22 -138q-21 -70 -64 -123t-108 -88q-64 -34 -150 -34q-80 0 -144 31q-58 28 -101 81q-39 47 -61 114q-20 60 -20 131q0 69 21 138t65 122t107 87q64 34 149 34q79 0 143 -31q62 -30 103 -80q39 -48 61 -113q21 -63 21 -131zM629 1010q0 50 -15 106
q-16 59 -44 101q-30 45 -73 73q-44 29 -102 29q-53 0 -91 -27q-37 -27 -61 -67q-23 -39 -34 -88q-10 -44 -10 -88q0 -57 14 -109q15 -56 44 -101q30 -47 73 -75q44 -29 102 -29q52 0 91 28q38 27 62 68q21 36 33 90q11 50 11 89z" />
    <glyph glyph-name="guillemotright" unicode="&#xbb;" horiz-adv-x="851" 
d="M530 147h-131l254 369l-254 369h129l256 -369zM188 147h-129l256 369l-256 369h129l256 -369z" />
    <glyph glyph-name="onequarter" unicode="&#xbc;" horiz-adv-x="1658" 
d="M1335 188v-67q0 -39 6 -63q5 -21 14 -35q10 -15 14 -18q8 -5 11 -5h-219q5 0 13 5q7 4 15 19q7 13 13 36q6 24 6 63v65h-374l501 643v-561h115v-82h-115zM461 0h-119l795 1395h114zM1208 557l-223 -287h223v287zM233 596q5 2 18 9t27 27q11 16 24 56q11 34 11 100v402
q-67 -75 -84 -94q-45 -51 -75 -84v114q36 37 125 141q7 8 108 130h49v-609q0 -66 11 -100q12 -38 26 -56q15 -20 28 -27q15 -8 17 -9h-285z" />
    <glyph glyph-name="onehalf" unicode="&#xbd;" horiz-adv-x="1619" 
d="M1382 98q36 0 63 8q23 7 42 19q15 10 23 19q9 11 10 14l-29 -158h-561l186 203q104 110 163 196q58 85 58 164q0 78 -45 120t-104 42q-54 0 -88 -30q-35 -30 -35 -70q0 -28 17 -48q20 -23 44 -30l-90 -88q-36 12 -59 46q-25 36 -25 81q0 38 17 78t50 70q35 32 85 51
q52 20 119 20q50 0 92 -14q45 -15 81 -42q35 -26 57 -70t22 -99q0 -48 -21 -95q-23 -50 -56 -96q-34 -46 -83 -102q-31 -35 -101 -109l-77 -80h245zM410 0h-119l794 1395h115zM233 596q5 2 18 9t27 27q11 16 24 56q11 34 11 100v402q-67 -75 -84 -94q-45 -51 -75 -84v114
q36 37 125 141q7 8 108 130h49v-609q0 -66 11 -100q12 -38 26 -56q15 -20 28 -27q15 -8 17 -9h-285z" />
    <glyph glyph-name="threequarters" unicode="&#xbe;" horiz-adv-x="1730" 
d="M1407 188v-67q0 -39 6 -63t13 -35q9 -14 15 -18q8 -5 11 -5h-219q4 0 12 5t16 19q7 13 13 36q6 24 6 63v65h-375l502 643v-561h115v-82h-115zM657 791q0 -50 -22 -90q-22 -39 -62 -67q-42 -29 -90 -43q-54 -16 -108 -16q-105 0 -175 39q-72 40 -94 107l127 82
q4 -65 48 -106q43 -40 108 -40q61 0 99 32t38 85q0 79 -77 125q-80 48 -197 49l20 80q17 -5 31 -6q20 -2 31 -2q78 0 125 48q47 49 47 110q0 52 -40 96q-40 45 -108 45q-56 0 -90 -25q-32 -23 -32 -59q0 -14 8 -30t22 -23l-119 -56q-28 34 -28 84q0 36 18 71q17 32 54 60
q36 27 85 42q53 16 111 16q115 0 182 -58q66 -57 66 -139q0 -70 -50 -131q-49 -60 -128 -78q95 -23 147 -78q53 -56 53 -124zM532 0h-118l794 1395h115zM1280 557l-223 -287h223v287z" />
    <glyph glyph-name="questiondown" unicode="&#xbf;" horiz-adv-x="933" 
d="M610 940q0 -44 -28 -75t-82 -31t-82 31q-29 32 -29 75t29 75t82 32t82 -32q28 -31 28 -75zM745 -287q-59 -38 -149 -62q-88 -24 -180 -24q-72 0 -135 18q-67 19 -111 52q-49 36 -75 90q-27 55 -27 131q0 72 30 132q29 58 76 113q43 51 98 99q56 50 99 94q43 45 75 97
q31 51 31 106q0 67 -55 107q16 16 43 16q52 0 98 -44q45 -44 45 -110q0 -62 -27 -115q-25 -48 -69 -99q-35 -40 -88 -88q-52 -47 -88 -87q-44 -48 -69 -95q-27 -50 -27 -110q0 -98 61 -150t145 -52q85 0 170 53q83 52 129 168v-240z" />
    <glyph glyph-name="Agrave" unicode="&#xc0;" horiz-adv-x="1417" 
d="M1188 236q30 -77 60 -124t56 -71q29 -27 43 -33q19 -8 23 -8h-375q5 0 15 3q6 2 21 11q12 8 20 25q8 18 8 45q0 22 -9 51q-9 27 -26 70l-84 217h-526l-82 -209q-16 -40 -23 -65q-8 -29 -8 -50q0 -31 10 -50q11 -20 24 -30q11 -9 25 -14q11 -4 19 -4h-334q6 0 20 7t38 31
q23 23 54 71q29 44 64 129l486 1183zM676 1085l-223 -561h446zM446 1739h220l139 -301z" />
    <glyph glyph-name="Aacute" unicode="&#xc1;" horiz-adv-x="1417" 
d="M1188 236q30 -77 60 -124t56 -71q29 -27 43 -33q19 -8 23 -8h-375q5 0 15 3q6 2 21 11q12 8 20 25q8 18 8 45q0 22 -9 51q-9 27 -26 70l-84 217h-526l-82 -209q-16 -40 -23 -65q-8 -29 -8 -50q0 -31 10 -50q11 -20 24 -30q11 -9 25 -14q11 -4 19 -4h-334q6 0 20 7t38 31
q23 23 54 71q29 44 64 129l486 1183zM676 1085l-223 -561h446zM633 1438l137 301h219z" />
    <glyph glyph-name="Acircumflex" unicode="&#xc2;" horiz-adv-x="1417" 
d="M1188 236q30 -77 60 -124t56 -71q29 -27 43 -33q19 -8 23 -8h-375q5 0 15 3q6 2 21 11q12 8 20 25q8 18 8 45q0 22 -9 51q-9 27 -26 70l-84 217h-526l-82 -209q-16 -40 -23 -65q-8 -29 -8 -50q0 -31 10 -50q11 -20 24 -30q11 -9 25 -14q11 -4 19 -4h-334q6 0 20 7t38 31
q23 23 54 71q29 44 64 129l486 1183zM676 1085l-223 -561h446zM979 1425q-69 41 -138 75q-85 43 -139 73q-63 -37 -133 -73q-65 -33 -133 -75q71 92 133 165t133 165z" />
    <glyph glyph-name="Atilde" unicode="&#xc3;" horiz-adv-x="1417" 
d="M1188 236q30 -77 60 -124t56 -71q29 -27 43 -33q19 -8 23 -8h-375q5 0 15 3q6 2 21 11q12 8 20 25q8 18 8 45q0 22 -9 51q-9 27 -26 70l-84 217h-526l-82 -209q-16 -40 -23 -65q-8 -29 -8 -50q0 -31 10 -50q11 -20 24 -30q11 -9 25 -14q11 -4 19 -4h-334q6 0 20 7t38 31
q23 23 54 71q29 44 64 129l486 1183zM676 1085l-223 -561h446zM987 1671q0 -33 -10 -66q-11 -36 -31 -62q-23 -30 -50 -46q-30 -18 -69 -18q-34 0 -70 18q-35 17 -71 41q-38 25 -69 41q-34 18 -62 18q-49 -1 -77 -46q-27 -44 -32 -97q-18 24 -18 62q0 32 9 65t30 60
q23 30 49 46q27 17 70 17q34 0 72 -18q33 -16 75 -41q31 -19 72 -40q35 -18 61 -18q52 0 76 46q25 48 29 98q16 -26 16 -60z" />
    <glyph glyph-name="Adieresis" unicode="&#xc4;" horiz-adv-x="1417" 
d="M1188 236q30 -77 60 -124t56 -71q29 -27 43 -33q19 -8 23 -8h-375q5 0 15 3q6 2 21 11q12 8 20 25q8 18 8 45q0 22 -9 51q-9 27 -26 70l-84 217h-526l-82 -209q-16 -40 -23 -65q-8 -29 -8 -50q0 -31 10 -50q11 -20 24 -30q11 -9 25 -14q11 -4 19 -4h-334q6 0 20 7t38 31
q23 23 54 71q29 44 64 129l486 1183zM676 1085l-223 -561h446zM981 1593q0 -37 -26 -65q-25 -27 -68 -27t-69 27q-25 26 -25 65q0 40 25 65t69 25q43 0 68 -25q26 -26 26 -65zM623 1593q0 -37 -26 -65q-25 -27 -69 -27q-40 0 -67 27t-27 65q0 39 27 65q26 25 67 25
q44 0 69 -25q26 -26 26 -65z" />
    <glyph glyph-name="Aring" unicode="&#xc5;" horiz-adv-x="1417" 
d="M1188 236q30 -77 60 -124t56 -71q29 -27 43 -33q19 -8 23 -8h-375q5 0 15 3q6 2 21 11q12 8 20 25q8 18 8 45q0 22 -9 51q-9 27 -26 70l-84 217h-526l-82 -209q-16 -40 -23 -65q-8 -29 -8 -50q0 -31 10 -50q11 -20 24 -30q11 -9 25 -14q11 -4 19 -4h-334q6 0 20 7t38 31
q23 23 54 71q29 44 64 129l486 1183zM676 1085l-223 -561h446zM893 1655q0 -77 -49 -129q-50 -53 -135 -53q-86 0 -136 53q-49 52 -49 129t49 130q49 54 136 54q85 0 135 -53q49 -53 49 -131zM819 1655q0 48 -28 82q-29 35 -82 35q-54 0 -84 -35q-31 -36 -31 -82t31 -82
q30 -35 84 -35q51 0 81 35q29 33 29 82z" />
    <glyph glyph-name="AE" unicode="&#xc6;" horiz-adv-x="1945" 
d="M958 0q4 1 26 10q16 7 35 35q17 26 31 76q13 48 13 131v393h-399l-240 -375q-50 -84 -66 -128q-18 -50 -18 -79q0 -37 15 -49t24 -14h-375q2 0 5.5 1.5t9.5 4t12 4.5q15 6 54 34q31 23 81 76q43 46 106 134l580 893q57 86 74 130q16 42 16 62q0 14 -4 18q-7 7 -8 7h860
v-268q-6 16 -15 45q-9 28 -33 55q-23 26 -65 46t-108 20h-340v-514h284q51 0 80 10q33 12 47 23q17 14 23 26q7 14 8 18v-258q0 4 -5 17q-4 10 -21 26q-15 14 -47 25q-29 10 -80 10h-289v-543h354q59 0 109 10q43 9 78 30q34 21 59 60q27 42 49 93l-47 -295h-873zM725 748
h338v530z" />
    <glyph glyph-name="Ccedilla" unicode="&#xc7;" horiz-adv-x="1288" 
d="M940 -219q0 -56 -49 -102t-148 -46q-39 0 -80 12q-43 13 -69 29q11 -3 35 -5q12 -1 33 -1q72 0 112 36q41 36 41 79q0 38 -38 67q-39 30 -109 31l51 90q-159 11 -274 72t-192 156q-78 97 -115 213q-38 120 -38 243q0 137 45 271q44 132 137 238t226 170q136 65 315 65
q109 0 205 -26q98 -26 162 -62v-297q-50 136 -149 205t-257 69q-124 0 -219 -51q-93 -50 -157 -134q-65 -85 -96 -190t-31 -217q0 -118 32 -223q33 -109 99 -194q69 -89 163 -139q98 -52 230 -52q115 0 224 57q110 57 194 156v-133q-73 -85 -179 -138t-237 -59l-29 -49
q85 -11 123 -52q39 -42 39 -89z" />
    <glyph glyph-name="Egrave" unicode="&#xc8;" horiz-adv-x="1067" 
d="M963 0h-852q6 0 21 6t33 27t30 58t12 104v976q0 66 -13 102q-13 37 -32 57q-18 20 -36 27q-17 7 -24 7h820v-219q0 2 -2 6t-4.5 10.5t-4.5 12.5q-7 19 -30 39t-64 35q-43 16 -110 16h-334v-516h278q51 0 79 11q33 13 46 25q18 17 22 28q2 5 4 11t3 8v-268q0 3 -5 18
q-4 11 -22 28q-17 15 -46 27q-28 11 -79 11h-280v-545h344q54 0 105 7q46 6 77 22t55 44q22 26 45 71zM334 1739h219l139 -301z" />
    <glyph glyph-name="Eacute" unicode="&#xc9;" horiz-adv-x="1067" 
d="M963 0h-852q6 0 21 6t33 27t30 58t12 104v976q0 66 -13 102q-13 37 -32 57q-18 20 -36 27q-17 7 -24 7h820v-221l-10 28q-7 20 -28 41q-20 20 -64 36q-45 16 -113 16h-334v-516h278q51 0 79 11q33 13 46 25q18 17 22 28q2 5 4 11t3 8v-270q-1 20 -21 43q-16 16 -47 30
q-29 13 -84 13h-280v-545h344q54 0 105 7q46 6 77 22t55 44q22 26 45 71zM438 1438l137 301h220z" />
    <glyph glyph-name="Ecircumflex" unicode="&#xca;" horiz-adv-x="1067" 
d="M963 0h-852q6 0 21 6t33 27t30 58t12 104v976q0 66 -13 102q-13 37 -32 57q-18 20 -36 27q-17 7 -24 7h820v-219q0 2 -2 6t-4.5 10.5t-4.5 12.5q-7 19 -30 39t-64 35q-43 16 -110 16h-334v-516h278q51 0 79 11q33 13 46 25q18 17 22 28q2 5 4 11t3 8v-268q0 3 -5 18
q-4 11 -22 28q-17 15 -46 27q-28 11 -79 11h-280v-545h344q54 0 105 7q46 6 77 22t55 44q22 26 45 71zM805 1425q-69 41 -138 75q-85 43 -139 73q-63 -37 -133 -73q-65 -33 -133 -75q71 92 133 165t133 165z" />
    <glyph glyph-name="Edieresis" unicode="&#xcb;" horiz-adv-x="1067" 
d="M963 0h-852q6 0 21 6t33 27t30 58t12 104v976q0 66 -13 102q-13 37 -32 57q-18 20 -36 27q-17 7 -24 7h820v-221l-10 28q-7 20 -28 41q-20 20 -64 36q-45 16 -113 16h-334v-516h278q51 0 79 11q33 13 46 25q18 17 22 28q2 5 4 11t3 8v-270q-1 20 -21 43q-16 16 -47 30
q-29 13 -84 13h-280v-545h344q54 0 105 7q46 6 77 22t55 44q22 26 45 71zM807 1593q0 -37 -26 -65q-25 -27 -68 -27t-69 27q-26 28 -26 65q0 39 26 65q25 25 69 25q43 0 68 -25q26 -26 26 -65zM449 1593q0 -37 -26 -65q-25 -27 -69 -27q-40 0 -67 27t-27 65q0 39 27 65
q26 25 67 25q44 0 69 -25q26 -26 26 -65z" />
    <glyph glyph-name="Igrave" unicode="&#xcc;" horiz-adv-x="565" 
d="M365 184q0 -59 12 -95q12 -35 27 -55q15 -19 32 -27q15 -7 23 -7h-350q6 0 21 6q16 6 31 26t27 55q13 39 13 97v994q0 58 -13 97q-12 37 -29 55q-19 20 -33 26q-17 7 -22 8h355q-5 0 -20 -6q-14 -5 -31 -26q-17 -20 -30 -56t-13 -98v-994zM2 1739h219l139 -301z" />
    <glyph glyph-name="Iacute" unicode="&#xcd;" horiz-adv-x="565" 
d="M365 184q0 -59 12 -95q12 -35 27 -55q15 -19 32 -27q15 -7 23 -7h-350q6 0 21 6q16 6 31 26t27 55q13 39 13 97v994q0 58 -13 97q-12 37 -29 55q-19 20 -33 26q-17 7 -22 8h355q-5 0 -20 -6q-14 -5 -31 -26q-17 -20 -30 -56t-13 -98v-994zM207 1438l137 301h219z" />
    <glyph glyph-name="Icircumflex" unicode="&#xce;" horiz-adv-x="565" 
d="M365 184q0 -59 12 -95q12 -35 27 -55q15 -19 32 -27q15 -7 23 -7h-350q6 0 21 6q16 6 31 26t27 55q13 39 13 97v994q0 58 -13 97q-12 37 -29 55q-19 20 -33 26q-17 7 -22 8h355q-5 0 -20 -6q-14 -5 -31 -26q-17 -20 -30 -56t-13 -98v-994zM555 1425q-69 41 -138 75
q-77 38 -138 73q-57 -33 -134 -73q-65 -33 -133 -75q71 92 133 165q73 86 134 165z" />
    <glyph glyph-name="Idieresis" unicode="&#xcf;" horiz-adv-x="565" 
d="M365 184q0 -59 12 -95q12 -35 27 -55q15 -19 32 -27q15 -7 23 -7h-350q6 0 21 6q16 6 31 26t27 55q13 39 13 97v994q0 58 -13 97q-12 37 -29 55q-19 20 -33 26q-17 7 -22 8h355q-5 0 -20 -6q-14 -5 -31 -26q-17 -20 -30 -56t-13 -98v-994zM557 1593q0 -37 -26 -65
q-25 -27 -68 -27t-69 27q-25 26 -25 65q0 40 25 65t69 25q43 0 68 -25q26 -26 26 -65zM199 1593q0 -37 -26 -65q-25 -27 -69 -27q-40 0 -67 27t-27 65q0 39 27 65q26 25 67 25q44 0 69 -25q26 -26 26 -65z" />
    <glyph glyph-name="Eth" unicode="&#xd0;" horiz-adv-x="1439" 
d="M1339 694q0 -142 -43 -267q-44 -127 -129 -221q-87 -96 -216 -151t-306 -55h-532q7 0 21 7t33 29q18 21 30 61t12 110v430h-170v88h170v444q0 66 -13 102q-14 37 -30 57t-33 27t-24 9h542q164 0 290 -49q127 -49 216 -138q88 -88 135 -212t47 -271zM1157 682
q0 279 -136 430q-137 152 -411 152h-235v-539h264v-88h-264v-535h289q131 0 226 52q91 50 152 134q60 82 87 186q28 107 28 208z" />
    <glyph glyph-name="Ntilde" unicode="&#xd1;" horiz-adv-x="1439" 
d="M1137 1174q0 59 -14 98q-13 37 -31 56q-18 20 -36 27t-24 9h324q-6 0 -23 -6q-16 -6 -34 -27q-15 -18 -31 -57q-15 -38 -15 -100v-1233l-929 1149v-902q0 -63 14 -98q14 -36 33 -56q17 -19 37 -27q17 -7 24 -7h-330q6 0 23 6q15 5 34 26q15 16 31 56q15 37 15 100v965
q0 51 -18 88q-18 38 -42 62q-22 22 -51 38q-31 17 -45 23h266l822 -1018v828zM999 1671q0 -33 -10 -66q-11 -36 -31 -62q-23 -30 -50 -46q-30 -18 -68 -18q-35 0 -71 18q-35 17 -71 41q-42 28 -68 41q-34 18 -63 18q-49 -1 -77 -46q-26 -42 -31 -97q-19 25 -19 62
q0 28 10 65q10 35 29 60q23 30 49 46q27 17 70 17q36 0 73 -18q28 -14 74 -41q31 -19 72 -40q35 -18 62 -18q51 0 75 46q25 48 29 98q16 -26 16 -60z" />
    <glyph glyph-name="Ograve" unicode="&#xd2;" horiz-adv-x="1519" 
d="M1419 698q0 -152 -48 -286q-47 -132 -137 -232q-85 -96 -213 -154q-125 -57 -278 -57q-142 0 -264 54q-119 53 -203 146q-83 92 -130 221q-46 126 -46 280q0 150 51 288q48 131 139 232q86 96 214 153q126 56 276 56q142 0 262 -53q120 -55 202 -147q82 -93 129 -222
q46 -128 46 -279zM1255 651q0 141 -35 253q-36 114 -104 201q-66 84 -163 133q-95 48 -214 48q-105 0 -191 -40q-89 -42 -149 -113q-61 -72 -96 -177q-35 -103 -35 -227q0 -143 37 -260q38 -120 105 -205q68 -86 162 -134t212 -48q104 0 192 41q86 40 148 117q64 80 97 180
q34 103 34 231zM539 1739h219l139 -301z" />
    <glyph glyph-name="Oacute" unicode="&#xd3;" horiz-adv-x="1519" 
d="M1419 698q0 -152 -48 -286q-47 -132 -137 -232q-85 -96 -213 -154q-125 -57 -278 -57q-142 0 -264 54q-119 53 -203 146q-83 92 -130 221q-46 126 -46 280q0 150 51 288q48 131 139 232q86 96 214 153q126 56 276 56q142 0 262 -53q120 -55 202 -147q82 -93 129 -222
q46 -128 46 -279zM1255 651q0 141 -35 253q-36 114 -104 201q-66 84 -163 133q-95 48 -214 48q-105 0 -191 -40q-89 -42 -149 -113q-61 -72 -96 -177q-35 -103 -35 -227q0 -143 37 -260q38 -120 105 -205q68 -86 162 -134t212 -48q104 0 192 41q86 40 148 117q64 80 97 180
q34 103 34 231zM643 1438l137 301h219z" />
    <glyph glyph-name="Ocircumflex" unicode="&#xd4;" horiz-adv-x="1519" 
d="M1419 698q0 -152 -48 -286q-47 -132 -137 -232q-85 -96 -213 -154q-125 -57 -278 -57q-142 0 -264 54q-119 53 -203 146q-83 92 -130 221q-46 126 -46 280q0 150 51 288q48 131 139 232q86 96 214 153q126 56 276 56q142 0 262 -53q120 -55 202 -147q82 -93 129 -222
q46 -128 46 -279zM1255 651q0 141 -35 253q-36 114 -104 201q-66 84 -163 133q-95 48 -214 48q-105 0 -191 -40q-89 -42 -149 -113q-61 -72 -96 -177q-35 -103 -35 -227q0 -143 37 -260q38 -120 105 -205q68 -86 162 -134t212 -48q104 0 192 41q86 40 148 117q64 80 97 180
q34 103 34 231zM1030 1425q-69 41 -138 75q-77 38 -138 73q-63 -37 -133 -73t-134 -75q61 79 134 165q62 73 133 165z" />
    <glyph glyph-name="Otilde" unicode="&#xd5;" horiz-adv-x="1519" 
d="M1419 698q0 -152 -48 -286q-47 -132 -137 -232q-85 -96 -213 -154q-125 -57 -278 -57q-142 0 -264 54q-119 53 -203 146q-83 92 -130 221q-46 126 -46 280q0 150 51 288q48 131 139 232q86 96 214 153q126 56 276 56q142 0 262 -53q120 -55 202 -147q82 -93 129 -222
q46 -128 46 -279zM1255 651q0 141 -35 253q-36 114 -104 201q-66 84 -163 133q-95 48 -214 48q-105 0 -191 -40q-89 -42 -149 -113q-61 -72 -96 -177q-35 -103 -35 -227q0 -143 37 -260q38 -120 105 -205q68 -86 162 -134t212 -48q104 0 192 41q86 40 148 117q64 80 97 180
q34 103 34 231zM1038 1671q0 -33 -10 -66q-11 -36 -31 -62q-23 -30 -50 -46q-30 -18 -68 -18q-35 0 -71 18q-35 17 -71 41q-42 28 -68 41q-35 18 -63 18q-49 -1 -77 -46q-26 -42 -31 -97q-19 25 -19 62q0 32 9 65t30 60q23 30 49 46q27 17 70 17q35 0 73 -18q28 -14 74 -41
q31 -19 72 -40q35 -18 62 -18q51 0 75 46q25 48 29 98q16 -26 16 -60z" />
    <glyph glyph-name="Odieresis" unicode="&#xd6;" horiz-adv-x="1519" 
d="M1419 698q0 -152 -48 -286q-47 -132 -137 -232q-85 -96 -213 -154q-125 -57 -278 -57q-142 0 -264 54q-119 53 -203 146q-83 92 -130 221q-46 126 -46 280q0 150 51 288q48 131 139 232q86 96 214 153q126 56 276 56q142 0 262 -53q120 -55 202 -147q82 -93 129 -222
q46 -128 46 -279zM1255 651q0 141 -35 253q-36 114 -104 201q-66 84 -163 133q-95 48 -214 48q-105 0 -191 -40q-89 -42 -149 -113q-61 -72 -96 -177q-35 -103 -35 -227q0 -143 37 -260q38 -120 105 -205q68 -86 162 -134t212 -48q104 0 192 41q86 40 148 117q64 80 97 180
q34 103 34 231zM1032 1593q0 -39 -25 -65q-25 -27 -69 -27t-69 27q-25 26 -25 65q0 40 25 65t69 25t69 -25t25 -65zM674 1593q0 -37 -26 -65q-26 -27 -68 -27q-41 0 -68 27t-27 65q0 39 27 65q26 25 68 25q43 0 68 -25q26 -26 26 -65z" />
    <glyph glyph-name="multiply" unicode="&#xd7;" horiz-adv-x="1357" 
d="M1165 4l-485 490l-485 -490l-76 80l485 485l-485 490l74 78l487 -492l483 490l78 -78l-485 -488l485 -485z" />
    <glyph glyph-name="Oslash" unicode="&#xd8;" horiz-adv-x="1519" 
d="M1419 698q0 -152 -48 -286q-47 -132 -137 -232q-85 -95 -214 -154q-124 -57 -279 -57q-100 0 -187 27q-88 27 -159 76l-108 -156l-88 29l125 182q-107 95 -165 234q-59 142 -59 307q0 150 51 288q48 131 139 232q86 96 214 153q126 56 276 56q97 0 189 -28
q84 -26 161 -79l99 142l84 -29l-113 -166q106 -94 163 -233q56 -137 56 -306zM1255 651q0 141 -36 250q-39 117 -109 201l-631 -905q129 -115 305 -115q104 0 192 41q86 40 148 117q64 80 97 180q34 103 34 231zM1047 1169q-129 115 -308 115q-105 0 -191 -40
q-88 -41 -149 -114t-96 -176t-35 -227q0 -139 38 -259q37 -118 110 -204z" />
    <glyph glyph-name="Ugrave" unicode="&#xd9;" horiz-adv-x="1380" 
d="M1073 1171q0 64 -13 100q-14 38 -31 57q-19 20 -35 27q-18 8 -25 9h338q-6 0 -24 -6q-17 -6 -35 -27q-16 -18 -30 -58q-14 -39 -14 -102v-706q0 -245 -118 -370q-119 -126 -392 -126q-271 0 -390 122q-118 121 -118 366v719q0 60 -12 98q-11 35 -30 57t-32 27
q-15 6 -22 6h356q-4 0 -19 -6q-14 -6 -32 -25q-15 -17 -29 -55q-14 -39 -14 -100v-717q0 -199 87 -290t280 -91q101 0 173 28q66 26 108 77q40 49 57 119q16 67 16 153v714zM408 1739h219l139 -301z" />
    <glyph glyph-name="Uacute" unicode="&#xda;" horiz-adv-x="1380" 
d="M1073 1171q0 64 -13 100q-14 38 -31 57q-19 20 -35 27q-18 8 -25 9h338q-6 0 -24 -6q-17 -6 -35 -27q-16 -18 -30 -58q-14 -39 -14 -102v-706q0 -245 -118 -370q-119 -126 -392 -126q-271 0 -390 122q-118 121 -118 366v719q0 60 -12 98q-11 35 -30 57t-32 27
q-15 6 -22 6h356q-4 0 -19 -6q-14 -6 -32 -25q-15 -17 -29 -55q-14 -39 -14 -100v-717q0 -199 87 -290t280 -91q101 0 173 28q66 26 108 77q40 49 57 119q16 67 16 153v714zM655 1438l138 301h219z" />
    <glyph glyph-name="Ucircumflex" unicode="&#xdb;" horiz-adv-x="1380" 
d="M1073 1171q0 64 -13 100q-14 38 -31 57q-19 20 -35 27q-18 8 -25 9h338q-6 0 -24 -6q-17 -6 -35 -27q-16 -18 -30 -58q-14 -39 -14 -102v-706q0 -245 -118 -370q-119 -126 -392 -126q-271 0 -390 122q-118 121 -118 366v719q0 60 -12 98q-11 35 -30 57t-32 27
q-15 6 -22 6h356q-4 0 -19 -6q-14 -6 -32 -25q-15 -17 -29 -55q-14 -39 -14 -100v-717q0 -199 87 -290t280 -91q101 0 173 28q66 26 108 77q40 49 57 119q16 67 16 153v714zM981 1425q-69 41 -138 75q-77 38 -138 73q-57 -33 -134 -73q-65 -33 -133 -75q71 92 133 165
q73 86 134 165z" />
    <glyph glyph-name="Udieresis" unicode="&#xdc;" horiz-adv-x="1380" 
d="M1073 1171q0 64 -13 100q-14 38 -31 57q-19 20 -35 27q-18 8 -25 9h338q-6 0 -24 -6q-17 -6 -35 -27q-16 -18 -30 -58q-14 -39 -14 -102v-706q0 -245 -118 -370q-119 -126 -392 -126q-271 0 -390 122q-118 121 -118 366v719q0 60 -12 98q-11 35 -30 57t-32 27
q-15 6 -22 6h356q-4 0 -19 -6q-14 -6 -32 -25q-15 -17 -29 -55q-14 -39 -14 -100v-717q0 -199 87 -290t280 -91q101 0 173 28q66 26 108 77q40 49 57 119q16 67 16 153v714zM983 1593q0 -37 -26 -65q-25 -27 -68 -27t-69 27q-25 26 -25 65q0 40 25 65t69 25q43 0 68 -25
q26 -26 26 -65zM625 1593q0 -37 -26 -65q-25 -27 -69 -27q-40 0 -67 27t-27 65q0 39 27 65q26 25 67 25q44 0 69 -25q26 -26 26 -65z" />
    <glyph glyph-name="Yacute" unicode="&#xdd;" horiz-adv-x="1318" 
d="M1010 1298q0 40 -20 52q-21 13 -29 14h311q-6 0 -21 -7q-19 -9 -41 -28q-24 -21 -58 -61q-31 -37 -73 -109l-342 -586v-383q0 -58 13 -99q12 -37 27 -57q15 -19 32 -27q15 -7 22 -7h-356q7 0 22 6q14 5 31 26q17 20 29 57q12 38 12 101v381l-344 592q-41 69 -71 106
q-26 32 -58 60q-22 19 -41 28q-15 7 -20 7h377q-4 0 -12 -3q-6 -3 -16 -9q-8 -6 -15 -19q-7 -14 -7 -33q0 -21 14 -54q14 -32 42 -81l270 -465l256 443q38 66 50 95q16 38 16 60zM481 1438l137 301h220z" />
    <glyph glyph-name="Thorn" unicode="&#xde;" horiz-adv-x="1144" 
d="M1057 719q0 -81 -29 -159q-29 -77 -87 -137q-59 -60 -145 -96q-87 -36 -202 -36q-53 0 -115 7q-66 7 -114 28v-144q0 -59 12 -95t27 -54t32 -26q15 -7 23 -7h-353q7 0 22 6t31 25q15 18 27 54q13 39 13 97v998q0 56 -13 95q-12 35 -27 55t-31 26q-17 7 -22 8h353
q-7 0 -22 -6q-14 -5 -31 -26q-18 -21 -29 -55q-12 -36 -12 -97v-60q45 4 122 10q70 5 127 5q95 0 176 -30q79 -29 140 -84q57 -51 93 -131q34 -75 34 -171zM885 707q0 71 -23 132t-62 103q-41 44 -99 68t-128 24q-51 0 -105 -3q-48 -3 -103 -11v-594q42 -19 104 -26
q59 -7 111 -7q72 0 131 25q58 25 95 67q36 42 58 101q21 57 21 121z" />
    <glyph glyph-name="germandbls" unicode="&#xdf;" horiz-adv-x="1216" 
d="M1128 260q0 -68 -25 -119q-26 -53 -73 -91q-46 -37 -112 -58t-146 -21q-84 0 -165 23q-78 22 -128 57l56 137q39 -48 111 -86q68 -36 149 -36q87 0 136 45q50 45 50 116q0 63 -37 107q-37 45 -91 79q-46 30 -118 62q-64 29 -118 62q-55 34 -91 71q-37 38 -37 94
q0 52 27 88q26 34 68 64q40 28 88 53q45 23 88 55q40 30 67 67t27 91q0 87 -58 142t-163 55q-67 0 -119 -24q-55 -25 -92 -65q-41 -44 -61 -99q-21 -57 -21 -123v-820q0 -63 10 -97q11 -36 25 -55q16 -21 27 -27q13 -7 20 -7h-313q5 0 19 6q12 6 27 25q11 15 24 55
q11 34 11 100v754q0 104 35 192q34 85 98 148q62 60 151 95q87 34 198 34q75 0 136 -19t107 -54t71 -82q26 -49 26 -103q0 -67 -28 -115q-27 -46 -70 -83q-41 -35 -91 -61q-36 -18 -91 -50q-39 -22 -69 -49q-28 -25 -28 -58q0 -38 37 -68q40 -32 91 -59q42 -22 119 -58
q63 -29 118 -69t92 -93q36 -52 36 -128z" />
    <glyph glyph-name="agrave" unicode="&#xe0;" horiz-adv-x="958" 
d="M831 -39q-64 11 -107 57t-54 97q-39 -72 -124 -109q-84 -37 -181 -37q-55 0 -105 15q-51 15 -87 43q-39 29 -59 70q-22 44 -22 98q0 50 29 103q27 50 95 101q65 49 173 93q102 42 262 77v107q0 117 -52 173t-142 56q-106 0 -155 -43q-50 -44 -50 -98q0 -37 14 -59
q16 -26 37 -33l-166 -68q-10 18 -18 47q-8 30 -8 66q0 52 23 99q24 50 72 89q50 41 120 64q72 24 168 24q157 0 232 -82q75 -83 75 -206v-443q0 -75 35 -133q34 -57 116 -57q14 0 33 4zM651 485q-217 -50 -310 -112q-95 -63 -95 -150q0 -74 49 -114q50 -41 121 -41
q45 0 87 15q40 14 75 43q32 26 53 64q20 36 20 80v215zM258 1364h229l131 -307z" />
    <glyph glyph-name="aacute" unicode="&#xe1;" horiz-adv-x="958" 
d="M831 -39q-64 11 -107 57t-54 97q-39 -72 -124 -109q-84 -37 -181 -37q-55 0 -105 15q-51 15 -87 43q-39 29 -59 70q-22 44 -22 98q0 50 29 103q27 50 95 101q65 49 173 93q102 42 262 77v107q0 117 -52 173t-142 56q-106 0 -155 -43q-50 -44 -50 -98q0 -37 14 -59
q16 -26 37 -33l-166 -68q-10 18 -18 47q-8 30 -8 66q0 52 23 99q24 50 72 89q50 41 120 64q72 24 168 24q157 0 232 -82q75 -83 75 -206v-443q0 -75 35 -133q34 -57 116 -57q14 0 33 4zM651 485q-217 -50 -310 -112q-95 -63 -95 -150q0 -74 49 -114q50 -41 121 -41
q45 0 87 15q40 14 75 43q32 26 53 64q20 36 20 80v215zM362 1057l138 307h219z" />
    <glyph glyph-name="acircumflex" unicode="&#xe2;" horiz-adv-x="958" 
d="M831 -39q-64 11 -107 57t-54 97q-39 -72 -124 -109q-84 -37 -181 -37q-55 0 -105 15q-51 15 -87 43q-39 29 -59 70q-22 44 -22 98q0 50 29 103q27 50 95 101q65 49 173 93q102 42 262 77v107q0 117 -52 173t-142 56q-106 0 -155 -43q-50 -44 -50 -98q0 -37 14 -59
q16 -26 37 -33l-166 -68q-10 18 -18 47q-8 30 -8 66q0 52 23 99q24 50 72 89q50 41 120 64q72 24 168 24q157 0 232 -82q75 -83 75 -206v-443q0 -75 35 -133q34 -57 116 -57q14 0 33 4zM651 485q-217 -50 -310 -112q-95 -63 -95 -150q0 -74 49 -114q50 -41 121 -41
q45 0 87 15q40 14 75 43q32 26 53 64q20 36 20 80v215zM473 1223q-44 -28 -52 -33q-36 -22 -75 -48q-3 -2 -32 -21t-43 -28q-30 -20 -54 -34q24 30 54 70q13 17 38 51.5t37 50.5q3 4 32 43t43 58q11 14 21 28t19 26.5t12 16.5l266 -344z" />
    <glyph glyph-name="atilde" unicode="&#xe3;" horiz-adv-x="958" 
d="M831 -39q-64 11 -107 57t-54 97q-39 -72 -124 -109q-84 -37 -181 -37q-55 0 -105 15q-51 15 -87 43q-39 29 -59 70q-22 44 -22 98q0 50 29 103q27 50 95 101q65 49 173 93q102 42 262 77v107q0 117 -52 173t-142 56q-106 0 -155 -43q-50 -44 -50 -98q0 -37 14 -59
q16 -26 37 -33l-166 -68q-10 18 -18 47q-8 30 -8 66q0 52 23 99q24 50 72 89q50 41 120 64q72 24 168 24q157 0 232 -82q75 -83 75 -206v-443q0 -75 35 -133q34 -57 116 -57q14 0 33 4zM651 485q-217 -50 -310 -112q-95 -63 -95 -150q0 -74 49 -114q50 -41 121 -41
q45 0 87 15q40 14 75 43q32 26 53 64q20 36 20 80v215zM758 1329q0 -36 -10 -69q-11 -37 -31 -64q-22 -29 -51 -47q-30 -18 -70 -18q-33 0 -69 18q-31 15 -70 41q-38 25 -69 41q-34 18 -62 18q-50 0 -77 -45q-28 -46 -32 -98q-16 22 -16 55t9 68q9 33 29 63q19 28 48 46
t69 18q33 0 73 -19q25 -12 75 -40q5 -3 31 -18t40 -22q35 -18 62 -18q52 0 76 46q23 45 28 97q9 -13 13 -25q4 -13 4 -28z" />
    <glyph glyph-name="adieresis" unicode="&#xe4;" horiz-adv-x="958" 
d="M831 -39q-64 11 -107 57t-54 97q-39 -72 -124 -109q-84 -37 -181 -37q-55 0 -105 15q-51 15 -87 43q-39 29 -59 70q-22 44 -22 98q0 50 29 103q27 50 95 101q65 49 173 93q102 42 262 77v107q0 117 -52 173t-142 56q-106 0 -155 -43q-50 -44 -50 -98q0 -37 14 -59
q16 -26 37 -33l-166 -68q-10 18 -18 47q-8 30 -8 66q0 52 23 99q24 50 72 89q50 41 120 64q72 24 168 24q157 0 232 -82q75 -83 75 -206v-443q0 -75 35 -133q34 -57 116 -57q14 0 33 4zM651 485q-217 -50 -310 -112q-95 -63 -95 -150q0 -74 49 -114q50 -41 121 -41
q45 0 87 15q40 14 75 43q32 26 53 64q20 36 20 80v215zM752 1270q0 -38 -26 -66q-25 -26 -67 -26q-43 0 -69 26q-27 27 -27 66q0 38 27 64q28 26 69 26q44 0 68 -26q25 -27 25 -64zM395 1270q0 -40 -25 -66t-69 -26t-69 26t-25 66q0 39 25 64q26 26 69 26t69 -26
q25 -25 25 -64z" />
    <glyph glyph-name="aring" unicode="&#xe5;" horiz-adv-x="958" 
d="M831 -39q-64 11 -107 57t-54 97q-39 -72 -124 -109q-84 -37 -181 -37q-55 0 -105 15q-51 15 -87 43q-39 29 -59 70q-22 44 -22 98q0 50 29 103q27 50 95 101q65 49 173 93q102 42 262 77v107q0 117 -52 173t-142 56q-106 0 -155 -43q-50 -44 -50 -98q0 -37 14 -59
q16 -26 37 -33l-166 -68q-10 18 -18 47q-8 30 -8 66q0 52 23 99q24 50 72 89q50 41 120 64q72 24 168 24q157 0 232 -82q75 -83 75 -206v-443q0 -75 35 -133q34 -57 116 -57q14 0 33 4zM651 485q-217 -50 -310 -112q-95 -63 -95 -150q0 -74 49 -114q50 -41 121 -41
q45 0 87 15q40 14 75 43q32 26 53 64q20 36 20 80v215zM664 1251q0 -76 -50 -129t-135 -53t-135 53q-49 52 -49 129t49 130q50 55 135 55q84 0 135 -54q50 -55 50 -131zM590 1251q0 47 -29 82t-82 35q-54 0 -84 -35t-30 -82t30 -82q30 -34 84 -34q51 0 81 34q30 35 30 82z
" />
    <glyph glyph-name="ae" unicode="&#xe6;" horiz-adv-x="1501" 
d="M1440 276q-44 -152 -137 -229q-95 -78 -232 -78q-122 0 -210 56t-138 143q-18 -45 -55 -82q-36 -36 -85 -62q-45 -24 -103 -40q-54 -15 -109 -15q-117 0 -197 59t-80 167q0 50 29 103q28 51 94 101q67 50 172 93q102 42 262 77v107q0 117 -52 173t-142 56
q-106 0 -155 -43q-50 -44 -50 -98q0 -37 14 -59q16 -26 37 -33l-166 -68q-8 14 -17 46q-7 25 -7 65q0 52 23 99q24 49 71 90t119 65t168 24q107 0 176 -42q70 -42 98 -111q51 70 127 112q74 41 168 41q95 0 162 -42t111 -111q45 -71 67 -159q23 -89 27 -183h-635v-10
q0 -7 2 -9q7 -82 33 -151q25 -67 67 -122q40 -52 96 -82q55 -30 127 -30q86 0 170 48q83 48 150 134zM1260 582q0 53 -12 110q-13 60 -36 105q-25 48 -65 78q-41 30 -100 30q-63 0 -107 -29q-47 -32 -76 -76q-30 -46 -48 -105q-17 -57 -19 -113h463zM651 485
q-217 -50 -310 -112q-95 -63 -95 -150q0 -74 49 -114q50 -41 121 -41q46 0 85 14q43 16 76 41q33 26 54 63q20 36 20 84v215z" />
    <glyph glyph-name="ccedilla" unicode="&#xe7;" horiz-adv-x="903" 
d="M645 -219q0 -56 -49 -102t-147 -46q-41 0 -81 12q-43 13 -69 29q11 -3 35 -5q12 -1 33 -1q71 0 112 36t41 79q0 38 -38 67q-39 30 -109 31l53 94q-84 12 -152 55q-64 41 -108 103q-45 63 -65 140q-21 79 -21 165q0 124 36 226q37 105 97 175q63 73 145 113q85 41 181 41
q119 0 201 -72q83 -72 89 -206l-161 -72q5 15 6 32q2 24 2 34q0 87 -52 133q-53 47 -126 47q-61 0 -112 -28q-48 -26 -87 -79q-36 -49 -56 -120t-20 -154q0 -78 20 -155q20 -76 59 -134q40 -60 99 -95q60 -36 140 -36q79 0 157 48t146 145q-38 -155 -128 -230
q-91 -76 -204 -82l-29 -47q85 -11 123 -52q39 -42 39 -89z" />
    <glyph glyph-name="egrave" unicode="&#xe8;" horiz-adv-x="933" 
d="M874 276q-44 -152 -137 -229q-95 -78 -231 -78q-107 0 -187 41q-79 40 -133 111q-53 69 -80 159q-26 85 -26 185q0 111 30 207t84 168q53 71 131 112q77 41 173 41q94 0 161 -42q69 -43 112 -111q45 -71 67 -159q21 -84 26 -183h-635q0 -96 27 -171t72 -126
q46 -52 104 -78q60 -27 125 -27q82 0 165 44q82 43 152 136zM694 582q0 58 -11 110q-13 60 -36 105q-25 48 -64 77q-42 31 -100 31q-63 0 -106 -29q-47 -31 -77 -76q-31 -45 -49 -105q-19 -60 -20 -113h463zM266 1364h230l131 -307z" />
    <glyph glyph-name="eacute" unicode="&#xe9;" horiz-adv-x="933" 
d="M874 276q-44 -152 -137 -229q-95 -78 -231 -78q-107 0 -187 41q-79 40 -133 111q-53 69 -80 159q-26 85 -26 185q0 111 30 207t84 168q53 71 131 112q77 41 173 41q94 0 161 -42q69 -43 112 -111q45 -71 67 -159q21 -84 26 -183h-635q0 -96 27 -171t72 -126
q46 -52 104 -78q60 -27 125 -27q82 0 165 44q82 43 152 136zM694 582q0 58 -11 110q-13 60 -36 105q-25 48 -64 77q-42 31 -100 31q-63 0 -106 -29q-47 -31 -77 -76q-31 -45 -49 -105q-19 -60 -20 -113h463zM391 1057l137 307h220z" />
    <glyph glyph-name="ecircumflex" unicode="&#xea;" horiz-adv-x="933" 
d="M874 276q-44 -152 -137 -229q-95 -78 -231 -78q-107 0 -187 41q-79 40 -133 111q-53 69 -80 159q-26 85 -26 185q0 111 30 207t84 168q53 71 131 112q77 41 173 41q94 0 161 -42q69 -43 112 -111q45 -71 67 -159q21 -84 26 -183h-635q0 -96 27 -171t72 -126
q46 -52 104 -78q60 -27 125 -27q82 0 165 44q82 43 152 136zM694 582q0 58 -11 110q-13 60 -36 105q-25 48 -64 77q-42 31 -100 31q-63 0 -106 -29q-47 -31 -77 -76q-31 -45 -49 -105q-19 -60 -20 -113h463zM489 1223q-44 -28 -52 -33q-36 -22 -75 -48q-26 -17 -74 -49
q-23 -15 -55 -34q40 50 55 70q12 17 36.5 51t37.5 51q3 4 32 43t43 58q11 14 21 28t19 26.5t12 16.5l267 -344z" />
    <glyph glyph-name="edieresis" unicode="&#xeb;" horiz-adv-x="933" 
d="M874 276q-44 -152 -137 -229q-95 -78 -231 -78q-107 0 -187 41q-79 40 -133 111q-53 69 -80 159q-26 85 -26 185q0 111 30 207t84 168q53 71 131 112q77 41 173 41q94 0 161 -42q69 -43 112 -111q45 -71 67 -159q21 -84 26 -183h-635q0 -96 27 -171t72 -126
q46 -52 104 -78q60 -27 125 -27q82 0 165 44q82 43 152 136zM694 582q0 58 -11 110q-13 60 -36 105q-25 48 -64 77q-42 31 -100 31q-63 0 -106 -29q-47 -31 -77 -76q-31 -45 -49 -105q-19 -60 -20 -113h463zM760 1270q0 -38 -26 -66q-25 -26 -66 -26q-44 0 -70 26
q-27 27 -27 66q0 38 27 64q28 26 70 26q43 0 67 -26q25 -27 25 -64zM403 1270q0 -40 -25 -66t-69 -26q-43 0 -68 26q-26 28 -26 66t26 64t68 26q43 0 69 -26q25 -25 25 -64z" />
    <glyph glyph-name="igrave" unicode="&#xec;" horiz-adv-x="460" 
d="M313 178q0 -59 12 -94q13 -37 26 -53q16 -19 31 -25t21 -6h-331q5 0 20 6q14 6 30 25q13 16 26 53q12 35 12 94v541q0 105 -27 135q-28 31 -72 31h-20l272 112v-819zM10 1364h230l131 -307z" />
    <glyph glyph-name="iacute" unicode="&#xed;" horiz-adv-x="460" 
d="M313 178q0 -59 12 -94q13 -37 26 -53q16 -19 31 -25t21 -6h-331q5 0 20 6q14 6 30 25q13 16 26 53q12 35 12 94v541q0 105 -27 135q-28 31 -72 31h-20l272 112v-819zM94 1057l137 307h220z" />
    <glyph glyph-name="icircumflex" unicode="&#xee;" horiz-adv-x="460" 
d="M313 178q0 -59 12 -94q13 -37 26 -53q16 -19 31 -25t21 -6h-331q5 0 20 6q14 6 30 25q13 16 26 53q12 35 12 94v541q0 105 -27 135q-28 31 -72 31h-20l272 112v-819zM225 1223q-44 -28 -52 -33q-36 -22 -75 -48q-26 -17 -74 -49q-23 -15 -55 -34q40 50 55 70
q12 17 36.5 51t37.5 51q3 4 32 43t43 58q11 14 21 28t19 26.5t12 16.5l267 -344z" />
    <glyph glyph-name="idieresis" unicode="&#xef;" horiz-adv-x="460" 
d="M313 178q0 -59 12 -94q13 -37 26 -53q16 -19 31 -25t21 -6h-331q5 0 20 6q14 6 30 25q13 16 26 53q12 35 12 94v541q0 105 -27 135q-28 31 -72 31h-20l272 112v-819zM147 1270q0 -40 -25 -66t-69 -26q-43 0 -68 26q-26 28 -26 66t26 64t68 26q43 0 69 -26q25 -25 25 -64z
M504 1270q0 -38 -26 -66q-25 -26 -66 -26q-44 0 -70 26q-27 27 -27 66q0 38 27 64q28 26 70 26q43 0 67 -26q25 -27 25 -64z" />
    <glyph glyph-name="eth" unicode="&#xf0;" horiz-adv-x="1019" 
d="M934 532q-5 -138 -38 -240q-36 -108 -90 -177q-57 -72 -133 -109q-75 -37 -167 -37q-95 0 -174 41q-75 39 -133 111q-54 67 -85 163q-30 93 -30 195v21q1 100 32 192q30 91 80 157t117 105t148 39q99 0 191 -67q95 -69 147 -221q-7 53 -29 119q-20 61 -51 124
q-28 57 -70 117q-41 58 -82 102l-198 -102l-31 61l174 91q-78 69 -160 96l152 108q43 -29 81 -61q36 -31 74 -72l205 107l31 -64l-186 -98q120 -151 173 -323q52 -168 52 -347v-31zM780 430q0 109 -25 194q-25 87 -69 147q-44 61 -98 93q-56 33 -113 33q-107 0 -173 -81
q-67 -82 -71 -243v-24q0 -103 24 -190q24 -85 66 -149q41 -61 102 -98q60 -36 134 -36q43 0 82 21t70 63t50 103q20 63 21 145v22z" />
    <glyph glyph-name="ntilde" unicode="&#xf1;" horiz-adv-x="1067" 
d="M915 178q0 -58 11 -94q12 -38 24 -53q17 -20 28 -25q14 -6 19 -6h-311q7 0 19 6q11 6 25 24t24 52q10 33 10 94v461q0 126 -51 183t-129 57q-47 0 -99 -22q-48 -20 -89 -57q-40 -35 -64 -84q-25 -50 -25 -102v-438q0 -58 10 -91q11 -35 25 -52q17 -20 28 -25q14 -6 19 -6
h-315q6 0 19 6t28 24q12 14 25 52q12 34 12 94v524q0 60 -6 97q-6 35 -20 56q-14 20 -32 26t-43 6h-22l270 114v-192q22 35 66 73q35 30 88 59q43 24 97 40q46 14 95 14q51 0 98 -16q49 -17 85 -53t59 -98q22 -59 22 -148v-500zM811 1329q0 -36 -10 -69q-11 -37 -31 -64
q-22 -29 -51 -47q-32 -19 -70 -19q-30 0 -68 19q-35 17 -71 41q-38 25 -69 41q-35 18 -62 18q-50 0 -77 -45q-28 -46 -32 -98q-16 22 -16 55t9 68q9 33 29 63q19 28 48 46q28 18 70 18q32 0 72 -19q25 -12 75 -40q64 -36 72 -40q35 -18 61 -18q52 0 76 46q25 48 29 97
q8 -11 12 -25q4 -13 4 -28z" />
    <glyph glyph-name="ograve" unicode="&#xf2;" horiz-adv-x="1103" 
d="M1018 498q0 -91 -29 -187q-28 -94 -88 -170q-60 -77 -149 -124q-90 -48 -213 -48q-117 0 -203 44q-83 42 -141 114q-54 68 -82 158q-27 88 -27 178q0 91 29 187q29 94 87 171q58 76 148 124t211 48q119 0 205 -44q85 -43 142 -114q55 -68 83 -160q27 -89 27 -177z
M856 455q0 76 -20 152q-21 79 -62 143t-102 104q-62 41 -146 41q-77 0 -130 -37q-54 -37 -88 -94q-34 -55 -49 -125q-15 -67 -15 -129q0 -79 20 -155q20 -77 62 -142q41 -64 103 -104q64 -41 146 -41q78 0 130 37t87 95q34 56 49 125t15 130zM309 1364h230l131 -307z" />
    <glyph glyph-name="oacute" unicode="&#xf3;" horiz-adv-x="1103" 
d="M1018 498q0 -91 -29 -187q-28 -94 -88 -170q-60 -77 -149 -124q-90 -48 -213 -48q-117 0 -203 44q-83 42 -141 114q-54 68 -82 158q-27 88 -27 178q0 91 29 187q29 94 87 171q58 76 148 124t211 48q119 0 205 -44q85 -43 142 -114q55 -68 83 -160q27 -89 27 -177z
M856 455q0 76 -20 152q-21 79 -62 143t-102 104q-62 41 -146 41q-77 0 -130 -37q-54 -37 -88 -94q-34 -55 -49 -125q-15 -67 -15 -129q0 -79 20 -155q20 -77 62 -142q41 -64 103 -104q64 -41 146 -41q78 0 130 37t87 95q34 56 49 125t15 130zM436 1057l137 307h220z" />
    <glyph glyph-name="ocircumflex" unicode="&#xf4;" horiz-adv-x="1103" 
d="M1018 498q0 -91 -29 -187q-28 -94 -88 -170q-60 -77 -149 -124q-90 -48 -213 -48q-117 0 -203 44q-83 42 -141 114q-54 68 -82 158q-27 88 -27 178q0 91 29 187q29 94 87 171q58 76 148 124t211 48q119 0 205 -44q85 -43 142 -114q55 -68 83 -160q27 -89 27 -177z
M856 455q0 76 -20 152q-21 79 -62 143t-102 104q-62 41 -146 41q-77 0 -130 -37q-54 -37 -88 -94q-34 -55 -49 -125q-15 -67 -15 -129q0 -79 20 -155q20 -77 62 -142q41 -64 103 -104q64 -41 146 -41q78 0 130 37t87 95q34 56 49 125t15 130zM547 1223q-44 -28 -52 -33
q-36 -22 -75 -48q-3 -2 -32 -21t-43 -28q-30 -20 -54 -34q24 30 54 70q13 17 38 51.5t37 50.5q3 4 32 43t43 58q11 14 21 28t19 26.5t12 16.5l266 -344z" />
    <glyph glyph-name="otilde" unicode="&#xf5;" horiz-adv-x="1103" 
d="M1018 498q0 -91 -29 -187q-28 -94 -88 -170q-60 -77 -149 -124q-90 -48 -213 -48q-117 0 -203 44q-83 42 -141 114q-54 68 -82 158q-27 88 -27 178q0 91 29 187q29 94 87 171q58 76 148 124t211 48q119 0 205 -44q85 -43 142 -114q55 -68 83 -160q27 -89 27 -177z
M856 455q0 76 -20 152q-21 79 -62 143t-102 104q-62 41 -146 41q-77 0 -130 -37q-54 -37 -88 -94q-34 -55 -49 -125q-15 -67 -15 -129q0 -79 20 -155q20 -77 62 -142q41 -64 103 -104q64 -41 146 -41q78 0 130 37t87 95q34 56 49 125t15 130zM829 1329q0 -36 -10 -69
q-11 -37 -31 -64q-22 -29 -51 -47q-30 -18 -69 -18q-33 0 -69 18q-35 17 -71 41q-42 28 -68 41q-34 18 -63 18q-49 0 -76 -45q-28 -46 -32 -98q-17 23 -17 55q0 30 10 68q9 36 28 63q19 28 48 46t70 18q33 0 73 -19q18 -9 74 -40q64 -36 72 -40q34 -18 62 -18q51 0 75 46
q25 48 29 97q8 -11 12 -25q4 -13 4 -28z" />
    <glyph glyph-name="odieresis" unicode="&#xf6;" horiz-adv-x="1103" 
d="M1018 498q0 -91 -29 -187q-28 -94 -88 -170q-60 -77 -149 -124q-90 -48 -213 -48q-117 0 -203 44q-83 42 -141 114q-54 68 -82 158q-27 88 -27 178q0 91 29 187q29 94 87 171q58 76 148 124t211 48q119 0 205 -44q85 -43 142 -114q55 -68 83 -160q27 -89 27 -177z
M856 455q0 76 -20 152q-21 79 -62 143t-102 104q-62 41 -146 41q-77 0 -130 -37q-54 -37 -88 -94q-34 -55 -49 -125q-15 -67 -15 -129q0 -79 20 -155q20 -77 62 -142q41 -64 103 -104q64 -41 146 -41q78 0 130 37t87 95q34 56 49 125t15 130zM823 1270q0 -40 -25 -66
t-67 -26q-43 0 -69 26q-27 27 -27 66q0 38 27 64q28 26 69 26q44 0 68 -26t24 -64zM467 1270q0 -38 -26 -66q-25 -26 -68 -26q-44 0 -69 26t-25 66q0 39 25 64q26 26 69 26q42 0 68 -26t26 -64z" />
    <glyph glyph-name="divide" unicode="&#xf7;" horiz-adv-x="1357" 
d="M784 975q0 -44 -28 -73q-28 -30 -76 -30t-76 30q-29 31 -29 73q0 43 28 74q27 30 77 30q48 0 76 -30q28 -29 28 -74zM121 524v107h1114v-107h-1114zM782 178q0 -44 -28 -73t-76 -29t-76 29q-29 31 -29 73q0 43 29 74t76 31t76 -31q28 -29 28 -74z" />
    <glyph glyph-name="oslash" unicode="&#xf8;" horiz-adv-x="1103" 
d="M1018 498q0 -91 -29 -187q-28 -94 -88 -170q-60 -77 -149 -124q-90 -48 -213 -48q-75 0 -135 18q-63 19 -107 50l-82 -121l-72 25l95 141q-77 71 -115 174q-37 101 -37 207q0 91 29 187q29 94 87 171q58 76 148 124t211 48q75 0 133 -17q63 -19 109 -48l76 114l71 -26
q-5 -5 -18 -26q-8 -13 -26 -41q-4 -6 -12.5 -19.5t-12.5 -20.5q-9 -13 -19 -26q81 -74 118 -175q38 -105 38 -210zM727 811q-38 38 -89 61t-112 23q-77 0 -130 -37q-54 -37 -88 -94q-34 -55 -49 -125q-15 -67 -15 -129q0 -78 19 -154q19 -75 61 -141zM856 455q0 77 -20 151
q-21 77 -62 144l-401 -596q40 -42 89 -64q48 -22 113 -22q78 0 130 37t87 95q34 56 49 125t15 130z" />
    <glyph glyph-name="ugrave" unicode="&#xf9;" horiz-adv-x="1054" 
d="M752 -37v203q-60 -95 -155 -146t-194 -51q-115 0 -187 75q-73 76 -73 257v467q0 68 -13 104q-14 37 -32 56q-18 18 -37 23q-16 4 -26 10h260v-635q0 -124 51 -182t127 -58q51 0 101 26q54 28 90 65q37 38 62 90q24 50 24 100v417q0 62 -12 96q-13 36 -25 50
q-15 17 -29 21q-11 3 -20 10h235v-715q0 -53 6 -86q6 -32 20 -51q15 -20 32 -25q19 -6 44 -6h21zM264 1364h230l131 -307z" />
    <glyph glyph-name="uacute" unicode="&#xfa;" horiz-adv-x="1054" 
d="M752 -37v203q-60 -95 -155 -146t-194 -51q-115 0 -187 75q-73 76 -73 257v467q0 68 -13 104q-14 37 -32 56q-18 18 -37 23q-16 4 -26 10h260v-635q0 -124 51 -182t127 -58q51 0 101 26q54 28 90 65q37 38 62 90q24 50 24 100v417q0 62 -12 96q-13 36 -25 50
q-15 17 -29 21q-11 3 -20 10h235v-715q0 -53 6 -86q6 -32 20 -51q15 -20 32 -25q19 -6 44 -6h21zM432 1057l137 307h219z" />
    <glyph glyph-name="ucircumflex" unicode="&#xfb;" horiz-adv-x="1054" 
d="M752 -37v203q-60 -95 -155 -146t-194 -51q-115 0 -187 75q-73 76 -73 257v467q0 68 -13 104q-14 37 -32 56q-18 18 -37 23q-16 4 -26 10h260v-635q0 -124 51 -182t127 -58q51 0 101 26q54 28 90 65q37 38 62 90q24 50 24 100v417q0 62 -12 96q-13 36 -25 50
q-15 17 -29 21q-11 3 -20 10h235v-715q0 -53 6 -86q6 -32 20 -51q15 -20 32 -25q19 -6 44 -6h21zM522 1223q-44 -28 -52 -33q-36 -22 -75 -48q-26 -17 -74 -49q-23 -15 -55 -34q40 50 55 70q12 17 36.5 51t37.5 51q3 4 32 43t43 58q11 14 21 28t19 26.5t12 16.5l266 -344z
" />
    <glyph glyph-name="udieresis" unicode="&#xfc;" horiz-adv-x="1054" 
d="M752 -37v203q-60 -95 -155 -146t-194 -51q-115 0 -187 75q-73 76 -73 257v467q0 68 -13 104q-14 37 -32 56q-18 18 -37 23q-16 4 -26 10h260v-635q0 -124 51 -182t127 -58q51 0 101 26q54 28 90 65q37 38 62 90q24 50 24 100v417q0 62 -12 96q-13 36 -25 50
q-15 17 -29 21q-11 3 -20 10h235v-715q0 -53 6 -86q6 -32 20 -51q15 -20 32 -25q19 -6 44 -6h21zM799 1270q0 -38 -26 -66q-25 -26 -66 -26q-44 0 -70 26q-27 27 -27 66q0 38 27 64q28 26 70 26q43 0 67 -26q25 -27 25 -64zM442 1270q0 -40 -25 -66t-69 -26q-43 0 -68 26
q-26 28 -26 66t26 64t68 26q43 0 69 -26q25 -25 25 -64z" />
    <glyph glyph-name="yacute" unicode="&#xfd;" horiz-adv-x="993" 
d="M989 961l-18 -10q-18 -9 -33 -24q-22 -22 -41 -50q-21 -31 -43 -84l-266 -678q-78 -197 -170 -335q-91 -136 -201 -177l-184 166q23 -11 49 -15q24 -4 49 -4q43 0 81 12q37 12 75 44q35 29 74 89q40 61 81 144l-297 762q-22 52 -43 81q-20 27 -42 47q-18 17 -34 23
q-4 2 -9 4t-8 3.5t-5 1.5h350q-11 -4 -33 -23t-22 -61q0 -25 7 -47q6 -19 18 -50l202 -536l199 510q29 73 29 116q0 22 -9 44q-7 18 -19 28q-9 8 -23 14q-13 5 -17 5h303zM319 1057l138 307h219z" />
    <glyph glyph-name="thorn" unicode="&#xfe;" horiz-adv-x="1058" 
d="M979 512q0 -103 -31 -205q-29 -96 -89 -173q-59 -76 -142 -119q-85 -44 -193 -44q-76 0 -131 22q-53 21 -90 58v-246q0 -59 11 -91q12 -35 25 -52q14 -18 28 -24q5 -2 11.5 -5t8.5 -4h-311q6 0 18 6q11 5 27 25q13 15 24 52q11 36 11 93v1313q0 60 -8 100q-8 39 -20 58
q-13 20 -33 28q-18 7 -44 7h-18l270 106v-596q58 85 136 128q80 44 165 44q72 0 137 -29q69 -31 121 -90q54 -60 85 -149q32 -91 32 -213zM815 475q0 91 -18 164q-18 74 -53 127q-35 54 -83 82q-50 29 -110 29q-47 0 -91 -21q-46 -22 -79 -55q-35 -35 -56 -84
q-22 -52 -22 -105v-329q0 -103 52 -159t163 -56q74 0 130 34q54 33 93 92q38 59 56 130q18 74 18 151z" />
    <glyph glyph-name="ydieresis" unicode="&#xff;" horiz-adv-x="993" 
d="M989 961l-18 -10q-18 -9 -33 -24q-22 -22 -41 -50q-21 -31 -43 -84l-266 -678q-78 -197 -170 -335q-91 -136 -201 -177l-184 166q23 -11 49 -15q24 -4 49 -4q43 0 81 12q37 12 75 44q35 29 74 89q40 61 81 144l-297 762q-22 52 -43 81q-20 27 -42 47q-18 17 -34 23
q-4 2 -9 4t-8 3.5t-5 1.5h350q-11 -4 -33 -23t-22 -61q0 -25 7 -47q6 -19 18 -50l202 -536l199 510q29 73 29 116q0 22 -9 44q-7 18 -19 28q-9 8 -23 14q-13 5 -17 5h303zM412 1270q0 -38 -26 -66q-25 -26 -69 -26q-43 0 -68 26q-26 28 -26 66t26 64t68 26q43 0 69 -26
t26 -64zM768 1270q0 -38 -26 -66q-25 -26 -66 -26q-44 0 -70 26t-26 66q0 39 26 64q28 26 70 26q43 0 67 -26q25 -27 25 -64z" />
    <glyph glyph-name="OE" unicode="&#x152;" horiz-adv-x="1910" 
d="M1796 0h-846q-99 -31 -207 -31q-144 0 -264 53q-121 54 -203 146q-84 94 -130 221q-46 126 -46 279q0 150 51 288q48 131 139 232q86 96 214 153q126 56 276 56q52 0 108 -8q48 -7 99 -25h766v-283q-2 10 -9 38q-7 30 -29 62q-21 31 -63 57q-43 26 -114 26h-356v-516h303
q49 0 79 12q31 12 45 28q15 17 21 31q6 15 6 21v-285q0 7 -6 22t-21 30q-16 16 -44 28q-29 12 -78 12h-305v-545h368q60 0 106 11q45 11 78 34q31 22 60 65q27 40 49 101zM1018 1192q-122 92 -279 92q-105 0 -191 -40q-89 -42 -149 -113q-61 -72 -96 -177q-35 -103 -35 -227
q0 -143 37 -260q37 -119 105 -204q67 -85 162 -133q94 -48 212 -48q131 0 234 68v1042z" />
    <glyph glyph-name="oe" unicode="&#x153;" horiz-adv-x="1714" 
d="M1655 276q-43 -151 -138 -229t-233 -78q-128 0 -217 60t-139 153q-57 -91 -153 -152t-236 -61q-117 0 -203 44q-83 42 -141 114q-54 68 -82 158q-27 88 -27 178q0 91 29 187q29 94 87 171q58 76 148 124t211 48q141 0 233 -58q93 -59 146 -149q52 96 139 152
q85 55 197 55q94 0 162 -42t111 -111q45 -71 67 -159q21 -84 26 -183h-632q0 -5 1 -10t1 -9q6 -88 29 -153q24 -70 66 -122q43 -53 98 -81q58 -29 128 -29q85 0 171 48q84 47 151 134zM1475 582q0 53 -12 110q-13 60 -36 105q-24 47 -65 77q-42 31 -100 31q-64 0 -107 -29
q-47 -31 -77 -76q-31 -45 -49 -105q-17 -57 -19 -113h465zM856 455q0 76 -20 152q-21 79 -62 143t-102 104q-62 41 -146 41q-77 0 -130 -37q-54 -37 -88 -94q-34 -55 -49 -125q-15 -67 -15 -129q0 -79 20 -155q20 -77 62 -142q41 -64 103 -104q64 -41 146 -41q78 0 130 37
t87 95q34 56 49 125t15 130z" />
    <glyph glyph-name="Scaron" unicode="&#x160;" horiz-adv-x="974" 
d="M893 338q0 -56 -19 -118q-18 -58 -57 -105q-58 -72 -148 -108q-94 -38 -227 -38q-102 0 -192 30q-91 30 -160 77v311q53 -170 152 -242q98 -71 225 -71q54 0 100 14q49 15 87 42t62 71q23 42 23 102q0 89 -47 150q-44 57 -117 106t-152 88q-87 43 -153 93
q-70 53 -116 123q-48 73 -48 175q0 86 34 151q37 70 92 114q59 47 134 71q78 25 158 25q86 0 167 -27q84 -28 128 -65v-271q-40 139 -127 200q-86 60 -192 60q-60 0 -106 -18t-78 -50q-31 -31 -49 -72q-17 -38 -17 -83q0 -82 48 -136t119 -98q77 -47 154 -86q82 -41 155 -97
q72 -55 119 -130q48 -77 48 -188zM492 1481l-265 336l265 -158l256 156z" />
    <glyph glyph-name="scaron" unicode="&#x161;" horiz-adv-x="757" 
d="M696 250q0 -129 -91 -205t-251 -76q-80 0 -154 23t-118 57v240q45 -122 115 -174t159 -52q31 0 69 8q37 8 65 23q30 17 50 44q19 26 19 69q0 41 -17 69q-21 34 -50 57t-77 49q-12 7 -44.5 24.5t-51.5 27.5q-51 27 -93 54q-36 23 -71 60q-29 31 -46 72q-17 42 -17 93
q0 60 23 112q23 53 64 89q43 38 99 59q54 20 123 20q143 0 242 -65v-209q-88 182 -244 182q-73 0 -125 -39q-53 -39 -53 -104q0 -30 8 -56q8 -24 32 -47q25 -23 64 -48q38 -24 103 -58q32 -17 107 -60q51 -29 85 -62q35 -34 56 -77q20 -41 20 -100zM383 1077l-264 336
l264 -158l256 156z" />
    <glyph glyph-name="Ydieresis" unicode="&#x178;" horiz-adv-x="1318" 
d="M1010 1298q0 40 -20 52q-21 13 -29 14h311q-6 0 -21 -7q-19 -9 -41 -28q-24 -21 -58 -61q-31 -37 -73 -109l-342 -586v-383q0 -58 13 -99q12 -37 27 -57q15 -19 32 -27q15 -7 22 -7h-356q7 0 22 6q14 5 31 26q17 20 29 57q12 38 12 101v381l-344 592q-41 69 -71 106
q-26 32 -58 60q-22 19 -41 28q-15 7 -20 7h377q-4 0 -12 -3q-6 -3 -16 -9q-8 -6 -15 -19q-7 -14 -7 -33q0 -21 14 -54q14 -32 42 -81l270 -465l256 443q38 66 50 95q16 38 16 60zM952 1593q0 -39 -25 -65q-25 -27 -69 -27q-42 0 -68 27q-26 28 -26 65q0 39 26 65
q25 25 68 25q44 0 69 -25t25 -65zM594 1593q0 -37 -26 -65q-26 -27 -68 -27q-41 0 -68 27q-26 26 -26 65q0 40 26 65t68 25q43 0 68 -25q26 -26 26 -65z" />
    <glyph glyph-name="Zcaron" unicode="&#x17d;" horiz-adv-x="1198" 
d="M1094 0h-1024l766 1262h-461q-135 0 -195 -39q-59 -38 -74 -105v246h981l-763 -1262h475q77 0 133 8q55 8 88 25q35 18 56 48q23 33 40 75zM602 1481l-264 336l264 -158l256 156z" />
    <glyph glyph-name="zcaron" unicode="&#x17e;" horiz-adv-x="874" 
d="M68 0l536 877h-328q-79 0 -124 -39t-56 -103v226h727l-528 -867h379q66 0 110 36t54 99v-229h-770zM442 1077l-264 336l264 -158l256 156z" />
    <glyph glyph-name="florin" unicode="&#x192;" 
d="M926 1231q-24 25 -66 40q-44 15 -84 15q-57 0 -91 -43q-33 -42 -53 -110q-20 -67 -30 -153q-11 -87 -18 -169h161l-6 -96h-164l-53 -484q-28 -275 -123 -400q-94 -124 -278 -124q-43 0 -78 12l-70 25l50 133q16 -17 55 -39q40 -22 84 -22q157 0 194 352l62 547h-152l6 96
h154q16 124 37 225q23 111 65 187q44 81 111 127q68 47 170 47q92 0 170 -35z" />
    <glyph glyph-name="circumflex" unicode="&#x2c6;" horiz-adv-x="913" 
d="M459 1223q-44 -28 -52 -33q-36 -22 -75 -48q-3 -2 -32 -21t-43 -28q-30 -20 -54 -34q24 30 54 70q13 17 38 51.5t37 50.5q3 4 32 43t43 58q11 14 21 28t19 26.5t12 16.5l266 -344z" />
    <glyph glyph-name="tilde" unicode="&#x2dc;" horiz-adv-x="913" 
d="M752 1329q0 -33 -11 -69q-12 -40 -30 -64q-21 -28 -52 -47q-32 -19 -69 -19q-31 0 -69 19q-31 15 -70 41q-38 25 -69 41q-34 18 -63 18q-49 0 -76 -45q-28 -46 -32 -98q-16 22 -16 55t9 68q9 36 28 63q18 27 49 46q29 18 69 18q33 0 73 -19q25 -12 75 -40q5 -3 31 -18
t40 -22q34 -18 62 -18q52 0 76 46q23 45 28 97q9 -13 13 -25q4 -13 4 -28z" />
    <glyph glyph-name="endash" unicode="&#x2013;" horiz-adv-x="1388" 
d="M80 436v107h1229v-107h-1229z" />
    <glyph glyph-name="emdash" unicode="&#x2014;" horiz-adv-x="2207" 
d="M80 436v107h2048v-107h-2048z" />
    <glyph glyph-name="quoteleft" unicode="&#x2018;" horiz-adv-x="526" 
d="M426 1401q-42 -16 -81 -47q-35 -28 -66 -69q-30 -39 -46 -82q-16 -42 -16 -89q0 -26 5 -54q3 -19 14 -40q20 14 47 14q47 0 72 -29q26 -31 26 -71q0 -46 -32 -81q-31 -34 -85 -34q-36 0 -68 19q-29 17 -51 49q-17 25 -31 71q-12 40 -12 86q0 55 19 118t58 112
q41 52 102 86q63 35 145 41z" />
    <glyph glyph-name="quoteright" unicode="&#x2019;" horiz-adv-x="526" 
d="M418 1169q0 -55 -20 -117q-21 -64 -59 -112q-42 -52 -100 -86q-61 -35 -145 -41q44 18 81 48q40 32 67 69q28 38 45 83q16 42 16 89q0 26 -5 53q-4 24 -15 39q-20 -14 -45 -14q-48 0 -73 29q-26 31 -26 71q0 46 32 81q31 34 85 34q37 0 69 -19q27 -16 50 -49
q18 -26 32 -72q11 -37 11 -86z" />
    <glyph glyph-name="quotesinglbase" unicode="&#x201a;" horiz-adv-x="526" 
d="M408 -18q0 -55 -19 -118t-58 -111q-42 -51 -102 -85q-63 -35 -145 -41q44 18 81 48t66 69q28 38 45 83t17 89q0 24 -5 51q-3 17 -14 41q-22 -16 -47 -16q-49 0 -73 32q-25 33 -25 70q0 43 30 79t89 36q76 0 118 -66t42 -161z" />
    <glyph glyph-name="quotedblleft" unicode="&#x201c;" horiz-adv-x="944" 
d="M840 1401q-42 -16 -81 -47q-37 -30 -67 -69q-28 -37 -45 -82q-16 -42 -16 -89q0 -33 6 -57t14 -37q20 14 47 14q48 0 73 -29q26 -31 26 -71q0 -46 -33 -81q-33 -34 -86 -34q-69 0 -116 61q-46 59 -46 164q0 56 20 118q21 64 59 112q42 52 100 86q61 35 145 41zM434 1401
q-42 -16 -81 -47q-33 -26 -67 -69q-28 -35 -46 -82q-17 -45 -17 -89q0 -33 6 -57q5 -22 15 -37q20 14 47 14q48 0 73 -29t25 -71q0 -46 -32 -81q-31 -34 -85 -34q-69 0 -116 61t-47 164q0 60 19 118q21 64 59 112q41 52 102 86q63 35 145 41z" />
    <glyph glyph-name="quotedblright" unicode="&#x201d;" horiz-adv-x="944" 
d="M829 1169q0 -59 -19 -117q-21 -64 -59 -112q-41 -52 -102 -86q-63 -35 -145 -41q44 18 81 48t66 69q28 38 45 83t17 89q0 62 -19 92q-20 -14 -47 -14q-50 0 -74 30t-24 70q0 43 30 79t89 36q67 0 114 -61t47 -165zM424 1180q0 -55 -20 -120q-20 -64 -59 -115t-100 -89
q-59 -37 -145 -43q44 18 81 48q40 32 67 69q28 38 45 83q16 42 16 89q0 63 -20 92q-20 -14 -47 -14q-50 0 -74 30q-25 31 -25 70q0 43 30 79t89 36q69 0 116 -56q46 -55 46 -159z" />
    <glyph glyph-name="quotedblbase" unicode="&#x201e;" horiz-adv-x="929" 
d="M811 -18q0 -58 -18 -118q-18 -61 -59 -111q-43 -52 -101 -85q-62 -35 -146 -41q43 18 81 48q40 32 67 69q28 38 45 83q16 42 16 89q0 31 -4 52q-5 26 -14 40q-22 -16 -47 -16q-47 0 -73 30q-26 31 -26 72q0 46 32 81q31 34 85 34q75 0 119 -68q43 -67 43 -159zM416 -18
q0 -55 -19 -118t-58 -111q-43 -52 -101 -85q-62 -35 -146 -41q44 18 81 48q40 32 67 69q28 38 45 83q16 42 16 89q0 24 -5 51q-4 21 -13 41q-22 -16 -47 -16q-48 0 -73 30q-26 31 -26 72q0 46 33 81q33 34 86 34q78 0 119 -68t41 -159z" />
    <glyph glyph-name="dagger" unicode="&#x2020;" horiz-adv-x="1114" 
d="M813 946q49 0 79 6q28 6 45 14q16 8 21 13q7 7 7 8v-194l-6 8q-5 6 -20 14q-16 8 -46 14q-35 7 -82 7h-190v-766q0 -109 -10 -204q-10 -92 -20 -141q-13 -61 -22 -87q-3 -8 -6 -17.5t-5 -15t-3 -8.5q-2 5 -13 41q-10 34 -20 87q-11 58 -18 141q-8 91 -8 204v766h-195
q-46 0 -81 -7q-32 -6 -45 -13q-17 -8 -20 -14q-5 -8 -5 -9v194q0 -3 4 -8q4 -6 19 -13q17 -8 45 -14q30 -6 81 -6h197v201q0 67 -10 114q-9 44 -20 64q-12 23 -23 30q-14 9 -15 9h254q-2 0 -12 -6t-21 -28q-10 -20 -19 -64t-9 -119v-201h192z" />
    <glyph glyph-name="daggerdbl" unicode="&#x2021;" horiz-adv-x="1114" 
d="M963 0q-6 12 -23 20q-21 10 -44 16q-25 7 -81 7h-197v-197q0 -66 10 -113q10 -46 20 -65q12 -22 23 -29q3 -2 5.5 -3.5t4 -3t3 -2.5t2.5 -1h-256q2 0 12 6q9 5 22 28q10 18 20 65q10 48 10 118v197h-195q-49 0 -79 -6q-32 -6 -45 -13q-16 -8 -20 -15q-5 -8 -5 -9v195
q0 -3 4 -10t20 -14q15 -7 46 -13q30 -6 83 -6h191v688h-193q-46 0 -78 -5q-22 -3 -45 -14q-16 -7 -22 -15t-6 -9v194q0 -2 4 -9q4 -6 19 -14q17 -8 45 -14q30 -6 81 -6h195v197q0 66 -10 113q-10 46 -20 66q-12 24 -23 31q-14 9 -15 9h256q-2 0 -12 -6q-9 -5 -22 -29
q-11 -20 -20 -65q-10 -48 -10 -119v-197h197q49 0 78 6q28 6 44 14q17 8 20 14q1 2 2.5 4t2.5 4l1 1v-196q-4 11 -21 22q-22 10 -46 16q-28 7 -85 7h-193v-688h193q46 0 78 5q25 4 45 13q16 7 21 14q8 10 8 11v-195z" />
    <glyph glyph-name="bullet" unicode="&#x2022;" horiz-adv-x="915" 
d="M694 612q0 -48 -16 -90q-17 -44 -46 -76t-74 -52q-42 -19 -99 -19q-58 0 -100 19q-45 20 -74 52q-31 34 -47 76q-17 45 -17 90q0 44 16 90q14 41 46 76q29 32 74 52t102 20q54 0 99 -20q47 -21 75 -52q32 -35 46 -76q15 -44 15 -90z" />
    <glyph glyph-name="ellipsis" unicode="&#x2026;" horiz-adv-x="1898" 
d="M1698 94q0 -46 -32 -83q-32 -36 -91 -36t-91 36q-32 37 -32 83t32 83q32 36 91 36t91 -36q32 -37 32 -83zM1071 94q0 -46 -31 -83q-30 -36 -90 -36t-91 36q-32 37 -32 83t32 83q31 36 91 36t90 -36q31 -37 31 -83zM446 94q0 -48 -31 -83q-31 -36 -91 -36q-58 0 -91 36
q-32 35 -32 83t31 83q32 36 92 36t91 -36q31 -35 31 -83z" />
    <glyph glyph-name="perthousand" unicode="&#x2030;" horiz-adv-x="2062" 
d="M664 1079q0 -55 -19 -115q-18 -57 -54 -102q-35 -43 -90 -71q-54 -27 -124 -27q-69 0 -122 27t-88 71q-34 43 -53 102q-18 57 -18 115t19 118q18 56 54 100q37 45 88 71q53 27 120 27q72 0 125 -27t89 -72q37 -46 54 -101q19 -60 19 -116zM289 0h-109l957 1364h104z
M1317 287q0 -56 -19 -116q-17 -54 -53 -101q-34 -45 -89 -72q-54 -27 -124 -27q-72 0 -124 27t-88 72q-35 44 -53 101q-17 54 -17 116q0 58 18 115q18 58 55 102t89 71t120 27q70 0 123 -27q55 -28 89 -71q36 -45 54 -102q19 -60 19 -115zM545 1077q0 97 -45 164
q-45 68 -125 68q-82 0 -121 -65q-39 -64 -39 -161t42 -165t124 -68q81 0 122 65q42 66 42 162zM1198 287q0 96 -44 164q-43 67 -124 67q-82 0 -122 -66q-40 -65 -40 -163q0 -99 43 -164q43 -66 123 -66q82 0 123 66q41 67 41 162zM1970 287q0 -62 -17 -116q-18 -57 -53 -101
t-90 -72q-54 -27 -124 -27t-123 27t-88 72q-38 49 -54 101q-18 57 -18 116q0 58 18 115q18 56 56 102q37 44 89 71t120 27q69 0 123 -27q58 -29 90 -71q35 -46 53 -102q18 -57 18 -115zM1851 287q0 97 -43 164t-125 67q-79 0 -119 -66q-40 -65 -40 -163t42 -164t124 -66
q80 0 121 66q40 65 40 162z" />
    <glyph glyph-name="guilsinglleft" unicode="&#x2039;" horiz-adv-x="514" 
d="M322 145l-254 371l256 369h129l-254 -369l256 -371h-133z" />
    <glyph glyph-name="guilsinglright" unicode="&#x203a;" horiz-adv-x="514" 
d="M190 147h-131l254 369l-254 369h129l256 -369z" />
    <glyph glyph-name="Euro" unicode="&#x20ac;" 
d="M1010 123q-50 -65 -144 -111q-92 -45 -202 -45q-108 0 -196 41q-86 40 -152 112q-64 70 -105 165q-41 97 -59 202h-134v88h123q-1 23 -3 42q-1 13 -1 40q0 20 2 60q2 31 6 61h-127v88h140q23 108 63 196q43 94 113 170q68 74 166 120q96 45 223 45q89 0 166 -24
q78 -25 123 -62l-64 -154q-40 61 -104 96t-150 35q-81 0 -144 -36q-64 -37 -108 -95q-45 -60 -73 -135q-27 -74 -43 -156h510l-35 -88h-488q-4 -21 -4 -48v-44q0 -54 6 -111h404l-35 -88h-354q16 -82 44 -151q30 -72 75 -130q45 -57 106 -91q62 -35 139 -35q51 0 99 19
q46 18 91 52q39 30 74 72q35 43 52 84v-184z" />
    <glyph glyph-name="trademark" unicode="&#x2122;" horiz-adv-x="1273" 
d="M1180 930q0 -54 18 -70t25 -18h-176q2 0 8 3q5 3 13 12q7 9 12 28q5 20 5 47v356l-184 -459l-186 457v-350q0 -27 5 -47q4 -17 13 -29q6 -8 16 -14q7 -4 11 -4h-158q2 0 9 3q9 4 16 13q7 10 15 30q7 18 7 52v338q0 52 -19 67q-6 4 -11.5 8t-9.5 7t-5 4h182l136 -326
l131 326h170q-3 0 -10 -4q-6 -4 -14 -13q-7 -8 -13 -27q-6 -18 -6 -46v-344zM528 1364l4 -156q0 3 -7 27q-5 17 -15 32q-8 12 -26 26q-15 12 -40 12h-98v-373q0 -56 16 -72t23 -18h-174q1 0 9 3q6 2 14 12q9 10 13 28q5 20 5 47v373h-100q-25 0 -40 -12q-18 -14 -25 -26
q-9 -14 -15 -32q-8 -23 -9 -27l5 156h460z" />
    </font>
</defs>
</svg>
