<?xml version="1.0" standalone="no"?>
<!DOCTYPE svg PUBLIC "-//W3C//DTD SVG 1.1//EN" "http://www.w3.org/Graphics/SVG/1.1/DTD/svg11.dtd" >
<svg xmlns="http://www.w3.org/2000/svg" xmlns:xlink="http://www.w3.org/1999/xlink" version="1.1">
<metadata>
Created by FontForge 20170731 at Mon Sep  7 12:10:48 2020
 By Aleksey,,,
Copyright (c) 2006 by by Nick Shinn. Published by Shinn Type Foundry. All rights reserved.
</metadata>
<defs>
<font id="BeaufortW01-Bold" horiz-adv-x="1136" >
  <font-face 
    font-family="BeaufortW01-Bold"
    font-weight="700"
    font-stretch="normal"
    units-per-em="2048"
    panose-1="2 2 8 3 5 0 0 2 0 4"
    ascent="1520"
    descent="-528"
    x-height="954"
    cap-height="1364"
    bbox="-145 -451 2214 1833"
    underline-thickness="102"
    underline-position="-374"
    unicode-range="U+0002-2122"
  />
<missing-glyph horiz-adv-x="436" 
 />
    <glyph glyph-name=".notdef" horiz-adv-x="436" 
 />
    <glyph glyph-name=".null" horiz-adv-x="0" 
 />
    <glyph glyph-name="uni000D" unicode="&#xd;" horiz-adv-x="436" 
 />
    <glyph glyph-name="uni0002" horiz-adv-x="0" 
 />
    <glyph glyph-name="uni0009" unicode="&#x9;" horiz-adv-x="436" 
 />
    <glyph glyph-name="uni000A" unicode="&#xa;" horiz-adv-x="0" 
 />
    <glyph glyph-name="space" unicode=" " horiz-adv-x="436" 
 />
    <glyph glyph-name="exclam" unicode="!" horiz-adv-x="614" 
d="M170 1100q-6 86 -18 138q-12 53 -27 80q-16 30 -28 36q-13 9 -17 10h457q-4 0 -17 -8q-9 -6 -26 -36q-14 -25 -28 -80t-20 -140l-24 -416q-6 -74 -24 -135q-19 -63 -38 -100q-27 -52 -35 -64q-14 -21 -18 -25q0 3 -16 25q-15 21 -36 64t-38 99q-17 57 -22 136zM467 121
q0 -66 -44 -108q-43 -42 -116 -42q-71 0 -114 42t-43 108q0 63 43 106t114 43q73 0 116 -43q44 -44 44 -106z" />
    <glyph glyph-name="quotedbl" unicode="&#x22;" horiz-adv-x="1085" 
d="M872 1040q0 -77 -18 -143q-17 -62 -41 -115q-25 -58 -57 -104h-6q-35 52 -56 106q-23 50 -39 115q-16 64 -16 141v324h233v-324zM446 1040q0 -77 -18 -143q-17 -62 -41 -115q-25 -58 -57 -104h-8q-35 52 -56 106q-20 47 -37 115q-16 64 -16 141v324h233v-324z" />
    <glyph glyph-name="numbersign" unicode="#" horiz-adv-x="1153" 
d="M883 844l-70 -314h209v-114h-238l-94 -416h-131l90 416h-293l-94 -416h-131l92 416h-188v114h213l71 314h-202v117h227l86 403h135l-86 -403h293l84 403h139l-86 -403h183v-117h-209zM455 844l-70 -314h293l67 314h-290z" />
    <glyph glyph-name="dollar" unicode="$" 
d="M1001 395q0 -81 -24 -143q-24 -61 -68 -107q-43 -45 -101 -73q-57 -28 -124 -43v-226h-244v211q-92 10 -174 36q-80 25 -135 61v383q30 -80 77 -136q46 -56 99 -90q53 -35 112 -50t116 -15q88 0 149 38q59 37 59 107q0 64 -44 108t-110 80q-49 27 -145 71q-76 35 -144 83
t-111 115q-44 68 -44 166q0 141 79 235t216 127v191h244v-178q73 -10 136 -32q62 -22 102 -50v-324q-22 49 -61 93q-38 43 -84 71q-49 30 -98 44q-53 15 -101 15q-91 0 -135 -38t-44 -97q0 -21 9 -43q11 -50 59 -84t115 -67q90 -45 139 -69q74 -36 136 -85q64 -51 104 -118
q40 -68 40 -167z" />
    <glyph glyph-name="percent" unicode="%" horiz-adv-x="1556" 
d="M707 1061q0 -62 -21 -122q-22 -63 -61 -109t-102 -76q-61 -29 -140 -29t-140 29q-62 29 -101 76q-37 44 -60 109q-21 60 -21 122q0 63 21 123t61 106q42 48 101 76q61 29 139 29t141 -29q60 -28 102 -76q38 -44 60 -106q21 -60 21 -123zM416 0h-197l918 1364h192z
M1487 309q0 -62 -21 -122q-22 -64 -60 -107q-42 -49 -100 -76q-61 -29 -141 -29q-79 0 -140 29q-58 27 -100 76q-39 45 -61 107q-20 57 -20 122q0 66 20 123q22 62 61 107q41 47 100 75q61 29 140 29q80 0 141 -29q59 -28 100 -75q38 -43 60 -107q21 -60 21 -123zM512 1059
q0 99 -36 146q-36 46 -93 46t-91 -45q-34 -44 -34 -145q0 -102 35 -149q34 -46 92 -46t92 46q35 47 35 147zM1292 309q0 101 -35 148t-92 47q-58 0 -92 -46q-35 -47 -35 -149q0 -103 36 -146q36 -44 93 -44t91 45q34 44 34 145z" />
    <glyph glyph-name="ampersand" unicode="&#x26;" horiz-adv-x="1638" 
d="M1628 276q-17 -63 -42 -123q-25 -59 -55 -99t-73 -64q-41 -23 -96 -23q-66 0 -158 47q-91 46 -188 113q-100 -73 -215 -117q-117 -45 -248 -45q-264 0 -377 94q-115 95 -115 258q0 67 25 126q22 53 66 103q36 41 94 86q54 42 112 75q-67 82 -116 161q-54 88 -54 172
q0 86 35 153q35 68 93 112q57 44 135 67t155 23t152 -20q74 -20 131 -57q58 -38 92 -96q35 -59 35 -137q0 -65 -26 -122q-26 -55 -66 -102q-37 -43 -95 -84q-50 -36 -110 -72q87 -87 153 -147q78 -71 168 -142q33 38 57 76q24 39 46 82q22 44 32 83q11 37 11 78
q0 76 -62 121h439q-35 -22 -74 -72q-38 -49 -59 -110q-22 -66 -75 -169q-53 -102 -141 -204q64 -42 143 -78q72 -33 132 -33q44 0 75 23q29 21 64 63zM770 1065q0 64 -52 104q-53 41 -120 41q-60 0 -105 -35q-47 -36 -47 -108q0 -26 15 -56q16 -32 36 -62q19 -28 45 -61
q9 -12 24.5 -32t19.5 -25q82 51 135 108q49 53 49 126zM836 252q-108 85 -180 152q-80 74 -164 165q-56 -40 -95 -88q-37 -46 -37 -106q0 -86 64 -148q62 -61 178 -61q62 0 119 23q59 24 115 63z" />
    <glyph glyph-name="quotesingle" unicode="'" horiz-adv-x="536" 
d="M385 1040q0 -77 -18 -143q-17 -62 -41 -115q-23 -55 -58 -104h-6q-32 48 -55 106q-23 50 -39 115q-16 64 -16 141v324h233v-324z" />
    <glyph glyph-name="parenleft" unicode="(" horiz-adv-x="698" 
d="M684 -416q-139 39 -254 131t-196 217q-78 120 -125 276q-46 153 -46 308q0 156 46 309q46 152 125 274q80 123 195 214t253 131q-86 -53 -151 -151q-63 -95 -107 -220t-65 -264q-21 -141 -21 -285q0 -147 22 -288q22 -138 67 -268q42 -119 109 -224q64 -100 148 -160z
" />
    <glyph glyph-name="parenright" unicode=")" horiz-adv-x="698" 
d="M635 510q0 -159 -45 -309q-45 -149 -126 -274q-80 -123 -196 -213t-254 -130q86 53 151 151t108 220q46 130 66 264q21 141 21 285q0 148 -22 289t-66 267t-107 224q-63 99 -149 160q137 -40 253 -133q112 -90 196 -218q83 -126 126 -276q44 -152 44 -307z" />
    <glyph glyph-name="asterisk" unicode="*" horiz-adv-x="851" 
d="M823 1151q-90 -17 -167 -43q-80 -27 -152 -76q74 -51 147 -81q69 -28 166 -44l-155 -227q-12 27 -27 57q-20 40 -38 67q-28 42 -57 76q-39 45 -83 87q-29 -110 -29 -195q0 -45 4 -80q4 -37 12 -82l-254 82q13 15 41 45q24 26 48 60q20 29 51 82q27 47 51 112
q-125 -11 -198 -40q-78 -31 -126 -58v281q16 -8 54 -28q30 -16 67 -30q26 -10 88 -25q50 -12 115 -18q-46 120 -99 190q-55 72 -89 109l258 86q-13 -81 -14 -90q-5 -48 -5 -88q0 -82 25 -180q94 85 139 157q46 74 72 127z" />
    <glyph glyph-name="plus" unicode="+" horiz-adv-x="1411" 
d="M799 492v-492h-185v492h-471v182h471v485h185v-485h469v-182h-469z" />
    <glyph glyph-name="comma" unicode="," horiz-adv-x="524" 
d="M473 45q0 -72 -24 -145q-24 -74 -77 -136q-51 -60 -132 -101q-77 -39 -191 -44q50 23 86 54q46 39 72 77q33 47 49 91q18 48 18 98q0 7 -2 31q-1 17 -6 28q-16 -6 -35 -6q-69 0 -104 45q-35 46 -35 100q0 37 11 64q13 32 33 55q22 26 54 40q33 15 76 15q52 0 89 -21
q38 -21 65 -59q26 -37 40 -85q13 -46 13 -101z" />
    <glyph glyph-name="hyphen" unicode="-" horiz-adv-x="681" 
d="M86 428v193h512v-193h-512z" />
    <glyph glyph-name="period" unicode="." horiz-adv-x="524" 
d="M442 143q0 -72 -49 -121q-51 -51 -131 -51q-81 0 -130 51q-48 50 -48 121q0 73 48 123q48 49 130 49t131 -49t49 -123z" />
    <glyph glyph-name="slash" unicode="/" horiz-adv-x="960" 
d="M291 -31h-230l621 1426h223z" />
    <glyph glyph-name="zero" unicode="0" 
d="M1065 711q0 -159 -33 -296q-34 -140 -95 -236q-63 -99 -157 -154q-95 -56 -217 -56q-115 0 -206 46t-154 132q-64 86 -98 212q-33 121 -33 286q0 170 33 302q35 138 98 238q62 98 156 154t214 56q116 0 208 -50q91 -49 155 -142q63 -92 96 -217q33 -126 33 -275zM786 604
q0 158 -18 269q-18 113 -51 183q-32 69 -77 103q-44 33 -95 33q-94 0 -147 -101q-54 -102 -54 -333q0 -159 18 -270q17 -107 51 -182q31 -70 75 -103t96 -33q44 0 82 21q34 19 63 72q27 49 42 134q15 84 15 207z" />
    <glyph glyph-name="one" unicode="1" 
d="M367 0q9 4 34 26q21 18 39 48q19 32 31 80q12 49 12 122v725q-9 -10 -21 -23t-29 -30.5t-28 -29.5q-62 -66 -91 -97q-44 -47 -78 -84q-23 -25 -43 -45v264q85 90 177 198q83 98 167 210h215v-1088q0 -74 13 -122q13 -49 32 -80q18 -30 39 -48q25 -22 34 -26h-503z" />
    <glyph glyph-name="two" unicode="2" 
d="M1044 0h-1003l338 373q103 115 159 182q65 77 113 153q46 72 68 134t22 125q0 59 -18 103t-50 73q-31 28 -72 43q-38 14 -83 14q-92 0 -142 -47t-50 -104q0 -47 30 -84q30 -38 90 -50l-182 -198q-78 22 -136 95q-56 71 -56 175q0 75 30 147q29 70 95 131q62 58 159 94
q96 36 228 36q86 0 166 -24t142 -73q63 -50 100 -123q38 -76 38 -176q0 -79 -34 -157q-36 -83 -92 -165q-57 -83 -139 -179q-95 -111 -175 -201l-76 -84h338q105 0 161 34q58 35 79 70z" />
    <glyph glyph-name="three" unicode="3" 
d="M1061 350q0 -84 -39 -153q-40 -70 -107 -121q-70 -53 -160 -79q-96 -28 -202 -28q-118 0 -205 26q-88 26 -144 65t-92 87q-33 45 -46 91l256 170q12 -110 85 -177q71 -65 171 -65q82 0 142 45t60 127q0 57 -35 104q-35 46 -96 81q-61 34 -146 52q-93 20 -186 21l50 174
q1 0 20.5 -1.5l32.5 -2.5q44 -2 61 -2q60 0 109 16q52 17 90 46q39 30 60 72q22 44 22 93q0 91 -63 151t-171 60q-91 0 -141 -38q-49 -37 -49 -89q0 -49 41 -76l-250 -108q-24 30 -35 65q-12 38 -12 78q0 82 41 149t109 113q72 48 160 73q93 26 192 26q86 0 172 -25
q80 -23 143 -71q61 -46 97 -112t36 -149q0 -60 -21 -117q-19 -53 -60 -103q-36 -44 -91 -79q-50 -32 -115 -49q165 -45 241 -137q75 -92 75 -203z" />
    <glyph glyph-name="four" unicode="4" 
d="M889 322v-107q0 -69 11 -106q13 -44 26 -65q16 -26 28 -33q16 -10 21 -11h-430q4 1 20 12q14 10 29 34q13 21 26 65q11 37 11 106v105h-608v69q23 42 263 486q145 268 261 487h342v-844h178v-198h-178zM631 1128l-324 -608h324v608z" />
    <glyph glyph-name="five" unicode="5" 
d="M1055 420q0 -105 -39 -189q-38 -82 -109 -142q-69 -59 -166 -89q-99 -31 -209 -31q-108 0 -192 26q-81 25 -138 64q-56 38 -89 85t-45 85l126 87q84 58 128 87q18 -125 88 -183q68 -56 149 -56q109 0 166 54t57 149q0 61 -21 113t-76 90t-146 59q-87 20 -232 20h-162
l115 715h490q62 0 110 5q40 4 71 11q25 6 42 14q16 8 20 11l-39 -252h-495l-49 -301q146 0 271 -25q122 -24 203 -76q84 -53 127 -135q44 -83 44 -196z" />
    <glyph glyph-name="six" unicode="6" 
d="M1069 473q0 -92 -30 -182q-30 -91 -91 -162q-62 -73 -155 -117q-95 -45 -224 -45q-123 0 -215 39t-152 110q-62 73 -91 169q-31 102 -31 215q0 137 37 266q39 136 104 247q68 117 164 211q95 94 215 156l410 -37q-108 -39 -205 -89q-95 -49 -178 -117q-80 -66 -150 -154
q-68 -86 -119 -197l13 -8q52 67 127 105q73 37 159 37q100 0 179 -38q77 -37 129 -101q50 -61 77 -142q27 -80 27 -166zM819 412q0 64 -17 116q-19 58 -49 98t-79 67q-47 26 -107 26q-47 0 -89 -20q-40 -19 -67 -54q-29 -37 -43 -81q-16 -50 -16 -97q0 -61 18 -117t50 -98
q34 -44 81 -68q48 -24 107 -24q46 0 84 19q41 21 68 53q30 36 44 80q15 46 15 100z" />
    <glyph glyph-name="seven" unicode="7" 
d="M860 801q-32 -70 -84 -192q-44 -103 -73 -191q-32 -98 -50 -193q-18 -96 -18 -192q0 -12 1 -17t1 -16h-373q36 105 107 272q86 203 137 318q72 162 141 312q50 110 121 257h-448q-62 0 -102 -13q-45 -15 -73 -34q-30 -21 -51 -45q-20 -23 -33 -47l46 344h1011z" />
    <glyph glyph-name="eight" unicode="8" 
d="M1071 379q0 -101 -43 -177q-44 -77 -115 -129q-72 -52 -164 -79q-93 -27 -192 -27q-91 0 -180 21t-157 64q-66 41 -111 115q-43 70 -43 173q0 121 74 214q75 95 220 138q-123 52 -183 143q-58 88 -58 187q0 90 40 158q42 72 105 116q68 48 149 73q84 26 169 26
q79 0 162 -22q80 -21 140 -63t96 -105t36 -142q0 -99 -57 -187q-59 -91 -179 -131q164 -61 227 -156q64 -97 64 -210zM762 1001q0 43 -13 79q-14 39 -39 67t-66 46q-38 17 -95 17q-86 0 -131 -47t-45 -129q0 -42 13 -80t41 -69t68 -49q43 -19 93 -19q87 0 131 53
q43 53 43 131zM801 363q0 43 -17 88q-15 40 -48 76q-31 34 -81 55q-47 20 -114 20q-104 0 -153 -60q-50 -61 -50 -145q0 -45 15 -88q14 -41 46 -76q28 -31 78 -52q45 -19 111 -19q104 0 158 51q55 52 55 150z" />
    <glyph glyph-name="nine" unicode="9" 
d="M1059 856q0 -136 -37 -265q-39 -135 -104 -245q-68 -114 -164 -209q-93 -92 -215 -155l-410 36q115 41 205 88q93 48 178 116q78 63 148 153q70 91 120 196l-12 9q-51 -64 -127 -103q-73 -37 -158 -37q-101 0 -179 38q-75 37 -129 100q-52 61 -79 142q-26 78 -26 167
q0 95 29 183q30 92 91 163q61 72 155 117q93 45 220 45q124 0 216 -40q94 -41 155 -111q62 -71 92 -170q31 -102 31 -218zM786 891q0 61 -18 118q-18 56 -52 99q-35 45 -82 68q-48 24 -108 24q-48 0 -84 -20q-37 -21 -64 -55q-27 -35 -42 -81q-14 -43 -14 -98q0 -64 17 -118
q18 -56 49 -98q30 -40 79 -67q47 -26 106 -26q52 0 89 20q38 21 66 56q29 37 43 81q15 46 15 97z" />
    <glyph glyph-name="colon" unicode=":" horiz-adv-x="524" 
d="M440 758q0 -72 -49 -121t-129 -49q-82 0 -131 49t-49 121q0 74 49 123t131 49t130 -49t48 -123zM440 143q0 -72 -49 -121q-51 -51 -129 -51q-80 0 -131 51q-49 49 -49 121q0 74 49 123t131 49t130 -49q48 -50 48 -123z" />
    <glyph glyph-name="semicolon" unicode=";" horiz-adv-x="524" 
d="M459 758q0 -72 -49 -121t-131 -49q-83 0 -131 49t-48 121q0 74 48 123t131 49q82 0 131 -49t49 -123zM481 45q0 -72 -24 -145q-24 -74 -77 -136q-51 -60 -132 -101q-77 -39 -191 -44q48 23 84 54q46 39 72 77q33 47 49 91q19 51 19 98q0 19 -1 31q-1 17 -6 28
q-18 -6 -34 -6q-72 0 -106 45q-34 44 -34 100q0 34 12 64q14 34 32 55q22 25 55 40t75 15q52 0 90 -21q36 -20 64 -59q26 -37 40 -85q13 -46 13 -101z" />
    <glyph glyph-name="less" unicode="&#x3c;" horiz-adv-x="1411" 
d="M209 514v139l991 547v-207l-760 -409v-13l760 -393v-209z" />
    <glyph glyph-name="equal" unicode="=" horiz-adv-x="1411" 
d="M143 713v182h1125v-182h-1125zM143 274v183h1125v-183h-1125z" />
    <glyph glyph-name="greater" unicode="&#x3e;" horiz-adv-x="1411" 
d="M209 -31v209l762 408v12l-762 395v207l991 -547v-139z" />
    <glyph glyph-name="question" unicode="?" horiz-adv-x="942" 
d="M911 1085q0 -77 -29 -135q-28 -57 -75 -108q-42 -46 -98 -91q-71 -57 -99 -82q-44 -40 -74 -83q-30 -44 -30 -94q0 -43 17 -61q18 -20 46 -30q-20 -21 -49 -32q-30 -11 -55 -11q-37 0 -73 12q-39 13 -65 34q-29 23 -47 58q-18 34 -18 81q0 64 26 116q27 54 64 94
q35 38 84 77q45 36 84 72t65 74q25 37 25 83q0 65 -45 101t-110 36q-40 0 -82 -13q-43 -13 -85 -42q-43 -29 -80 -72q-39 -46 -65 -104v344q62 39 163 63q103 25 204 25q87 0 164 -22q76 -22 127 -61q54 -40 82 -97q28 -56 28 -132zM598 119q0 -64 -43 -106
q-44 -42 -115 -42q-70 0 -114 42q-43 42 -43 106q0 63 43 106t114 43t115 -42q43 -42 43 -107z" />
    <glyph glyph-name="at" unicode="@" horiz-adv-x="1906" 
d="M1790 629q0 -133 -40 -247q-41 -116 -110 -202t-163 -135t-201 -49q-105 0 -160 37t-65 141q-50 -96 -124 -138q-71 -40 -163 -40q-121 0 -190 91q-68 90 -68 251q0 99 30 207q30 107 90 199t148 150t205 58q40 0 67 -4q34 -5 62 -14q4 -1 26 -7t34 -9q38 -9 65 -9
q20 0 60 10q37 9 73 25l-113 -663q-4 -15 -4 -30v-26q0 -51 21 -84q20 -32 63 -32q53 0 113 30q57 28 108 95q50 65 81 163q32 101 32 234q0 138 -49 245q-49 106 -135 182q-82 72 -202 114q-114 40 -249 40q-152 0 -296 -53q-143 -53 -253 -154q-111 -102 -177 -249
t-66 -334q0 -158 54 -288q53 -129 156 -224t246 -147q144 -52 326 -52q187 0 353 65t288 187l92 -61q-131 -136 -324 -213q-192 -76 -407 -76q-228 0 -395 59q-171 61 -284 166q-114 106 -171 252t-57 318q0 212 76 377q78 170 203 283q127 115 296 177t352 62
q152 0 288 -45q133 -44 238 -132q101 -84 161 -211q59 -124 59 -290zM1077 676q0 59 -22 102t-88 43q-47 0 -87 -48q-40 -47 -69 -121q-29 -72 -45 -156q-16 -81 -16 -156q0 -94 26 -145q28 -54 76 -54q52 0 92 52q39 51 66 120q15 40 28 98q17 76 22 105q8 45 13 94
q4 39 4 66z" />
    <glyph glyph-name="A" unicode="A" horiz-adv-x="1529" 
d="M1325 256q32 -81 65 -133q32 -49 58 -76q27 -27 46 -36q21 -10 26 -11h-551q7 0 18 4q16 6 26 15q13 11 22 30q9 18 9 47q0 16 -7 40q-13 45 -18 57q-13 33 -24 64q-8 23 -24 67h-522l-43 -127q-21 -60 -21 -91q0 -33 10 -53q9 -18 25 -31q17 -13 29 -17q17 -5 20 -5
h-459q6 0 25 8q16 7 44 36q24 25 57 79q35 56 67 139l430 1102h241zM516 502h385l-194 504z" />
    <glyph glyph-name="B" unicode="B" horiz-adv-x="1308" 
d="M1212 367q0 -70 -25 -135q-25 -66 -78 -117q-54 -52 -130 -83q-79 -32 -182 -32h-717q7 0 22 7q17 8 35 32q17 23 33 73q14 45 14 128v888q0 77 -16 122q-17 48 -37 71q-23 27 -40 33q-17 8 -28 10h697q97 0 172 -29q77 -30 121 -74q46 -46 70 -106t24 -121
q0 -52 -17 -103q-17 -50 -48 -92q-33 -44 -76 -74t-103 -46q73 -12 132 -45q59 -34 98 -81q37 -45 59 -107q20 -56 20 -119zM905 389q0 99 -58 160t-185 61h-187v-422h207q62 0 105 17q41 16 69 44q26 26 38 64q11 34 11 76zM842 997q0 32 -13 68q-13 35 -35 57
q-26 26 -60 40q-38 16 -85 16h-174v-383h182q95 0 140 58q45 59 45 144z" />
    <glyph glyph-name="C" unicode="C" horiz-adv-x="1308" 
d="M1221 160q-73 -85 -192 -137q-123 -54 -255 -54q-173 0 -306 58q-128 56 -215 152q-84 93 -127 218q-42 123 -42 256q0 140 47 275q46 131 140 236q93 104 233 167q142 64 323 64q135 0 227 -27q93 -28 140 -53v-393q-46 121 -145 194q-100 74 -244 74q-91 0 -169 -38
q-77 -38 -131 -104t-84 -158t-30 -198q0 -108 30 -200t84 -161t132 -108t174 -39q110 0 221 57q114 58 189 154v-235z" />
    <glyph glyph-name="D" unicode="D" horiz-adv-x="1486" 
d="M1403 696q0 -136 -42 -260q-42 -125 -130 -222q-89 -98 -226 -156t-329 -58h-596q7 0 24 7q19 8 38 34q20 28 35 77q16 53 16 136v881q0 75 -18 119q-19 46 -39 69q-22 25 -42 32q-22 8 -28 9h632q163 0 292 -49q132 -50 222 -137q93 -90 142 -211q49 -122 49 -271z
M1092 680q0 107 -28 202q-26 87 -85 156q-56 65 -144 103q-86 37 -206 37h-142v-990h201q104 0 180 42q75 41 125 111q51 70 74 157q25 92 25 182z" />
    <glyph glyph-name="E" unicode="E" horiz-adv-x="1122" 
d="M1010 0h-936q4 0 23 8q15 6 37 33q20 24 35 73q15 48 15 130v891q0 75 -17 118q-18 45 -39 69q-22 25 -42 32q-18 8 -29 10h928v-365q-11 37 -27 67q-17 32 -44 56q-29 25 -71 40q-46 16 -108 16h-258v-396h225q48 0 83 10q32 9 50 21q17 11 23 24q1 3 2.5 5.5t2.5 4l2 3
t1 2.5v-324q0 1 -5 14q-4 11 -21 23q-19 14 -48 22q-32 9 -85 9h-230v-408h279q63 0 113 11q51 11 84 33q37 25 65 60t57 89z" />
    <glyph glyph-name="F" unicode="F" horiz-adv-x="1040" 
d="M993 1004q-12 32 -25 57q-15 30 -44 56q-27 24 -74 43q-45 18 -113 18h-254v-396h222q52 0 85 11t49 23t23 26q6 12 6 16v-338q0 5 -6 17t-23 25q-18 14 -49 24q-30 10 -83 10h-224v-373q0 -72 14 -117q14 -44 30 -66q19 -25 35 -32q19 -8 26 -8h-510q7 0 24 7
q19 8 38 31q21 26 35 68q15 45 15 125v908q0 75 -17 116q-18 43 -39 67q-22 25 -42 32q-18 8 -29 10h930v-360z" />
    <glyph glyph-name="G" unicode="G" horiz-adv-x="1417" 
d="M965 418q0 62 -17 102q-16 38 -38 60q-18 18 -40 27q-17 7 -24 7h514q-7 0 -24 -7q-18 -8 -38 -26q-19 -17 -35 -58q-16 -40 -16 -99v-375q-100 -40 -235 -61q-134 -21 -252 -21q-169 0 -302 58q-130 57 -216 152q-87 96 -130 218q-44 124 -44 254q0 142 48 276
q48 133 144 238q95 104 241 168t339 64q155 0 257 -31q99 -30 138 -51v-355q-23 45 -58 84q-36 40 -87 75q-46 31 -119 54q-67 21 -152 21q-97 0 -178 -37q-82 -37 -140 -103q-57 -64 -91 -160q-33 -93 -33 -206q0 -112 33 -207t90 -162t137 -105q81 -38 174 -38q44 0 84 8
q28 6 70 19v217z" />
    <glyph glyph-name="H" unicode="H" horiz-adv-x="1517" 
d="M1348 229q0 -78 14 -120q16 -47 32 -69q19 -26 34 -32q19 -8 24 -8h-508q7 0 24 7q18 7 36 30q19 23 33 68q16 50 16 124v367h-588v-367q0 -80 14 -122q16 -47 32 -69q18 -24 35 -31t23 -7h-508q7 0 24 7q18 7 36 30q20 25 34 68q15 47 15 124v906q0 76 -14 118
q-15 45 -33 69t-37 32q-15 8 -25 10h508q-7 0 -22 -7q-18 -8 -35 -31q-18 -24 -33 -70q-14 -43 -14 -121v-353h588v353q0 75 -15 119q-17 49 -32 69q-18 24 -37 32q-17 7 -25 9h508q-7 0 -22 -7q-18 -8 -35 -31q-18 -24 -33 -69q-14 -42 -14 -122v-906z" />
    <glyph glyph-name="I" unicode="I" horiz-adv-x="643" 
d="M467 211q0 -73 14 -111q16 -43 32 -63q19 -23 35 -30q17 -7 23 -7h-501q5 0 23 6q17 6 36 28q18 21 33 63q14 39 14 114v932q0 73 -14 114q-15 43 -33 67q-17 23 -36 31q-20 8 -23 9h503q-4 0 -21 -7q-18 -7 -36 -30q-20 -25 -34 -66q-15 -43 -15 -118v-932z" />
    <glyph glyph-name="J" unicode="J" horiz-adv-x="655" 
d="M186 1145q0 71 -15 115q-14 41 -35 65q-20 23 -39 30q-20 8 -25 9h512q-8 0 -23 -7q-17 -8 -35 -30q-17 -21 -32 -65t-15 -119v-1030q0 -89 -32 -167q-31 -76 -93 -135t-150 -92q-86 -32 -202 -32q85 46 135 146q49 98 49 280v1032z" />
    <glyph glyph-name="K" unicode="K" horiz-adv-x="1447" 
d="M965 0l-500 639v-412q0 -78 14 -120q16 -47 32 -69q18 -24 35 -31t23 -7h-508q7 0 24 7q19 8 36 31q20 27 34 67q15 43 15 122v908q0 76 -14 118q-15 45 -33 69t-37 32q-15 8 -25 10h508q-7 0 -22 -7q-18 -8 -35 -31q-18 -24 -33 -70q-14 -43 -14 -121v-377l338 368
q64 70 88 116q22 43 22 71q0 29 -20 39q-21 11 -31 12h537q-6 0 -28 -7q-20 -6 -65 -32q-37 -21 -101 -72q-55 -44 -132 -127l-340 -370l402 -510q68 -87 120 -136q54 -50 86 -73q37 -26 55 -30q8 -2 16 -5l9 -2h-456z" />
    <glyph glyph-name="L" unicode="L" horiz-adv-x="1114" 
d="M1006 0h-932q5 0 19 7q16 8 32 34q16 27 30 77q13 48 13 136v879q0 77 -13 120q-13 44 -32 69t-36 32q-16 8 -24 10h496q-6 0 -23 -7q-19 -8 -36 -31q-18 -24 -33 -70q-14 -43 -14 -123v-945h276q55 0 121 6q50 5 86 22q37 18 65 50q33 38 60 88z" />
    <glyph glyph-name="M" unicode="M" horiz-adv-x="1800" 
d="M1620 231q0 -78 14 -120q16 -48 34 -70q21 -26 38 -33q19 -8 25 -8h-488q8 0 22 7t32 31t31 68q13 43 13 125v779l-460 -1043l-473 1041v-764q0 -83 17 -128q18 -49 39 -74q22 -26 43 -34q22 -8 30 -8h-467q4 0 26 8q19 7 42 33q20 23 39 73q18 48 18 130v901
q0 71 -18 115q-18 43 -40 65t-44 30q-19 7 -30 9h498l363 -825l358 825h449q-7 0 -24 -7q-18 -7 -37 -31q-20 -25 -35 -68q-15 -44 -15 -119v-908z" />
    <glyph glyph-name="N" unicode="N" horiz-adv-x="1480" 
d="M1083 1139q0 73 -15 117q-15 43 -35 68q-19 23 -38 31q-18 7 -24 9h444q-6 0 -23 -7q-19 -8 -36 -31q-18 -24 -33 -68q-14 -41 -14 -119v-1139h-213q-16 40 -47 102q-34 59 -68 114q-39 63 -104 144l-457 558v-695q0 -76 16 -118q16 -43 38 -66q22 -24 41 -31
q21 -8 28 -8h-455q8 0 23 7q16 7 34 30t33 66t15 120v899q0 60 -27 104q-27 43 -61 73q-39 34 -63 47q-30 16 -36 18h434l643 -805v580z" />
    <glyph glyph-name="O" unicode="O" horiz-adv-x="1540" 
d="M1458 702q0 -147 -50 -282q-49 -132 -142 -234q-89 -97 -224 -158q-132 -59 -292 -59q-153 0 -280 55q-124 54 -210 147t-132 219q-46 125 -46 272q0 155 52 287q53 134 147 233q93 97 225 155q133 58 291 58q149 0 276 -54q124 -53 209 -147q87 -96 131 -220
q45 -126 45 -272zM1161 647q0 114 -27 213q-27 98 -80 171q-54 74 -130 115q-78 42 -179 42q-76 0 -144 -31q-66 -30 -116 -89q-49 -58 -76 -145q-28 -90 -28 -198q0 -121 29 -223q28 -97 82 -172q52 -71 130 -111q76 -39 175 -39q77 0 144 32q66 32 116 92t77 148
q27 87 27 195z" />
    <glyph glyph-name="P" unicode="P" horiz-adv-x="1200" 
d="M1147 948q0 -92 -33 -174t-96 -142t-157 -95t-212 -35q-52 0 -98 7q-56 8 -84 17v-299q0 -76 16 -120q17 -46 37 -69q21 -24 40 -31q18 -7 26 -7h-502q6 0 24 6q16 5 35 29q19 23 33 68q14 43 14 124v901q0 77 -16 122q-17 48 -37 71q-23 27 -40 33q-18 8 -27 10h628
q108 0 191 -34q85 -35 141 -91q57 -57 87 -133t30 -158zM848 940q0 105 -63 171q-64 67 -181 67h-137v-463q30 -11 70 -17q41 -6 81 -6q110 0 170 69t60 179z" />
    <glyph glyph-name="Q" unicode="Q" horiz-adv-x="1562" 
d="M1458 702q0 -190 -78 -349q-78 -158 -219 -259q109 -121 243 -185q132 -63 251 -69q-83 -52 -192 -67q-104 -14 -218 4q-110 18 -217 69q-104 50 -188 129q-44 -6 -90 -6q-153 0 -280 55q-124 54 -210 147t-132 219q-46 125 -46 272q0 155 52 287q53 134 147 233
q93 97 225 155q133 58 291 58q149 0 276 -54q124 -53 209 -147q87 -96 131 -220q45 -126 45 -272zM1161 647q0 114 -27 213q-27 98 -80 171q-54 74 -130 115q-78 42 -179 42q-76 0 -144 -31q-66 -30 -116 -89q-49 -58 -76 -145q-28 -90 -28 -198q0 -121 29 -223
q28 -97 82 -172q52 -71 130 -111q76 -39 175 -39q77 0 144 32q66 32 116 92t77 148q27 87 27 195z" />
    <glyph glyph-name="R" unicode="R" horiz-adv-x="1306" 
d="M1098 154q28 -51 57 -81q26 -28 53 -46q26 -18 42 -22q20 -5 26 -5h-416l-227 420q-37 69 -66 93t-69 24h-29v-310q0 -78 14 -119q16 -47 32 -68q19 -25 35 -32q19 -8 23 -8h-493q6 0 23 7q18 7 36 30q20 25 34 67q15 45 15 123v899q0 80 -17 124q-18 47 -39 71
q-23 26 -42 33q-18 8 -27 10h601q121 0 210 -34q94 -36 151 -90q62 -59 91 -128q31 -74 31 -147q0 -70 -23 -134t-64 -114t-105 -85q-61 -33 -142 -44q52 -33 102 -119zM854 956q0 42 -15 83q-15 40 -46 71t-77 49q-49 19 -108 19h-141v-457h143q67 0 112 19t76 53
q30 33 43 75t13 88z" />
    <glyph glyph-name="S" unicode="S" horiz-adv-x="1105" 
d="M1016 379q0 -100 -40 -176q-40 -75 -109 -128q-68 -51 -164 -79q-95 -27 -205 -27q-111 0 -223 28q-103 26 -181 75v387q37 -81 84 -136q46 -54 100 -89q49 -32 109 -48q53 -14 119 -14q94 0 162 41q67 40 67 115q0 54 -32 95q-31 40 -82 73q-44 29 -116 62
q-62 29 -128 65q-68 35 -104 60q-54 38 -88 77q-37 43 -61 98q-24 56 -24 127q0 101 39 177q39 77 105 128q67 52 154 77q90 26 192 26q98 0 189 -27t147 -66v-325q-19 35 -56 76q-35 39 -80 70q-48 33 -102 53q-53 20 -117 20q-104 0 -153 -43t-49 -107q0 -40 21 -73
t57 -60q32 -24 84 -50q32 -16 102 -48q60 -27 136 -68q68 -37 124 -87q54 -48 89 -117q34 -67 34 -162z" />
    <glyph glyph-name="T" unicode="T" horiz-adv-x="1327" 
d="M1278 993q-17 42 -32 70q-17 32 -45 58t-71 41q-46 16 -106 16h-211v-949q0 -77 13 -120q14 -46 31 -69q19 -25 35 -32q19 -8 26 -8h-508q6 0 23 7q19 8 36 31q19 26 32 68q13 43 13 123v949h-248q-50 0 -87 -16q-31 -14 -57 -41q-24 -25 -40 -59l-33 -69q10 87 18 185
q7 92 15 186h1165z" />
    <glyph glyph-name="U" unicode="U" horiz-adv-x="1429" 
d="M1014 1133q0 72 -16 120t-35 70q-22 25 -40 32t-28 9h481q-7 0 -24 -7q-19 -8 -38 -31q-20 -24 -36 -70q-16 -45 -16 -123v-644q0 -139 -37 -237t-107 -162t-168 -92q-101 -29 -223 -29q-294 0 -428 125q-133 124 -133 375v666q0 78 -14 120q-15 45 -33 69q-17 23 -36 31
q-18 7 -24 9h506q-7 0 -22 -7q-17 -8 -35 -30q-18 -23 -33 -66q-14 -41 -14 -120v-660q0 -172 69 -241q70 -70 213 -70q150 0 210 78q61 79 61 233v652z" />
    <glyph glyph-name="V" unicode="V" horiz-adv-x="1511" 
d="M1102 1266q0 32 -11 49q-13 20 -26 30t-29 15q-13 4 -20 4h473q-4 0 -23 -8q-16 -7 -45 -34q-24 -22 -59 -77q-35 -54 -68 -139l-434 -1106h-209l-444 1114q-32 80 -66 131q-35 52 -59 75q-29 27 -45 34q-15 8 -25 10h551q-7 0 -19 -4q-14 -5 -28 -13q-12 -7 -26 -28
q-11 -17 -11 -47q0 -22 9 -49q7 -20 26 -64l287 -723l276 731q11 33 18 57q7 22 7 42z" />
    <glyph glyph-name="W" unicode="W" horiz-adv-x="2119" 
d="M1718 1247q0 39 -10 59q-10 21 -24 33q-17 15 -26 18q-4 1 -11 3.5t-9 3.5h471q-4 0 -25 -8q-20 -8 -47 -35q-30 -30 -60 -77q-31 -48 -60 -136l-365 -1108h-223l-262 793l-274 -793h-220l-372 1118q-27 80 -59 130q-31 50 -57 73q-30 27 -48 33q-18 8 -27 10h551
q-4 0 -15 -4q-10 -4 -23 -17q-10 -10 -20 -33q-9 -21 -9 -57q0 -45 24 -125l223 -671l232 639l-17 49q-24 68 -48 112q-24 43 -42 66q-20 25 -31 31q-12 8 -18 10h490q-3 0 -18 -5q-9 -3 -26 -18q-13 -12 -25 -34q-11 -21 -11 -62q0 -43 24 -117l224 -669l223 674
q11 32 16 63q4 25 4 51z" />
    <glyph glyph-name="X" unicode="X" horiz-adv-x="1427" 
d="M1161 258q53 -82 103 -139q48 -54 76 -77q34 -27 50 -34q19 -8 21 -8h-582q5 0 15 3q6 2 21 11q12 8 20 25q8 18 8 41q0 32 -17 70t-59 102l-139 211l-141 -207q-45 -67 -68 -111q-20 -39 -20 -69q0 -48 22 -61q23 -13 33 -15h-494q5 0 26 8q16 6 53 35q34 27 82 79
q51 56 110 142l272 391l-307 467q-51 75 -94 125q-42 49 -71 73q-33 28 -47 34q-16 8 -24 10h574q-6 0 -14 -4q-7 -4 -19 -12t-19 -23q-8 -16 -8 -39q0 -24 16 -64q17 -42 52 -94l149 -229l158 223q45 63 62 102q18 40 18 68q0 40 -22 56q-20 14 -29 16h479q-4 0 -23 -8
q-17 -7 -48 -32q-23 -19 -72 -69q-50 -52 -97 -120l-303 -426z" />
    <glyph glyph-name="Y" unicode="Y" horiz-adv-x="1376" 
d="M985 1286q0 24 -7 38q-9 18 -16 24q-8 7 -20 12q-9 4 -14 4h444q-3 0 -17 -7t-42 -32q-24 -22 -65 -72q-41 -51 -85 -129l-327 -551v-344q0 -77 13 -120q13 -44 32 -69t34 -32q18 -8 23 -8h-506q7 0 24 7q18 7 36 30q17 21 32 68t15 124v334l-322 565q-45 78 -82 124
q-40 50 -64 71q-28 25 -45 32q-18 7 -24 9h551q-3 0 -15 -3q-11 -3 -22 -12q-10 -8 -18 -25q-9 -18 -9 -40t13 -59q12 -33 41 -86l194 -338l174 301q39 68 57 111q17 41 17 73z" />
    <glyph glyph-name="Z" unicode="Z" horiz-adv-x="1245" 
d="M1151 0h-1106l666 1178h-330q-84 0 -137 -17t-82 -45q-32 -30 -46 -66q-10 -25 -30 -79v393h1059l-660 -1176h381q132 0 205 59q72 58 121 175z" />
    <glyph glyph-name="bracketleft" unicode="[" horiz-adv-x="585" 
d="M72 -354v1749h446v-146h-235v-1456h235v-147h-446z" />
    <glyph glyph-name="backslash" unicode="\" horiz-adv-x="960" 
d="M676 -31l-619 1426h224l620 -1426h-225z" />
    <glyph glyph-name="bracketright" unicode="]" horiz-adv-x="585" 
d="M68 -354v147h233v1456h-233v146h444v-1749h-444z" />
    <glyph glyph-name="asciicircum" unicode="^" horiz-adv-x="1411" 
d="M1020 367l-318 821h-10l-301 -821h-211l432 1073h189l432 -1073h-213z" />
    <glyph glyph-name="underscore" unicode="_" horiz-adv-x="1155" 
d="M8 -279v111h1137v-111h-1137z" />
    <glyph glyph-name="grave" unicode="`" horiz-adv-x="995" 
d="M199 1364h342l100 -328z" />
    <glyph glyph-name="a" unicode="a" horiz-adv-x="1038" 
d="M825 -47q-29 5 -53 17q-28 14 -48 31q-25 22 -37 38q-15 21 -21 39q-42 -54 -122 -81q-84 -28 -165 -28q-127 0 -211 67q-82 66 -82 181q0 61 38 117q36 54 108 101q70 47 171 84q102 38 226 65v78q0 176 -135 176q-79 0 -113 -34q-35 -35 -35 -69q0 -24 12 -42
q11 -17 29 -25l-258 -99q-7 18 -17 56q-8 30 -8 59q0 70 36 127q37 59 94 98q61 43 133 63q74 21 151 21q104 0 173 -22q70 -22 114 -65q43 -41 62 -98q20 -58 20 -124v-379q0 -93 43 -142q44 -50 123 -50q1 0 11 2t11 2zM629 440q-159 -30 -228 -83t-69 -111q0 -50 37 -81
q38 -32 94 -32q61 0 114 42q52 42 52 116v149z" />
    <glyph glyph-name="b" unicode="b" horiz-adv-x="1112" 
d="M1040 524q0 -110 -34 -209q-33 -97 -99 -177q-63 -77 -152 -122t-198 -45q-68 0 -120 10q-51 10 -77 19q-42 15 -52 19q-23 10 -48 10q-38 0 -67 -17q-31 -18 -52 -43v1104q0 76 -11 116q-12 45 -29 67q-19 25 -40 32q-24 8 -45 8h-22l407 140v-566q40 50 112 87
q71 36 155 36q74 0 138 -26q67 -27 119 -84q52 -56 84 -147q31 -87 31 -212zM764 471q0 59 -12 118q-11 56 -35 103q-23 46 -59 73q-37 28 -80 28q-78 0 -128 -61q-51 -62 -51 -154v-279q0 -72 40 -109q39 -36 112 -36q53 0 93 25q39 24 67 70q26 42 40 101q13 55 13 121z
" />
    <glyph glyph-name="c" unicode="c" horiz-adv-x="944" 
d="M901 315q-17 -85 -55 -147q-40 -64 -92 -109q-51 -44 -118 -67q-66 -23 -132 -23q-107 0 -188 36q-82 36 -136 98q-56 64 -83 149q-27 86 -27 188q0 128 39 230q40 104 104 174t153 110q87 39 183 39q73 0 131 -23q59 -24 103 -66q46 -45 69 -100q25 -60 29 -128
l-250 -101q14 32 14 76q0 69 -35 113q-34 43 -100 43q-41 0 -79 -22q-36 -21 -60 -60q-25 -40 -38 -90q-14 -53 -14 -111q0 -65 19 -135q18 -67 54 -116q36 -50 89 -80q54 -31 123 -31q72 0 153 38q78 37 144 115z" />
    <glyph glyph-name="d" unicode="d" horiz-adv-x="1116" 
d="M739 -45l-2 131q-41 -51 -117 -84t-161 -33q-76 0 -149 28q-71 27 -124 86q-54 60 -85 147t-31 212q0 135 41 238t106 171q66 69 148 103q84 35 165 35q66 0 114 -15q47 -15 77 -40v143q0 71 -11 110q-12 41 -30 64q-18 22 -41 30q-21 7 -45 7h-21l408 148v-1143
q0 -66 9 -105q9 -38 26 -60t36 -29q18 -7 42 -7h26zM723 625q0 83 -42 132q-42 50 -122 50q-51 0 -93 -25q-40 -24 -67 -66q-26 -40 -41 -97q-14 -52 -14 -117q0 -148 52 -242t145 -94q71 0 127 50q55 49 55 138v271z" />
    <glyph glyph-name="e" unicode="e" horiz-adv-x="1005" 
d="M944 307q-33 -173 -141 -255q-109 -83 -277 -83q-105 0 -190 38q-81 36 -142 105q-60 68 -91 155t-31 194q0 109 31 203q31 96 92 170q60 73 144 116q85 43 191 43q188 0 293 -142q106 -143 107 -405h-604l6 -24q23 -120 106 -188t197 -68q87 0 169 36q83 36 140 105z
M682 594q0 101 -42 167t-118 66q-38 0 -73 -18q-36 -19 -61 -50q-26 -31 -42 -75q-15 -40 -20 -90h356z" />
    <glyph glyph-name="f" unicode="f" horiz-adv-x="710" 
d="M446 786v-544q0 -79 14 -127q15 -52 30 -73q19 -27 34 -34q18 -8 23 -8h-467q7 0 22 7q17 8 35 32q17 23 33 72q14 43 14 131v544h-159v168h159v58q0 107 29 186q29 78 78 129q50 51 115 75q63 23 139 23q45 0 81 -6q43 -7 52 -8v-235q-23 29 -56 49t-75 20
q-49 0 -75 -38t-26 -130v-123h232v-168h-232z" />
    <glyph glyph-name="g" unicode="g" horiz-adv-x="1056" 
d="M1018 -57q0 -59 -33 -121t-102 -111q-69 -50 -180 -80q-109 -30 -263 -30q-201 0 -297 51t-96 129q0 37 16 69q18 35 42 61q27 29 59 49q33 21 63 36q-53 16 -92 47q-37 30 -37 80q0 25 17 56q18 33 43 58q33 33 59 52q39 28 66 43q-92 38 -147 115q-56 78 -56 178
q0 72 28 140t82 118q55 51 137 81q78 29 187 29q41 0 83 -6q46 -7 81 -16q42 -11 86 -17q46 -6 92 -6q44 0 89 8q40 7 73 27v-188q-4 -1 -26 -3q-7 -1 -23.5 -1.5t-24.5 -0.5q-36 -2 -49 -2h-29q26 -38 37 -77q12 -43 12 -86q0 -65 -25 -124q-26 -60 -77 -107t-130 -75
q-78 -28 -183 -28q-15 0 -35 2q-6 1 -23 4q-84 -45 -84 -82q0 -22 42 -34q40 -11 94 -13l235 -8q80 -1 137 -23q54 -20 89 -51q33 -29 49 -69q14 -35 14 -74zM651 625q0 38 -10 74q-12 41 -31 69q-22 31 -52 50q-32 20 -73 20q-34 0 -61 -15q-25 -14 -44 -39t-26 -56
q-8 -34 -8 -64q0 -44 11 -80q13 -41 33 -70q21 -31 52 -49q32 -19 70 -19q70 0 105 55q34 53 34 124zM784 -127q0 38 -41 59q-39 20 -131 25q-23 1 -60.5 2.5t-51.5 1.5q-36 1 -80 3q-25 1 -41 1q-44 -25 -69 -52q-27 -30 -27 -58q0 -44 53 -68q55 -25 162 -25q134 0 212 31
q74 30 74 80z" />
    <glyph glyph-name="h" unicode="h" 
d="M995 215q0 -68 14 -112t30 -64q20 -24 34 -31q18 -8 25 -8h-443q8 0 19 7t25 29q13 21 24 62q10 39 10 111v385q0 104 -36 152q-37 49 -105 49q-72 0 -130 -56q-56 -55 -56 -153v-377q0 -71 12 -111q13 -43 29 -62q19 -22 33 -29t22 -7h-463q6 0 23 7t36 29q18 21 33 64
q14 41 14 117v832q0 75 -11 115q-13 46 -30 69q-19 26 -41 33q-24 8 -47 8h-20l410 162v-572q16 19 50 43q32 23 69 42q38 20 82 32q43 12 89 12q137 0 218 -84t81 -250v-444z" />
    <glyph glyph-name="i" unicode="i" horiz-adv-x="544" 
d="M403 217q0 -70 14 -115q13 -41 32 -65q18 -23 34 -30q15 -7 23 -7h-467q7 0 22 7q17 8 35 29t33 64q14 41 14 117v445q0 60 -10 96q-10 37 -28 56q-18 20 -38 27t-42 7h-27l405 153v-784zM416 1255q0 -66 -43 -110q-43 -45 -117 -45q-72 0 -116 45q-44 46 -44 110
q0 65 44 109q43 43 116 43q74 0 117 -43t43 -109z" />
    <glyph glyph-name="j" unicode="j" horiz-adv-x="544" 
d="M406 1255q0 -63 -45 -110q-43 -45 -117 -45q-72 0 -116 45q-44 46 -44 110q0 65 44 109q43 43 116 43q74 0 117 -43q45 -45 45 -109zM406 -31q0 -95 -25 -167q-23 -66 -68 -111q-44 -44 -102 -63t-131 -19q-46 0 -84 12q-36 11 -66 29q-30 17 -48 34q-21 19 -27 29
q30 -8 45 -11q25 -5 45 -5q43 0 80 12q35 11 62 43q26 31 41 83q15 53 15 132v705q0 57 -10 90q-11 34 -27 54q-18 21 -36 26q-21 6 -43 6h-29l408 153v-1032z" />
    <glyph glyph-name="k" unicode="k" horiz-adv-x="1177" 
d="M1194 33q-36 -25 -96 -41q-63 -17 -162 -17q-94 0 -161 41q-64 39 -134 134q-92 127 -102 141q-34 47 -80 105q-51 65 -53 67v-246q0 -73 13 -115q13 -43 31 -65q19 -24 33 -30q15 -7 23 -7h-463q8 0 23 7q14 6 33 30q18 22 31 65q13 42 13 115v842q0 75 -11 115
q-11 41 -30 66q-18 24 -41 32q-24 8 -45 8h-20l410 147v-884l223 235q40 40 54 70q13 27 13 49q0 15 -8 28q-6 10 -17 17q-9 6 -20 9t-12 3h498q-28 -10 -36 -14q-21 -9 -57 -32q-27 -17 -75 -57q-46 -38 -99 -91l-206 -209l278 -342q82 -102 139 -143q52 -37 88 -37
q9 0 12 1t13 3z" />
    <glyph glyph-name="l" unicode="l" horiz-adv-x="544" 
d="M403 217q0 -68 13 -114q12 -43 29 -64q20 -24 34 -31q18 -8 25 -8h-465q7 0 22 7t34 29q17 19 32 64q14 41 14 117v842q0 77 -11 117q-12 43 -29 66q-18 24 -40 31q-21 7 -47 7h-18l407 147v-1210z" />
    <glyph glyph-name="m" unicode="m" horiz-adv-x="1699" 
d="M1556 217q0 -70 14 -115q13 -43 31 -65q19 -24 33 -30q15 -7 23 -7h-453q8 0 22 7q15 7 30 30q17 26 28 65q12 44 12 115v371q0 62 -10 101t-29 64q-17 22 -43 32q-27 10 -51 10q-85 0 -135 -58q-49 -56 -49 -147v-373q0 -72 12 -114q11 -37 28 -65q14 -23 31 -31
q14 -7 21 -7h-444q5 0 19 7q16 8 31 29q17 24 28 64q12 44 12 117v371q0 115 -37 161t-90 46q-80 0 -134 -59q-55 -60 -55 -146v-373q0 -68 13 -115q12 -43 28 -65t32 -30q14 -7 22 -7h-457q7 0 22 7q17 8 35 29q19 22 32 62q13 39 13 113v446q0 63 -9 100t-24 57t-36 27
q-20 7 -43 7h-29l393 153l2 -147q29 32 64 56q40 27 78 44q43 19 84 29t84 10q76 0 137 -35q60 -34 84 -104q47 57 137 98q91 41 197 41q147 0 222 -90q74 -89 74 -252v-434z" />
    <glyph glyph-name="n" unicode="n" horiz-adv-x="1134" 
d="M993 217q0 -70 14 -115t30 -65q18 -23 34 -30q15 -7 23 -7h-455q4 0 19 6t32 28t29 62q12 41 12 113v385q0 105 -37 152q-38 49 -102 49q-35 0 -72 -16q-32 -14 -61 -43q-27 -27 -42 -66q-16 -42 -16 -84v-377q0 -65 13 -109q12 -42 28 -63q16 -22 32 -30q14 -7 24 -7
h-461q6 0 23 7t36 29t32 62q13 39 13 113v446q0 63 -9 100t-26 57t-36 27q-20 7 -41 7h-29l393 153l2 -147q24 30 61 56q40 29 75 44q44 20 83 29q41 10 82 10q132 0 215 -80q82 -79 82 -254v-442z" />
    <glyph glyph-name="o" unicode="o" horiz-adv-x="1150" 
d="M1077 502q0 -112 -36 -210t-103 -169q-68 -72 -163 -113q-96 -41 -212 -41t-205 37q-91 38 -153 103q-63 66 -97 155t-34 199q0 111 38 210q37 97 105 169q65 69 161 111q92 40 204 40q114 0 204 -37q95 -39 157 -101q65 -65 99 -156q35 -93 35 -197zM807 461
q0 71 -17 131q-18 63 -51 111t-80 77t-104 29q-51 0 -91 -24q-43 -25 -68 -63q-27 -41 -42 -95q-14 -52 -14 -117q0 -73 17 -134q18 -64 51 -114q33 -49 79 -79q45 -29 105 -29q48 0 89 24q40 24 68 66q29 43 43 97q15 57 15 120z" />
    <glyph glyph-name="p" unicode="p" horiz-adv-x="1112" 
d="M1040 516q0 -123 -33 -218q-35 -99 -96 -171t-148 -112q-86 -40 -194 -40q-57 0 -103 15q-48 16 -71 41v-187q0 -65 13 -111q13 -45 29 -65q17 -21 34 -29q20 -9 25 -10h-449q5 0 19 7q13 6 29 29t28 64q12 42 12 115v803q0 65 -10 104t-26 61q-15 21 -37 29q-20 7 -42 7
h-22l381 153l4 -147q45 64 123 102q75 37 158 37q68 0 135 -27q68 -27 122 -86q54 -58 87 -149q32 -87 32 -215zM762 459q0 73 -12 135t-36 105q-25 46 -61 70q-38 26 -86 26q-71 0 -124 -62q-52 -61 -52 -164v-268q0 -147 156 -147q54 0 93 23q41 24 68 66q28 44 41 97
t13 119z" />
    <glyph glyph-name="q" unicode="q" horiz-adv-x="1105" 
d="M971 -156q0 -69 12 -111q12 -43 30 -65q17 -21 34 -29q20 -9 24 -10h-446q4 0 17 7q14 8 29 29q15 20 27 64q13 45 13 115v250q-45 -55 -112 -88q-70 -35 -153 -35q-69 0 -139 28q-67 27 -120 84t-84 145q-31 87 -31 212q0 112 34 210q34 97 99 176q63 77 152 122t198 45
q71 0 114 -9q48 -10 74 -19q32 -11 54 -20q23 -9 51 -9q43 0 70 14q29 15 53 45v-1151zM713 666q0 71 -40 108t-112 37q-52 0 -93 -26q-40 -25 -67 -69q-26 -41 -40 -102q-13 -55 -13 -120q0 -64 12 -122q12 -59 36 -104q23 -43 59 -71q35 -27 80 -27q73 0 125 61
q53 62 53 158v277z" />
    <glyph glyph-name="r" unicode="r" horiz-adv-x="798" 
d="M758 635q-22 44 -70 78q-45 32 -100 32q-36 0 -71 -18q-33 -17 -60 -58q-26 -39 -43 -101t-17 -144v-207q0 -70 14 -115q13 -43 31 -65t35 -30q15 -7 23 -7h-463q7 0 22 7t34 29q17 19 32 64q14 41 14 117v459q0 58 -9 92q-8 33 -25 54q-15 20 -35 27t-41 7h-25l379 145
l4 -213q17 39 43 76q26 36 62 66q33 27 75 46q38 17 84 17q58 0 107 -28v-330z" />
    <glyph glyph-name="s" unicode="s" horiz-adv-x="827" 
d="M774 272q0 -141 -103 -222t-280 -81q-90 0 -180 23t-135 59v297q40 -82 120 -143q79 -60 195 -60q55 0 97 21t42 67q0 29 -15 50q-13 19 -46 40q-31 20 -77 41q-38 17 -105 54q-105 56 -152 119q-47 64 -47 151q0 139 95 222t272 83q71 0 140 -15q66 -14 114 -40v-274
q-9 16 -35 47q-21 25 -56 49t-75 39q-42 16 -94 16q-62 0 -92 -23q-31 -24 -31 -63q0 -27 12 -46q12 -20 38 -38q30 -21 63 -37q61 -29 91 -43q132 -61 188 -127t56 -166z" />
    <glyph glyph-name="t" unicode="t" horiz-adv-x="727" 
d="M698 266q-22 -164 -105 -231q-83 -68 -196 -68q-122 0 -188 71q-66 70 -66 181v567h-145l405 461v-293h265v-168h-265v-483q0 -73 33 -105q34 -32 80 -32q52 0 104 30q51 29 78 70z" />
    <glyph glyph-name="u" unicode="u" horiz-adv-x="1122" 
d="M733 -39l-2 150q-56 -67 -139 -104q-85 -38 -162 -38q-138 0 -217 81q-80 82 -80 259v426q0 73 -18 117q-18 43 -41 66q-22 22 -44 28q-23 7 -30 8h395v-587q0 -103 36 -151t101 -48q40 0 75 16q37 17 62 45q26 29 41 68t15 84v369q0 70 -13 109t-32 61q-17 19 -35 26
q-3 1 -7 2.5t-6.5 2.5l-5 2t-3.5 1h362v-655q0 -59 9 -96q8 -35 25 -58q14 -20 35 -26q20 -6 42 -6h28z" />
    <glyph glyph-name="v" unicode="v" horiz-adv-x="1134" 
d="M780 852q0 34 -11 52q-12 20 -26 31q-13 11 -28 15q-13 4 -21 4h432q-3 0 -18 -6q-14 -6 -35 -25q-19 -17 -46 -56q-27 -38 -50 -97l-315 -770h-183l-332 782q-21 49 -49 89q-25 36 -45 53q-21 18 -36 24t-21 6h496q-8 0 -19 -4q-13 -5 -24 -13q-14 -11 -21 -27
q-8 -19 -8 -44q0 -30 22 -90l168 -414l146 392q24 62 24 98z" />
    <glyph glyph-name="w" unicode="w" horiz-adv-x="1644" 
d="M1303 852q0 30 -10 52q-9 19 -22 31q-10 9 -26 15q-11 4 -18 4h422q-5 0 -20 -6q-18 -7 -37 -25q-23 -21 -46 -56q-27 -40 -49 -97l-289 -770h-182l-197 524l-196 -524h-180l-303 782q-21 53 -47 88q-26 36 -45 52q-21 18 -38 24q-3 1 -7 2.5t-6.5 2.5l-5 2t-3.5 1h479
q-11 -1 -36 -17q-23 -14 -23 -65q0 -15 5 -42q4 -22 17 -54l152 -414l149 394q0 2 -5 17q-2 5 -4.5 11t-2.5 7q-22 56 -41 85q-21 32 -37 49q-15 17 -28 23q-12 6 -17 6h438q-7 0 -18 -4q-14 -5 -24 -14q-12 -10 -19 -28q-8 -19 -8 -46q0 -36 20 -86l150 -411l135 387
q23 61 23 100z" />
    <glyph glyph-name="x" unicode="x" horiz-adv-x="1081" 
d="M924 145q30 -46 56 -74q29 -31 46 -43q26 -18 34 -22q14 -6 17 -6h-475q4 0 21 9q16 9 16 42q0 21 -11 48q-12 31 -40 73l-74 113l-72 -107q-30 -42 -46 -78q-13 -29 -13 -51q0 -29 16 -38q18 -10 23 -11h-418q4 0 21 6q16 6 44 26q29 21 64 56q37 37 82 100l184 265
l-227 333q-40 54 -67 84q-34 38 -51 52q-20 18 -35 24q-4 2 -7.5 3.5t-6 3t-3.5 1.5h477q-1 0 -4 -1.5t-8.5 -4.5t-10.5 -5q-20 -9 -20 -44q0 -20 10 -44q11 -26 37 -64l82 -121l80 118q26 40 40 71q11 25 11 46q0 29 -16 38q-18 10 -23 11h416q-6 0 -24 -6q-22 -7 -47 -24
q-22 -15 -63 -54q-37 -35 -75 -94l-184 -276z" />
    <glyph glyph-name="y" unicode="y" horiz-adv-x="1122" 
d="M1126 954q-1 0 -14 -5q-11 -4 -33 -23q-19 -16 -46 -56q-25 -36 -52 -100l-285 -684q-78 -192 -177 -318q-100 -127 -189 -161l-287 192q12 -4 38 -9q28 -5 38 -1q90 -4 175 54t159 194l-299 743q-23 58 -53 97q-26 34 -50 51q-22 16 -38 21l-17 5h498q-2 0 -14 -3
q-10 -3 -23 -12q-12 -9 -23 -28q-10 -17 -10 -49q0 -20 7 -42q6 -21 18 -52l157 -412l150 392q10 26 21 62q7 24 7 48q0 32 -11 49q-14 21 -24 29q-11 9 -27 14q-12 4 -20 4h424z" />
    <glyph glyph-name="z" unicode="z" horiz-adv-x="970" 
d="M49 0l463 801h-221q-66 0 -110 -25q-40 -23 -64 -55q-24 -31 -31 -61q-2 -8 -4.5 -17t-4 -14t-1.5 -8v333h819l-463 -790h283q63 0 101 21t60 51q20 27 28 54q8 26 9 36v-326h-864z" />
    <glyph glyph-name="braceleft" unicode="{" horiz-adv-x="796" 
d="M811 -389q-113 0 -219 8q-95 7 -167 37q-68 28 -106 83q-36 52 -36 148v291q0 104 -17 172q-17 66 -49 103q-32 36 -81 50q-45 13 -111 19q65 5 111 19q49 15 81 50t49 100q17 66 17 171v293q0 97 36 149q37 54 106 82q72 30 167 37q119 9 219 9q-149 -7 -213 -74
q-63 -66 -63 -199v-268q0 -123 -32 -196t-78 -110t-97 -49q-53 -13 -92 -14q39 -1 92 -14q49 -12 97 -50q45 -37 78 -111q32 -73 32 -195v-271q0 -133 64 -197q66 -66 212 -73z" />
    <glyph glyph-name="bar" unicode="|" horiz-adv-x="493" 
d="M139 -451v2048h215v-2048h-215z" />
    <glyph glyph-name="braceright" unicode="}" horiz-adv-x="796" 
d="M758 522q-67 -6 -112 -19q-49 -14 -81 -50q-32 -37 -49 -103q-16 -64 -16 -172v-291q0 -95 -37 -148q-38 -55 -106 -83q-72 -30 -166 -37q-104 -8 -218 -8q147 8 211 73q64 66 64 197v271q0 122 32 195q33 76 77 111q47 38 98 50q53 13 92 14q-39 1 -92 14q-53 12 -98 49
q-45 36 -77 110q-32 73 -32 196v268q0 132 -64 199q-63 66 -211 74q101 0 218 -9q94 -7 166 -37q69 -28 106 -82q37 -53 37 -149v-293q0 -108 16 -171q17 -65 49 -100t81 -50q46 -14 112 -19z" />
    <glyph glyph-name="asciitilde" unicode="~" horiz-adv-x="1417" 
d="M1288 809q4 -201 -73 -306q-77 -104 -220 -104q-89 0 -168 35q-76 34 -145 78q-63 41 -128 78q-61 35 -114 35q-50 0 -80 -42q-29 -41 -34 -157h-197q1 112 31 191q29 78 74 123t104 67q54 20 115 20q86 0 159 -33q78 -35 143 -75q113 -69 124 -76q58 -35 106 -35
q54 0 78 48q25 49 29 153h196z" />
    <glyph glyph-name="uni00A0" unicode="&#xa0;" horiz-adv-x="595" 
 />
    <glyph glyph-name="exclamdown" unicode="&#xa1;" horiz-adv-x="614" 
d="M446 -96q6 -80 19 -137q12 -53 27 -79q17 -30 26 -37q13 -10 17 -11h-455q3 0 16 8q11 7 27 36q14 25 28 78q13 48 19 142l25 415q5 81 21 133q19 61 37 99q19 41 36 63t18 27q1 -2 19 -27q14 -19 35 -63q18 -38 37 -99q18 -58 24 -133zM465 885q0 -64 -42 -106t-114 -42
q-71 0 -115 42t-44 106q0 65 44 107t115 42q72 0 114 -42t42 -107z" />
    <glyph glyph-name="cent" unicode="&#xa2;" 
d="M991 541q-27 -156 -107 -244q-82 -91 -186 -119v-203h-182v195q-173 28 -264 157q-90 128 -90 310q0 110 26 197q27 90 75 159t113 116q66 48 140 65v202h182v-196q117 -22 192 -105q74 -82 79 -205l-248 -100q12 33 12 76q0 68 -36 112q-36 43 -99 43q-46 0 -80 -21
q-35 -21 -59 -60q-25 -41 -37 -91q-12 -51 -12 -110q0 -82 20 -145q22 -68 56 -114q37 -50 87 -76q53 -28 113 -28q78 0 158 45q79 45 147 140z" />
    <glyph glyph-name="sterling" unicode="&#xa3;" 
d="M1055 63q-33 -45 -94 -69q-64 -25 -154 -25q-59 0 -120 11q-103 19 -115 21q-47 10 -111 22q-53 10 -111 10q-68 0 -141 -19q-70 -18 -111 -47l-73 211q56 1 100 24q41 21 68 71q26 47 38 131q13 85 17 204h-131v176h133q2 136 21 248q20 113 69 194q50 82 134 126
q85 45 220 45q81 0 165 -19q81 -18 132 -55l-82 -233q-7 32 -28 56t-48 39t-60 23q-38 9 -62 9q-62 0 -97 -32q-34 -31 -52 -89q-16 -51 -21 -138q-4 -71 -4 -174h245v-176h-245q0 -50 -5 -115q-5 -67 -14 -111q-11 -53 -28 -95q-18 -43 -48 -70q17 2 43 3q20 1 41 -1
q51 -1 97 -11q43 -9 98 -9q43 0 85 5q36 4 68 17q34 14 59 33q29 22 56 51z" />
    <glyph glyph-name="currency" unicode="&#xa4;" horiz-adv-x="1159" 
d="M854 285l-141 141q-30 -16 -62 -23q-35 -8 -73 -8q-34 0 -71 8q-33 7 -63 23l-139 -141l-123 123l140 135q-21 38 -27 68q-8 38 -8 71q0 79 32 137l-137 139l123 121l144 -143q58 29 129 29q77 0 135 -29l139 141l123 -121l-137 -137q32 -58 32 -137q0 -78 -32 -139
l139 -137zM729 680q0 60 -37 107q-38 49 -114 49q-73 0 -111 -49q-37 -47 -37 -107t37 -109t111 -49q76 0 113 49q38 50 38 109z" />
    <glyph glyph-name="yen" unicode="&#xa5;" horiz-adv-x="1150" 
d="M776 1284q0 48 -16 63q-17 15 -25 17h393q-3 0 -19 -8q-13 -6 -41 -33q-23 -21 -57 -72q-32 -47 -65 -127l-94 -221h213v-143h-272l-70 -160h342v-145h-358v-222q0 -80 14 -123q15 -48 32 -70q19 -26 34 -32q19 -8 24 -8h-500q7 0 24 7q19 8 36 31q18 24 33 70
q16 50 16 125v222h-363v145h344l-67 160h-277v143h219l-94 225q-27 70 -61 122q-30 47 -56 71q-27 26 -45 33q-16 8 -24 10h496q-4 0 -12 -3q-7 -3 -16 -12t-15 -26q-7 -19 -7 -45q0 -18 7 -58q6 -34 24 -81l135 -336l119 299q24 60 38 109q11 40 11 73z" />
    <glyph glyph-name="brokenbar" unicode="&#xa6;" horiz-adv-x="487" 
d="M137 666v716h213v-716h-213zM137 -358v716h213v-716h-213z" />
    <glyph glyph-name="section" unicode="&#xa7;" horiz-adv-x="1236" 
d="M1112 539q0 -92 -49 -157q-51 -68 -127 -112q60 -43 101 -100q40 -56 40 -143q0 -93 -40 -161q-40 -69 -106 -115q-63 -45 -154 -68q-89 -23 -181 -23q-138 0 -260 49q-125 50 -209 139l26 29q43 48 56 63q12 13 31.5 35t24.5 27q27 30 28 33q34 -49 77 -84
q40 -33 86 -55q43 -21 86 -30q42 -9 79 -9q72 0 120 32q50 33 50 95q0 60 -49 100q-52 42 -119 70q-81 34 -155 58q-79 26 -155 67q-72 39 -119 95q-49 58 -49 142q0 96 60 165q62 71 141 110q-83 46 -124 99q-44 58 -44 138q0 94 41 164t109 115t153 66q90 22 176 22
q56 0 119 -10q64 -10 109 -26q52 -18 91 -43q39 -24 64 -56q0 -2 -24 -31t-54 -63q-9 -10 -27.5 -31t-27.5 -31q-4 -5 -8.5 -10.5t-7.5 -8.5t-5 -6t-4 -5l-1 -1q-47 68 -118 101q-68 32 -136 32q-71 0 -120 -31q-50 -32 -50 -92q0 -57 48 -93q44 -33 121 -65q80 -33 157 -59
q87 -29 158 -69t122 -103q49 -61 49 -155zM852 494q0 40 -29 72q-31 34 -73 58q-47 26 -101 47q-55 21 -108 42q-61 -21 -96 -58q-35 -36 -35 -82q0 -41 30 -71q33 -33 79 -56q54 -27 107 -46q39 -14 113 -42q47 16 80 50q33 33 33 86z" />
    <glyph glyph-name="dieresis" unicode="&#xa8;" horiz-adv-x="995" 
d="M834 1253q0 -55 -37 -92t-97 -37q-61 0 -97 37t-36 92q0 53 36 89t97 36q62 0 98 -36t36 -89zM432 1253q0 -55 -36 -92t-95 -37q-62 0 -99 37q-38 38 -38 92q0 53 38 89t99 36q59 0 95 -36t36 -89z" />
    <glyph glyph-name="copyright" unicode="&#xa9;" horiz-adv-x="1519" 
d="M1450 682q0 -178 -59 -308q-60 -132 -157 -220q-98 -88 -222 -132q-129 -45 -254 -45q-127 0 -256 45q-124 43 -223 132q-98 87 -158 220q-60 132 -60 308t60 308q60 133 158 220q99 89 223 132q126 44 256 44q128 0 254 -44q124 -44 222 -132q97 -88 157 -220
q59 -130 59 -308zM1346 682q0 151 -51 268q-50 115 -133 192q-82 76 -188 114t-216 38q-109 0 -217 -38t-190 -114t-134 -192q-51 -114 -51 -266q0 -154 51 -268q52 -116 134 -192q81 -75 190 -115q107 -39 217 -39t216 38t188 114q83 77 133 192q51 117 51 268zM1030 334
q-38 -51 -108 -84q-73 -35 -150 -35q-103 0 -182 38q-77 37 -129 101q-51 63 -77 144t-26 166q0 96 30 183q30 88 85 153q57 68 134 107q79 40 179 40q66 0 126 -22q56 -21 104 -50v-297q-34 117 -94 169q-59 52 -127 52q-58 0 -103 -24q-44 -23 -77 -66q-32 -41 -48 -97
q-16 -55 -16 -118q0 -65 16 -122q17 -60 49 -102q34 -45 80 -70t107 -25q136 0 227 133v-174z" />
    <glyph glyph-name="ordfeminine" unicode="&#xaa;" horiz-adv-x="772" 
d="M575 647q-36 5 -72 34q-35 27 -42 54q-30 -39 -89 -57q-62 -19 -118 -19q-91 0 -152 49q-59 47 -59 130q0 90 104 158t285 106v55q0 125 -96 125q-57 0 -80 -22q-25 -23 -25 -48q0 -36 33 -51l-190 -71q-14 38 -14 40q-5 23 -5 44q0 51 26 92q25 40 67 70q41 30 97 45
q58 16 109 16q147 0 207 -63t60 -160v-273q0 -141 124 -141q6 0 9 1l12 3zM432 999q-112 -23 -162 -60q-49 -37 -49 -81q0 -35 26 -56q27 -22 66 -22q44 0 82 29q37 28 37 82v108z" />
    <glyph glyph-name="guillemotleft" unicode="&#xab;" horiz-adv-x="890" 
d="M653 131l-233 385l233 383h197l-234 -383l234 -385h-197zM272 131l-233 385l233 383h197l-233 -383l233 -385h-197z" />
    <glyph glyph-name="logicalnot" unicode="&#xac;" horiz-adv-x="1411" 
d="M1085 287v375h-942v180h1125v-555h-183z" />
    <glyph glyph-name="uni00AD" unicode="&#xad;" horiz-adv-x="696" 
d="M90 426v195h518v-195h-518z" />
    <glyph glyph-name="registered" unicode="&#xae;" horiz-adv-x="1511" 
d="M1450 682q0 -178 -59 -308q-60 -132 -157 -220q-98 -88 -222 -132q-129 -45 -254 -45q-127 0 -256 45q-124 43 -223 132q-98 87 -158 220q-60 132 -60 308t60 308q60 133 158 220q99 89 223 132q126 44 256 44q128 0 254 -44q124 -44 222 -132q97 -88 157 -220
q59 -130 59 -308zM1346 682q0 151 -51 268q-50 115 -133 192q-82 76 -188 114t-216 38q-109 0 -217 -38t-190 -114t-134 -192q-51 -114 -51 -266q0 -154 51 -268q52 -116 134 -192q81 -75 190 -115q107 -39 217 -39t216 38t188 114q83 77 133 192q51 117 51 268zM887 244
l-103 254q-22 52 -43 72q-22 20 -43 20h-22v-191q0 -52 8 -84t18 -46q9 -13 19 -19q2 -1 5 -3l4 -2l1 -1h-270q3 3 10 7t18 20q12 17 19 45q8 32 8 83v582q0 51 -9 83t-21 48q-14 19 -21 22q-9 4 -12 7h331q67 0 119 -23t85 -59q32 -35 51 -84q18 -47 18 -96q0 -39 -13 -86
q-12 -45 -34 -78q-22 -34 -58 -59q-32 -22 -78 -27q17 -11 36 -34q18 -22 40 -71l72 -174q16 -34 29 -53q16 -22 27 -32q9 -8 23 -15q10 -5 11 -6h-225zM897 864q0 59 -35 105q-34 45 -100 45h-86v-301h86q60 0 97 42q38 43 38 109z" />
    <glyph glyph-name="macron" unicode="&#xaf;" horiz-adv-x="995" 
d="M162 1174v122h669v-122h-669z" />
    <glyph glyph-name="degree" unicode="&#xb0;" horiz-adv-x="768" 
d="M690 1112q0 -56 -19 -106q-20 -52 -57 -92q-35 -38 -91 -63q-54 -24 -126 -24q-71 0 -127 24t-92 63q-35 38 -56 92q-20 52 -20 106q0 55 20 106t56 90t92 63q55 24 127 24t126 -24q56 -25 91 -63q38 -40 57 -90q19 -48 19 -106zM549 1112q0 62 -39 109t-113 47
q-73 0 -112 -47t-39 -109q0 -65 40 -112q41 -48 111 -48q71 0 112 48q40 47 40 112z" />
    <glyph glyph-name="plusminus" unicode="&#xb1;" horiz-adv-x="1411" 
d="M799 698v-381h-185v381h-452v181h452v376h185v-376h450v-181h-450zM162 0v180h1087v-180h-1087z" />
    <glyph glyph-name="uni00B2" unicode="&#xb2;" horiz-adv-x="755" 
d="M588 733q30 0 53 9q21 9 37 21q16 13 22 21q2 3 4.5 6t4.5 5.5t2 3.5l-43 -211h-631l205 221q99 105 159 184q56 74 56 142q0 45 -33 76q-34 32 -98 32q-42 0 -61 -21q-19 -20 -19 -44q0 -28 19 -46q19 -17 42 -22l-60 -69q-57 -65 -59 -68q-58 17 -95 61q-38 46 -38 111
q0 36 19 82q18 43 57 79q37 35 100 59q62 24 148 24q55 0 108 -15q56 -16 96 -43t67 -73q26 -44 26 -105q0 -83 -64 -171q-63 -87 -155 -173l-80 -76h211z" />
    <glyph glyph-name="uni00B3" unicode="&#xb3;" horiz-adv-x="755" 
d="M686 782q0 -56 -28 -98q-28 -41 -72 -68q-41 -25 -102 -39q-59 -14 -111 -14q-123 0 -208 45q-86 45 -110 107l189 125q12 -71 51 -106q38 -34 84 -34q35 0 63 20q27 20 27 60q0 60 -63 99q-64 39 -179 41l31 118q22 -4 38 -6q20 -2 40 -2q52 0 90 32q37 31 37 83
q0 40 -32 75q-30 33 -85 33q-45 0 -68 -19q-24 -20 -24 -46q0 -29 22 -45l-176 -76q-37 43 -37 107q0 30 19 70q18 38 56 70q36 30 98 52q57 20 141 20q144 0 218 -61q75 -61 75 -143q0 -74 -55 -131q-54 -55 -132 -72q90 -21 146 -70q57 -49 57 -127z" />
    <glyph glyph-name="acute" unicode="&#xb4;" horiz-adv-x="995" 
d="M418 1036l98 328h338z" />
    <glyph glyph-name="mu" unicode="&#xb5;" horiz-adv-x="1114" 
d="M723 -39l-2 148q-46 -72 -107 -105q-60 -33 -120 -33q-54 0 -101 31v-373h-262v1106q0 73 -18 117q-18 43 -41 66q-22 22 -44 28q-23 7 -30 8h395v-587q0 -99 31 -150q30 -49 100 -49q41 0 74 16q34 16 61 45q25 26 41 68q15 39 15 84v369q0 67 -14 109q-14 41 -31 61
q-17 19 -35 26q-20 7 -23 8h363v-655q0 -59 9 -96q9 -36 26 -58q15 -20 36 -26q20 -6 41 -6h29z" />
    <glyph glyph-name="paragraph" unicode="&#xb6;" horiz-adv-x="1370" 
d="M1188 1370q-16 -82 -17 -86q-7 -47 -11 -101q-5 -67 -5 -139v-1415h-164v1598h-182v-1596h-164v656q-124 1 -230 46q-104 43 -176 116q-74 74 -113 167q-40 95 -40 207q0 104 38 204q37 97 116 175q77 75 196 122q117 46 283 46h469z" />
    <glyph glyph-name="periodcentered" unicode="&#xb7;" horiz-adv-x="520" 
d="M440 485q0 -71 -50 -121q-51 -51 -130 -51q-81 0 -130 51q-48 50 -48 121q0 73 48 123q48 49 130 49t131 -49t49 -123z" />
    <glyph glyph-name="cedilla" unicode="&#xb8;" horiz-adv-x="995" 
d="M705 -219q0 -60 -56 -108q-55 -48 -160 -48q-43 0 -95 13q-47 12 -85 36q10 -3 31 -5q11 -1 33 -1q74 0 116 31q41 30 41 68q0 35 -40 63q-42 30 -123 31l98 157h135l-61 -94q85 -11 125 -52q41 -43 41 -91z" />
    <glyph glyph-name="uni00B9" unicode="&#xb9;" horiz-adv-x="585" 
d="M129 588l6 3t9 5t9 6q14 10 30 32q17 23 28 59q12 37 12 100v305q-10 -14 -39 -46q-53 -59 -55 -61q-12 -13 -34.5 -38.5t-33.5 -37.5v209q100 112 205 254h166v-585q0 -63 12 -100t29 -59t33 -32q7 -4 16 -9l8 -5h-401z" />
    <glyph glyph-name="ordmasculine" unicode="&#xba;" horiz-adv-x="806" 
d="M762 1044q0 -84 -27 -154q-28 -72 -76 -122q-51 -53 -116 -80q-69 -29 -150 -29q-76 0 -142 26q-65 25 -111 72q-47 47 -70 111q-25 69 -25 146q0 83 28 155q27 70 77 121q52 54 114 79q68 28 144 28t143 -26t113 -72q47 -47 72 -110q26 -66 26 -145zM567 1014
q0 49 -13 91q-14 45 -36 79q-24 36 -56 56q-36 22 -73 22t-64 -18q-29 -19 -47 -47q-20 -30 -30 -69q-10 -37 -10 -79q0 -52 13 -95q13 -45 36 -81q23 -37 55 -57q33 -21 74 -21q37 0 64 18q28 19 47 48q20 30 30 70q10 39 10 83z" />
    <glyph glyph-name="guillemotright" unicode="&#xbb;" horiz-adv-x="890" 
d="M614 131h-194l231 385l-231 383h194l234 -383zM236 131h-195l233 385l-233 383h195l235 -383z" />
    <glyph glyph-name="onequarter" unicode="&#xbc;" horiz-adv-x="1626" 
d="M1417 170v-47q0 -39 7 -60t19 -36q13 -16 22 -20q3 -1 7 -2.5t6.5 -3t4.5 -1.5h-340q2 1 7.5 3.5t9.5 3.5q11 4 24 19t20 36q8 26 8 61v47h-354v37l322 579h237v-487h94v-129h-94zM463 0h-172l794 1395h168zM156 588q21 13 23 14q16 11 31 32q17 23 28 59q12 37 12 100
v305q-10 -14 -39 -46q-53 -59 -55 -61q-12 -13 -34.5 -38.5t-33.5 -37.5v209q100 112 205 254h166v-585q0 -63 12 -100t29 -59q18 -23 32 -32q6 -4 15 -8.5t10 -5.5h-401zM1212 610l-163 -311h163v311z" />
    <glyph glyph-name="onehalf" unicode="&#xbd;" horiz-adv-x="1681" 
d="M1477 143q28 0 53 10q24 10 37 20q15 12 22 22q9 10 10 14l-43 -209h-630l204 219q106 112 160 185q56 76 56 141q0 48 -34 78t-87 30q-49 0 -70 -21q-20 -20 -20 -44q0 -28 19 -46q19 -17 42 -22q-10 -11 -30 -33.5t-30 -34.5q-40 -46 -59 -69q-58 17 -95 61
q-38 46 -38 111q0 36 19 82q18 43 58 79q39 35 100 59q60 24 147 24q56 0 108 -15q55 -16 95 -43q43 -29 68 -72q26 -44 26 -106q0 -83 -65 -169q-63 -84 -154 -173l-80 -78h211zM446 0h-172l795 1395h168zM156 588q21 13 23 14q16 11 31 32q17 23 28 59q12 37 12 100v305
q-10 -14 -39 -46q-53 -59 -55 -61q-12 -13 -34.5 -38.5t-33.5 -37.5v209q100 112 205 254h166v-585q0 -63 12 -100t29 -59q18 -23 32 -32q6 -4 15 -8.5t10 -5.5h-401z" />
    <glyph glyph-name="threequarters" unicode="&#xbe;" horiz-adv-x="1843" 
d="M1550 170v-47q0 -36 8 -60q8 -23 18 -36q13 -16 22 -20q3 -1 7 -2.5t6.5 -3t4.5 -1.5h-340q2 1 7.5 3.5t9.5 3.5q11 4 24 19t20 36q9 29 9 61v47h-355v37l322 579h237v-487h95v-129h-95zM696 782q0 -58 -27 -98t-73 -68q-42 -25 -101 -39t-112 -14q-123 0 -208 45
t-109 107l188 125q12 -71 51 -106q38 -34 84 -34q36 0 64 20q26 19 26 60q0 60 -63 99q-64 39 -178 41l30 118q22 -4 38 -6q20 -2 40 -2q52 0 90 32q37 31 37 83q0 40 -32 75q-30 33 -85 33q-45 0 -68 -19q-24 -20 -24 -46q0 -28 23 -45l-176 -76q-37 43 -37 107q0 32 18 70
t56 70q36 30 98 52q57 20 141 20q144 0 218 -61q75 -61 75 -143q0 -76 -54 -131t-132 -72q89 -21 145 -70q57 -49 57 -127zM596 0h-172l795 1395h167zM1346 610l-164 -311h164v311z" />
    <glyph glyph-name="questiondown" unicode="&#xbf;" horiz-adv-x="942" 
d="M657 893q0 -64 -43 -106q-44 -42 -114 -42q-72 0 -115 42t-43 106q0 65 43 107t115 42q70 0 114 -42q43 -42 43 -107zM797 -295q-65 -39 -164 -64q-101 -26 -203 -26q-90 0 -164 21t-127 62q-55 42 -82 98q-28 57 -28 132q0 77 29 135q29 59 75 109q44 48 98 90
q55 43 99 82q41 37 74 83q30 42 30 93q0 45 -17 62t-48 28q21 23 50 33t56 10q40 0 73 -11q36 -12 65 -35t47 -58t18 -80q0 -66 -26 -116q-27 -52 -64 -92q-40 -43 -85 -78q-50 -39 -85 -71q-39 -36 -65 -74q-25 -37 -25 -83q0 -65 45 -101t110 -36q41 0 83 13q43 13 86 41
q38 24 79 72q38 44 66 103v-342z" />
    <glyph glyph-name="Agrave" unicode="&#xc0;" horiz-adv-x="1529" 
d="M1325 256q32 -81 65 -133q32 -49 58 -76q27 -27 46 -36q21 -10 26 -11h-551q7 0 18 4q16 6 26 15q13 11 22 30q9 18 9 47q0 16 -7 40q-13 45 -18 57q-13 33 -24 64q-8 23 -24 67h-522l-43 -127q-21 -60 -21 -91q0 -33 10 -53q9 -18 25 -31q17 -13 29 -17q17 -5 20 -5
h-459q6 0 25 8q16 7 44 36q24 25 57 79q35 56 67 139l430 1102h241zM516 502h385l-194 504zM412 1753h338l102 -326z" />
    <glyph glyph-name="Aacute" unicode="&#xc1;" horiz-adv-x="1529" 
d="M1325 256q32 -81 65 -133q32 -49 58 -76q27 -27 46 -36q21 -10 26 -11h-551q7 0 18 4q16 6 26 15q13 11 22 30q9 18 9 47q0 16 -7 40q-13 45 -18 57q-13 33 -24 64q-8 23 -24 67h-522l-43 -127q-21 -60 -21 -91q0 -33 10 -53q9 -18 25 -31q17 -13 29 -17q17 -5 20 -5
h-459q6 0 25 8q16 7 44 36q24 25 57 79q35 56 67 139l430 1102h241zM516 502h385l-194 504zM655 1427l99 326h338z" />
    <glyph glyph-name="Acircumflex" unicode="&#xc2;" horiz-adv-x="1529" 
d="M1325 256q32 -81 65 -133q32 -49 58 -76q27 -27 46 -36q21 -10 26 -11h-551q7 0 18 4q16 6 26 15q13 11 22 30q9 18 9 47q0 16 -7 40q-13 45 -18 57q-13 33 -24 64q-8 23 -24 67h-522l-43 -127q-21 -60 -21 -91q0 -33 10 -53q9 -18 25 -31q17 -13 29 -17q17 -5 20 -5
h-459q6 0 25 8q16 7 44 36q24 25 57 79q35 56 67 139l430 1102h241zM516 502h385l-194 504zM1083 1427q-4 2 -25.5 11.5t-39.5 16.5l-51 21t-47 19q-27 11 -99 39q-45 18 -65 29q-19 -11 -64 -29t-96 -39q-74 -31 -96 -40q-14 -6 -36 -15.5t-28 -12.5q4 5 64 77
q87 105 96 115q8 10 96 115q14 17 36 42.5t28 33.5z" />
    <glyph glyph-name="Atilde" unicode="&#xc3;" horiz-adv-x="1529" 
d="M1325 256q32 -81 65 -133q32 -49 58 -76q27 -27 46 -36q21 -10 26 -11h-551q7 0 18 4q16 6 26 15q13 11 22 30q9 18 9 47q0 16 -7 40q-13 45 -18 57q-13 33 -24 64q-8 23 -24 67h-522l-43 -127q-21 -60 -21 -91q0 -33 10 -53q9 -18 25 -31q17 -13 29 -17q17 -5 20 -5
h-459q6 0 25 8q16 7 44 36q24 25 57 79q35 56 67 139l430 1102h241zM1032 1784q47 -47 47 -117q0 -36 -13 -68t-37 -59q-25 -28 -56 -42q-33 -15 -74 -15q-45 0 -83 17t-79 39q-68 37 -75 40q-38 18 -72 18q-94 0 -98 -139q-25 25 -37 57q-13 34 -13 66q0 34 12 64
q14 35 33 55q22 24 56 39q31 14 75 14q46 0 87 -17q49 -20 85 -37q28 -13 78 -37q35 -17 68 -17q55 0 75 38q21 39 21 101zM516 502h385l-194 504z" />
    <glyph glyph-name="Adieresis" unicode="&#xc4;" horiz-adv-x="1529" 
d="M1325 256q32 -81 65 -133q32 -49 58 -76q27 -27 46 -36q21 -10 26 -11h-551q7 0 18 4q16 6 26 15q13 11 22 30q9 18 9 47q0 16 -7 40q-13 45 -18 57q-13 33 -24 64q-8 23 -24 67h-522l-43 -127q-21 -60 -21 -91q0 -33 10 -53q9 -18 25 -31q17 -13 29 -17q17 -5 20 -5
h-459q6 0 25 8q16 7 44 36q24 25 57 79q35 56 67 139l430 1102h241zM516 502h385l-194 504zM694 1618q0 -54 -36 -92q-36 -37 -97 -37q-60 0 -97 37q-38 38 -38 92q0 53 38 89t97 36q61 0 97 -36t36 -89zM1096 1618q0 -55 -37 -92t-98 -37q-60 0 -96 37q-36 38 -36 92
q0 53 36 89t96 36q61 0 98 -36t37 -89z" />
    <glyph glyph-name="Aring" unicode="&#xc5;" horiz-adv-x="1529" 
d="M1325 256q32 -81 65 -133q32 -49 58 -76q27 -27 46 -36q21 -10 26 -11h-551q7 0 18 4q16 6 26 15q13 11 22 30q9 18 9 47q0 16 -7 40q-13 45 -18 57q-13 33 -24 64q-8 23 -24 67h-522l-43 -127q-21 -60 -21 -91q0 -33 10 -53q9 -18 25 -31q17 -13 29 -17q17 -5 20 -5
h-459q6 0 25 8q16 7 44 36q24 25 57 79q35 56 67 139l430 1102h241zM963 1634q0 -97 -61 -150q-59 -52 -142 -52q-81 0 -142 53q-59 52 -59 149q0 95 59 147t142 52q82 0 142 -51q61 -52 61 -148zM516 502h385l-194 504zM864 1634q0 54 -30 81q-31 28 -74 28q-45 0 -76 -29
t-31 -80q0 -53 32 -83q30 -29 75 -29t74 29q30 30 30 83z" />
    <glyph glyph-name="AE" unicode="&#xc6;" horiz-adv-x="2037" 
d="M1925 0h-942q9 2 28 12t40 40q18 25 34 84q15 54 15 147v313h-379l-197 -326q-40 -68 -57 -114q-16 -45 -16 -78q0 -23 6 -38q7 -17 15 -24q9 -8 18 -12q8 -4 14 -4h-502q2 1 25 10q17 7 49 36q33 30 75 79q45 53 101 141l557 881q43 68 58 109q16 43 16 63q0 25 -11 34
q-12 10 -14 11h1043v-365q-12 35 -29 67t-44 56q-29 25 -71 40q-46 16 -106 16h-260v-396h225q49 0 84 11q34 11 50 23q18 13 24 26q7 14 8 18v-344l-5 15q-4 11 -22 28q-15 13 -48 26q-29 11 -87 11h-229v-408h280q64 0 113 11q50 11 84 33q37 23 64 60q31 42 57 89z
M1100 1217l-266 -437h266v437z" />
    <glyph glyph-name="Ccedilla" unicode="&#xc7;" horiz-adv-x="1308" 
d="M936 -219q0 -60 -55 -108q-56 -48 -160 -48q-43 0 -95 13q-47 12 -85 36q11 -3 30 -5q11 -1 33 -1q75 0 117 31q41 30 41 68q0 35 -40 63q-42 30 -124 31l70 114q-148 17 -258 79q-110 63 -183 155q-70 88 -107 207q-36 114 -36 237q0 140 47 275q46 131 140 236
q93 104 233 167q142 64 323 64q135 0 227 -27q93 -28 140 -53v-393q-46 121 -145 194q-100 74 -244 74q-91 0 -169 -38q-77 -38 -131 -104t-84 -158t-30 -198q0 -108 30 -200t84 -161t132 -108t174 -39q110 0 221 57q114 58 189 154v-235q-68 -78 -182 -132
q-112 -53 -240 -59l-29 -45q85 -11 125 -52q41 -43 41 -91z" />
    <glyph glyph-name="Egrave" unicode="&#xc8;" horiz-adv-x="1126" 
d="M1012 0h-936q4 0 23 8q15 6 37 33q20 24 35 73q15 48 15 130v891q0 75 -17 118q-18 45 -39 69q-22 25 -42 32q-18 8 -29 10h928v-365q-13 41 -26 67q-16 30 -45 56q-29 25 -71 40q-46 16 -108 16h-258v-396h226q47 0 82 10q32 9 50 21q16 11 23 24q1 3 2.5 5.5t2.5 4l2 3
t1 2.5v-324q0 1 -5 14q-4 11 -21 23q-19 14 -48 22q-31 9 -85 9h-230v-408h279q63 0 113 11q51 11 84 33q37 25 65 60t57 89zM295 1753h338l102 -326z" />
    <glyph glyph-name="Eacute" unicode="&#xc9;" horiz-adv-x="1126" 
d="M1012 0h-936q4 0 23 8q15 6 37 33q20 24 35 73q15 48 15 130v891q0 75 -17 118q-18 45 -39 69q-22 25 -42 32q-18 8 -29 10h928v-365q-13 41 -26 67q-16 30 -45 56q-29 25 -71 40q-46 16 -108 16h-258v-396h226q47 0 82 10q32 9 50 21q16 11 23 24q1 3 2.5 5.5t2.5 4l2 3
t1 2.5v-326q-5 19 -22 35q-16 12 -48 24q-29 11 -89 11h-230v-408h279q63 0 113 11q51 11 84 33q37 25 65 60t57 89zM444 1427l99 326h338z" />
    <glyph glyph-name="Ecircumflex" unicode="&#xca;" horiz-adv-x="1126" 
d="M1012 0h-936q4 0 23 8q15 6 37 33q20 24 35 73q15 48 15 130v891q0 75 -17 118q-18 45 -39 69q-22 25 -42 32q-18 8 -29 10h928v-365q-13 41 -26 67q-16 30 -45 56q-29 25 -71 40q-46 16 -108 16h-258v-396h226q47 0 82 10q32 9 50 21q16 11 23 24q1 3 2.5 5.5t2.5 4l2 3
t1 2.5v-324q0 1 -5 14q-4 11 -21 23q-19 14 -48 22q-31 9 -85 9h-230v-408h279q63 0 113 11q51 11 84 33q37 25 65 60t57 89zM899 1427q-4 2 -25.5 11.5t-39.5 16.5q-17 7 -50.5 20.5t-48.5 19.5q-43 18 -98 39q-48 19 -66 29q-21 -12 -63 -29q-45 -18 -96 -39
q-94 -39 -97 -40q-16 -7 -36.5 -16.5t-26.5 -11.5q28 35 63 77q37 45 97 115q9 10 96 115q55 66 63 76z" />
    <glyph glyph-name="Edieresis" unicode="&#xcb;" horiz-adv-x="1126" 
d="M1012 0h-936q4 0 23 8q15 6 37 33q20 24 35 73q15 48 15 130v891q0 75 -17 118q-18 45 -39 69q-22 25 -42 32q-18 8 -29 10h928v-365q-13 41 -26 67q-16 30 -45 56q-29 25 -71 40q-46 16 -108 16h-258v-396h226q47 0 82 10q32 9 50 21q16 11 23 24q1 3 2.5 5.5t2.5 4l2 3
t1 2.5v-324q0 1 -5 14q-4 11 -21 23q-19 14 -48 22q-31 9 -85 9h-230v-408h279q63 0 113 11q51 11 84 33q37 25 65 60t57 89zM510 1618q0 -54 -36 -92q-36 -37 -97 -37q-60 0 -97 37q-38 38 -38 92q0 53 38 89q37 36 97 36q61 0 97 -36t36 -89zM911 1618q0 -55 -37 -92
t-98 -37q-59 0 -95 37q-36 38 -36 92q0 53 36 89t95 36q60 0 98 -36q37 -36 37 -89z" />
    <glyph glyph-name="Igrave" unicode="&#xcc;" horiz-adv-x="653" 
d="M467 211q0 -73 14 -111q16 -43 32 -63q19 -23 35 -30q17 -7 23 -7h-501q5 0 23 6q17 6 36 28q18 21 33 63q14 39 14 114v932q0 73 -14 114q-15 43 -33 67q-17 23 -36 31q-20 8 -23 9h503q-4 0 -21 -7q-18 -7 -36 -30q-20 -25 -34 -66q-15 -43 -15 -118v-932zM16 1753h338
l103 -326z" />
    <glyph glyph-name="Iacute" unicode="&#xcd;" horiz-adv-x="653" 
d="M467 211q0 -73 14 -111q16 -43 32 -63q19 -23 35 -30q17 -7 23 -7h-501q5 0 23 6q17 6 36 28q18 21 33 63q14 39 14 114v932q0 73 -14 114q-15 43 -33 67q-17 23 -36 31q-20 8 -23 9h503q-4 0 -21 -7q-18 -7 -36 -30q-20 -25 -34 -66q-15 -43 -15 -118v-932zM203 1427
l98 326h338z" />
    <glyph glyph-name="Icircumflex" unicode="&#xce;" horiz-adv-x="653" 
d="M467 211q0 -73 14 -111q16 -43 32 -63q19 -23 35 -30q17 -7 23 -7h-501q5 0 23 6q17 6 36 28q18 21 33 63q14 39 14 114v932q0 73 -14 114q-15 43 -33 67q-17 23 -36 31q-20 8 -23 9h503q-4 0 -21 -7q-18 -7 -36 -30q-20 -25 -34 -66q-15 -43 -15 -118v-932zM651 1427
q-4 2 -25.5 11.5t-39.5 16.5q-17 7 -50.5 20.5t-48.5 19.5q-43 18 -98 39q-45 18 -65 29q-19 -11 -64 -29t-96 -39q-74 -31 -96 -40q-14 -6 -36 -15.5t-28 -12.5q4 5 64 77q87 105 96 115q8 10 96 115q14 17 36 42.5t28 33.5z" />
    <glyph glyph-name="Idieresis" unicode="&#xcf;" horiz-adv-x="653" 
d="M467 211q0 -73 14 -111q16 -43 32 -63q19 -23 35 -30q17 -7 23 -7h-501q5 0 23 6q17 6 36 28q18 21 33 63q14 39 14 114v932q0 73 -14 114q-15 43 -33 67q-17 23 -36 31q-20 8 -23 9h503q-4 0 -21 -7q-18 -7 -36 -30q-20 -25 -34 -66q-15 -43 -15 -118v-932zM262 1618
q0 -54 -36 -92q-36 -37 -97 -37q-60 0 -97 37q-38 38 -38 92q0 53 38 89t97 36q61 0 97 -36t36 -89zM664 1618q0 -55 -37 -92t-99 -37q-59 0 -95 37q-36 38 -36 92q0 53 36 89t95 36q62 0 99 -36t37 -89z" />
    <glyph glyph-name="Eth" unicode="&#xd0;" horiz-adv-x="1486" 
d="M1403 696q0 -136 -42 -260q-42 -125 -130 -222q-89 -98 -226 -156t-329 -58h-596q7 0 24 7q19 8 38 34q20 28 35 77q16 53 16 136v346h-148v152h148v383q0 75 -18 119q-19 46 -39 69q-22 25 -42 32q-22 8 -28 9h632q163 0 292 -49q132 -50 222 -137q93 -90 142 -211
q49 -122 49 -271zM1092 680q0 107 -28 202q-26 87 -85 156q-56 65 -144 103q-86 37 -206 37h-142v-426h250v-152h-250v-412h201q104 0 180 42q75 41 125 111q51 70 74 157q25 92 25 182z" />
    <glyph glyph-name="Ntilde" unicode="&#xd1;" horiz-adv-x="1480" 
d="M1083 1139q0 73 -15 117q-15 43 -35 68q-19 23 -38 31q-18 7 -24 9h444q-6 0 -23 -7q-19 -8 -36 -31q-18 -24 -33 -68q-14 -41 -14 -119v-1139h-213q-16 40 -47 102q-34 59 -68 114q-39 63 -104 144l-457 558v-695q0 -76 16 -118q16 -43 38 -66q22 -24 41 -31
q21 -8 28 -8h-455q8 0 23 7q16 7 34 30t33 66t15 120v899q0 60 -27 104q-27 43 -61 73q-39 34 -63 47q-30 16 -36 18h434l643 -805v580zM1026 1784q47 -47 47 -117q0 -36 -13 -68t-37 -59q-25 -28 -56 -42q-33 -15 -74 -15q-45 0 -83 17t-79 39q-60 32 -76 40q-37 18 -71 18
q-95 0 -99 -139q-24 24 -36 56q-13 34 -13 67q0 37 11 64q13 33 34 55q22 24 56 39q31 14 75 14q45 0 86 -17q49 -20 85 -37q59 -27 79 -37q35 -17 68 -17q55 0 75 38q21 39 21 101z" />
    <glyph glyph-name="Ograve" unicode="&#xd2;" horiz-adv-x="1540" 
d="M1458 702q0 -147 -50 -282q-49 -132 -142 -234q-89 -97 -224 -158q-132 -59 -292 -59q-153 0 -280 55q-124 54 -210 147t-132 219q-46 125 -46 272q0 155 52 287q53 134 147 233q93 97 225 155q133 58 291 58q149 0 276 -54q124 -53 209 -147q87 -96 131 -220
q45 -126 45 -272zM1161 647q0 114 -27 213q-27 98 -80 171q-54 74 -130 115q-78 42 -179 42q-76 0 -144 -31q-66 -30 -116 -89q-49 -58 -76 -145q-28 -90 -28 -198q0 -121 29 -223q28 -97 82 -172q52 -71 130 -111q76 -39 175 -39q77 0 144 32q66 32 116 92t77 148
q27 87 27 195zM483 1753h338l103 -326z" />
    <glyph glyph-name="Oacute" unicode="&#xd3;" horiz-adv-x="1540" 
d="M1458 702q0 -147 -50 -282q-49 -132 -142 -234q-89 -97 -224 -158q-132 -59 -292 -59q-153 0 -280 55q-124 54 -210 147t-132 219q-46 125 -46 272q0 155 52 287q53 134 147 233q93 97 225 155q133 58 291 58q149 0 276 -54q124 -53 209 -147q87 -96 131 -220
q45 -126 45 -272zM1161 647q0 114 -27 213q-27 98 -80 171q-54 74 -130 115q-78 42 -179 42q-76 0 -144 -31q-66 -30 -116 -89q-49 -58 -76 -145q-28 -90 -28 -198q0 -121 29 -223q28 -97 82 -172q52 -71 130 -111q76 -39 175 -39q77 0 144 32q66 32 116 92t77 148
q27 87 27 195zM608 1427l99 326h337z" />
    <glyph glyph-name="Ocircumflex" unicode="&#xd4;" horiz-adv-x="1540" 
d="M1458 702q0 -147 -50 -282q-49 -132 -142 -234q-89 -97 -224 -158q-132 -59 -292 -59q-153 0 -280 55q-124 54 -210 147t-132 219q-46 125 -46 272q0 155 52 287q53 134 147 233q93 97 225 155q133 58 291 58q149 0 276 -54q124 -53 209 -147q87 -96 131 -220
q45 -126 45 -272zM1161 647q0 114 -27 213q-27 98 -80 171q-54 74 -130 115q-78 42 -179 42q-76 0 -144 -31q-66 -30 -116 -89q-49 -58 -76 -145q-28 -90 -28 -198q0 -121 29 -223q28 -97 82 -172q52 -71 130 -111q76 -39 175 -39q77 0 144 32q66 32 116 92t77 148
q27 87 27 195zM1104 1427q-5 2 -27 11.5t-39 16.5l-51 21t-47 19q-43 18 -98 39q-48 19 -66 29q-21 -12 -63 -29q-80 -32 -97 -39q-74 -31 -96 -40q-16 -7 -37 -16.5t-26 -11.5q28 35 63 77q88 105 96 115q60 70 97 115q55 66 63 76z" />
    <glyph glyph-name="Otilde" unicode="&#xd5;" horiz-adv-x="1540" 
d="M1458 702q0 -147 -50 -282q-49 -132 -142 -234q-89 -97 -224 -158q-132 -59 -292 -59q-153 0 -280 55q-124 54 -210 147t-132 219q-46 125 -46 272q0 155 52 287q53 134 147 233q93 97 225 155q133 58 291 58q149 0 276 -54q124 -53 209 -147q87 -96 131 -220
q45 -126 45 -272zM1161 647q0 114 -27 213q-27 98 -80 171q-54 74 -130 115q-78 42 -179 42q-76 0 -144 -31q-66 -30 -116 -89q-49 -58 -76 -145q-28 -90 -28 -198q0 -121 29 -223q28 -97 82 -172q52 -71 130 -111q76 -39 175 -39q77 0 144 32q66 32 116 92t77 148
q27 87 27 195zM1053 1784q47 -47 47 -117q0 -34 -14 -68t-36 -59q-24 -27 -57 -42t-73 -15q-45 0 -83 17t-79 39q-60 32 -76 40q-38 18 -72 18q-94 0 -98 -139q-25 25 -37 56t-12 67q0 37 11 64q13 33 34 55q23 24 55 39q31 14 76 14t86 -17q49 -20 85 -37q59 -27 79 -37
q35 -17 67 -17q55 0 75 38q22 41 22 101z" />
    <glyph glyph-name="Odieresis" unicode="&#xd6;" horiz-adv-x="1540" 
d="M1458 702q0 -147 -50 -282q-49 -132 -142 -234q-89 -97 -224 -158q-132 -59 -292 -59q-153 0 -280 55q-124 54 -210 147t-132 219q-46 125 -46 272q0 155 52 287q53 134 147 233q93 97 225 155q133 58 291 58q149 0 276 -54q124 -53 209 -147q87 -96 131 -220
q45 -126 45 -272zM1161 647q0 114 -27 213q-27 98 -80 171q-54 74 -130 115q-78 42 -179 42q-76 0 -144 -31q-66 -30 -116 -89q-49 -58 -76 -145q-28 -90 -28 -198q0 -121 29 -223q28 -97 82 -172q52 -71 130 -111q76 -39 175 -39q77 0 144 32q66 32 116 92t77 148
q27 87 27 195zM1118 1618q0 -55 -37 -92t-98 -37q-59 0 -95 37q-36 38 -36 92q0 53 36 89t95 36q61 0 98 -36t37 -89zM717 1618q0 -54 -36 -92q-36 -37 -97 -37t-98 37t-37 92q0 53 37 89q38 36 98 36q61 0 97 -36t36 -89z" />
    <glyph glyph-name="multiply" unicode="&#xd7;" horiz-adv-x="1411" 
d="M1153 2l-446 449l-449 -449l-127 129l447 449l-447 448l127 129l449 -450l446 448l129 -127l-448 -450l448 -447z" />
    <glyph glyph-name="Oslash" unicode="&#xd8;" horiz-adv-x="1523" 
d="M1450 700q0 -142 -48 -276q-48 -133 -138 -235q-88 -100 -223 -161q-134 -61 -300 -61q-89 0 -171 20q-79 19 -148 54l-88 -133l-150 47l115 172q-111 99 -168 238t-57 299q0 146 49 277q49 132 141 234q90 100 224 161t300 61q90 0 169 -21q80 -21 145 -55l80 123
l147 -51l-104 -158q111 -99 168 -238t57 -297zM373 725q0 -213 88 -352l502 741q-45 33 -104 55q-57 21 -122 21q-76 0 -144 -31q-67 -30 -116 -90q-51 -62 -77 -146q-27 -87 -27 -198zM1153 647q0 207 -88 346l-502 -741q95 -74 225 -74q79 0 145 33q67 33 116 93
q48 58 76 148t28 195z" />
    <glyph glyph-name="Ugrave" unicode="&#xd9;" horiz-adv-x="1429" 
d="M1014 1133q0 72 -16 120t-35 70q-22 25 -40 32t-28 9h481q-7 0 -24 -7q-19 -8 -38 -31q-20 -24 -36 -70q-16 -45 -16 -123v-644q0 -139 -37 -237t-107 -162t-168 -92q-101 -29 -223 -29q-294 0 -428 125q-133 124 -133 375v666q0 78 -14 120q-15 45 -33 69q-17 23 -36 31
q-18 7 -24 9h506q-7 0 -22 -7q-17 -8 -35 -30q-18 -23 -33 -66q-14 -41 -14 -120v-660q0 -172 69 -241q70 -70 213 -70q150 0 210 78q61 79 61 233v652zM399 1753h338l103 -326z" />
    <glyph glyph-name="Uacute" unicode="&#xda;" horiz-adv-x="1429" 
d="M1014 1133q0 72 -16 120t-35 70q-22 25 -40 32t-28 9h481q-7 0 -24 -7q-19 -8 -38 -31q-20 -24 -36 -70q-16 -45 -16 -123v-644q0 -139 -37 -237t-107 -162t-168 -92q-101 -29 -223 -29q-294 0 -428 125q-133 124 -133 375v666q0 78 -14 120q-15 45 -33 69q-17 23 -36 31
q-18 7 -24 9h506q-7 0 -22 -7q-17 -8 -35 -30q-18 -23 -33 -66q-14 -41 -14 -120v-660q0 -172 69 -241q70 -70 213 -70q150 0 210 78q61 79 61 233v652zM641 1427l98 326h338z" />
    <glyph glyph-name="Ucircumflex" unicode="&#xdb;" horiz-adv-x="1429" 
d="M1014 1133q0 72 -16 120t-35 70q-22 25 -40 32t-28 9h481q-7 0 -24 -7q-19 -8 -38 -31q-20 -24 -36 -70q-16 -45 -16 -123v-644q0 -139 -37 -237t-107 -162t-168 -92q-101 -29 -223 -29q-294 0 -428 125q-133 124 -133 375v666q0 78 -14 120q-15 45 -33 69q-17 23 -36 31
q-18 7 -24 9h506q-7 0 -22 -7q-17 -8 -35 -30q-18 -23 -33 -66q-14 -41 -14 -120v-660q0 -172 69 -241q70 -70 213 -70q150 0 210 78q61 79 61 233v652zM1047 1427q-5 2 -27 11.5t-39 16.5l-51 21t-47 19q-27 11 -99 39q-45 18 -65 29q-19 -11 -64 -29t-96 -39
q-74 -31 -96 -40q-14 -6 -36 -15.5t-28 -12.5q4 5 64 77q88 105 96 115q9 10 96 115q14 17 36 42.5t28 33.5z" />
    <glyph glyph-name="Udieresis" unicode="&#xdc;" horiz-adv-x="1429" 
d="M1014 1133q0 72 -16 120t-35 70q-22 25 -40 32t-28 9h481q-7 0 -24 -7q-19 -8 -38 -31q-20 -24 -36 -70q-16 -45 -16 -123v-644q0 -139 -37 -237t-107 -162t-168 -92q-101 -29 -223 -29q-294 0 -428 125q-133 124 -133 375v666q0 78 -14 120q-15 45 -33 69q-17 23 -36 31
q-18 7 -24 9h506q-7 0 -22 -7q-17 -8 -35 -30q-18 -23 -33 -66q-14 -41 -14 -120v-660q0 -172 69 -241q70 -70 213 -70q150 0 210 78q61 79 61 233v652zM662 1618q0 -54 -36 -92q-36 -37 -98 -37q-60 0 -97 37q-38 38 -38 92q0 53 38 89q37 36 97 36q62 0 98 -36t36 -89z
M1063 1618q0 -55 -37 -92t-98 -37q-59 0 -95 37q-36 38 -36 92q0 53 36 89t95 36q60 0 98 -36q37 -36 37 -89z" />
    <glyph glyph-name="Yacute" unicode="&#xdd;" horiz-adv-x="1376" 
d="M985 1286q0 24 -7 38q-9 18 -16 24q-8 7 -20 12q-9 4 -14 4h444q-3 0 -17 -7t-42 -32q-24 -22 -65 -72q-41 -51 -85 -129l-327 -551v-344q0 -77 13 -120q13 -44 32 -69t34 -32q18 -8 23 -8h-506q7 0 24 7q18 7 36 30q17 21 32 68t15 124v334l-322 565q-45 78 -82 124
q-40 50 -64 71q-28 25 -45 32q-18 7 -24 9h551q-3 0 -15 -3q-11 -3 -22 -12q-10 -8 -18 -25q-9 -18 -9 -40t13 -59q12 -33 41 -86l194 -338l174 301q39 68 57 111q17 41 17 73zM694 1427l99 326h337z" />
    <glyph glyph-name="Thorn" unicode="&#xde;" horiz-adv-x="1232" 
d="M1167 713q0 -96 -33 -175q-35 -84 -99 -145q-63 -60 -157 -98q-92 -37 -212 -37q-45 0 -103 5q-45 4 -96 18v-70q0 -73 14 -111q16 -43 32 -63q19 -23 35 -30q17 -7 23 -7h-501q5 0 23 6q17 6 36 28q18 21 33 63q14 39 14 114v940q0 73 -14 112q-15 41 -33 64t-36 30
q-17 7 -23 7h501q-7 0 -22 -7q-17 -8 -35 -29t-33 -63q-14 -39 -14 -114v-18q111 12 225 12q100 0 190 -31q87 -30 150 -87q65 -59 100 -136t35 -178zM866 707q0 111 -57 181t-168 70q-41 0 -88 -3q-43 -3 -86 -11v-481q38 -12 76 -16q48 -5 78 -5q112 0 179 73
q66 72 66 192z" />
    <glyph glyph-name="germandbls" unicode="&#xdf;" horiz-adv-x="1296" 
d="M1223 276q0 -76 -32 -134q-30 -54 -86 -93q-53 -37 -125 -55q-74 -19 -146 -19q-88 0 -171 23q-82 23 -131 63l72 201q37 -55 98 -85q62 -30 123 -30t98 27q38 27 38 72q0 50 -33 87t-82 70q-55 37 -107 64q-53 28 -106 68q-50 38 -82 80q-33 43 -33 104q0 48 23 85
q22 35 57 64t74 53q43 26 73 50q37 29 58 57q22 29 22 74q0 74 -51 116t-129 42q-53 0 -97 -21q-47 -23 -76 -57q-31 -37 -49 -88q-17 -48 -17 -113v-739q0 -82 13 -127q14 -47 32 -73q19 -27 34 -34q18 -8 23 -8h-461q5 0 23 8q14 6 32 33q16 23 30 72q13 45 13 129v686
q0 111 40 200q41 90 113 155q71 64 175 99q103 35 227 35q82 0 156 -18t129 -54q53 -34 88 -90q33 -53 33 -122q0 -59 -24 -103t-59 -76q-33 -30 -77 -58q-16 -10 -43 -26.5t-34 -21.5q-31 -19 -59 -44q-24 -21 -24 -48q0 -33 33 -60q29 -24 81 -53q14 -8 31 -17.5t39 -21.5
t35 -19q54 -30 104 -75t81 -99q33 -57 33 -135z" />
    <glyph glyph-name="agrave" unicode="&#xe0;" horiz-adv-x="1038" 
d="M825 -47q-29 5 -53 17q-28 14 -48 31q-25 22 -37 38q-15 21 -21 39q-42 -54 -122 -81q-84 -28 -165 -28q-127 0 -211 67q-82 66 -82 181q0 61 38 117q36 54 108 101q70 47 171 84q102 38 226 65v78q0 176 -135 176q-79 0 -113 -34q-35 -35 -35 -69q0 -24 12 -42
q11 -17 29 -25l-258 -99q-7 18 -17 56q-8 30 -8 59q0 70 36 127q37 59 94 98q61 43 133 63q74 21 151 21q104 0 173 -22q70 -22 114 -65q43 -41 62 -98q20 -58 20 -124v-379q0 -93 43 -142q44 -50 123 -50q1 0 11 2t11 2zM629 440q-159 -30 -228 -83t-69 -111q0 -50 37 -81
q38 -32 94 -32q61 0 114 42q52 42 52 116v149zM256 1364h342l100 -328z" />
    <glyph glyph-name="aacute" unicode="&#xe1;" horiz-adv-x="1038" 
d="M825 -47q-29 5 -53 17q-28 14 -48 31q-25 22 -37 38q-15 21 -21 39q-42 -54 -122 -81q-84 -28 -165 -28q-127 0 -211 67q-82 66 -82 181q0 61 38 117q36 54 108 101q70 47 171 84q102 38 226 65v78q0 176 -135 176q-79 0 -113 -34q-35 -35 -35 -69q0 -24 12 -42
q11 -17 29 -25l-258 -99q-7 18 -17 56q-8 30 -8 59q0 70 36 127q37 59 94 98q61 43 133 63q74 21 151 21q104 0 173 -22q70 -22 114 -65q43 -41 62 -98q20 -58 20 -124v-379q0 -93 43 -142q44 -50 123 -50q1 0 11 2t11 2zM629 440q-159 -30 -228 -83t-69 -111q0 -50 37 -81
q38 -32 94 -32q61 0 114 42q52 42 52 116v149zM401 1036l99 328h338z" />
    <glyph glyph-name="acircumflex" unicode="&#xe2;" horiz-adv-x="1038" 
d="M825 -47q-29 5 -53 17q-28 14 -48 31q-25 22 -37 38q-15 21 -21 39q-42 -54 -122 -81q-84 -28 -165 -28q-127 0 -211 67q-82 66 -82 181q0 61 38 117q36 54 108 101q70 47 171 84q102 38 226 65v78q0 176 -135 176q-79 0 -113 -34q-35 -35 -35 -69q0 -24 12 -42
q11 -17 29 -25l-258 -99q-7 18 -17 56q-8 30 -8 59q0 70 36 127q37 59 94 98q61 43 133 63q74 21 151 21q104 0 173 -22q70 -22 114 -65q43 -41 62 -98q20 -58 20 -124v-379q0 -93 43 -142q44 -50 123 -50q1 0 11 2t11 2zM629 440q-159 -30 -228 -83t-69 -111q0 -50 37 -81
q38 -32 94 -32q61 0 114 42q52 42 52 116v149zM520 1427l295 -391l-295 150l-289 -150z" />
    <glyph glyph-name="atilde" unicode="&#xe3;" horiz-adv-x="1038" 
d="M825 -47q-29 5 -53 17q-28 14 -48 31q-25 22 -37 38q-15 21 -21 39q-42 -54 -122 -81q-84 -28 -165 -28q-127 0 -211 67q-82 66 -82 181q0 61 38 117q36 54 108 101q70 47 171 84q102 38 226 65v78q0 176 -135 176q-79 0 -113 -34q-35 -35 -35 -69q0 -24 12 -42
q11 -17 29 -25l-258 -99q-7 18 -17 56q-8 30 -8 59q0 70 36 127q37 59 94 98q61 43 133 63q74 21 151 21q104 0 173 -22q70 -22 114 -65q43 -41 62 -98q20 -58 20 -124v-379q0 -93 43 -142q44 -50 123 -50q1 0 11 2t11 2zM629 440q-159 -30 -228 -83t-69 -111q0 -50 37 -81
q38 -32 94 -32q61 0 114 42q52 42 52 116v149zM842 1300q0 -32 -13 -69t-35 -62q-24 -27 -58 -43q-33 -16 -77 -16q-42 0 -80 17q-41 18 -78 39q-50 28 -75 40q-40 19 -72 19q-93 0 -98 -140q-49 49 -49 117t45 123t131 55q45 0 86 -17q49 -20 85 -37q59 -27 79 -37
q35 -17 67 -17q54 0 75 39q22 41 22 100q20 -20 33 -52q12 -30 12 -59z" />
    <glyph glyph-name="adieresis" unicode="&#xe4;" horiz-adv-x="1038" 
d="M825 -47q-29 5 -53 17q-28 14 -48 31q-25 22 -37 38q-15 21 -21 39q-42 -54 -122 -81q-84 -28 -165 -28q-127 0 -211 67q-82 66 -82 181q0 61 38 117q36 54 108 101q70 47 171 84q102 38 226 65v78q0 176 -135 176q-79 0 -113 -34q-35 -35 -35 -69q0 -24 12 -42
q11 -17 29 -25l-258 -99q-7 18 -17 56q-8 30 -8 59q0 70 36 127q37 59 94 98q61 43 133 63q74 21 151 21q104 0 173 -22q70 -22 114 -65q43 -41 62 -98q20 -58 20 -124v-379q0 -93 43 -142q44 -50 123 -50q1 0 11 2t11 2zM629 440q-159 -30 -228 -83t-69 -111q0 -50 37 -81
q38 -32 94 -32q61 0 114 42q52 42 52 116v149zM858 1253q0 -55 -37 -92t-96 -37q-61 0 -97 37t-36 92q0 53 36 89t97 36t97 -36t36 -89zM457 1253q0 -55 -36 -92t-95 -37q-63 0 -100 37q-38 38 -38 92q0 53 38 89t100 36q59 0 95 -36t36 -89z" />
    <glyph glyph-name="aring" unicode="&#xe5;" horiz-adv-x="1038" 
d="M825 -47q-29 5 -53 17q-28 14 -48 31q-25 22 -37 38q-15 21 -21 39q-42 -54 -122 -81q-84 -28 -165 -28q-127 0 -211 67q-82 66 -82 181q0 61 38 117q36 54 108 101q70 47 171 84q102 38 226 65v78q0 176 -135 176q-79 0 -113 -34q-35 -35 -35 -69q0 -24 12 -42
q11 -17 29 -25l-258 -99q-7 18 -17 56q-8 30 -8 59q0 70 36 127q37 59 94 98q61 43 133 63q74 21 151 21q104 0 173 -22q70 -22 114 -65q43 -41 62 -98q20 -58 20 -124v-379q0 -93 43 -142q44 -50 123 -50q1 0 11 2t11 2zM629 440q-159 -30 -228 -83t-69 -111q0 -50 37 -81
q38 -32 94 -32q61 0 114 42q52 42 52 116v149zM729 1247q0 -97 -60 -150q-61 -53 -143 -53q-79 0 -141 54q-59 52 -59 149q0 95 59 147t141 52q83 0 143 -51t60 -148zM631 1247q0 53 -31 81t-74 28q-44 0 -75 -29t-31 -80q0 -53 32 -83q30 -29 74 -29q45 0 74 29
q31 31 31 83z" />
    <glyph glyph-name="ae" unicode="&#xe6;" horiz-adv-x="1558" 
d="M1497 307q-33 -172 -141 -256t-277 -84q-111 0 -196 43q-87 44 -146 115q-51 -78 -142 -117t-200 -39q-145 0 -227 69t-82 179q0 61 38 117q36 54 108 101q70 47 171 84q102 38 226 65v77q0 177 -135 177q-79 0 -113 -34q-35 -35 -35 -69q0 -24 12 -42q11 -17 31 -25
l-260 -99q-23 57 -23 115q0 70 36 127t94 98q60 43 131 63q74 21 151 21q111 0 182 -28q72 -29 113 -80q51 51 118 80q65 28 152 28q188 0 293 -142q106 -143 107 -405h-604q0 -2 2 -12q0 -2 1 -4.5t2 -4.5t1 -3q27 -119 108 -186q84 -70 195 -70q84 0 167 36q82 36 142 105
zM1233 594q0 101 -42 167t-116 66q-39 0 -74 -18q-34 -18 -60 -50q-25 -31 -42 -75q-15 -40 -20 -90h354zM629 440q-159 -30 -228 -83t-69 -111q0 -50 37 -81q38 -32 94 -32q61 0 113 40q53 41 53 118v149z" />
    <glyph glyph-name="ccedilla" unicode="&#xe7;" horiz-adv-x="944" 
d="M686 -219q0 -60 -55 -108t-160 -48q-43 0 -95 13q-47 12 -85 36q10 -3 31 -5q11 -1 32 -1q75 0 117 31q41 30 41 68q0 35 -40 63q-42 30 -124 31l72 114q-85 12 -152 53q-66 41 -109 101q-46 65 -67 140q-22 78 -22 171q0 128 39 230q40 104 104 174t153 110
q87 39 183 39q73 0 131 -23q59 -24 103 -66q46 -45 69 -100q25 -60 29 -128l-250 -101q14 32 14 76q0 69 -35 113q-34 43 -100 43q-41 0 -79 -22q-36 -21 -60 -60q-25 -40 -38 -90q-14 -53 -14 -111q0 -65 19 -135q18 -67 54 -116q36 -50 89 -80q54 -31 123 -31q72 0 153 38
q78 37 144 115q-28 -150 -128 -238t-222 -104l-31 -49q85 -11 125 -52q41 -43 41 -91z" />
    <glyph glyph-name="egrave" unicode="&#xe8;" horiz-adv-x="1005" 
d="M944 307q-33 -173 -141 -255q-109 -83 -277 -83q-105 0 -190 38q-81 36 -142 105q-60 68 -91 155t-31 194q0 109 31 203q31 96 92 170q60 73 144 116q85 43 191 43q188 0 293 -142q106 -143 107 -405h-604l6 -24q23 -120 106 -188t197 -68q87 0 169 36q83 36 140 105z
M682 594q0 101 -42 167t-118 66q-38 0 -73 -18q-36 -19 -61 -50q-26 -31 -42 -75q-15 -40 -20 -90h356zM236 1364h342l100 -328z" />
    <glyph glyph-name="eacute" unicode="&#xe9;" horiz-adv-x="1005" 
d="M944 307q-33 -173 -141 -255q-109 -83 -277 -83q-105 0 -190 38q-81 36 -142 105q-60 68 -91 155t-31 194q0 109 31 203q31 96 92 170q60 73 144 116q85 43 191 43q188 0 293 -142q106 -143 107 -405h-604l6 -24q23 -120 106 -188t197 -68q87 0 169 36q83 36 140 105z
M682 594q0 101 -42 167t-118 66q-38 0 -73 -18q-36 -19 -61 -50q-26 -31 -42 -75q-15 -40 -20 -90h356zM418 1036l98 328h338z" />
    <glyph glyph-name="ecircumflex" unicode="&#xea;" horiz-adv-x="1005" 
d="M944 307q-33 -173 -141 -255q-109 -83 -277 -83q-105 0 -190 38q-81 36 -142 105q-60 68 -91 155t-31 194q0 109 31 203q31 96 92 170q60 73 144 116q85 43 191 43q188 0 293 -142q106 -143 107 -405h-604l6 -24q23 -120 106 -188t197 -68q87 0 169 36q83 36 140 105z
M514 1427l295 -391l-295 150l-289 -150zM682 594q0 101 -42 167t-118 66q-38 0 -73 -18q-36 -19 -61 -50q-26 -31 -42 -75q-15 -40 -20 -90h356z" />
    <glyph glyph-name="edieresis" unicode="&#xeb;" horiz-adv-x="1005" 
d="M944 307q-33 -173 -141 -255q-109 -83 -277 -83q-105 0 -190 38q-81 36 -142 105q-60 68 -91 155t-31 194q0 109 31 203q31 96 92 170q60 73 144 116q85 43 191 43q188 0 293 -142q106 -143 107 -405h-604l6 -24q23 -120 106 -188t197 -68q87 0 169 36q83 36 140 105z
M682 594q0 101 -42 167t-118 66q-38 0 -73 -18q-36 -19 -61 -50q-26 -31 -42 -75q-15 -40 -20 -90h356zM451 1253q0 -55 -36 -92t-96 -37q-62 0 -99 37q-38 38 -38 92q0 53 38 89t99 36q60 0 96 -36t36 -89zM852 1253q0 -55 -37 -92t-96 -37q-61 0 -97 37t-36 92q0 53 36 89
t97 36t97 -36t36 -89z" />
    <glyph glyph-name="igrave" unicode="&#xec;" horiz-adv-x="544" 
d="M412 217q0 -73 13 -115q13 -41 32 -65q18 -22 35 -30q15 -7 22 -7h-473q7 0 24 7q16 7 35 29q18 21 33 64q14 41 14 117v442q0 61 -10 97q-11 38 -27 57q-17 20 -39 28q-20 7 -44 7h-27l412 153v-784zM12 1364h342l101 -328z" />
    <glyph glyph-name="iacute" unicode="&#xed;" horiz-adv-x="544" 
d="M412 217q0 -73 13 -115q13 -41 32 -65q18 -22 35 -30q15 -7 22 -7h-473q7 0 24 7q16 7 35 29q18 21 33 64q14 41 14 117v442q0 61 -10 97q-11 38 -27 57q-17 20 -39 28q-20 7 -44 7h-27l412 153v-784zM111 1036l98 328h338z" />
    <glyph glyph-name="icircumflex" unicode="&#xee;" horiz-adv-x="544" 
d="M412 217q0 -73 13 -115q13 -41 32 -65q18 -22 35 -30q15 -7 22 -7h-473q7 0 24 7q16 7 35 29q18 21 33 64q14 41 14 117v442q0 61 -10 97q-11 38 -27 57q-17 20 -39 28q-20 7 -44 7h-27l412 153v-784zM276 1427l295 -391l-295 150l-288 -150z" />
    <glyph glyph-name="idieresis" unicode="&#xef;" horiz-adv-x="544" 
d="M412 217q0 -73 13 -115q13 -41 32 -65q18 -22 35 -30q15 -7 22 -7h-473q7 0 24 7q16 7 35 29q18 21 33 64q14 41 14 117v442q0 61 -10 97q-11 38 -27 57q-17 20 -39 28q-20 7 -44 7h-27l412 153v-784zM213 1253q0 -55 -36 -92t-95 -37q-62 0 -99 37q-38 38 -38 92
q0 53 38 89q37 36 99 36q59 0 95 -36t36 -89zM614 1253q0 -56 -36 -92q-37 -37 -97 -37q-61 0 -97 37t-36 92q0 53 36 89t97 36q62 0 98 -36q35 -35 35 -89z" />
    <glyph glyph-name="eth" unicode="&#xf0;" horiz-adv-x="1085" 
d="M1020 537q0 -119 -31 -228q-29 -101 -91 -180q-58 -75 -152 -119q-90 -43 -211 -43q-113 0 -200 42q-86 42 -146 115q-57 71 -88 170q-29 94 -29 208q0 90 25 175q25 86 76 157q50 70 126 113q77 44 176 44q181 0 293 -186q-43 99 -104 186q-62 89 -138 156l-202 -86
l-72 86l172 74q-47 29 -80 46q-43 22 -86 38l274 120q43 -25 74 -49q46 -36 68 -55l196 84l72 -86l-182 -78q130 -147 195 -330q65 -184 65 -374zM752 440q0 76 -20 144q-20 67 -53 113q-35 48 -78 75t-93 27q-30 0 -61 -15q-33 -16 -57 -47q-25 -33 -43 -89
q-17 -54 -17 -138q0 -81 19 -145q19 -65 51 -112q31 -46 76 -71q44 -24 93 -24q30 0 62 13q31 13 59 45q25 29 44 86q18 54 18 138z" />
    <glyph glyph-name="ntilde" unicode="&#xf1;" horiz-adv-x="1134" 
d="M993 217q0 -70 14 -115t30 -65q18 -23 34 -30q15 -7 23 -7h-455q4 0 19 6t32 28t29 62q12 41 12 113v385q0 105 -37 152q-38 49 -102 49q-35 0 -72 -16q-32 -14 -61 -43q-27 -27 -42 -66q-16 -42 -16 -84v-377q0 -65 13 -109q12 -42 28 -63q16 -22 32 -30q14 -7 24 -7
h-461q6 0 23 7t36 29t32 62q13 39 13 113v446q0 63 -9 100t-26 57t-36 27q-20 7 -41 7h-29l393 153l2 -147q24 30 61 56q40 29 75 44q44 20 83 29q41 10 82 10q132 0 215 -80q82 -79 82 -254v-442zM893 1300q0 -34 -12 -69t-36 -62t-58 -43q-33 -16 -76 -16t-81 17
q-40 18 -78 39q-50 28 -75 40q-40 19 -71 19q-94 0 -99 -140q-49 49 -49 117t45 123t131 55q45 0 86 -17q49 -20 85 -37q59 -27 79 -37q35 -17 68 -17q53 0 74 39q22 41 22 100q22 -22 34 -52q11 -28 11 -59z" />
    <glyph glyph-name="ograve" unicode="&#xf2;" horiz-adv-x="1150" 
d="M1077 502q0 -112 -36 -210t-103 -169q-68 -72 -163 -113q-96 -41 -212 -41t-205 37q-91 38 -153 103q-63 66 -97 155t-34 199q0 111 38 210q37 97 105 169q65 69 161 111q92 40 204 40q114 0 204 -37q95 -39 157 -101q65 -65 99 -156q35 -93 35 -197zM807 461
q0 71 -17 131q-18 63 -51 111t-80 77t-104 29q-51 0 -91 -24q-43 -25 -68 -63q-27 -41 -42 -95q-14 -52 -14 -117q0 -73 17 -134q18 -64 51 -114q33 -49 79 -79q45 -29 105 -29q48 0 89 24q40 24 68 66q29 43 43 97q15 57 15 120zM274 1364h342l101 -328z" />
    <glyph glyph-name="oacute" unicode="&#xf3;" horiz-adv-x="1150" 
d="M1077 502q0 -112 -36 -210t-103 -169q-68 -72 -163 -113q-96 -41 -212 -41t-205 37q-91 38 -153 103q-63 66 -97 155t-34 199q0 111 38 210q37 97 105 169q65 69 161 111q92 40 204 40q114 0 204 -37q95 -39 157 -101q65 -65 99 -156q35 -93 35 -197zM807 461
q0 71 -17 131q-18 63 -51 111t-80 77t-104 29q-51 0 -91 -24q-43 -25 -68 -63q-27 -41 -42 -95q-14 -52 -14 -117q0 -73 17 -134q18 -64 51 -114q33 -49 79 -79q45 -29 105 -29q48 0 89 24q40 24 68 66q29 43 43 97q15 57 15 120zM465 1036l98 328h338z" />
    <glyph glyph-name="ocircumflex" unicode="&#xf4;" horiz-adv-x="1150" 
d="M1077 502q0 -112 -36 -210t-103 -169q-68 -72 -163 -113q-96 -41 -212 -41t-205 37q-91 38 -153 103q-63 66 -97 155t-34 199q0 111 38 210q37 97 105 169q65 69 161 111q92 40 204 40q114 0 204 -37q95 -39 157 -101q65 -65 99 -156q35 -93 35 -197zM807 461
q0 71 -17 131q-18 63 -51 111t-80 77t-104 29q-51 0 -91 -24q-43 -25 -68 -63q-27 -41 -42 -95q-14 -52 -14 -117q0 -73 17 -134q18 -64 51 -114q33 -49 79 -79q45 -29 105 -29q48 0 89 24q40 24 68 66q29 43 43 97q15 57 15 120zM575 1427l295 -391l-295 150l-288 -150z
" />
    <glyph glyph-name="otilde" unicode="&#xf5;" horiz-adv-x="1150" 
d="M1077 502q0 -112 -36 -210t-103 -169q-68 -72 -163 -113q-96 -41 -212 -41t-205 37q-91 38 -153 103q-63 66 -97 155t-34 199q0 111 38 210q37 97 105 169q65 69 161 111q92 40 204 40q114 0 204 -37q95 -39 157 -101q65 -65 99 -156q35 -93 35 -197zM807 461
q0 71 -17 131q-18 63 -51 111t-80 77t-104 29q-51 0 -91 -24q-43 -25 -68 -63q-27 -41 -42 -95q-14 -52 -14 -117q0 -73 17 -134q18 -64 51 -114q33 -49 79 -79q45 -29 105 -29q48 0 89 24q40 24 68 66q29 43 43 97q15 57 15 120zM897 1300q0 -34 -12 -69t-36 -62t-57 -43
t-77 -16q-43 0 -81 17q-40 18 -78 39q-50 28 -75 40q-40 19 -71 19q-94 0 -99 -140q-49 49 -49 117t45 123t131 55q45 0 86 -17q49 -20 85 -37q59 -27 79 -37q35 -17 68 -17q53 0 74 39q22 41 22 100q22 -22 34 -52q11 -28 11 -59z" />
    <glyph glyph-name="odieresis" unicode="&#xf6;" horiz-adv-x="1150" 
d="M1077 502q0 -112 -36 -210t-103 -169q-68 -72 -163 -113q-96 -41 -212 -41t-205 37q-91 38 -153 103q-63 66 -97 155t-34 199q0 111 38 210q37 97 105 169q65 69 161 111q92 40 204 40q114 0 204 -37q95 -39 157 -101q65 -65 99 -156q35 -93 35 -197zM807 461
q0 71 -17 131q-18 63 -51 111t-80 77t-104 29q-51 0 -91 -24q-43 -25 -68 -63q-27 -41 -42 -95q-14 -52 -14 -117q0 -73 17 -134q18 -64 51 -114q33 -49 79 -79q45 -29 105 -29q48 0 89 24q40 24 68 66q29 43 43 97q15 57 15 120zM913 1253q0 -56 -36 -92q-37 -37 -97 -37
q-61 0 -97 37t-36 92q0 53 36 89t97 36q62 0 98 -36q35 -35 35 -89zM512 1253q0 -55 -36 -92t-95 -37q-62 0 -99 37q-38 38 -38 92q0 53 38 89t99 36q59 0 95 -36t36 -89z" />
    <glyph glyph-name="divide" unicode="&#xf7;" horiz-adv-x="1411" 
d="M834 975q0 -59 -40 -92t-89 -33q-50 0 -89 33q-38 32 -38 92t37 94q38 35 90 35q50 0 90 -35q39 -35 39 -94zM141 498v178h1125v-178h-1125zM831 197q0 -61 -39 -94t-90 -33q-53 0 -89 33q-38 35 -38 94q0 58 38 93q37 34 89 34q50 0 90 -34q39 -33 39 -93z" />
    <glyph glyph-name="oslash" unicode="&#xf8;" horiz-adv-x="1150" 
d="M1077 502q0 -112 -36 -210t-103 -169q-68 -72 -163 -113q-96 -41 -212 -41q-55 0 -107 11q-60 13 -96 26l-65 -104l-64 16q-15 4 -63 19l80 133q-88 68 -130 167q-44 103 -44 226q0 111 38 210q37 97 105 169q65 69 161 111q92 40 204 40q60 0 107 -10q51 -11 95 -27
q6 10 18 29.5t18 28.5q12 19 34 57l125 -41q-7 -12 -20.5 -34.5t-20.5 -33.5t-20.5 -34t-20.5 -35q87 -67 133 -166q47 -102 47 -225zM674 770q-56 39 -119 39q-51 0 -91 -24q-43 -25 -68 -63q-27 -41 -42 -95q-14 -52 -14 -117q0 -113 47 -209zM807 461q0 112 -47 203
l-289 -469q53 -41 121 -41q48 0 89 24q40 24 68 66q29 43 43 97q15 57 15 120z" />
    <glyph glyph-name="ugrave" unicode="&#xf9;" horiz-adv-x="1144" 
d="M733 -39l-2 150q-56 -67 -139 -104q-85 -38 -162 -38q-138 0 -217 81q-80 82 -80 259v426q0 73 -18 117q-18 43 -41 66q-22 22 -44 28q-23 7 -30 8h395v-587q0 -103 36 -151t101 -48q40 0 75 16q37 17 62 45q26 29 41 68t15 84v369q0 70 -13 109t-32 61q-17 19 -35 26
q-3 1 -7 2.5t-6.5 2.5l-5 2t-3.5 1h362v-655q0 -59 9 -96q8 -35 25 -58q14 -20 35 -26q20 -6 42 -6h28zM281 1364h342l100 -328z" />
    <glyph glyph-name="uacute" unicode="&#xfa;" horiz-adv-x="1144" 
d="M733 -39l-2 150q-56 -67 -139 -104q-85 -38 -162 -38q-138 0 -217 81q-80 82 -80 259v426q0 73 -18 117q-18 43 -41 66q-22 22 -44 28q-23 7 -30 8h395v-587q0 -103 36 -151t101 -48q40 0 75 16q37 17 62 45q26 29 41 68t15 84v369q0 70 -13 109t-32 61q-17 19 -35 26
q-3 1 -7 2.5t-6.5 2.5l-5 2t-3.5 1h362v-655q0 -59 9 -96q8 -35 25 -58q14 -20 35 -26q20 -6 42 -6h28zM446 1036l99 328h338z" />
    <glyph glyph-name="ucircumflex" unicode="&#xfb;" horiz-adv-x="1144" 
d="M733 -39l-2 150q-56 -67 -139 -104q-85 -38 -162 -38q-138 0 -217 81q-80 82 -80 259v426q0 73 -18 117q-18 43 -41 66q-22 22 -44 28q-23 7 -30 8h395v-587q0 -103 36 -151t101 -48q40 0 75 16q37 17 62 45q26 29 41 68t15 84v369q0 70 -13 109t-32 61q-17 19 -35 26
q-3 1 -7 2.5t-6.5 2.5l-5 2t-3.5 1h362v-655q0 -59 9 -96q8 -35 25 -58q14 -20 35 -26q20 -6 42 -6h28zM563 1427l295 -391l-295 150l-289 -150z" />
    <glyph glyph-name="udieresis" unicode="&#xfc;" horiz-adv-x="1146" 
d="M733 -39l-2 150q-56 -67 -139 -104q-85 -38 -162 -38q-138 0 -217 81q-80 82 -80 259v426q0 73 -18 117q-18 43 -41 66q-22 22 -44 28q-23 7 -30 8h395v-587q0 -103 36 -151t101 -48q40 0 75 16q37 17 62 45q26 29 41 68t15 84v369q0 70 -13 109t-32 61q-17 19 -35 26
q-3 1 -7 2.5t-6.5 2.5l-5 2t-3.5 1h362v-655q0 -59 9 -96q8 -35 25 -58q14 -20 35 -26q20 -6 42 -6h28zM500 1253q0 -55 -36 -92t-95 -37q-63 0 -100 37q-38 38 -38 92q0 53 38 89q37 36 100 36q59 0 95 -36t36 -89zM901 1253q0 -55 -37 -92t-96 -37q-61 0 -97 37t-36 92
q0 53 36 89t97 36t97 -36t36 -89z" />
    <glyph glyph-name="yacute" unicode="&#xfd;" horiz-adv-x="1122" 
d="M1157 954q-1 0 -14 -5q-11 -4 -33 -23q-19 -16 -46 -56q-25 -36 -52 -100l-285 -684q-78 -192 -177 -318t-190 -161l-286 192q12 -4 38 -9q28 -5 38 -1q90 -4 175 54q83 57 158 194l-299 743q-24 61 -52 97q-26 34 -50 51q-22 16 -38 21l-17 5h497q-1 0 -13 -3t-24 -12
q-10 -8 -22 -28q-10 -17 -10 -49q0 -20 7 -42q12 -39 17 -52l158 -412l149 392q14 36 22 62q7 24 7 48q0 32 -11 49q-13 20 -25 29t-26 14q-12 4 -20 4h424zM539 1036l98 328h338z" />
    <glyph glyph-name="thorn" unicode="&#xfe;" horiz-adv-x="1112" 
d="M1044 516q0 -123 -33 -218q-35 -99 -96 -171t-148 -112q-86 -40 -194 -40q-55 0 -102 14q-46 14 -74 36v-181q0 -67 14 -111q15 -46 30 -65q17 -21 34 -29q20 -9 25 -10h-449q5 0 19 7q13 6 29 29t28 64q12 42 12 115v1215q0 76 -10 117q-10 42 -28 66t-40 31
q-21 7 -47 7h-18l401 147v-561q47 57 122 93q71 34 149 34q68 0 135 -27q68 -27 122 -86q54 -58 87 -149q32 -87 32 -215zM766 459q0 73 -12 135t-36 105q-25 46 -61 70q-38 26 -86 26q-71 0 -122 -62q-52 -63 -52 -164v-268q0 -147 154 -147q54 0 93 23q41 24 68 66
q28 44 41 97t13 119z" />
    <glyph glyph-name="ydieresis" unicode="&#xff;" horiz-adv-x="1122" 
d="M1157 954q-1 0 -14 -5q-11 -4 -33 -23q-19 -16 -46 -56q-25 -36 -52 -100l-285 -684q-78 -192 -177 -318t-190 -161l-286 192q12 -4 38 -9q28 -5 38 -1q90 -4 175 54q83 57 158 194l-299 743q-24 61 -52 97q-26 34 -50 51q-22 16 -38 21l-17 5h497q-1 0 -13 -3t-24 -12
q-10 -8 -22 -28q-10 -17 -10 -49q0 -20 7 -42q12 -39 17 -52l158 -412l149 392q14 36 22 62q7 24 7 48q0 32 -11 49q-13 20 -25 29t-26 14q-12 4 -20 4h424zM522 1253q0 -55 -36 -92t-95 -37q-62 0 -99 37q-38 38 -38 92q0 53 38 89t99 36q59 0 95 -36t36 -89zM924 1253
q0 -55 -37 -92t-96 -37q-62 0 -98 37t-36 92q0 53 36 89t98 36q61 0 97 -36t36 -89z" />
    <glyph glyph-name="OE" unicode="&#x152;" horiz-adv-x="2000" 
d="M1888 0h-915q-105 -31 -223 -31q-158 0 -282 57q-125 57 -210 151q-86 95 -131 221t-45 266q0 146 49 277q49 132 141 234q89 99 225 161q134 61 300 61q55 0 113 -8q50 -7 106 -25h848v-389q-4 26 -18 61t-41 67q-28 32 -72 53q-47 22 -113 22h-264v-396h229q51 0 82 14
t48 31q18 18 24 35q7 20 8 23v-393q-4 28 -23 51q-16 20 -48 37q-31 16 -87 16h-233v-408h282q123 0 197 56q75 57 121 172zM1069 428q0 372 -65 666q-52 47 -116 71q-67 25 -143 25q-75 0 -143 -31q-65 -30 -115 -90q-49 -60 -76 -146q-28 -90 -28 -198q0 -123 29 -225
q28 -99 83 -172q54 -72 130 -111q77 -39 172 -39q42 0 88 19q44 18 79 52q37 35 63 79q27 45 42 100z" />
    <glyph glyph-name="oe" unicode="&#x153;" horiz-adv-x="1740" 
d="M1679 307q-33 -173 -141 -255q-109 -83 -276 -83q-108 0 -191 40q-82 40 -143 108q-67 -70 -158 -109q-92 -39 -207 -39q-116 0 -205 37q-91 38 -153 103q-63 66 -97 155t-34 199q0 111 38 210q37 97 105 169q65 69 161 111q92 40 204 40q116 0 209 -38q91 -37 157 -105
q59 65 139 104q79 39 179 39q188 0 293 -142q104 -142 106 -405h-604q6 -40 33 -69q29 -97 104 -155q72 -56 172 -56q86 0 169 36t140 105zM1417 594q0 101 -42 167t-118 66q-39 0 -73 -18q-36 -19 -61 -50t-42 -75q-15 -40 -20 -90h356zM807 461q0 71 -17 131
q-18 63 -51 111t-80 77t-104 29q-51 0 -91 -24q-43 -25 -68 -63q-27 -41 -42 -95q-14 -52 -14 -117q0 -73 17 -134q18 -64 51 -114q33 -49 79 -79q45 -29 105 -29q48 0 89 24q40 24 68 66q29 43 43 97q15 57 15 120z" />
    <glyph glyph-name="Scaron" unicode="&#x160;" horiz-adv-x="1105" 
d="M1016 379q0 -100 -40 -176q-40 -75 -109 -128q-68 -51 -164 -79q-95 -27 -205 -27q-111 0 -223 28q-103 26 -181 75v387q37 -81 84 -136q46 -54 100 -89q49 -32 109 -48q53 -14 119 -14q94 0 162 41q67 40 67 115q0 54 -32 95q-31 40 -82 73q-44 29 -116 62
q-62 29 -128 65q-68 35 -104 60q-54 38 -88 77q-37 43 -61 98q-24 56 -24 127q0 101 39 177q39 77 105 128q67 52 154 77q90 26 192 26q98 0 189 -27t147 -66v-325q-19 35 -56 76q-35 39 -80 70q-48 33 -102 53q-53 20 -117 20q-104 0 -153 -43t-49 -107q0 -40 21 -73
t57 -60q32 -24 84 -50q32 -16 102 -48q60 -27 136 -68q68 -37 124 -87q54 -48 89 -117q34 -67 34 -162zM217 1810q14 -8 65 -28q15 -6 98 -39q57 -23 98 -40q18 -7 39.5 -16.5t25.5 -11.5q4 2 25 11.5t39 16.5q11 5 44 18.5t52 21.5q25 11 96 39q48 19 63 28q-8 -10 -63 -76
q-7 -8 -42 -50t-54 -65q-69 -84 -96 -115q-34 -39 -64 -77z" />
    <glyph glyph-name="scaron" unicode="&#x161;" horiz-adv-x="827" 
d="M774 272q0 -141 -103 -222t-280 -81q-90 0 -180 23t-135 59v297q40 -82 120 -143q79 -60 195 -60q55 0 97 21t42 67q0 29 -15 50q-13 19 -46 40q-31 20 -77 41q-38 17 -105 54q-105 56 -152 119q-47 64 -47 151q0 139 95 222t272 83q71 0 140 -15q66 -14 114 -40v-274
q-9 16 -35 47q-21 25 -56 49t-75 39q-42 16 -94 16q-62 0 -92 -23q-31 -24 -31 -63q0 -27 12 -46q12 -20 38 -38q30 -21 63 -37q61 -29 91 -43q132 -61 188 -127t56 -166zM420 1044l-297 386l297 -146l289 146z" />
    <glyph glyph-name="Ydieresis" unicode="&#x178;" horiz-adv-x="1376" 
d="M985 1286q0 24 -7 38q-9 18 -16 24q-8 7 -20 12q-9 4 -14 4h444q-3 0 -17 -7t-42 -32q-24 -22 -65 -72q-41 -51 -85 -129l-327 -551v-344q0 -77 13 -120q13 -44 32 -69t34 -32q18 -8 23 -8h-506q7 0 24 7q18 7 36 30q17 21 32 68t15 124v334l-322 565q-45 78 -82 124
q-40 50 -64 71q-28 25 -45 32q-18 7 -24 9h551q-3 0 -15 -3q-11 -3 -22 -12q-10 -8 -18 -25q-9 -18 -9 -40t13 -59q12 -33 41 -86l194 -338l174 301q39 68 57 111q17 41 17 73zM645 1618q0 -54 -36 -92q-36 -37 -97 -37q-60 0 -97 37q-38 38 -38 92q0 53 38 89t97 36
q61 0 97 -36t36 -89zM1047 1618q0 -55 -37 -92t-99 -37q-59 0 -95 37q-36 38 -36 92q0 53 36 89t95 36q61 0 99 -36q37 -36 37 -89z" />
    <glyph glyph-name="Zcaron" unicode="&#x17d;" horiz-adv-x="1245" 
d="M1151 0h-1106l666 1178h-330q-84 0 -137 -17t-82 -45q-32 -30 -46 -66q-10 -25 -30 -79v393h1059l-660 -1176h381q132 0 205 59q72 58 121 175zM313 1815q13 -8 63 -30q13 -6 44 -19.5t47 -20.5t47 -20.5t44 -19.5q55 -25 63 -28q5 2 13.5 6t22 10.5t24.5 11.5
q16 8 48 22t41 18t41 18t48 22q47 22 61 30l-299 -379z" />
    <glyph glyph-name="zcaron" unicode="&#x17e;" horiz-adv-x="970" 
d="M49 0l463 801h-221q-66 0 -110 -25q-40 -23 -64 -55q-24 -31 -31 -61q-2 -8 -4.5 -17t-4 -14t-1.5 -8v333h819l-463 -790h283q63 0 101 21t60 51q20 27 28 54q8 26 9 36v-326h-864zM492 1044l-297 386l297 -146l288 146z" />
    <glyph glyph-name="florin" unicode="&#x192;" 
d="M1057 1354q-26 -82 -34 -106l-36 -105q-33 24 -77 36q-40 11 -72 11q-56 0 -84 -36q-28 -35 -43 -90q-14 -51 -19 -118q-6 -79 -10 -117h192l-12 -170h-194l-37 -380q-17 -153 -49 -260q-33 -111 -87 -186t-135 -113q-78 -37 -190 -37q-54 0 -98 12q-35 10 -90 31l28 110
q20 74 31 111q2 -5 15 -14q12 -8 34 -19q23 -11 44 -18q29 -9 46 -9q30 0 56 13q25 12 44 45q17 28 33 87q16 56 23 140l49 487h-178q3 29 7 85t7 85h178q29 280 133 423q106 145 310 145q56 0 113 -12q65 -14 102 -31z" />
    <glyph glyph-name="circumflex" unicode="&#x2c6;" horiz-adv-x="995" 
d="M496 1427l295 -391l-295 150l-289 -150z" />
    <glyph glyph-name="tilde" unicode="&#x2dc;" horiz-adv-x="995" 
d="M817 1300q0 -34 -12 -69t-36 -62t-57 -43t-77 -16q-43 0 -81 17q-40 18 -78 39q-50 28 -75 40q-40 19 -71 19q-94 0 -99 -140q-49 49 -49 117t45 123t131 55q45 0 86 -17q49 -20 85 -37q59 -27 79 -37q35 -17 68 -17q54 0 75 39t21 100q22 -22 34 -52q11 -28 11 -59z" />
    <glyph glyph-name="endash" unicode="&#x2013;" horiz-adv-x="1347" 
d="M70 399v168h1208v-168h-1208z" />
    <glyph glyph-name="emdash" unicode="&#x2014;" horiz-adv-x="2166" 
d="M70 399v168h2027v-168h-2027z" />
    <glyph glyph-name="quoteleft" unicode="&#x2018;" horiz-adv-x="536" 
d="M477 1411q-48 -23 -84 -54q-43 -37 -71 -77q-35 -50 -50 -91q-18 -48 -18 -97q0 -20 1 -32q2 -21 5 -30q18 6 35 6q71 0 105 -45q34 -44 34 -100q0 -37 -11 -64q-13 -32 -33 -55q-22 -26 -54 -40q-33 -15 -76 -15q-51 0 -90 21t-65 59q-24 36 -38 86q-14 51 -14 102
q0 66 25 143q24 74 77 136t132 102q80 41 190 45z" />
    <glyph glyph-name="quoteright" unicode="&#x2019;" horiz-adv-x="536" 
d="M481 1126q0 -71 -25 -143q-26 -73 -78 -135q-54 -63 -132 -103q-79 -40 -191 -45q47 22 86 55q47 40 72 76q32 46 49 92q19 51 19 97q0 8 -2 32q-1 13 -7 29q-18 -6 -34 -6q-70 0 -105 44t-35 102q0 33 12 63q14 34 32 55q22 25 55 40q35 16 75 16q49 0 90 -22
q40 -21 66 -58q27 -37 40 -86q13 -48 13 -103z" />
    <glyph glyph-name="quotesinglbase" unicode="&#x201a;" horiz-adv-x="536" 
d="M465 45q0 -68 -25 -145q-25 -76 -76 -136q-50 -59 -133 -101q-77 -39 -190 -44q50 23 86 54q46 39 72 77q33 47 49 91q18 48 18 98q0 7 -2 31q-1 17 -6 28q-16 -6 -35 -6q-69 0 -104 45q-35 46 -35 100q0 37 11 64q13 32 33 55q22 26 54 40q33 15 76 15q52 0 89 -21
q38 -21 65 -59q26 -37 40 -85q13 -46 13 -101z" />
    <glyph glyph-name="quotedblleft" unicode="&#x201c;" horiz-adv-x="1085" 
d="M1014 1411q-50 -23 -86 -54q-46 -39 -72 -77q-33 -47 -49 -91q-19 -51 -19 -97q0 -6 1.5 -17.5t1.5 -14.5q1 -18 6 -30q15 6 34 6q71 0 105 -45q35 -46 35 -100q0 -34 -12 -64q-14 -34 -32 -55q-22 -25 -55 -40t-75 -15q-51 0 -90 21t-65 59t-39 86t-13 102q0 69 24 143
t77 136t132 102t191 45zM528 1411q-50 -23 -86 -54q-43 -37 -71 -77q-33 -47 -49 -91q-19 -51 -19 -97q0 -8 2 -32q1 -18 6 -30q18 6 35 6q70 0 105 -45q34 -44 34 -100q0 -37 -11 -64q-13 -32 -33 -55q-22 -26 -54 -40q-33 -15 -76 -15q-51 0 -90 21q-37 20 -65 59
q-27 37 -40 86q-14 51 -14 102q0 66 25 143q24 74 77 136t133 102q81 41 191 45z" />
    <glyph glyph-name="quotedblright" unicode="&#x201d;" horiz-adv-x="1085" 
d="M981 1126q0 -68 -26 -143t-77 -135q-53 -62 -133 -103t-190 -45q47 22 86 55q47 40 72 76q32 46 49 92q18 48 18 97q0 8 -2 32q-1 17 -6 29q-16 -6 -33 -6q-71 0 -106 44t-35 102q0 35 11 63q13 32 33 55q22 26 54 40q35 16 76 16q49 0 90 -22q40 -21 66 -58
q27 -37 40 -86q13 -48 13 -103zM496 1126q0 -66 -25 -143q-24 -73 -77 -135q-54 -63 -132 -103q-80 -41 -190 -45q47 22 86 55q45 38 71 76q34 49 50 92q18 48 18 97q0 8 -2 32q-1 17 -6 29q-18 -6 -35 -6q-72 0 -107 44q-34 43 -34 102q0 35 11 63q13 33 34 55q25 26 55 40
q35 16 76 16q50 0 89 -22q37 -21 64 -58t40 -86q14 -51 14 -103z" />
    <glyph glyph-name="quotedblbase" unicode="&#x201e;" horiz-adv-x="1042" 
d="M958 45q0 -72 -24 -145q-24 -74 -77 -136q-51 -60 -132 -101q-77 -39 -190 -44q45 22 83 54q46 39 72 77q33 47 49 91q19 51 19 98q0 19 -1 31q-2 20 -5 28q-18 -6 -35 -6q-73 0 -107 45q-35 46 -35 100q0 34 12 64q13 32 33 55q22 26 54 40q33 15 76 15q51 0 90 -21
q37 -20 65 -59q26 -37 40 -85q13 -46 13 -101zM489 45q0 -72 -24 -145q-24 -74 -77 -136q-51 -60 -132 -101q-77 -39 -190 -44q50 23 86 54q43 37 71 77q33 47 49 91q19 51 19 98q0 7 -2 31q-1 17 -6 28q-18 -6 -35 -6q-72 0 -106 45q-33 43 -33 100q0 37 11 64q13 32 33 55
q22 26 54 40q33 15 76 15q51 0 89 -21q36 -20 64 -59q26 -37 40 -85q13 -46 13 -101z" />
    <glyph glyph-name="dagger" unicode="&#x2020;" horiz-adv-x="1181" 
d="M899 963q51 0 78 7q30 8 44 15t21 16t7 11v-275q0 1 -6 11q-5 8 -21 17q-15 8 -46 16q-28 7 -79 7h-209v-751q0 -103 -14 -176q-16 -85 -32 -132q-20 -59 -34 -85q-16 -29 -18 -37q0 2 -18 37q-11 22 -32 85q-16 47 -32 132q-14 73 -14 176v751h-209q-53 0 -81 -7
q-31 -8 -46 -16q-18 -10 -22 -17q-5 -8 -5 -11v275l5 -8q5 -8 21 -18q14 -8 45 -16q28 -7 79 -7h213v167q0 73 -10 123q-9 47 -21 70q-12 24 -25 32t-16 9h336q-3 0 -16 -8q-10 -6 -23 -32q-14 -28 -22 -70q-9 -46 -9 -124v-167h211z" />
    <glyph glyph-name="daggerdbl" unicode="&#x2021;" horiz-adv-x="1181" 
d="M897 203q51 0 79 7q29 7 46 15q15 7 21 17q1 2 3 5q3 4 3 5v-272l-7 9q-5 7 -21 16q-16 10 -44 17q-27 7 -76 7h-213v-168q0 -78 9 -123q9 -43 22 -70q12 -25 24 -32q11 -7 17 -7h-336q2 0 13 7q12 7 24 32q11 21 22 70q11 47 11 123v168h-213q-49 0 -77 -7
q-26 -6 -45 -16q-15 -8 -22 -16q-6 -8 -6 -10v272l5 -8q5 -9 22 -18q14 -8 47 -16q28 -7 82 -7h207v588h-209q-49 0 -81 -8q-31 -8 -46 -16q-18 -10 -22 -18q-5 -10 -5 -12v275l5 -8q6 -9 21 -17q15 -7 45 -15q28 -7 79 -7h213v165q0 73 -10 123q-9 47 -21 70q-12 24 -25 32
t-16 9h336q-3 0 -16 -8q-10 -6 -23 -32q-14 -28 -22 -70q-9 -46 -9 -124v-165h213q47 0 76 6q28 6 44 14q14 7 21 16t7 11v-275q-4 15 -23 27q-17 11 -46 18q-36 9 -83 9h-209v-588h209z" />
    <glyph glyph-name="bullet" unicode="&#x2022;" horiz-adv-x="1011" 
d="M831 590q0 -72 -23 -129q-24 -59 -66 -103q-42 -43 -101 -67q-63 -25 -131 -25q-69 0 -131 25q-58 23 -103 68q-42 42 -67 104q-25 63 -25 129q0 69 24 129t66 102q44 44 104 68t132 24q71 0 131 -24q56 -22 101 -69q42 -44 66 -103q23 -58 23 -129z" />
    <glyph glyph-name="ellipsis" unicode="&#x2026;" horiz-adv-x="2279" 
d="M2077 143q0 -72 -49 -121q-51 -51 -134 -51q-80 0 -131 51q-49 49 -49 121q0 74 49 123t131 49q85 0 134 -49t49 -123zM1321 143q0 -72 -49 -121q-51 -51 -133 -51q-80 0 -131 51q-50 50 -50 121q0 73 50 123q49 49 131 49q84 0 133 -49t49 -123zM565 143q0 -72 -49 -121
q-51 -51 -131 -51q-81 0 -132 51q-50 50 -50 121q0 74 49 123t133 49q82 0 131 -49t49 -123z" />
    <glyph glyph-name="perthousand" unicode="&#x2030;" horiz-adv-x="2283" 
d="M707 1061q0 -62 -21 -122q-22 -63 -61 -109t-102 -76q-61 -29 -140 -29t-140 29q-62 29 -101 76q-37 44 -60 109q-21 60 -21 122q0 63 21 123t61 106q42 48 101 76q61 29 139 29t141 -29q60 -28 102 -76q38 -44 60 -106q21 -60 21 -123zM416 0h-197l918 1364h192z
M1487 309q0 -62 -21 -122q-22 -64 -60 -107q-42 -49 -100 -76q-61 -29 -141 -29q-79 0 -140 29q-58 27 -100 76q-39 45 -61 107q-20 57 -20 122q0 66 20 123q22 62 61 107q41 47 100 75q61 29 140 29q80 0 141 -29q59 -28 100 -75q38 -43 60 -107q21 -60 21 -123zM512 1059
q0 99 -36 146q-36 46 -93 46t-91 -45q-34 -44 -34 -145q0 -102 35 -149q34 -46 92 -46t92 46q35 47 35 147zM1292 309q0 101 -35 148t-92 47q-58 0 -92 -46q-35 -47 -35 -149q0 -103 36 -146q36 -44 93 -44t91 45q34 44 34 145zM2214 309q0 -62 -21 -122q-22 -64 -60 -107
q-43 -49 -101 -76q-63 -29 -142 -29t-140 29q-58 27 -100 76q-40 46 -60 107q-19 58 -19 122q0 66 20 123q22 62 61 107q42 48 99 75q61 29 139 29q80 0 141 -29t101 -75q39 -45 61 -107q21 -60 21 -123zM2019 309q0 101 -36 148t-93 47t-91 -46t-34 -149q0 -102 35 -146
t92 -44q59 0 94 45q33 43 33 145z" />
    <glyph glyph-name="guilsinglleft" unicode="&#x2039;" horiz-adv-x="518" 
d="M279 129l-230 385l230 385h198l-231 -385l233 -385h-200z" />
    <glyph glyph-name="guilsinglright" unicode="&#x203a;" horiz-adv-x="518" 
d="M238 131h-197l231 385l-231 383h197l231 -383z" />
    <glyph glyph-name="Euro" unicode="&#x20ac;" 
d="M965 1094q-38 48 -96 74q-54 24 -115 24q-59 0 -108 -23q-50 -23 -87 -62q-37 -38 -65 -93q-25 -49 -43 -115h436l-58 -143h-403q-2 -28 -2 -39v-35q0 -30 1 -44t3 -44h336l-57 -145h-254q35 -124 108 -197q74 -74 178 -74q46 0 94 17q45 16 87 44q38 25 73 65
q32 36 51 79v-270q-48 -59 -139 -102q-93 -44 -209 -44t-206 37q-92 38 -158 101q-68 65 -114 153q-44 83 -66 191h-140v145h119q-2 24 -2 36v36q0 30 1 45l3 45h-121v143h144q24 97 72 188q48 90 122 158q75 69 177 109q105 41 239 41q89 0 169 -22q75 -21 122 -52z" />
    <glyph glyph-name="trademark" unicode="&#x2122;" horiz-adv-x="1277" 
d="M1194 924q0 -32 6 -50t13 -29q7 -12 15 -15t9 -3h-211q2 0 8 3t14 14t12 29q5 22 5 53v321l-166 -442l-168 438v-313q0 -63 19 -82q20 -20 26 -21h-184q2 0 9 4q7 5 15 15q10 14 15 31q6 21 6 55v340q0 26 -6 44q-4 11 -15 27q-8 11 -16 16t-10 5h231l101 -256l96 256
h219l-7 -4q-11 -6 -16 -15q-9 -15 -14 -29q-6 -18 -6 -46v-346zM526 1364l6 -182l-7 21q-5 16 -15 32q-11 17 -26 29t-35 12h-91v-352q0 -58 17 -77t22 -20h-209q3 0 9 3q5 2 13 14q8 11 12 29q5 22 5 51v352h-90q-23 0 -38 -12t-24 -29q-12 -22 -15 -32q-5 -17 -5 -21
l4 182h467z" />
    </font>
</defs>
</svg>
