<?xml version="1.0" standalone="no"?>
<!DOCTYPE svg PUBLIC "-//W3C//DTD SVG 1.1//EN" "http://www.w3.org/Graphics/SVG/1.1/DTD/svg11.dtd" >
<svg xmlns="http://www.w3.org/2000/svg" xmlns:xlink="http://www.w3.org/1999/xlink" version="1.1">
<metadata>
Created by FontForge 20170731 at Mon Sep  7 12:10:49 2020
 By Aleksey,,,
Copyright (c) 2006 by by Nick Shinn. Published by Shinn Type Foundry. All rights reserved.
</metadata>
<defs>
<font id="BeaufortW01-Heavy" horiz-adv-x="1193" >
  <font-face 
    font-family="BeaufortW01-Heavy"
    font-weight="900"
    font-stretch="normal"
    units-per-em="2048"
    panose-1="2 2 9 3 5 0 0 2 0 4"
    ascent="1520"
    descent="-528"
    x-height="952"
    cap-height="1364"
    bbox="-164 -451 2386 1851"
    underline-thickness="102"
    underline-position="-374"
    unicode-range="U+0002-2122"
  />
<missing-glyph horiz-adv-x="436" 
 />
    <glyph glyph-name=".notdef" horiz-adv-x="436" 
 />
    <glyph glyph-name=".null" horiz-adv-x="0" 
 />
    <glyph glyph-name="uni000D" unicode="&#xd;" horiz-adv-x="436" 
 />
    <glyph glyph-name="uni0002" horiz-adv-x="0" 
 />
    <glyph glyph-name="uni0009" unicode="&#x9;" horiz-adv-x="436" 
 />
    <glyph glyph-name="uni000A" unicode="&#xa;" horiz-adv-x="0" 
 />
    <glyph glyph-name="space" unicode=" " horiz-adv-x="436" 
 />
    <glyph glyph-name="exclam" unicode="!" horiz-adv-x="643" 
d="M154 1096q-7 85 -23 140t-31 80q-18 30 -29 37q-15 10 -18 11h539q-4 0 -18 -8q-12 -6 -28 -36q-17 -30 -31 -80q-16 -55 -23 -144l-31 -348q-7 -87 -31 -157q-23 -68 -47 -114q-30 -56 -61 -92q-34 39 -62 90q-25 47 -47 113q-24 71 -31 160zM504 139q0 -74 -50 -122
t-132 -48q-84 0 -133 48q-50 48 -50 122t50 122q49 48 133 48q82 0 132 -48t50 -122z" />
    <glyph glyph-name="quotedbl" unicode="&#x22;" horiz-adv-x="1173" 
d="M956 1001q0 -77 -21 -146q-21 -70 -48 -122q-30 -60 -70 -115h-8q-36 50 -66 117q-26 59 -44 122q-19 67 -19 144v363h276v-363zM496 1001q0 -74 -22 -146q-21 -70 -48 -122q-30 -60 -70 -115h-8q-33 46 -65 117q-26 59 -44 122q-20 71 -20 144v363h277v-363z" />
    <glyph glyph-name="numbersign" unicode="#" horiz-adv-x="1214" 
d="M928 825l-60 -280h207v-133h-237l-88 -412h-154l86 412h-301l-88 -412h-152l86 412h-192v133h221l59 280h-202v136h231l82 403h156l-82 -403h301l78 403h161l-82 -403h183v-136h-213zM471 825l-59 -280h301l57 280h-299z" />
    <glyph glyph-name="dollar" unicode="$" 
d="M1036 412q0 -149 -82 -240q-84 -93 -209 -131v-229h-301v206q-86 10 -159 33q-73 22 -127 58v405q77 -153 176 -209q101 -57 209 -57q77 0 127 32q49 31 49 87q0 41 -29 75t-76 61q-50 29 -105 53q-64 28 -116 58q-38 20 -87 57q-45 34 -74 71q-32 41 -50 92t-18 116
q0 148 78 241t202 132v209h301v-193q68 -12 113 -30q52 -21 90 -45v-342q-22 41 -59 77q-37 37 -82 64q-46 27 -94 42q-50 15 -97 15q-86 0 -118 -31q-33 -31 -33 -77q0 -66 65 -106t158 -81q72 -33 123 -62q65 -37 112 -82q51 -50 82 -114q31 -65 31 -155z" />
    <glyph glyph-name="percent" unicode="%" horiz-adv-x="1662" 
d="M483 0h-254l936 1364h250zM1602 303q0 -57 -22 -118q-19 -54 -66 -104q-44 -47 -108 -75q-66 -29 -151 -29q-84 0 -151 29q-65 28 -109 75q-43 46 -64 104q-22 61 -22 118q0 59 22 120q21 58 64 104q45 48 109 74q68 28 151 28q84 0 151 -28q64 -27 108 -74
q47 -50 66 -104q22 -61 22 -120zM1372 301q0 90 -34 123t-83 33t-83 -33q-33 -32 -33 -123q0 -94 33 -123q36 -31 83 -31q48 0 83 32q34 31 34 122zM745 1069q0 -60 -21 -118q-19 -54 -66 -104q-44 -47 -108 -75q-66 -29 -151 -29q-84 0 -151 29q-65 28 -109 75
q-43 46 -64 104q-22 61 -22 118q0 59 22 120q21 58 64 104q45 48 109 74q68 28 151 28q84 0 151 -28q64 -27 108 -74q47 -50 66 -104q21 -59 21 -120zM516 1067q0 90 -34 123q-35 33 -83 33q-49 0 -83 -33q-33 -32 -33 -123q0 -94 33 -123q36 -31 83 -31q48 0 83 32
q34 31 34 122z" />
    <glyph glyph-name="ampersand" unicode="&#x26;" horiz-adv-x="1716" 
d="M1716 330q-27 -93 -44 -141q-24 -66 -58 -115q-34 -50 -84 -78q-50 -29 -117 -29q-60 0 -150 40q-92 41 -196 106q-108 -68 -225 -107q-123 -41 -256 -41q-148 0 -254 25q-103 24 -165 70q-61 45 -89 113q-27 66 -27 149q0 66 25 125q23 55 65 103q39 45 97 84
q74 50 114 73q-7 9 -28.5 34.5t-32.5 40.5q-33 43 -55 80q-26 43 -40 82q-16 43 -16 82q0 96 40 164q41 70 105 116q63 45 146 68q84 23 168 23q82 0 165 -20q79 -19 143 -60q62 -40 102 -103q38 -60 38 -145q0 -67 -24 -119t-65 -98q-39 -44 -93 -82q-48 -35 -108 -70
q60 -54 143 -123q75 -62 154 -118q48 51 84 118q34 64 34 121q0 38 -14 67q-15 31 -49 58h508q-21 -14 -37 -27q-22 -19 -40 -41q-20 -24 -36 -48q-15 -22 -24 -50q-16 -46 -69 -146q-49 -92 -140 -192q74 -41 137 -63q67 -23 119 -23q51 0 83 27q33 28 66 70zM786 1055
q0 54 -48 84t-103 30q-52 0 -92 -28q-41 -29 -41 -90q0 -21 13 -46q16 -30 34 -52q28 -34 43 -52q36 -43 39 -47q67 40 111 90t44 111zM840 266q-81 59 -167 133q-62 53 -153 140q-39 -30 -69 -71q-27 -38 -27 -83q0 -71 53 -124q52 -52 166 -52q47 0 96 15q51 15 101 42z
" />
    <glyph glyph-name="quotesingle" unicode="'" horiz-adv-x="555" 
d="M416 1001q0 -74 -22 -146q-21 -70 -48 -122q-30 -60 -70 -115h-8q-33 46 -65 117q-26 59 -44 122q-20 71 -20 144v363h277v-363z" />
    <glyph glyph-name="parenleft" unicode="(" horiz-adv-x="743" 
d="M733 -420q-151 40 -279 133q-125 91 -216 218q-90 126 -140 277q-49 148 -49 308q0 163 49 313t140 276q89 123 216 214t279 131q-87 -45 -155 -142q-66 -94 -111 -219q-47 -129 -67 -270q-21 -146 -21 -293q0 -155 22 -297t68 -271q43 -121 112 -224q65 -98 152 -154z
" />
    <glyph glyph-name="parenright" unicode=")" horiz-adv-x="743" 
d="M694 510q0 -165 -49 -313q-50 -150 -139 -274q-90 -125 -216 -213q-128 -90 -280 -130q89 47 155 141q66 95 111 219q47 129 67 268q22 151 22 292q0 148 -23 298q-22 142 -68 273q-44 124 -111 225q-64 96 -153 154q154 -41 280 -134t216 -219q89 -124 139 -278
q49 -150 49 -309z" />
    <glyph glyph-name="asterisk" unicode="*" horiz-adv-x="876" 
d="M864 1126q-94 -16 -177 -39t-161 -75q78 -55 155 -81q77 -25 177 -42l-180 -266q-9 18 -29 64q-17 38 -38 73q-27 43 -56 82q-33 44 -84 90q-13 -49 -17 -91q-5 -48 -5 -87q0 -42 5 -97q4 -49 15 -102l-295 94q23 25 46 49q28 30 53 63q35 47 56 85q27 50 54 117
q-57 -5 -113 -19q-42 -10 -90 -28q-42 -16 -74 -33q-47 -25 -61 -33v326q22 -13 58 -34q24 -14 72 -35q41 -18 90 -30t118 -18q-49 125 -108 195q-76 92 -99 118l299 98q-6 -35 -17 -111q-7 -50 -7 -108q0 -83 20 -159q94 88 140 165q45 75 75 142z" />
    <glyph glyph-name="plus" unicode="+" horiz-adv-x="1443" 
d="M834 477v-477h-222v477h-456v219h456v471h222v-471h454v-219h-454z" />
    <glyph glyph-name="comma" unicode="," horiz-adv-x="555" 
d="M512 76q0 -75 -28 -159q-27 -80 -86 -147q-62 -69 -149 -111q-94 -45 -216 -46q48 22 88 57q42 36 76 81q32 42 52 95q19 50 19 105v24q0 11 -2 25q-14 -2 -28 -2q-77 0 -118 50q-40 49 -40 116q0 37 12 73q11 33 38 65q23 28 64 47q38 18 87 18q57 0 100 -24
q45 -25 72 -63q29 -41 44 -94t15 -110z" />
    <glyph glyph-name="hyphen" unicode="-" horiz-adv-x="675" 
d="M80 416v227h522v-227h-522z" />
    <glyph glyph-name="period" unicode="." horiz-adv-x="555" 
d="M489 170q0 -86 -58 -143q-60 -58 -152 -58q-94 0 -152 58q-57 57 -57 143q0 85 57 142t152 57q93 0 152 -57q58 -57 58 -142z" />
    <glyph glyph-name="slash" unicode="/" horiz-adv-x="1017" 
d="M332 -31h-281l643 1432h273z" />
    <glyph glyph-name="zero" unicode="0" 
d="M1122 709q0 -157 -31 -288q-31 -133 -97 -235q-63 -99 -165 -158q-101 -59 -237 -59q-125 0 -224 47q-96 46 -163 136q-65 87 -100 213q-33 119 -33 282q0 162 32 294q32 133 100 238q64 99 166 158q101 58 234 58q129 0 229 -54q95 -51 161 -145q66 -93 97 -218
q31 -124 31 -269zM782 600q0 154 -14 252q-15 104 -42 169q-26 63 -67 94q-39 30 -88 30q-42 0 -73 -20q-32 -21 -52 -64q-19 -40 -30 -118q-10 -69 -10 -179q0 -156 14 -253q15 -103 42 -168q26 -63 65 -94q37 -30 87 -30q40 0 71 15q32 15 53 59q21 43 33 117
q11 67 11 190z" />
    <glyph glyph-name="one" unicode="1" 
d="M352 0q21 12 42 33q24 24 40 56q20 39 31 86q12 50 12 122v637q-33 -38 -84 -90q-17 -18 -50.5 -53t-49.5 -52q-38 -40 -121 -123v322q95 98 186 205q96 112 172 221h283v-1067q0 -73 12 -122q11 -47 31 -86q17 -33 41 -56q23 -22 43 -33h-588z" />
    <glyph glyph-name="two" unicode="2" 
d="M1106 0h-1067l360 395q116 127 157 177q75 90 111 145q45 68 65 124q22 61 22 115q0 52 -18 90t-45 62t-63 36q-33 11 -73 11q-90 0 -133 -43t-43 -92q0 -48 34 -85q35 -38 99 -48l-207 -242q-47 11 -93 40q-42 26 -77 69q-33 40 -51 93q-18 52 -18 111q0 79 33 154
q34 77 104 141t176 103q107 39 252 39q88 0 177 -25q82 -23 150 -74q66 -50 106 -125q40 -76 40 -180q0 -76 -34 -153q-37 -83 -92 -161q-64 -91 -137 -173q-79 -90 -171 -195l-47 -53h299q88 0 146 29t87 77z" />
    <glyph glyph-name="three" unicode="3" 
d="M1122 354q0 -79 -38 -149q-38 -71 -106 -122q-70 -53 -168 -83q-102 -31 -222 -31q-148 0 -248 35q-96 33 -160 82q-61 46 -89 94q-30 51 -36 70l307 203q17 -113 91 -177q73 -63 159 -63q31 0 61 9q28 8 53 27t39 44q15 27 15 63q0 47 -34 87q-35 41 -94 69
q-58 27 -143 46t-181 20l59 213q29 -6 58 -7q48 -2 71 -2q48 0 95 12q50 13 82 33q37 23 58 59t21 83q0 84 -59 136t-158 52q-88 0 -129 -35t-41 -75q0 -48 37 -70l-301 -123q-21 26 -37 67q-14 35 -14 85q0 84 43 154q44 72 116 123q72 52 174 82q100 30 215 30
q95 0 184 -26q86 -25 153 -74q69 -50 106 -116q39 -69 39 -155q0 -61 -23 -116q-23 -56 -61 -98q-42 -46 -91 -76q-51 -31 -112 -46q165 -47 237 -135q72 -89 72 -199z" />
    <glyph glyph-name="four" unicode="4" 
d="M967 276v-59q0 -65 12 -107t30 -66q19 -26 34 -33q20 -10 28 -11h-532q7 1 26 11q19 9 38 33q19 23 34 66q14 39 14 109v57h-624v64l508 1024h432v-850h163v-238h-163zM651 1096l-274 -582h274v582z" />
    <glyph glyph-name="five" unicode="5" 
d="M1120 440q0 -123 -43 -210q-44 -90 -119 -147q-77 -59 -180 -87q-107 -29 -227 -29q-105 0 -187 24q-88 26 -145 63q-61 40 -101 92q-41 54 -59 108l301 211q12 -67 37 -119q23 -48 57 -80q33 -31 68 -44q36 -13 74 -13q90 0 139 40t49 130q0 105 -82 171q-83 66 -270 66
h-285l99 748h536q71 0 124 5q50 5 76 12q28 8 41 15q13 8 17 11l-39 -295h-493l-33 -258h105q115 0 214 -24q102 -25 172 -73q72 -50 113 -128q41 -79 41 -189z" />
    <glyph glyph-name="six" unicode="6" 
d="M1133 483q0 -89 -32 -182q-32 -94 -97 -166q-68 -76 -167 -121q-103 -47 -241 -47q-133 0 -232 41q-95 40 -162 114t-96 173q-30 101 -30 219q0 129 33 255q33 128 94 240q62 115 152 208t208 161l496 -35q-120 -48 -205 -94q-97 -52 -169 -109q-77 -60 -141 -135
t-120 -174l12 -8q54 58 125 85q75 28 148 28q102 0 183 -38q79 -37 132 -101q54 -65 81 -145q28 -84 28 -169zM821 420q0 56 -16 104t-45 86q-28 37 -70 59q-40 21 -92 21q-86 0 -138 -58t-52 -157q0 -58 16 -106q16 -49 46 -86q29 -37 72 -58q40 -20 95 -20q80 0 132 58
t52 157z" />
    <glyph glyph-name="seven" unicode="7" 
d="M918 780q-94 -213 -142 -409q-49 -202 -51 -371h-432q27 100 83 249q49 131 119 300q50 121 131 305q61 139 122 264h-426q-108 0 -170 -45q-63 -46 -97 -102l47 393h1078z" />
    <glyph glyph-name="eight" unicode="8" 
d="M1133 387q0 -105 -48 -187q-46 -79 -123 -130q-77 -52 -176 -77q-101 -26 -200 -26q-88 0 -186 19q-91 18 -169 62q-73 42 -122 117q-48 74 -48 181q0 120 76 209q77 90 223 135q-125 56 -184 147q-57 89 -57 187q0 92 44 162t115 117q70 46 158 70t176 24q86 0 170 -21
q85 -21 150 -61q63 -39 105 -104q40 -62 40 -146q0 -98 -56 -183q-58 -88 -181 -128q78 -28 140 -72q52 -37 90 -88q32 -43 48 -99q15 -53 15 -108zM766 995q0 32 -9 62q-9 31 -32 55q-24 26 -58 40q-36 15 -87 15q-78 0 -114 -38q-36 -37 -36 -107q0 -35 10 -65
q10 -31 33 -57t58 -42t85 -16q45 0 72 13t46 35q17 20 25 49q7 25 7 56zM803 377q0 37 -12 73q-11 33 -40 65q-26 29 -72 48t-108 19q-94 0 -135 -55t-41 -122q0 -37 12 -71q14 -39 36 -63q25 -27 69 -45q41 -17 104 -17q187 0 187 168z" />
    <glyph glyph-name="nine" unicode="9" 
d="M1116 842q0 -129 -33 -255q-34 -130 -94 -238q-64 -116 -152 -205q-91 -93 -208 -160l-496 34q109 43 205 94q95 50 169 108q75 59 141 134q65 74 120 172l-12 11q-54 -58 -125 -85q-75 -28 -148 -28q-102 0 -183 38q-80 38 -132 100q-55 66 -81 145q-28 86 -28 170
q0 87 31 182q30 92 96 167q67 76 165 122q100 47 239 47q135 0 234 -42t164 -116t96 -175q32 -104 32 -220zM784 885q0 59 -17 106q-17 48 -48 86q-30 37 -75 59q-44 21 -95 21q-80 0 -128 -61q-48 -62 -48 -160q0 -56 15 -105q15 -48 45 -86q29 -36 71 -58q40 -21 92 -21
q86 0 137 60t51 159z" />
    <glyph glyph-name="colon" unicode=":" horiz-adv-x="555" 
d="M485 768q0 -85 -57 -142t-152 -57q-94 0 -152 57t-58 142t58 142t152 57q95 0 152 -57t57 -142zM485 170q0 -86 -57 -143q-58 -58 -152 -58q-92 0 -152 58q-58 57 -58 143q0 85 58 142t152 57q95 0 152 -57t57 -142z" />
    <glyph glyph-name="semicolon" unicode=";" horiz-adv-x="555" 
d="M512 768q0 -85 -58 -142t-153 -57q-94 0 -151 57q-58 58 -58 142t58 142q57 57 151 57q95 0 153 -57t58 -142zM522 76q0 -78 -27 -159q-27 -80 -86 -147q-61 -69 -150 -111q-94 -45 -216 -46q48 22 88 57q42 36 76 81q32 42 52 95q20 52 20 105v24q0 4 -3 25
q-14 -2 -28 -2q-77 0 -118 50q-40 49 -40 116q0 37 12 73q11 33 38 65q23 28 64 47q38 18 87 18q57 0 100 -24q45 -25 72 -63q29 -41 44 -94t15 -110z" />
    <glyph glyph-name="less" unicode="&#x3c;" horiz-adv-x="1443" 
d="M223 510v160l998 553v-248l-719 -389v-13l719 -366v-250z" />
    <glyph glyph-name="equal" unicode="=" horiz-adv-x="1443" 
d="M156 698v220h1132v-220h-1132zM156 252v219h1132v-219h-1132z" />
    <glyph glyph-name="greater" unicode="&#x3e;" horiz-adv-x="1443" 
d="M223 -43v250l719 387v12l-719 369v248l998 -553v-160z" />
    <glyph glyph-name="question" unicode="?" horiz-adv-x="964" 
d="M952 1075q0 -77 -30 -137q-29 -59 -76 -107q-45 -47 -98 -86q-83 -62 -99 -75q-49 -41 -76 -76q-30 -39 -30 -86q0 -48 18 -63q17 -14 51 -19q-28 -32 -63 -44q-36 -13 -72 -13q-46 0 -86 11q-42 12 -77 36q-32 22 -54 62q-20 36 -20 91q0 67 25 116q25 48 65 90
q36 37 83 73q13 10 41 30.5t42 31.5q37 28 64 62q26 32 26 70q0 49 -38 78t-95 29q-41 0 -83 -13q-44 -14 -87 -42q-40 -26 -83 -74q-41 -46 -71 -107v396q65 38 172 64q109 26 217 26q99 0 180 -23q82 -23 137 -65q57 -44 87 -103q30 -60 30 -133zM637 139q0 -74 -50 -122
q-49 -48 -132 -48t-132 48q-51 49 -51 122t51 122q49 48 132 48t132 -48q50 -48 50 -122z" />
    <glyph glyph-name="at" unicode="@" horiz-adv-x="1929" 
d="M1815 631q0 -142 -43 -259t-116 -202q-71 -83 -170 -130q-96 -46 -206 -46t-166 34q-58 35 -74 126q-45 -86 -114 -123q-68 -37 -162 -37q-126 0 -196 93q-70 92 -70 255q0 103 29 207q30 110 90 199q58 88 152 149q90 59 214 59q43 0 70 -4q36 -5 63 -14q26 -10 63 -16
q40 -7 68 -7q25 0 66 11q45 12 78 26l-111 -659q-6 -30 -6 -55q0 -50 18 -80q19 -31 56 -31q49 0 106 27q58 27 107 87q48 58 80 156t32 236q0 145 -52 250q-53 108 -140 177q-89 70 -201 105q-114 35 -233 35q-143 0 -283 -49q-144 -50 -254 -146q-113 -98 -183 -244
q-71 -148 -71 -343q0 -158 57 -286t159 -218q101 -89 243 -139q140 -49 311 -49q183 0 350 61q170 62 293 178l105 -74q-65 -65 -154 -118q-85 -50 -182 -87q-101 -38 -201 -55q-105 -18 -205 -18q-229 0 -399 59q-173 60 -288 166q-116 107 -173 251t-57 317q0 224 84 394
q82 166 218 282q133 114 303 171q172 58 339 58q148 0 283 -43q139 -44 242 -128q106 -86 168 -212q63 -128 63 -297zM1055 657q0 52 -16 98q-15 44 -68 44q-39 0 -73 -46t-58 -115q-25 -72 -38 -148q-14 -82 -14 -144q0 -73 20 -127q20 -53 67 -53q26 0 44 14q19 14 34 39
q17 27 28 55q13 32 23 64q10 38 22 94q9 44 16 94q9 66 10 80q3 34 3 51z" />
    <glyph glyph-name="A" unicode="A" horiz-adv-x="1591" 
d="M1393 268q36 -89 68 -138q33 -51 62 -81q27 -29 48 -39q20 -10 26 -10h-643q4 0 21 5q14 4 27 16q14 13 24 32q10 20 10 53q0 20 -15 69t-38 106h-504q-15 -44 -28 -99q-13 -54 -13 -65q0 -34 11 -58q11 -23 24 -35q17 -15 29 -19q17 -5 20 -5h-524q5 1 26 11q20 9 47 38
q26 28 60 83q30 48 70 147l428 1085h307zM563 500h334l-170 442z" />
    <glyph glyph-name="B" unicode="B" horiz-adv-x="1368" 
d="M1307 373q0 -69 -27 -137t-81 -120q-54 -53 -136 -84q-84 -32 -191 -32h-804q4 0 23 8q17 7 37 35q21 28 35 79q15 53 15 140v846q0 86 -18 136q-19 51 -42 76q-25 27 -45 34q-17 7 -28 10h799q99 0 175 -29q74 -28 124 -75t74 -107t24 -121q0 -49 -15 -97
q-14 -46 -46 -90q-30 -42 -76 -74q-45 -31 -105 -48q76 -12 134 -47q55 -33 96 -82q37 -44 58 -105q20 -58 20 -116zM932 403q0 82 -50 135q-49 52 -173 52h-174v-357h196q108 0 155 50q46 49 46 120zM868 983q0 24 -8 53q-7 25 -26 49q-16 21 -51 37q-31 15 -78 15h-170
v-324h174q45 0 75 15q33 17 50 39q18 25 26 55q8 32 8 61z" />
    <glyph glyph-name="C" unicode="C" horiz-adv-x="1306" 
d="M1233 160q-35 -41 -85 -76q-48 -33 -109 -60q-57 -25 -124 -40q-66 -15 -133 -15q-180 0 -312 57q-134 58 -218 151q-86 95 -128 218t-42 258q0 143 47 278q46 132 142 237q94 103 236 165t329 62q76 0 146 -10q64 -9 107 -21q39 -11 73 -26q12 -5 28 -12.5t18 -8.5v-426
q-23 50 -58 94q-36 45 -83 80q-44 33 -109 55q-62 21 -137 21q-70 0 -137 -29q-65 -28 -117 -86q-51 -57 -81 -140q-29 -80 -29 -192t28 -196q28 -85 79 -145q49 -58 117 -89t142 -31q111 0 223 56q111 55 187 157v-286z" />
    <glyph glyph-name="D" unicode="D" horiz-adv-x="1546" 
d="M1464 696q0 -132 -42 -256q-42 -125 -133 -223t-234 -158q-142 -59 -346 -59h-641q4 0 25 8q19 7 41 37q21 29 39 84q17 52 17 150v839q0 81 -19 128q-19 48 -44 74q-25 27 -48 34q-21 8 -32 10h692q164 0 296 -49q139 -51 230 -137q95 -89 147 -211t52 -271zM1083 680
q0 96 -25 178q-25 83 -79 146q-52 60 -134 97q-81 36 -194 36h-100v-904h166q90 0 159 36q66 34 114 98q46 61 70 142q23 78 23 171z" />
    <glyph glyph-name="E" unicode="E" horiz-adv-x="1179" 
d="M1059 0h-1000q7 0 26 9t41 37q20 26 39 81q17 50 17 143v848q0 84 -20 130q-22 50 -46 74q-27 27 -50 34q-26 8 -31 8h1007v-422q-14 42 -29 72q-19 37 -47 62q-31 28 -75 44q-46 17 -113 17h-237v-336h215q54 0 85 9q32 9 50 21t24 24q2 4 5.5 9t3.5 6v-368
q-5 19 -25 35q-14 10 -49 23q-30 11 -90 11h-219v-338h262q63 0 111 12q49 12 86 36q39 25 70 62q36 43 63 93z" />
    <glyph glyph-name="F" unicode="F" horiz-adv-x="1085" 
d="M1047 946q-13 32 -30 65q-18 35 -47 61q-32 29 -76 46q-49 19 -114 19h-233v-336h203q55 0 88 9q31 9 50 21q16 11 23 25t7 16v-372l-7 14q-7 14 -24 25q-16 11 -50 22q-30 10 -85 10h-205v-329q0 -84 14 -127q16 -48 33 -73q19 -26 37 -34q19 -8 26 -8h-591q4 0 25 8
q19 7 41 34q21 26 39 75q17 47 17 135v870q0 82 -19 127q-20 48 -45 73q-27 27 -49 34q-26 8 -30 8h1002v-418z" />
    <glyph glyph-name="G" unicode="G" horiz-adv-x="1417" 
d="M932 408q0 64 -18 105q-18 40 -40 61q-24 22 -43 29q-23 8 -26 9h592q-8 0 -26 -7q-23 -9 -41 -27q-22 -22 -38 -60t-16 -102v-371q-49 -19 -119 -35q-57 -13 -136 -23t-139 -14q-61 -4 -128 -4q-175 0 -308 58q-130 57 -219 152q-88 94 -132 218t-44 252q0 137 50 272
q49 133 151 239t253 170q154 65 355 65q79 0 154 -10q73 -10 118 -22q50 -13 81 -27q7 -3 47 -19v-406q-27 50 -67 91q-42 44 -91 74q-52 32 -115 50q-67 19 -137 19q-85 0 -163 -32q-77 -32 -134 -92q-55 -58 -91 -147q-34 -84 -34 -192q0 -102 30 -187q30 -86 81 -146
t119 -94t147 -34q38 0 73 5q19 3 54 12v170z" />
    <glyph glyph-name="H" unicode="H" horiz-adv-x="1566" 
d="M1409 250q0 -85 14 -131q15 -50 34 -76q20 -27 38 -35q19 -8 25 -8h-588q5 0 24 8q17 7 39 34q21 26 36 75q16 53 16 133v321h-525v-321q0 -80 16 -133q15 -51 34 -75q20 -27 38 -34q19 -8 25 -8h-590q6 0 25 8q17 7 39 34q19 24 35 75q16 53 16 133v864q0 79 -16 130
q-15 49 -34 75q-20 28 -39 35q-17 8 -26 10h590q-5 0 -24 -8q-15 -6 -38 -34q-19 -24 -35 -75q-16 -53 -16 -133v-313h525v313q0 79 -16 130q-15 47 -35 75t-39 35q-18 8 -25 10h588q-7 0 -24 -7t-37 -33q-20 -27 -35 -75q-15 -49 -15 -135v-864z" />
    <glyph glyph-name="I" unicode="I" horiz-adv-x="694" 
d="M526 227q0 -73 15 -118q16 -48 33 -69q20 -24 38 -32q19 -8 25 -8h-582q8 0 25 7q19 8 38 31q21 26 35 68q15 45 15 121v899q0 78 -15 124q-15 47 -36 71q-24 27 -38 33q-16 8 -24 10h584q-4 0 -23 -8q-15 -6 -37 -33q-19 -24 -36 -71q-17 -48 -17 -126v-899z" />
    <glyph glyph-name="J" unicode="J" horiz-adv-x="718" 
d="M190 1130q0 79 -16 123q-17 46 -38 70t-41 32q-19 7 -27 9h594q-7 0 -24 -7t-37 -32q-20 -24 -35 -72q-15 -47 -15 -127v-1013q0 -79 -35 -157q-34 -76 -103 -136q-67 -58 -170 -96q-101 -37 -237 -37q85 46 135 146q49 98 49 280v1017z" />
    <glyph glyph-name="K" unicode="K" horiz-adv-x="1533" 
d="M1217 266q66 -86 118 -140q53 -54 87 -80q39 -29 58 -36q27 -10 29 -10h-524l-463 621v-373q0 -82 15 -131q16 -53 33 -75q20 -27 38 -34q19 -8 25 -8h-588q6 0 25 8q17 7 39 34q19 23 35 74t16 132v866q0 79 -16 130q-15 49 -34 75q-20 28 -39 35q-17 8 -26 10h588
q-5 0 -24 -8q-16 -7 -37 -34q-19 -24 -34 -75q-16 -53 -16 -133v-338l295 330q71 81 94 126q25 50 25 77q0 32 -22 43q-21 11 -31 12h614q-3 0 -29 -8q-19 -6 -67 -34q-39 -23 -105 -76q-56 -45 -139 -136l-311 -352z" />
    <glyph glyph-name="L" unicode="L" horiz-adv-x="1163" 
d="M1047 0h-990q5 0 23 8q15 7 34 37q16 25 30 84q14 58 14 152v833q0 79 -16 130q-15 49 -34 75q-20 27 -38 35q-15 8 -25 10h573q-6 0 -23 -7q-16 -7 -38 -33q-21 -26 -36 -75t-15 -135v-881h266q63 0 116 5q50 5 86 19q38 15 69 48q34 36 67 90z" />
    <glyph glyph-name="M" unicode="M" horiz-adv-x="1873" 
d="M1700 254q0 -85 16 -133q17 -50 37 -76q21 -27 40 -36t26 -9h-562q5 0 23 8q16 7 35 34q17 25 33 76q14 46 14 136v686l-444 -975l-461 975v-676q0 -86 18 -138q18 -53 42 -80q26 -29 46 -36q28 -9 33 -10h-539q5 0 29 8q20 7 46 36q24 27 42 80q19 55 19 142v860
q0 76 -20 124q-20 46 -44 71q-26 26 -49 33q-19 7 -33 10h598l322 -709l315 709h537q-8 0 -26 -7t-40 -32q-20 -23 -37 -74q-16 -48 -16 -131v-866z" />
    <glyph glyph-name="N" unicode="N" horiz-adv-x="1531" 
d="M1083 1120q0 80 -15 128q-15 50 -36 73q-23 27 -40 33q-18 8 -27 10h510q-7 0 -24 -7t-37 -32t-35 -74t-15 -131v-1120h-281q-16 54 -51 121q-27 53 -78 130q-54 82 -120 163l-359 426v-598q0 -80 18 -127q20 -51 39 -73q23 -26 45 -34t29 -8h-520q5 0 24 8q15 6 35 33
q17 23 33 73q15 48 15 130v862q0 60 -32 109q-31 47 -71 81q-47 39 -102 68h522l573 -692v448z" />
    <glyph glyph-name="O" unicode="O" horiz-adv-x="1574" 
d="M1493 705q0 -146 -50 -281q-49 -131 -145 -235q-92 -99 -229 -160q-135 -60 -305 -60q-162 0 -291 56q-128 56 -214 149q-87 94 -132 219t-45 266q0 154 52 286q53 135 149 234t232 157q138 59 302 59q161 0 288 -56q128 -56 212 -148q86 -94 131 -219q45 -126 45 -267z
M1128 647q0 101 -21 191q-20 87 -67 157q-46 68 -114 107q-69 39 -164 39q-67 0 -124 -27q-56 -27 -98 -79q-42 -53 -66 -130q-23 -75 -23 -182q0 -115 22 -204q22 -90 69 -155q48 -67 113 -100q68 -35 160 -35q136 0 225 109q88 107 88 309z" />
    <glyph glyph-name="P" unicode="P" horiz-adv-x="1255" 
d="M1212 938q0 -99 -34 -182t-102 -146q-65 -61 -162 -96q-96 -35 -218 -35q-46 0 -89 6q-39 5 -83 19v-256q0 -84 18 -132q19 -50 40 -74q24 -27 44 -34q22 -8 29 -8h-579q7 0 24 7q18 8 38 32q20 25 35 74t15 135v860q0 84 -18 134t-42 77q-25 28 -45 35q-17 7 -28 10h695
q107 0 194 -35q86 -35 146 -93q59 -58 91 -135q31 -75 31 -163zM844 934q0 91 -53 147t-158 56h-109v-404q27 -9 65 -16q34 -6 64 -6q96 0 143 59q48 60 48 164z" />
    <glyph glyph-name="Q" unicode="Q" horiz-adv-x="1574" 
d="M1493 705q0 -179 -72 -333q-73 -157 -204 -257q52 -66 116 -117q60 -47 130 -82q64 -32 129 -49t116 -17q-89 -58 -207 -80q-117 -22 -234 -7q-119 15 -234 68q-116 53 -204 140q-22 -2 -32 -2h-33q-162 0 -291 56q-128 56 -214 149q-87 94 -132 219t-45 266
q0 154 52 286q53 135 149 234t232 157q138 59 302 59q161 0 288 -56q128 -56 212 -148q86 -94 131 -219q45 -126 45 -267zM1128 647q0 101 -21 191q-20 87 -67 157q-46 68 -114 107q-69 39 -164 39q-67 0 -124 -27q-56 -27 -98 -79q-42 -53 -66 -130q-23 -75 -23 -182
q0 -115 22 -204q22 -90 69 -155q48 -67 113 -100q68 -35 160 -35q136 0 225 109q88 107 88 309z" />
    <glyph glyph-name="R" unicode="R" horiz-adv-x="1392" 
d="M1167 174q28 -52 61 -90q31 -36 54 -53q26 -20 42 -25q18 -6 24 -6h-478l-202 389q-37 71 -63 91t-58 20h-23v-252q0 -79 16 -130q15 -49 34 -75q20 -27 38 -35q19 -8 25 -8h-569q5 0 24 8q16 7 39 33q21 24 36 74q15 49 15 133v858q0 86 -19 134q-21 53 -43 78
q-26 29 -46 36q-18 7 -29 10h676q131 0 227 -36q97 -36 159 -94q61 -57 92 -132q30 -74 30 -150q0 -77 -24 -142q-25 -67 -66 -114q-43 -49 -102 -82q-58 -33 -128 -45q30 -19 55 -50q24 -29 48 -73zM870 944q0 41 -13 74t-41 61q-27 27 -67 42q-43 16 -96 16h-131v-402h135
q57 0 97 18q42 19 66 47q27 32 38 66q12 38 12 78z" />
    <glyph glyph-name="S" unicode="S" horiz-adv-x="1146" 
d="M1067 395q0 -108 -44 -188q-43 -79 -120 -132t-176 -78q-102 -26 -211 -26q-122 0 -236 27q-113 27 -192 74v432q39 -79 91 -136q48 -53 106 -87q56 -33 113 -48q55 -14 118 -14q91 0 148 33t57 92q0 48 -33 82q-32 34 -86 63q-60 32 -119 58q-60 26 -131 63
q-50 27 -96 60q-51 36 -83 75q-36 43 -57 98q-22 57 -22 124q0 107 42 186q43 81 113 133q71 53 166 80t203 27q103 0 199 -26q91 -25 154 -67v-364q-23 43 -67 84q-41 38 -91 67q-54 31 -104 46q-54 16 -107 16q-96 0 -136 -34t-40 -81q0 -36 20 -62q22 -28 57 -50
q40 -25 82 -44q7 -3 42 -19t55 -25q51 -23 136 -67q68 -35 124 -87q56 -51 90 -120q35 -70 35 -165z" />
    <glyph glyph-name="T" unicode="T" horiz-adv-x="1363" 
d="M1321 942q-18 41 -33 70q-18 35 -47 62q-28 26 -73 45q-44 18 -111 18h-193v-887q0 -82 16 -135q16 -51 35 -75q22 -26 38 -33q17 -7 24 -7h-586q8 0 27 8t37 35q16 25 32 76q15 49 15 131v887h-242q-48 0 -83 -18q-34 -18 -58 -45q-25 -28 -41 -62q-6 -13 -31 -70h-2
l37 422h1204z" />
    <glyph glyph-name="U" unicode="U" horiz-adv-x="1480" 
d="M1006 1114q0 81 -17 130q-16 47 -38 75t-42 35q-19 8 -28 10h553q-8 0 -26 -7q-20 -8 -41 -33q-22 -27 -38 -75t-16 -135v-608q0 -148 -42 -250q-42 -103 -116 -166q-74 -64 -176 -92q-104 -29 -221 -29q-311 0 -455 129q-143 128 -143 381v635q0 78 -16 131
q-15 51 -34 75q-21 27 -39 34q-17 8 -26 10h588q-7 0 -24 -7t-37 -32q-18 -22 -34 -73t-16 -130v-624q0 -160 62 -220q63 -61 186 -61q122 0 179 65q57 64 57 216v616z" />
    <glyph glyph-name="V" unicode="V" horiz-adv-x="1566" 
d="M1108 1264q0 32 -11 50q-12 20 -26 31q-13 10 -29 15q-13 4 -22 4h543q-6 0 -25 -8q-18 -8 -46 -37q-30 -32 -64 -84q-32 -50 -72 -150l-428 -1085h-271l-446 1096q-38 90 -71 140q-37 56 -62 80q-31 29 -49 37q-24 10 -27 11h645q-7 0 -22 -4q-19 -5 -34 -14
q-18 -10 -30 -30t-12 -50q0 -24 10 -48q11 -26 27 -63l254 -633l243 641q25 66 25 101z" />
    <glyph glyph-name="W" unicode="W" horiz-adv-x="2189" 
d="M1731 1241q0 39 -12 63t-24 36q-15 15 -28 19q-17 5 -20 5h538q-5 0 -27 -8t-51 -37q-26 -26 -61 -83t-64 -146l-354 -1090h-285l-239 725l-250 -725h-281l-368 1100q-27 80 -63 140q-31 51 -60 79t-50 35q-17 8 -30 10h643q-3 0 -16 -5q-10 -4 -26 -18q-12 -11 -23 -34
q-11 -24 -11 -62q0 -21 5 -56q4 -31 20 -73l190 -573l205 553l-14 39q-29 79 -50 117q-27 49 -42 69q-20 27 -30 33q-12 9 -15 10h559q-2 0 -19 -5q-12 -4 -29 -19q-18 -16 -28 -38q-12 -26 -12 -67q0 -45 24 -119l189 -571l186 571q13 41 17 70q6 40 6 55z" />
    <glyph glyph-name="X" unicode="X" horiz-adv-x="1490" 
d="M1231 272q65 -96 107 -144q51 -59 79 -82q38 -31 50 -37q18 -9 22 -9h-680q5 0 16 4q15 6 25 13q12 9 21 26q10 18 10 45q0 29 -19 76q-18 44 -61 110l-96 146l-95 -144q-46 -70 -72 -120q-24 -45 -24 -74q0 -26 7 -41q8 -18 18 -25q12 -8 19 -12q8 -4 13 -4h-569
q5 0 27 8q16 6 57 37q37 28 88 85q56 63 119 155l258 374l-299 447q-57 86 -99 134q-46 52 -76 78q-34 30 -50 36q-15 8 -25 10h672q-3 0 -14 -4t-23 -13q-13 -10 -22 -26q-9 -17 -9 -43q0 -28 17 -71q16 -41 57 -103l104 -156l117 158q52 73 66 108q18 44 18 72q0 24 -7 38
q-9 18 -17 24q-9 7 -20 12q-8 4 -11 4h557q-3 0 -22 -8q-13 -5 -50 -34q-35 -27 -80 -75q-47 -49 -108 -135l-291 -399z" />
    <glyph glyph-name="Y" unicode="Y" horiz-adv-x="1439" 
d="M997 1280q0 26 -8 42q-8 15 -19 25q-11 8 -22 13q-9 4 -16 4h520q-1 0 -17 -8q-15 -7 -43 -34q-31 -30 -69 -77q-46 -57 -94 -139l-328 -535v-321q0 -85 14 -131q15 -50 34 -76q20 -27 38 -35q19 -8 25 -8h-588q6 0 25 8q15 6 38 34q21 26 36 75q16 53 16 133v309
l-318 549q-53 90 -89 134q-43 53 -70 77q-31 28 -48 35q-16 8 -24 10h645q-5 0 -17 -3t-24 -12q-14 -10 -22 -27q-9 -18 -9 -44q0 -30 11 -64q12 -38 42 -90l162 -274l137 229q43 72 63 122q19 47 19 79z" />
    <glyph glyph-name="Z" unicode="Z" horiz-adv-x="1298" 
d="M1206 0h-1167l629 1137h-275q-89 0 -143 -14t-85 -39t-49 -62q-19 -40 -36 -82v424h1120l-625 -1131h347q126 0 205 54q77 53 122 149z" />
    <glyph glyph-name="bracketleft" unicode="[" horiz-adv-x="595" 
d="M59 -371v1770h480v-174h-226v-1418h226v-178h-480z" />
    <glyph glyph-name="backslash" unicode="\" horiz-adv-x="1017" 
d="M692 -31l-641 1432h273l643 -1432h-275z" />
    <glyph glyph-name="bracketright" unicode="]" horiz-adv-x="595" 
d="M59 -371v178h224v1418h-224v174h480v-1770h-480z" />
    <glyph glyph-name="asciicircum" unicode="^" horiz-adv-x="1443" 
d="M1012 319l-297 768h-8l-275 -768h-252l430 1074h226l432 -1074h-256z" />
    <glyph glyph-name="underscore" unicode="_" horiz-adv-x="1198" 
d="M8 -287v127h1180v-127h-1180z" />
    <glyph glyph-name="grave" unicode="`" horiz-adv-x="1036" 
d="M197 1364h397l86 -338z" />
    <glyph glyph-name="a" unicode="a" horiz-adv-x="1101" 
d="M840 -51q-24 1 -52 14q-26 11 -48 29q-21 17 -38 35q-16 17 -22 34q-19 -19 -54 -39q-27 -16 -71 -29q-39 -12 -80 -18t-80 -6q-137 0 -222 72t-85 188q0 66 43 122t117 103q73 46 173 81q98 34 212 57v61q0 152 -109 152q-67 0 -95 -28t-28 -54q0 -19 11 -35
q10 -15 26 -22l-309 -113q-23 64 -23 115q0 82 42 142t107 101q66 41 141 62q73 20 147 20q119 0 194 -23q79 -24 125 -66q48 -44 67 -101q19 -58 19 -129v-346q0 -100 47 -147q46 -46 129 -46q4 0 10 2t9 2zM633 420q-132 -22 -192 -70q-58 -46 -58 -94q0 -36 31 -62
t84 -26q48 0 92 33q43 33 43 102v117z" />
    <glyph glyph-name="b" unicode="b" horiz-adv-x="1163" 
d="M1094 526q0 -109 -38 -211q-36 -97 -106 -176q-67 -76 -160 -121t-206 -45q-65 0 -121 9q-51 8 -79 19q-22 8 -56 19q-29 9 -54 9q-86 0 -135 -60v1078q0 79 -13 124q-14 48 -33 73q-20 27 -44 34q-26 8 -47 8h-22l477 154v-543q42 40 103 68q62 28 142 28q71 0 140 -24
q68 -24 126 -80q56 -54 91 -145q35 -90 35 -218zM756 467q0 51 -11 104q-12 58 -30 93q-22 43 -50 65q-31 25 -67 25q-64 0 -105 -48q-40 -47 -40 -139v-239q0 -66 34 -99q33 -32 88 -32q47 0 81 21q35 21 57 58q21 35 32 86q11 52 11 105z" />
    <glyph glyph-name="c" unicode="c" horiz-adv-x="985" 
d="M948 336q-16 -89 -56 -154q-42 -68 -100 -114q-61 -48 -129 -73q-72 -26 -143 -26q-109 0 -194 35t-141 97q-55 61 -86 150q-29 84 -29 191q0 128 41 231q40 101 109 173q68 71 159 109t188 38q82 0 145 -25q62 -24 110 -71q47 -46 72 -107q26 -63 30 -135l-295 -114
q16 36 16 82q0 58 -29 101q-28 42 -88 42q-36 0 -66 -18q-28 -17 -49 -52q-20 -34 -30 -74t-10 -87q0 -68 17 -125q19 -62 52 -107q36 -49 86 -75q51 -27 119 -27q75 0 154 33q80 33 147 102z" />
    <glyph glyph-name="d" unicode="d" horiz-adv-x="1169" 
d="M737 -45l-2 111q-43 -43 -111 -69q-73 -28 -155 -28q-71 0 -142 24q-72 25 -128 79q-59 57 -94 144q-35 86 -35 222q0 148 45 253t114 171q68 65 153 96t159 31q62 0 103 -10q44 -11 71 -27v92q0 72 -14 119t-32 69q-20 24 -44 32q-26 8 -47 8h-25l479 168v-1129
q0 -69 11 -106q13 -45 29 -63q18 -21 40 -28q24 -8 45 -8h29zM717 612q0 70 -35 111t-102 41q-43 0 -76 -21t-55 -55q-21 -33 -34 -82q-12 -46 -12 -100q0 -64 12 -118q13 -57 32 -94q20 -38 53 -63q29 -22 71 -22q64 0 105 41t41 127v235z" />
    <glyph glyph-name="e" unicode="e" horiz-adv-x="1062" 
d="M997 324q-29 -182 -146 -268q-119 -87 -304 -87q-110 0 -197 37t-149 102t-96 154q-33 86 -33 199q0 108 32 201t97 169q64 75 153 118q91 44 205 44q96 0 172 -32t133 -103q56 -69 86 -178q31 -112 31 -258h-600l6 -27q28 -93 115 -143q85 -49 186 -49q86 0 170 30
q82 29 139 91zM690 600q0 100 -42 145q-43 46 -95 46q-58 0 -112 -51q-52 -49 -60 -140h309z" />
    <glyph glyph-name="f" unicode="f" horiz-adv-x="759" 
d="M500 750v-480q0 -90 15 -143q16 -55 36 -81q23 -29 38 -37q18 -9 23 -9h-546q5 0 24 8q17 7 39 35q21 27 36 81t15 146v480h-157v202h157v60q0 118 34 196q35 81 89 129q57 50 127 71q75 22 145 22q48 0 94 -8q43 -8 60 -9v-276q-18 30 -54 54q-35 23 -77 23
q-49 0 -73 -33q-25 -34 -25 -114v-115h229v-202h-229z" />
    <glyph glyph-name="g" unicode="g" horiz-adv-x="1097" 
d="M1071 -43q0 -62 -33 -125q-34 -65 -106 -115q-73 -51 -190 -84q-112 -32 -281 -32q-121 0 -201 15q-77 15 -128 40q-48 24 -69 56q-20 30 -20 65t15 66t41 59q24 25 58 48q33 22 64 36q-54 17 -92 46q-39 30 -39 81q0 27 18 57q19 31 45 59q31 33 61 55q36 27 65 44
q-92 38 -150 114q-59 77 -59 176q0 78 30 147q30 70 90 119q61 50 147 80q84 29 200 29q43 0 87 -6q36 -5 83 -14q74 -13 98 -16q52 -7 104 -7q50 0 89 7q44 8 71 22v-219h-145q17 -26 28 -67q11 -39 11 -72q0 -64 -27 -124q-28 -62 -82 -109q-57 -49 -139 -77
q-83 -28 -199 -28q-17 0 -31 2q-3 0 -6 0.5t-5 1t-3 0.5q-34 -22 -46 -35q-13 -14 -13 -27q0 -11 12 -15q11 -4 32 -9q20 -5 42 -6q30 -2 43 -2l233 -9q89 -5 144 -25q53 -20 91 -54q33 -30 48 -71q14 -38 14 -77zM641 621q0 30 -8 65q-7 30 -26 59q-18 27 -43 43
q-26 17 -58 17q-57 0 -84 -45t-27 -103q0 -34 9 -67t27 -60q17 -26 42 -43q23 -16 57 -16q57 0 84 45t27 105zM786 -125q0 29 -35 46t-116 22l-111 4q-40 1 -78 3q-25 1 -43 1q-30 -17 -51 -40q-22 -23 -22 -46q0 -74 190 -74q140 0 203 27t63 57z" />
    <glyph glyph-name="h" unicode="h" horiz-adv-x="1187" 
d="M1053 236q0 -81 14 -124q16 -48 34 -71q21 -26 38 -33q19 -8 24 -8h-512q5 0 18 7q11 6 27 30q14 20 26 67q11 41 11 123v346q0 97 -33 139t-92 42q-60 0 -106 -44q-45 -44 -45 -137v-346q0 -76 14 -118q16 -47 32 -69q19 -25 35 -32q19 -8 23 -8h-536q7 0 24 7t39 32
q20 23 36 72q15 47 15 127v778q0 80 -13 125q-14 47 -33 72q-20 27 -44 34q-26 8 -47 8h-22l477 185v-547q23 22 55 39q34 19 70 33q32 13 75 21q36 7 76 7q146 0 233 -87t87 -255v-415z" />
    <glyph glyph-name="i" unicode="i" horiz-adv-x="598" 
d="M461 238q0 -82 14 -125q16 -50 34 -72q21 -26 38 -33q19 -8 24 -8h-542q7 0 24 7q18 8 38 32t35 72q15 47 15 127v393q0 63 -12 102t-31 61q-17 20 -42 28q-22 7 -46 7h-28l479 175v-766zM467 1247q0 -77 -50 -127q-49 -49 -134 -49q-86 0 -135 49q-50 50 -50 127
q0 75 50 125q49 49 135 49q85 0 134 -49q50 -50 50 -125z" />
    <glyph glyph-name="j" unicode="j" horiz-adv-x="598" 
d="M451 1247q0 -76 -51 -127q-49 -49 -134 -49t-134 49q-50 50 -50 127q0 75 50 125q49 49 134 49t134 -49q51 -51 51 -125zM461 -31q0 -94 -28 -164q-26 -65 -78 -112q-49 -45 -119 -66q-66 -20 -152 -20q-54 0 -98 15q-42 14 -75 35q-30 19 -51 41q-19 20 -24 34
q57 -21 113 -21q37 0 74 13q34 12 61 42q28 31 42 78q15 50 15 123v672q0 61 -12 99q-12 36 -31 59q-17 20 -42 26q-24 6 -46 6h-28l479 175v-1035z" />
    <glyph glyph-name="k" unicode="k" horiz-adv-x="1259" 
d="M1292 35q-37 -26 -105 -43q-74 -19 -194 -19q-107 0 -177 42q-69 41 -138 135q-9 13 -40.5 57t-47.5 67q-34 50 -72 99q-40 53 -57 71v-206q0 -82 14 -125q16 -50 34 -72q21 -26 38 -33q19 -8 24 -8h-542q7 0 24 7q18 8 38 32t35 72q15 47 15 127v788q0 80 -13 125
q-14 49 -34 73q-21 26 -45 33q-29 9 -47 9h-20l479 168v-883l196 215q43 46 54 74q12 30 12 53q0 19 -7 30q-6 10 -17 17q-9 6 -18 9t-11 3h555q-18 -7 -41 -18q-21 -10 -59 -37q-21 -15 -76 -62q-34 -30 -99 -96l-174 -184l268 -334q88 -107 142 -149q53 -41 84 -41
q8 0 11 1t11 3z" />
    <glyph glyph-name="l" unicode="l" horiz-adv-x="598" 
d="M461 238q0 -83 14 -126q16 -48 34 -71q21 -26 38 -33q19 -8 24 -8h-544q7 0 24 7q18 8 38 32t35 72q15 47 15 127v788q0 82 -13 127q-14 49 -34 73t-45 32q-26 8 -47 8h-20l481 168v-1196z" />
    <glyph glyph-name="m" unicode="m" horiz-adv-x="1773" 
d="M1636 240q0 -80 15 -127q17 -52 33 -72q21 -26 38 -33q19 -8 25 -8h-530q7 0 22 7t34 32q15 21 32 72q14 43 14 129v333q0 58 -10 92q-11 36 -28 55q-17 18 -39 26t-46 8q-80 0 -115 -48q-34 -47 -34 -128v-340q0 -82 13 -127q15 -50 31 -72q19 -26 33 -32q15 -7 23 -7
h-520q7 0 21 7t33 32q17 22 31 73q13 46 13 128v333q0 99 -32 140t-81 41q-71 0 -113 -49t-42 -127v-340q0 -80 13 -125q15 -50 31 -72q20 -27 34 -33q18 -8 22 -8h-534q7 0 24 7q19 8 39 31q22 25 36 68q15 45 15 125v404q0 67 -11 101q-13 39 -28 59q-15 19 -38 27
q-20 7 -42 7h-32l458 175l5 -125q29 26 62 45q32 19 76 35q48 18 82 25q42 9 83 9q74 0 134 -27q61 -27 89 -87q45 45 137 80q89 34 199 34q155 0 240 -84t85 -260v-409z" />
    <glyph glyph-name="n" unicode="n" horiz-adv-x="1185" 
d="M1053 240q0 -84 14 -127q16 -50 34 -72q21 -26 38 -33q19 -8 24 -8h-532q7 0 22 7q16 7 34 31t31 68q13 43 13 123v344q0 181 -121 181q-67 0 -111 -47t-44 -134v-346q0 -78 14 -119q16 -47 32 -68q19 -25 35 -32q19 -8 23 -8h-536q7 0 24 7q19 8 39 31q22 25 36 68
q15 45 15 125v404q0 67 -11 101q-13 40 -29 59q-17 19 -38 27q-20 7 -41 7h-32l458 175l2 -127q51 52 135 85q80 31 152 31q152 0 236 -84t84 -260v-409z" />
    <glyph glyph-name="o" unicode="o" horiz-adv-x="1189" 
d="M1120 506q0 -127 -42 -226q-43 -101 -113 -168q-71 -68 -171 -106q-98 -37 -212 -37q-108 0 -202 32q-95 32 -163 94q-69 63 -108 156t-39 214q0 127 44 227q44 99 117 165q74 67 170 101q97 35 199 35q108 0 203 -30q92 -29 165 -93q71 -62 111 -152q41 -93 41 -212z
M793 465q0 63 -18 119q-18 55 -46 95q-27 38 -67 63q-39 24 -84 24q-78 0 -133 -70q-54 -69 -54 -186q0 -65 18 -122q18 -58 47 -98q32 -45 69 -67q41 -24 85 -24q78 0 130 71q53 73 53 195z" />
    <glyph glyph-name="p" unicode="p" horiz-adv-x="1163" 
d="M1094 518q0 -126 -37 -224q-38 -101 -102 -169q-67 -72 -155 -108q-90 -37 -198 -37q-47 0 -89 9t-64 25v-149q0 -81 14 -124q16 -48 34 -71q19 -23 38 -31l24 -10h-522q5 0 19 7q15 8 32 32q16 24 30 71q13 45 13 126v747q0 70 -12 113q-11 41 -31 67q-16 22 -41 30
q-21 7 -43 7h-24l446 175l4 -132q48 59 123 90t154 31q72 0 138 -26q68 -27 124 -84q55 -56 90 -148q35 -91 35 -217zM754 451q0 56 -10 118q-10 60 -29 97q-21 40 -51 64t-76 24q-65 0 -106 -55q-40 -53 -40 -152v-234q0 -114 131 -114q89 0 135 70t46 182z" />
    <glyph glyph-name="q" unicode="q" horiz-adv-x="1155" 
d="M1024 -135q0 -77 15 -124q15 -46 35 -71q19 -23 38 -31q22 -9 25 -10h-523q6 0 20 7q15 8 32 32q15 21 29 71q14 48 14 126v205q-40 -39 -105 -68q-64 -29 -143 -29q-67 0 -139 25q-68 24 -126 80t-92 144q-34 87 -34 218q0 109 38 211q37 99 105 176q66 75 161 121
q93 45 206 45q66 0 114 -8q40 -7 77 -19q37 -14 57 -20q27 -8 57 -8q47 0 80 12q31 11 59 47v-1132zM709 639q0 65 -34 98q-35 33 -87 33q-46 0 -81 -21q-32 -20 -56 -59q-23 -38 -33 -86q-10 -47 -10 -104q0 -56 10 -105q11 -53 31 -92q22 -43 50 -65q31 -25 66 -25
q66 0 105 49t39 139v238z" />
    <glyph glyph-name="r" unicode="r" horiz-adv-x="845" 
d="M805 573q-12 27 -29 47q-16 18 -43 37q-23 16 -53 27q-27 10 -57 10q-34 0 -64 -15q-31 -15 -54 -49q-23 -33 -38 -89q-14 -52 -14 -138v-165q0 -78 15 -125q15 -48 35 -72q21 -26 39 -33q21 -8 25 -8h-542q7 0 24 7q18 8 38 32t35 72q15 47 15 127v411q0 65 -11 99
q-12 37 -29 57t-39 28q-20 7 -44 7h-26l446 164l4 -193q34 76 104 129t148 53q28 0 58 -8q28 -7 57 -24v-388z" />
    <glyph glyph-name="s" unicode="s" horiz-adv-x="856" 
d="M807 285q0 -72 -29 -133q-28 -58 -82 -100q-51 -39 -128 -61q-79 -22 -165 -22q-94 0 -189 23t-140 61v326q45 -79 130 -136q86 -57 193 -57q55 0 84 17t29 45q0 25 -16 41q-15 15 -48 33q-12 7 -75 36q-45 21 -105 54q-98 52 -139 116t-41 150q0 146 100 231
q101 86 287 86q67 0 141 -15q72 -15 121 -40v-301q-11 17 -38 42q-24 23 -59 44q-30 18 -75 35q-38 14 -88 14q-96 0 -96 -59q0 -21 11 -35q12 -15 36 -30q26 -16 62 -32q77 -34 90 -40q128 -60 178 -128q51 -69 51 -165z" />
    <glyph glyph-name="t" unicode="t" horiz-adv-x="776" 
d="M743 301q-11 -96 -38 -157q-28 -64 -72 -103q-43 -38 -99 -56q-57 -18 -120 -18q-137 0 -208 73t-71 177v533h-141l459 514v-312h262v-202h-262v-428q0 -64 31 -91q30 -26 77 -26q25 0 55 8q31 8 54 21q27 15 44 31t29 36z" />
    <glyph glyph-name="u" unicode="u" horiz-adv-x="1181" 
d="M741 -41l-4 127q-53 -54 -133 -85q-81 -32 -151 -32q-152 0 -236 84t-84 260v406q0 77 -19 122q-19 46 -46 70t-52 32q-23 7 -32 9h471v-563q0 -180 120 -180q67 0 111 48q43 47 43 134v340q0 74 -14 115q-14 42 -33 65t-37 31q-21 9 -27 10h429v-624q0 -63 11 -102
q13 -40 28 -58q18 -21 38 -28t41 -7h33z" />
    <glyph glyph-name="v" unicode="v" horiz-adv-x="1191" 
d="M799 846q0 32 -12 53q-13 22 -25 32q-15 12 -29 16q-17 5 -20 5h485q-4 0 -18 -7q-17 -9 -36 -26q-21 -20 -47 -59q-27 -41 -53 -102l-317 -758h-240l-329 770q-26 59 -54 94q-30 39 -49 55q-21 18 -38 25q-18 7 -21 8h569q-7 0 -18 -4q-15 -6 -25 -13q-11 -8 -21 -28
q-9 -18 -9 -47q0 -36 24 -98l137 -340l121 317q25 70 25 107z" />
    <glyph glyph-name="w" unicode="w" horiz-adv-x="1714" 
d="M1323 846q0 32 -9 53q-8 19 -23 32q-13 11 -25 16q-13 5 -19 5h473q-4 0 -19 -6q-18 -7 -37 -26q-22 -21 -47 -59q-27 -40 -50 -103l-293 -758h-227l-181 473l-176 -473h-227l-305 770q-22 56 -50 95q-26 36 -50 56q-23 19 -40 25t-22 6h549q-8 0 -16 -4q-10 -5 -18 -13
q-9 -9 -15 -26q-7 -19 -7 -41q0 -12 6 -46q4 -23 17 -60l123 -330l125 322l-10 26q-22 55 -43 89q-23 38 -37 53q-16 18 -29 24q-12 6 -16 6h497q-16 -1 -44 -20q-27 -18 -27 -76q0 -41 20 -94l119 -328l108 303q25 70 25 109z" />
    <glyph glyph-name="x" unicode="x" horiz-adv-x="1148" 
d="M999 139q60 -85 102 -111q44 -27 52 -28h-553q6 0 22 11q17 11 17 44q0 20 -12 50q-11 28 -41 75l-41 62l-41 -62q-60 -92 -60 -129q0 -31 17 -40q18 -10 24 -11h-485q5 0 23 6q19 6 47 27q33 24 67 57q40 38 84 103l180 256l-239 344q-28 40 -64 78q-26 28 -50 48
q-15 13 -35 24q-13 7 -15 9h549l-25 -12q-20 -10 -20 -45q0 -20 10 -44q12 -29 37 -65l53 -77l51 77q25 36 40 69q12 27 12 46q0 28 -17 39q-16 10 -24 12h485q-7 0 -26 -6q-18 -6 -49 -24q-28 -16 -67 -56q-39 -39 -81 -100l-181 -266z" />
    <glyph glyph-name="y" unicode="y" horiz-adv-x="1181" 
d="M791 854q0 31 -12 49q-14 21 -25 30q-13 10 -29 15q-13 4 -23 4h486q-5 0 -18 -7q-12 -7 -33 -26q-18 -17 -46 -58q-26 -39 -53 -101l-297 -688q-38 -90 -86 -170q-47 -78 -96 -138t-97 -100q-47 -39 -89 -55l-342 209q5 -3 32 -8q24 -4 35 2q94 -8 184 47q92 56 171 190
l-291 721q-23 58 -51 95t-51 56q-24 19 -41 25q-18 6 -23 6h569q-5 0 -16 -4q-15 -6 -26 -14q-12 -10 -22 -29q-9 -18 -9 -49q0 -20 7 -41q2 -5 7.5 -23.5t9.5 -29.5l125 -334l121 315q9 23 21 63q8 27 8 48z" />
    <glyph glyph-name="z" unicode="z" horiz-adv-x="1015" 
d="M45 0l436 764h-178q-73 0 -119 -26t-69 -58q-25 -35 -34 -64q-10 -34 -11 -38v374h880l-440 -753h254q68 0 108 22q43 24 63 51q22 29 29 56q8 28 9 34v-362h-928z" />
    <glyph glyph-name="braceleft" unicode="{" horiz-adv-x="811" 
d="M580 -100q0 -136 64 -209q65 -74 212 -80q-121 0 -235 8q-102 7 -184 36q-77 27 -119 84t-42 152v277q0 114 -17 178q-19 71 -51 106q-34 37 -84 52q-43 13 -118 18q71 5 118 19q51 16 84 51q33 36 51 104q17 64 17 178v279q0 96 42 153t119 84q78 28 184 35q128 9 235 9
q-149 -7 -213 -82q-63 -74 -63 -209v-262q0 -121 -35 -191q-34 -68 -84 -106q-46 -35 -104 -48q-57 -13 -93 -14q52 -6 93 -14q56 -11 104 -47q49 -37 84 -107t35 -190v-264z" />
    <glyph glyph-name="bar" unicode="|" horiz-adv-x="509" 
d="M125 -451v2048h260v-2048h-260z" />
    <glyph glyph-name="braceright" unicode="}" horiz-adv-x="811" 
d="M803 522q-75 -5 -119 -18q-51 -15 -85 -52q-33 -36 -50 -106t-17 -178v-277q0 -96 -43 -152q-44 -57 -119 -84q-82 -29 -184 -36q-114 -8 -233 -8q147 6 212 80q64 73 64 209v264q0 122 34 190q36 71 83 107q48 36 104 47q41 8 95 14q-38 1 -95 14q-58 13 -104 48
q-48 37 -83 106q-34 68 -34 191v262q0 135 -63 209q-64 75 -213 82q105 0 233 -9q106 -7 184 -35q75 -27 119 -84q43 -56 43 -153v-279q0 -108 17 -178q17 -68 50 -104t85 -51q49 -14 119 -19z" />
    <glyph glyph-name="asciitilde" unicode="~" horiz-adv-x="1443" 
d="M1341 831q5 -230 -80 -347q-84 -117 -245 -117q-98 0 -176 37q-84 40 -150 84q-28 19 -127 84q-58 38 -106 38q-25 0 -44 -9t-34 -33t-24 -64q-10 -43 -11 -105h-242q1 134 38 224q35 86 89 140q51 51 116 73q60 20 122 20q88 0 167 -36q78 -35 145 -81q25 -17 67 -45
t55 -37q53 -36 96 -36q49 0 75 45t30 165h239z" />
    <glyph glyph-name="uni00A0" unicode="&#xa0;" horiz-adv-x="595" 
 />
    <glyph glyph-name="exclamdown" unicode="&#xa1;" horiz-adv-x="643" 
d="M489 -88q7 -85 23 -140q15 -54 30 -80q16 -29 28 -37q14 -10 20 -11h-537q4 0 18 8q12 6 28 36q16 29 31 81q17 60 24 143l28 348q7 87 31 157q22 65 47 113q30 55 62 93q30 -34 61 -91q25 -48 47 -113q24 -69 31 -159zM504 870q0 -73 -49 -121q-51 -49 -131 -49
q-82 0 -134 49q-51 48 -51 121q0 74 51 122t134 48q82 0 131 -48t49 -122z" />
    <glyph glyph-name="cent" unicode="&#xa2;" 
d="M1044 569q-23 -158 -108 -257q-85 -98 -195 -132v-209h-221v201q-172 33 -262 158t-90 307q0 105 27 194q27 90 73 156t112 114q63 45 140 68v205h221v-198q122 -27 199 -116q75 -87 80 -210l-295 -115q16 36 16 80q0 60 -28 101q-29 42 -88 42q-37 0 -66 -18t-48 -51
t-30 -75q-10 -40 -10 -87q0 -77 21 -139q22 -64 56 -105t84 -66q48 -24 103 -24q78 0 160 43q81 43 149 133z" />
    <glyph glyph-name="sterling" unicode="&#xa3;" 
d="M1104 70q-29 -47 -91 -74q-63 -27 -159 -27q-58 0 -118 9q-44 7 -121 22q-80 16 -120 22q-60 9 -118 9q-80 0 -158 -21t-121 -49l-86 254q56 0 92 14q39 15 66 55q26 39 41 113q13 64 18 197h-118v215h122q5 140 28 247q24 108 77 186q52 76 143 117q89 40 230 40
q95 0 186 -20q89 -19 150 -60l-86 -279q-7 33 -30 61q-21 25 -51 42q-30 16 -65 24q-41 9 -67 9q-55 0 -90 -26q-33 -24 -50 -74q-17 -48 -21 -115q-5 -75 -5 -152h256v-215h-256q0 -48 -3 -94q-2 -33 -10 -92q-7 -49 -17 -82q-12 -38 -30 -62q22 0 40 -1q28 -2 38 -3
q12 -1 36 -3.5t37 -4.5q32 -4 79 -4t89 5q35 4 70 17q34 12 62 33q26 19 61 51z" />
    <glyph glyph-name="currency" unicode="&#xa4;" 
d="M872 260l-149 148q-58 -23 -127 -23t-127 23l-147 -148l-148 148l143 141q-30 61 -30 133t30 133l-143 146l148 145l151 -152q58 23 123 23q69 0 127 -23l149 152l148 -145l-143 -146q28 -56 28 -133q0 -34 -6 -69t-22 -64l143 -141zM739 680q0 55 -36 100t-107 45
q-72 0 -106 -45q-33 -43 -33 -100t33 -101q35 -47 106 -47t107 47t36 101z" />
    <glyph glyph-name="yen" unicode="&#xa5;" horiz-adv-x="1214" 
d="M782 1282q0 51 -16 66q-16 14 -23 16h449q-3 0 -21 -8q-16 -7 -42 -35q-22 -23 -59 -78q-31 -46 -71 -137l-81 -191h198v-172h-270l-60 -139h330v-174h-352v-180q0 -85 14 -131q15 -50 34 -76q20 -27 38 -35q19 -8 24 -8h-577q6 0 25 8q15 6 38 34q21 26 36 75
q16 53 16 133v180h-355v174h332l-57 139h-275v172h205l-76 193q-36 90 -67 136q-34 51 -62 76q-30 27 -48 34q-18 8 -25 10h577q-5 0 -12 -4q-12 -7 -17 -13q-8 -9 -15 -27q-7 -17 -7 -48q0 -27 6 -63q5 -30 25 -85l100 -272l86 227q29 78 42 124t13 79z" />
    <glyph glyph-name="brokenbar" unicode="&#xa6;" horiz-adv-x="509" 
d="M125 666v716h260v-716h-260zM125 -358v716h260v-716h-260z" />
    <glyph glyph-name="section" unicode="&#xa7;" horiz-adv-x="1280" 
d="M1169 549q0 -86 -47 -153q-46 -65 -116 -111q58 -39 97 -100q38 -59 38 -144q0 -98 -44 -171q-43 -71 -117 -119q-69 -45 -167 -68q-97 -23 -192 -23q-139 0 -273 48q-131 47 -235 145l202 217q32 -48 75 -82q44 -35 85 -53q42 -19 85 -28q42 -9 77 -9q64 0 104 25
q41 26 41 73q0 59 -48 95q-51 38 -120 64q-86 32 -154 52q-81 24 -155 62q-71 37 -120 95q-48 57 -48 146q0 46 17 88q17 41 44 76q27 34 61 61q33 25 71 47q-70 38 -118 95q-46 55 -46 141q0 102 44 175q44 72 116 119q72 46 162 67q96 22 186 22q134 0 251 -38
q116 -38 169 -106l-199 -217q-47 69 -116 100q-68 31 -130 31q-57 0 -97 -24t-40 -72q0 -51 48 -83q47 -31 121 -57q47 -17 159 -52q85 -27 158 -68q72 -41 122 -104q49 -62 49 -162zM848 498q0 36 -23 64q-24 29 -61 50q-38 22 -88 40t-105 36q-43 -12 -73 -45
q-31 -34 -31 -68q0 -33 25 -60q24 -25 64 -46t93 -39q72 -25 111 -37q35 10 62 38q26 28 26 67z" />
    <glyph glyph-name="dieresis" unicode="&#xa8;" horiz-adv-x="1036" 
d="M883 1245q0 -63 -42 -105t-112 -42q-71 0 -111 42q-40 41 -40 105q0 63 40 103q41 41 111 41q72 0 113 -41t41 -103zM461 1245q0 -62 -41 -105q-40 -42 -111 -42t-114 42t-43 105t43 103q44 41 114 41t111 -41t41 -103z" />
    <glyph glyph-name="copyright" unicode="&#xa9;" horiz-adv-x="1515" 
d="M1448 682q0 -178 -59 -308q-60 -132 -157 -220q-98 -88 -222 -132q-129 -45 -254 -45q-127 0 -256 45q-125 44 -224 132q-98 87 -158 220q-61 134 -61 308t61 308q60 133 158 220q99 88 224 132q126 44 256 44q128 0 254 -44q124 -44 222 -132q97 -88 157 -220
q59 -130 59 -308zM1331 682q0 151 -49 262q-50 113 -130 189q-78 74 -184 112q-102 37 -212 37q-107 0 -213 -38t-186 -112q-81 -75 -131 -187t-50 -261q0 -148 50 -262q49 -112 131 -189q79 -75 186 -113q106 -38 213 -38q110 0 212 37q106 38 184 112q80 75 130 188
q49 110 49 263zM1024 332q-38 -46 -108 -81q-69 -34 -144 -34q-100 0 -174 38q-74 37 -123 99q-48 60 -73 143q-23 78 -23 167q0 101 30 190q30 88 84 153q52 62 128 101q73 37 163 37q67 0 124 -21q60 -22 104 -49v-325q-33 113 -91 165q-60 54 -124 54q-85 0 -139 -76
q-54 -77 -54 -197q0 -125 55 -207q54 -81 146 -81q65 0 121 31q57 32 98 98v-205z" />
    <glyph glyph-name="ordfeminine" unicode="&#xaa;" horiz-adv-x="802" 
d="M571 645q-17 1 -36 11q-20 10 -35 21q-22 16 -29 24q-11 12 -16 26q-30 -35 -90 -51q-62 -17 -115 -17q-97 0 -160 52q-61 51 -61 135q0 48 30 88q29 39 84 75q50 33 125 58q77 25 154 41v45q0 107 -80 107q-46 0 -68 -19q-20 -17 -20 -37q0 -28 27 -43l-222 -82
q-16 44 -16 84q0 59 30 102q31 44 75 73q44 28 102 44q55 15 106 15q80 0 139 -17q55 -16 91 -47q34 -29 49 -72q14 -39 14 -94v-249q0 -78 33 -112t100 -34q4 0 8 2t7 2zM422 985q-98 -17 -138 -50q-42 -35 -42 -69q0 -27 21 -45t61 -18q35 0 66 22q32 23 32 74v86z" />
    <glyph glyph-name="guillemotleft" unicode="&#xab;" horiz-adv-x="925" 
d="M659 123l-223 393l223 393h232l-225 -393l225 -393h-232zM256 123l-225 393l225 393h229l-223 -393l223 -393h-229z" />
    <glyph glyph-name="logicalnot" unicode="&#xac;" horiz-adv-x="1443" 
d="M1069 287v344h-913v217h1132v-561h-219z" />
    <glyph glyph-name="uni00AD" unicode="&#xad;" horiz-adv-x="675" 
d="M80 416v227h522v-227h-522z" />
    <glyph glyph-name="registered" unicode="&#xae;" horiz-adv-x="1505" 
d="M1448 682q0 -178 -59 -308q-60 -132 -157 -220q-98 -88 -222 -132q-129 -45 -254 -45q-127 0 -256 45q-125 44 -224 132q-98 87 -158 220q-61 134 -61 308t61 308q60 133 158 220q99 88 224 132q126 44 256 44q128 0 254 -44q124 -44 222 -132q97 -88 157 -220
q59 -130 59 -308zM1331 682q0 151 -49 262q-50 113 -130 189q-78 74 -184 112q-102 37 -212 37q-107 0 -213 -38t-186 -112q-81 -75 -131 -187t-50 -261q0 -148 50 -262q49 -112 131 -189q79 -75 186 -113q106 -38 213 -38q110 0 212 37q106 38 184 112q80 75 130 188
q49 110 49 263zM1026 350q12 -34 27 -55q16 -22 27 -32q9 -8 23 -15q8 -4 11 -4h-258l-90 260q-15 41 -30 56t-31 15h-11v-167q0 -55 7 -86q8 -34 18 -50t19 -22t14 -6h-303l12 5q10 4 19 21q12 22 18 49q8 35 8 89v563q0 55 -9 88q-9 31 -21 50q-13 19 -22 24
q-3 1 -5.5 2.5t-4.5 2.5t-3.5 2t-2.5 1h348q70 0 122 -24t88 -61t54 -86q17 -45 17 -98q0 -44 -11 -82q-13 -45 -32 -78q-22 -38 -52 -61q-31 -24 -71 -30q30 -21 57 -89zM879 858q0 56 -32 97q-31 40 -87 40h-66v-278h66q50 0 84 37q35 38 35 104z" />
    <glyph glyph-name="macron" unicode="&#xaf;" horiz-adv-x="1036" 
d="M172 1157v143h690v-143h-690z" />
    <glyph glyph-name="degree" unicode="&#xb0;" horiz-adv-x="749" 
d="M696 1100q0 -58 -19 -109q-20 -54 -57 -94q-38 -41 -97 -67q-57 -25 -136 -25t-136 25t-96 67t-58 94q-19 51 -19 109q0 57 19 108q20 54 58 95q37 41 96 66q60 26 136 26t136 -26t97 -66q36 -39 57 -95q19 -51 19 -108zM528 1100q0 56 -34 100q-34 45 -107 45
q-71 0 -106 -45q-35 -46 -35 -100q0 -55 35 -102q34 -46 106 -46q73 0 107 46t34 102z" />
    <glyph glyph-name="plusminus" unicode="&#xb1;" horiz-adv-x="1443" 
d="M834 700v-352h-222v352h-432v215h432v353h222v-353h430v-215h-430zM180 0v217h1084v-217h-1084z" />
    <glyph glyph-name="uni00B2" unicode="&#xb2;" horiz-adv-x="780" 
d="M694 604h-667l215 230q99 105 157 180q56 73 56 131q0 53 -30 77q-29 23 -67 23q-45 0 -65 -20q-21 -21 -21 -45q0 -29 20 -44q20 -16 42 -20l-133 -162q-67 18 -112 69q-44 50 -44 126q0 39 18 84q18 44 61 83q42 38 108 63q67 26 163 26q62 0 115 -14q58 -15 102 -43
q47 -30 73 -75q28 -48 28 -108q0 -51 -24 -100q-24 -50 -62 -98q-39 -50 -89 -98q-19 -18 -55 -51.5t-49 -45.5h193q32 0 53 10q22 10 37 25q16 14 26 35z" />
    <glyph glyph-name="uni00B3" unicode="&#xb3;" horiz-adv-x="780" 
d="M717 807q0 -58 -31 -101q-29 -41 -78 -69q-47 -27 -106 -39q-60 -12 -115 -12q-67 0 -122 13q-54 13 -100 35q-43 21 -76 49q-32 27 -44 58l221 146q17 -78 53 -107q37 -30 72 -30q25 0 45 13q21 13 21 48q0 52 -58 87q-57 34 -168 36l35 137q24 -4 41 -6q22 -2 45 -2
q42 0 73 22q32 23 32 70q0 36 -27 63t-74 27q-39 0 -58 -16t-19 -39q0 -27 20 -41l-205 -86q-22 22 -33 53q-10 29 -10 64q0 29 19 72q18 40 58 74q39 33 103 56t156 23q80 0 137 -17q58 -17 100 -47q40 -28 59 -65t19 -78q0 -79 -55 -131q-56 -53 -135 -68q84 -18 145 -65
q60 -47 60 -127z" />
    <glyph glyph-name="acute" unicode="&#xb4;" horiz-adv-x="1036" 
d="M438 1026l78 338h397z" />
    <glyph glyph-name="mu" unicode="&#xb5;" horiz-adv-x="1171" 
d="M731 -41l-4 127q-41 -58 -93 -86q-53 -29 -108 -29q-20 0 -36 4q-8 2 -35 11v-357h-322v1090q0 77 -19 122q-19 46 -46 70t-52 32q-23 7 -32 9h471v-563q0 -93 23 -135q24 -43 85 -43q68 0 112 47t44 133v340q0 74 -14 115q-14 42 -33 65t-37 31q-21 9 -27 10h428v-624
q0 -64 12 -102q13 -40 28 -58q18 -21 38 -28t41 -7h33z" />
    <glyph glyph-name="paragraph" unicode="&#xb6;" horiz-adv-x="1433" 
d="M1264 1372q-12 -39 -19 -80q-9 -49 -13 -101q-5 -67 -5 -144v-1418h-197v1573h-182v-1571h-197v627q-128 5 -231 47q-101 42 -180 116q-75 71 -118 172q-42 99 -42 216q0 110 39 212q38 100 122 179q83 79 209 125q127 47 302 47h512z" />
    <glyph glyph-name="periodcentered" unicode="&#xb7;" horiz-adv-x="550" 
d="M485 483q0 -86 -58 -143q-59 -57 -153 -57t-151 57t-57 143t57 143q56 56 151 56q96 0 153 -56q58 -57 58 -143z" />
    <glyph glyph-name="cedilla" unicode="&#xb8;" horiz-adv-x="1036" 
d="M729 -217q0 -32 -14 -59q-16 -31 -43 -52q-26 -21 -70 -37q-38 -14 -96 -14q-53 0 -104 13q-54 14 -93 40q27 -6 62 -6q76 0 118 28q41 27 41 62q0 36 -41 63q-41 28 -129 29l107 168h160l-66 -92q87 -11 127 -52q41 -43 41 -91z" />
    <glyph glyph-name="uni00B9" unicode="&#xb9;" horiz-adv-x="606" 
d="M123 602q11 6 32 23q14 12 31 39q15 24 24 61t9 92v262q-24 -29 -54 -60q-23 -24 -54 -61q-12 -13 -35 -37t-25 -26v252q94 108 101 116q56 69 102 132h219v-578q0 -56 10 -92q11 -38 25 -61q16 -26 32 -39q21 -18 33 -23h-450z" />
    <glyph glyph-name="ordmasculine" unicode="&#xba;" horiz-adv-x="817" 
d="M786 1047q0 -92 -29 -162q-31 -74 -82 -122q-53 -50 -123 -77t-153 -27q-76 0 -145 23q-67 22 -117 68q-49 45 -78 111q-28 65 -28 155q0 93 31 164q31 70 84 119q54 49 122 73q72 25 144 25q74 0 146 -22q69 -21 119 -65t80 -110q29 -64 29 -153zM551 1016q0 91 -45 154
t-111 63q-58 0 -95 -49q-38 -50 -38 -135q0 -94 47 -159t111 -65q55 0 93 52t38 139z" />
    <glyph glyph-name="guillemotright" unicode="&#xbb;" horiz-adv-x="925" 
d="M666 123h-230l226 393l-226 393h230l225 -393zM264 123h-227l223 393l-223 393h227l228 -393z" />
    <glyph glyph-name="onequarter" unicode="&#xbc;" horiz-adv-x="1609" 
d="M1468 166v-41q0 -33 10 -60q9 -23 22 -38q14 -16 27 -20q4 -1 10.5 -4t8.5 -3h-407q2 0 8.5 2.5t11.5 4.5q12 4 29 19q15 14 25 36q12 24 12 63v41h-365v29l328 591h280v-475h95v-145h-95zM471 0h-205l795 1395h199zM123 602q11 6 32 23q14 12 31 39q15 24 24 61t9 92
v262q-24 -29 -54 -60q-23 -24 -54 -61q-12 -13 -35 -37t-25 -26v252q94 108 101 116q56 69 102 132h219v-578q0 -56 10 -92q11 -38 25 -61q16 -26 32 -39q21 -18 33 -23h-450zM1225 580l-133 -269h133v269z" />
    <glyph glyph-name="onehalf" unicode="&#xbd;" horiz-adv-x="1712" 
d="M471 0h-205l795 1395h199zM1593 0h-667l215 229q95 101 157 181q56 73 56 131q0 52 -30 76t-67 24q-45 0 -65 -20q-21 -21 -21 -46q0 -29 20 -44q19 -14 42 -19l-133 -162q-67 18 -112 69q-44 50 -44 126q0 37 19 84q18 46 60 83q41 37 109 63q67 26 162 26q58 0 115 -15
q58 -15 102 -43q47 -30 73 -74q28 -48 28 -108q0 -51 -24 -100q-26 -53 -62 -99q-36 -45 -89 -97q-19 -18 -55 -51.5t-49 -45.5h193q32 0 53 10q23 11 37 25q16 14 26 35zM123 602q11 6 32 23q14 12 31 39q15 24 24 61t9 92v262q-24 -29 -54 -60q-23 -24 -54 -61
q-12 -13 -35 -37t-25 -26v252q94 108 101 116q56 69 102 132h219v-578q0 -56 10 -92q11 -38 25 -61q16 -26 32 -39q21 -18 33 -23h-450z" />
    <glyph glyph-name="threequarters" unicode="&#xbe;" horiz-adv-x="1900" 
d="M717 807q0 -58 -31 -101q-29 -41 -78 -69q-47 -27 -106 -39q-60 -12 -115 -12q-67 0 -122 13q-54 13 -100 35q-43 21 -76 49q-32 27 -44 58l221 146q17 -78 53 -107q37 -30 72 -30q25 0 45 13q21 13 21 48q0 52 -58 87q-57 34 -168 36l35 137q24 -4 41 -6q22 -2 45 -2
q42 0 73 22q32 23 32 70q0 36 -27 63t-74 27q-39 0 -58 -16t-19 -39q0 -27 20 -41l-205 -86q-22 22 -33 53q-10 29 -10 64q0 29 19 72q18 40 58 74q39 33 103 56t156 23q80 0 137 -17q58 -17 100 -47q40 -28 59 -65t19 -78q0 -79 -55 -131q-56 -53 -135 -68q84 -18 145 -65
q60 -47 60 -127zM1632 166v-41q0 -36 9 -60q8 -21 23 -38q14 -16 27 -20q5 -1 11 -4t8 -3h-407q2 0 8.5 2.5t11.5 4.5q12 4 29 19q15 14 25 36q12 24 12 63v41h-365v29l328 591h280v-475h94v-145h-94zM635 0h-205l795 1395h198zM1389 580l-134 -269h134v269z" />
    <glyph glyph-name="questiondown" unicode="&#xbf;" horiz-adv-x="964" 
d="M692 870q0 -73 -49 -121q-51 -49 -131 -49q-81 0 -133 49q-51 48 -51 121q0 74 51 122t133 48t131 -48t49 -122zM836 -299q-68 -40 -172 -65t-218 -25q-104 0 -180 23q-79 24 -136 66q-55 41 -86 102q-30 60 -30 135t31 137q27 55 76 105q42 43 98 85q63 47 98 76
q49 41 76 76q31 40 31 86q0 47 -20 62q-20 16 -52 20q27 30 65 44q36 13 72 13q47 0 85 -11q41 -12 76 -36q34 -24 56 -63q21 -37 21 -91q0 -65 -26 -115q-27 -53 -64 -91q-34 -35 -84 -72q-45 -33 -84 -63q-41 -32 -65 -61q-25 -31 -25 -71q0 -49 38 -78q37 -28 95 -28
q41 0 83 13q43 14 87 42q40 26 83 74q42 47 71 106v-395z" />
    <glyph glyph-name="Agrave" unicode="&#xc0;" horiz-adv-x="1591" 
d="M1393 268q36 -89 68 -138q33 -51 62 -81q27 -29 48 -39q20 -10 26 -10h-643q4 0 21 5q14 4 27 16q14 13 24 32q10 20 10 53q0 20 -15 69t-38 106h-504q-15 -44 -28 -99q-13 -54 -13 -65q0 -34 11 -58q11 -23 24 -35q17 -15 29 -19q17 -5 20 -5h-524q5 1 26 11q20 9 47 38
q26 28 60 83q30 48 70 147l428 1085h307zM563 500h334l-170 442zM430 1761h397l86 -338z" />
    <glyph glyph-name="Aacute" unicode="&#xc1;" horiz-adv-x="1591" 
d="M1393 268q36 -89 68 -138q33 -51 62 -81q27 -29 48 -39q20 -10 26 -10h-643q4 0 21 5q14 4 27 16q14 13 24 32q10 20 10 53q0 20 -15 69t-38 106h-504q-15 -44 -28 -99q-13 -54 -13 -65q0 -34 11 -58q11 -23 24 -35q17 -15 29 -19q17 -5 20 -5h-524q5 1 26 11q20 9 47 38
q26 28 60 83q30 48 70 147l428 1085h307zM563 500h334l-170 442zM653 1423l78 338h397z" />
    <glyph glyph-name="Acircumflex" unicode="&#xc2;" horiz-adv-x="1591" 
d="M1393 268q36 -89 68 -138q33 -51 62 -81q27 -29 48 -39q20 -10 26 -10h-643q4 0 21 5q14 4 27 16q14 13 24 32q10 20 10 53q0 20 -15 69t-38 106h-504q-15 -44 -28 -99q-13 -54 -13 -65q0 -34 11 -58q11 -23 24 -35q17 -15 29 -19q17 -5 20 -5h-524q5 1 26 11q20 9 47 38
q26 28 60 83q30 48 70 147l428 1085h307zM793 1843l352 -420l-352 142l-347 -142zM563 500h334l-170 442z" />
    <glyph glyph-name="Atilde" unicode="&#xc3;" horiz-adv-x="1591" 
d="M1393 268q36 -89 68 -138q33 -51 62 -81q27 -29 48 -39q20 -10 26 -10h-643q4 0 21 5q14 4 27 16q14 13 24 32q10 20 10 53q0 20 -15 69t-38 106h-504q-15 -44 -28 -99q-13 -54 -13 -65q0 -34 11 -58q11 -23 24 -35q17 -15 29 -19q17 -5 20 -5h-524q5 1 26 11q20 9 47 38
q26 28 60 83q30 48 70 147l428 1085h307zM1133 1642q0 -36 -15 -69q-15 -34 -39 -59q-23 -25 -60 -40q-38 -16 -79 -16q-45 0 -87 18q-61 26 -82 37q-27 14 -79 38q-39 18 -76 18q-45 0 -69 -30q-25 -31 -25 -107q-63 63 -63 147q0 71 49 121q50 51 135 51q47 0 92 -16
q54 -19 91 -37q32 -15 83 -37q38 -16 70 -16q56 0 75 35t19 104q60 -60 60 -142zM563 500h334l-170 442z" />
    <glyph glyph-name="Adieresis" unicode="&#xc4;" horiz-adv-x="1591" 
d="M1393 268q36 -89 68 -138q33 -51 62 -81q27 -29 48 -39q20 -10 26 -10h-643q4 0 21 5q14 4 27 16q14 13 24 32q10 20 10 53q0 20 -15 69t-38 106h-504q-15 -44 -28 -99q-13 -54 -13 -65q0 -34 11 -58q11 -23 24 -35q17 -15 29 -19q17 -5 20 -5h-524q5 1 26 11q20 9 47 38
q26 28 60 83q30 48 70 147l428 1085h307zM563 500h334l-170 442zM1145 1602q0 -64 -42 -106t-112 -42q-69 0 -110 42q-41 43 -41 106q0 61 41 102t110 41q72 0 113 -41t41 -102zM723 1602q0 -63 -41 -106q-40 -42 -111 -42t-114 42t-43 106q0 62 43 102q44 41 114 41
t111 -41t41 -102z" />
    <glyph glyph-name="Aring" unicode="&#xc5;" horiz-adv-x="1591" 
d="M1393 268q36 -89 68 -138q33 -51 62 -81q27 -29 48 -39q20 -10 26 -10h-643q4 0 21 5q14 4 27 16q14 13 24 32q10 20 10 53q0 20 -15 69t-38 106h-504q-15 -44 -28 -99q-13 -54 -13 -65q0 -34 11 -58q11 -23 24 -35q17 -15 29 -19q17 -5 20 -5h-524q5 1 26 11q20 9 47 38
q26 28 60 83q30 48 70 147l428 1085h307zM563 500h334l-170 442zM993 1622q0 -52 -18 -93t-48 -66t-68 -39q-36 -13 -77 -13q-43 0 -79 13q-38 14 -66 40q-29 28 -47 66q-19 41 -19 92q0 49 19 90q18 39 47 65q29 25 66 39q36 13 79 13q40 0 77 -12q38 -12 68 -39t48 -66
t18 -90zM883 1622q0 55 -31 81t-70 26q-40 0 -72 -27t-32 -80t32 -82t72 -29q39 0 70 28t31 83z" />
    <glyph glyph-name="AE" unicode="&#xc6;" horiz-adv-x="2115" 
d="M1995 0h-1000q9 0 28 9q20 9 41 38t38 82q16 51 16 141v301h-366l-177 -301q-36 -61 -52 -108q-15 -45 -15 -76q0 -28 7 -43q9 -19 17 -26q9 -8 21 -13q9 -4 14 -4h-563q5 1 23 11q14 8 45 37q24 22 70 82q47 61 100 144l546 873q40 64 53 100q13 38 13 64q0 31 -14 41
q-15 11 -19 12h1157v-422q-14 42 -29 72q-19 37 -47 62q-31 28 -75 44q-46 17 -113 17h-237v-336h215q54 0 83 11q35 13 50 26q19 16 25 28q10 19 10 21v-404q0 1 -7 19q-6 15 -23 29q-21 17 -49 28q-32 12 -85 12h-219v-338h262q63 0 111 12q49 12 86 36q39 25 70 62
q33 39 62 93zM1118 1186l-229 -387h229v387z" />
    <glyph glyph-name="Ccedilla" unicode="&#xc7;" horiz-adv-x="1306" 
d="M944 -217q0 -32 -14 -59q-16 -31 -43 -52q-26 -21 -70 -37q-38 -14 -96 -14q-53 0 -104 13q-54 14 -93 40q27 -6 62 -6q77 0 119 28q40 27 40 62q0 36 -40 63q-41 27 -130 29l80 127q-148 18 -256 81q-110 64 -179 154t-104 205q-34 112 -34 236q0 143 47 278
q46 132 142 237q94 103 236 165t329 62q76 0 146 -10q64 -9 107 -21q39 -11 73 -26q12 -5 28 -12.5t18 -8.5v-426q-23 50 -58 94q-36 45 -83 80q-44 33 -109 55q-62 21 -137 21q-70 0 -137 -29q-65 -28 -117 -86q-51 -57 -81 -140q-29 -80 -29 -192t28 -196q28 -85 79 -145
q49 -58 117 -89t142 -31q111 0 223 56q111 55 187 157v-286q-68 -78 -182 -131q-118 -54 -244 -60l-31 -43q87 -11 127 -52q41 -43 41 -91z" />
    <glyph glyph-name="Egrave" unicode="&#xc8;" horiz-adv-x="1179" 
d="M1059 0h-1000q7 0 26 9t41 37q20 26 39 81q17 50 17 143v848q0 84 -20 130q-22 50 -46 74q-27 27 -50 34q-26 8 -31 8h1007v-422q-14 42 -29 72q-19 37 -47 62q-31 28 -75 44q-46 17 -113 17h-237v-336h215q54 0 85 9q32 9 50 21t24 24q2 4 5.5 9t3.5 6v-366q0 1 -6 13
q-6 11 -23 24q-17 12 -48 21t-87 9h-219v-338h262q63 0 111 12q49 12 86 36q39 25 70 62q36 43 63 93zM266 1761h398l86 -338z" />
    <glyph glyph-name="Eacute" unicode="&#xc9;" horiz-adv-x="1179" 
d="M1059 0h-1000q7 0 26 9t41 37q20 26 39 81q17 50 17 143v848q0 84 -20 130q-22 50 -46 74q-27 27 -50 34q-26 8 -31 8h1007v-422q-14 42 -29 72q-19 37 -47 62q-31 28 -75 44q-46 17 -113 17h-237v-336h215q54 0 85 9q32 9 50 21t24 24q2 4 5.5 9t3.5 6v-366q0 1 -6 13
q-6 11 -23 24q-17 12 -48 21t-87 9h-219v-338h262q63 0 111 12q49 12 86 36q39 25 70 62q36 43 63 93zM434 1423l78 338h397z" />
    <glyph glyph-name="Ecircumflex" unicode="&#xca;" horiz-adv-x="1179" 
d="M1059 0h-1000q7 0 26 9t41 37q20 26 39 81q17 50 17 143v848q0 84 -20 130q-22 50 -46 74q-27 27 -50 34q-26 8 -31 8h1007v-422q-14 42 -29 72q-19 37 -47 62q-31 28 -75 44q-46 17 -113 17h-237v-336h215q54 0 85 9q32 9 50 21t24 24q2 4 5.5 9t3.5 6v-368
q-5 19 -25 35q-14 10 -49 23q-30 11 -90 11h-219v-338h262q63 0 111 12q49 12 86 36q39 25 70 62q36 43 63 93zM586 1843l352 -420l-352 142l-346 -142z" />
    <glyph glyph-name="Edieresis" unicode="&#xcb;" horiz-adv-x="1179" 
d="M1059 0h-1000q7 0 26 9t41 37q20 26 39 81q17 50 17 143v848q0 84 -20 130q-22 50 -46 74q-27 27 -50 34q-26 8 -31 8h1007v-422q-14 42 -29 72q-19 37 -47 62q-31 28 -75 44q-46 17 -113 17h-237v-336h215q54 0 85 9q32 9 50 21t24 24q2 4 5.5 9t3.5 6v-368
q-5 19 -25 35q-14 10 -49 23q-30 11 -90 11h-219v-338h262q63 0 111 12q49 12 86 36q39 25 70 62q36 43 63 93zM924 1602q0 -64 -42 -106t-112 -42t-111 42q-41 43 -41 106q0 61 41 102t111 41q72 0 113 -41t41 -102zM502 1602q0 -63 -41 -106q-41 -42 -111 -42
q-71 0 -114 42t-43 106q0 62 43 102q44 41 114 41t111 -41t41 -102z" />
    <glyph glyph-name="Igrave" unicode="&#xcc;" horiz-adv-x="694" 
d="M526 227q0 -73 15 -118q16 -48 33 -69q20 -24 38 -32q19 -8 25 -8h-582q8 0 25 7q19 8 38 31q21 26 35 68q15 45 15 121v899q0 78 -15 124q-15 47 -36 71q-24 27 -38 33q-16 8 -24 10h584q-4 0 -23 -8q-15 -6 -37 -33q-19 -24 -36 -71q-17 -48 -17 -126v-899zM-16 1761
h397l86 -338z" />
    <glyph glyph-name="Iacute" unicode="&#xcd;" horiz-adv-x="694" 
d="M526 227q0 -73 15 -118q16 -48 33 -69q20 -24 38 -32q19 -8 25 -8h-582q8 0 25 7q19 8 38 31q21 26 35 68q15 45 15 121v899q0 78 -15 124q-15 47 -36 71q-24 27 -38 33q-16 8 -24 10h584q-4 0 -23 -8q-15 -6 -37 -33q-19 -24 -36 -71q-17 -48 -17 -126v-899zM233 1423
l78 338h398z" />
    <glyph glyph-name="Icircumflex" unicode="&#xce;" horiz-adv-x="694" 
d="M526 227q0 -73 15 -118q16 -48 33 -69q20 -24 38 -32q19 -8 25 -8h-582q8 0 25 7q19 8 38 31q21 26 35 68q15 45 15 121v899q0 78 -15 124q-15 47 -36 71q-24 27 -38 33q-16 8 -24 10h584q-4 0 -23 -8q-15 -6 -37 -33q-19 -24 -36 -71q-17 -48 -17 -126v-899zM344 1843
l352 -420l-352 142l-346 -142z" />
    <glyph glyph-name="Idieresis" unicode="&#xcf;" horiz-adv-x="694" 
d="M526 227q0 -73 15 -118q16 -48 33 -69q20 -24 38 -32q19 -8 25 -8h-582q8 0 25 7q19 8 38 31q21 26 35 68q15 45 15 121v899q0 78 -15 124q-15 47 -36 71q-24 27 -38 33q-16 8 -24 10h584q-4 0 -23 -8q-15 -6 -37 -33q-19 -24 -36 -71q-17 -48 -17 -126v-899zM291 1602
q0 -63 -41 -106q-41 -42 -111 -42q-71 0 -114 42t-43 106q0 62 43 102q44 41 114 41t111 -41t41 -102zM713 1602q0 -64 -42 -106t-112 -42q-69 0 -110 42q-41 43 -41 106q0 61 41 102t110 41q72 0 113 -41t41 -102z" />
    <glyph glyph-name="Eth" unicode="&#xd0;" horiz-adv-x="1546" 
d="M1464 696q0 -132 -42 -256q-42 -125 -133 -223t-234 -158q-142 -59 -346 -59h-641q4 0 25 8q19 7 41 37q21 29 39 84q17 52 17 150v305h-139v180h139v354q0 81 -19 128q-19 48 -44 74q-25 27 -48 34q-21 8 -32 10h692q164 0 296 -49q139 -51 230 -137q95 -89 147 -211
t52 -271zM1083 680q0 96 -25 178q-25 83 -79 146q-52 60 -134 97q-81 36 -194 36h-100v-373h246v-180h-246v-351h166q90 0 159 36q66 34 114 98q46 61 70 142q23 78 23 171z" />
    <glyph glyph-name="Ntilde" unicode="&#xd1;" horiz-adv-x="1531" 
d="M1083 1120q0 80 -15 128q-15 50 -36 73q-23 27 -40 33q-18 8 -27 10h510q-7 0 -24 -7t-37 -32t-35 -74t-15 -131v-1120h-281q-16 54 -51 121q-27 53 -78 130q-54 82 -120 163l-359 426v-598q0 -80 18 -127q20 -51 39 -73q23 -26 45 -34t29 -8h-520q5 0 24 8q15 6 35 33
q17 23 33 73q15 48 15 130v862q0 60 -32 109q-31 47 -71 81q-47 39 -102 68h522l573 -692v448zM1102 1642q0 -36 -15 -69q-16 -36 -38 -59q-23 -24 -61 -40t-79 -16q-45 0 -87 18q-61 26 -82 37q-35 18 -78 38q-39 18 -76 18q-46 0 -70 -30t-24 -107q-64 64 -64 147
q0 71 49 121q49 51 135 51q48 0 93 -16q54 -19 91 -37q32 -15 83 -37q38 -16 69 -16q56 0 75 35t19 104q60 -60 60 -142z" />
    <glyph glyph-name="Ograve" unicode="&#xd2;" horiz-adv-x="1574" 
d="M1493 705q0 -146 -50 -281q-49 -131 -145 -235q-92 -99 -229 -160q-135 -60 -305 -60q-162 0 -291 56q-128 56 -214 149q-87 94 -132 219t-45 266q0 154 52 286q53 135 149 234t232 157q138 59 302 59q161 0 288 -56q128 -56 212 -148q86 -94 131 -219q45 -126 45 -267z
M1128 647q0 101 -21 191q-20 87 -67 157q-46 68 -114 107q-69 39 -164 39q-67 0 -124 -27q-56 -27 -98 -79q-42 -53 -66 -130q-23 -75 -23 -182q0 -115 22 -204q22 -90 69 -155q48 -67 113 -100q68 -35 160 -35q136 0 225 109q88 107 88 309zM483 1761h398l86 -338z" />
    <glyph glyph-name="Oacute" unicode="&#xd3;" horiz-adv-x="1574" 
d="M1493 705q0 -146 -50 -281q-49 -131 -145 -235q-92 -99 -229 -160q-135 -60 -305 -60q-162 0 -291 56q-128 56 -214 149q-87 94 -132 219t-45 266q0 154 52 286q53 135 149 234t232 157q138 59 302 59q161 0 288 -56q128 -56 212 -148q86 -94 131 -219q45 -126 45 -267z
M1128 647q0 101 -21 191q-20 87 -67 157q-46 68 -114 107q-69 39 -164 39q-67 0 -124 -27q-56 -27 -98 -79q-42 -53 -66 -130q-23 -75 -23 -182q0 -115 22 -204q22 -90 69 -155q48 -67 113 -100q68 -35 160 -35q136 0 225 109q88 107 88 309zM610 1423l78 338h397z" />
    <glyph glyph-name="Ocircumflex" unicode="&#xd4;" horiz-adv-x="1574" 
d="M1493 705q0 -146 -50 -281q-49 -131 -145 -235q-92 -99 -229 -160q-135 -60 -305 -60q-162 0 -291 56q-128 56 -214 149q-87 94 -132 219t-45 266q0 154 52 286q53 135 149 234t232 157q138 59 302 59q161 0 288 -56q128 -56 212 -148q86 -94 131 -219q45 -126 45 -267z
M1128 647q0 101 -21 191q-20 87 -67 157q-46 68 -114 107q-69 39 -164 39q-67 0 -124 -27q-56 -27 -98 -79q-42 -53 -66 -130q-23 -75 -23 -182q0 -115 22 -204q22 -90 69 -155q48 -67 113 -100q68 -35 160 -35q136 0 225 109q88 107 88 309zM784 1843l353 -420l-353 142
l-346 -142z" />
    <glyph glyph-name="Otilde" unicode="&#xd5;" horiz-adv-x="1574" 
d="M1493 705q0 -146 -50 -281q-49 -131 -145 -235q-92 -99 -229 -160q-135 -60 -305 -60q-162 0 -291 56q-128 56 -214 149q-87 94 -132 219t-45 266q0 154 52 286q53 135 149 234t232 157q138 59 302 59q161 0 288 -56q128 -56 212 -148q86 -94 131 -219q45 -126 45 -267z
M1128 647q0 101 -21 191q-20 87 -67 157q-46 68 -114 107q-69 39 -164 39q-67 0 -124 -27q-56 -27 -98 -79q-42 -53 -66 -130q-23 -75 -23 -182q0 -115 22 -204q22 -90 69 -155q48 -67 113 -100q68 -35 160 -35q136 0 225 109q88 107 88 309zM1124 1642q0 -38 -14 -69
q-15 -34 -39 -59q-23 -25 -60 -40q-38 -16 -79 -16q-45 0 -87 18q-61 26 -82 37q-27 14 -79 38q-39 18 -76 18q-45 0 -69 -30q-25 -31 -25 -107q-63 63 -63 147q0 71 49 121q50 51 135 51q47 0 92 -16q54 -19 91 -37q32 -15 83 -37q38 -16 70 -16q56 0 75 35t19 104
q59 -59 59 -142z" />
    <glyph glyph-name="Odieresis" unicode="&#xd6;" horiz-adv-x="1574" 
d="M1493 705q0 -146 -50 -281q-49 -131 -145 -235q-92 -99 -229 -160q-135 -60 -305 -60q-162 0 -291 56q-128 56 -214 149q-87 94 -132 219t-45 266q0 154 52 286q53 135 149 234t232 157q138 59 302 59q161 0 288 -56q128 -56 212 -148q86 -94 131 -219q45 -126 45 -267z
M1128 647q0 101 -21 191q-20 87 -67 157q-46 68 -114 107q-69 39 -164 39q-67 0 -124 -27q-56 -27 -98 -79q-42 -53 -66 -130q-23 -75 -23 -182q0 -115 22 -204q22 -90 69 -155q48 -67 113 -100q68 -35 160 -35q136 0 225 109q88 107 88 309zM1153 1602q0 -64 -42 -106
t-112 -42q-69 0 -110 42q-41 43 -41 106q0 61 41 102t110 41q72 0 113 -41t41 -102zM731 1602q0 -63 -41 -106q-40 -42 -110 -42q-72 0 -115 42t-43 106q0 62 43 102q44 41 115 41q69 0 110 -41t41 -102z" />
    <glyph glyph-name="multiply" unicode="&#xd7;" horiz-adv-x="1443" 
d="M1151 0l-428 430l-430 -430l-154 156l428 428l-428 430l154 153l430 -428l428 428l156 -153l-430 -430l430 -428z" />
    <glyph glyph-name="Oslash" unicode="&#xd8;" horiz-adv-x="1542" 
d="M1477 700q0 -135 -45 -267q-44 -130 -137 -235q-92 -104 -228 -167q-139 -64 -319 -64q-92 0 -171 18q-83 19 -147 50l-86 -129l-168 43l117 178q-116 100 -172 242q-55 140 -55 293q0 136 46 267q46 130 138 236q90 103 229 169q138 65 322 65q83 0 164 -19
q69 -16 141 -49l70 109l163 -49l-98 -152q115 -99 176 -243q60 -142 60 -296zM938 1079q-40 30 -89 48q-48 18 -104 18q-66 0 -123 -27q-56 -27 -99 -80q-40 -50 -65 -132q-24 -80 -24 -183q0 -172 62 -291zM1110 647q0 86 -15 161q-14 69 -51 134l-442 -651q84 -66 197 -66
q137 0 224 111t87 311z" />
    <glyph glyph-name="Ugrave" unicode="&#xd9;" horiz-adv-x="1480" 
d="M1006 1114q0 81 -17 130q-16 47 -38 75t-42 35q-19 8 -28 10h553q-8 0 -26 -7q-20 -8 -41 -33q-22 -27 -38 -75t-16 -135v-608q0 -148 -42 -250q-42 -103 -116 -166q-74 -64 -176 -92q-104 -29 -221 -29q-311 0 -455 129q-143 128 -143 381v635q0 78 -16 131
q-15 51 -34 75q-21 27 -39 34q-17 8 -26 10h588q-7 0 -24 -7t-37 -32q-18 -22 -34 -73t-16 -130v-624q0 -160 62 -220q63 -61 186 -61q122 0 179 65q57 64 57 216v616zM416 1761h397l86 -338z" />
    <glyph glyph-name="Uacute" unicode="&#xda;" horiz-adv-x="1480" 
d="M1006 1114q0 81 -17 130q-16 47 -38 75t-42 35q-19 8 -28 10h553q-8 0 -26 -7q-20 -8 -41 -33q-22 -27 -38 -75t-16 -135v-608q0 -148 -42 -250q-42 -103 -116 -166q-74 -64 -176 -92q-104 -29 -221 -29q-311 0 -455 129q-143 128 -143 381v635q0 78 -16 131
q-15 51 -34 75q-21 27 -39 34q-17 8 -26 10h588q-7 0 -24 -7t-37 -32q-18 -22 -34 -73t-16 -130v-624q0 -160 62 -220q63 -61 186 -61q122 0 179 65q57 64 57 216v616zM645 1423l78 338h397z" />
    <glyph glyph-name="Ucircumflex" unicode="&#xdb;" horiz-adv-x="1480" 
d="M1006 1114q0 81 -17 130q-16 47 -38 75t-42 35q-19 8 -28 10h553q-8 0 -26 -7q-20 -8 -41 -33q-22 -27 -38 -75t-16 -135v-608q0 -148 -42 -250q-42 -103 -116 -166q-74 -64 -176 -92q-104 -29 -221 -29q-311 0 -455 129q-143 128 -143 381v635q0 78 -16 131
q-15 51 -34 75q-21 27 -39 34q-17 8 -26 10h588q-7 0 -24 -7t-37 -32q-18 -22 -34 -73t-16 -130v-624q0 -160 62 -220q63 -61 186 -61q122 0 179 65q57 64 57 216v616zM737 1843l353 -420l-353 142l-346 -142z" />
    <glyph glyph-name="Udieresis" unicode="&#xdc;" horiz-adv-x="1480" 
d="M1006 1114q0 81 -17 130q-16 47 -38 75t-42 35q-19 8 -28 10h553q-8 0 -26 -7q-20 -8 -41 -33q-22 -27 -38 -75t-16 -135v-608q0 -148 -42 -250q-42 -103 -116 -166q-74 -64 -176 -92q-104 -29 -221 -29q-311 0 -455 129q-143 128 -143 381v635q0 78 -16 131
q-15 51 -34 75q-21 27 -39 34q-17 8 -26 10h588q-7 0 -24 -7t-37 -32q-18 -22 -34 -73t-16 -130v-624q0 -160 62 -220q63 -61 186 -61q122 0 179 65q57 64 57 216v616zM684 1602q0 -63 -41 -106q-41 -42 -111 -42t-114 42q-43 42 -43 106q0 62 43 102q44 41 114 41t111 -41
t41 -102zM1106 1602q0 -64 -42 -106t-112 -42t-110 42q-41 43 -41 106q0 61 41 102t110 41q72 0 113 -41t41 -102z" />
    <glyph glyph-name="Yacute" unicode="&#xdd;" horiz-adv-x="1439" 
d="M997 1280q0 26 -8 42q-8 15 -19 25q-11 8 -22 13q-9 4 -16 4h520q-1 0 -17 -8q-15 -7 -43 -34q-31 -30 -69 -77q-46 -57 -94 -139l-328 -535v-321q0 -85 14 -131q15 -50 34 -76q20 -27 38 -35q19 -8 25 -8h-588q6 0 25 8q15 6 38 34q21 26 36 75q16 53 16 133v309
l-318 549q-53 90 -89 134q-43 53 -70 77q-31 28 -48 35q-16 8 -24 10h645q-5 0 -17 -3t-24 -12q-14 -10 -22 -27q-9 -18 -9 -44q0 -30 11 -64q12 -38 42 -90l162 -274l137 229q43 72 63 122q19 47 19 79zM727 1423l78 338h397z" />
    <glyph glyph-name="Thorn" unicode="&#xde;" horiz-adv-x="1275" 
d="M1233 711q0 -100 -37 -183q-37 -84 -106 -145t-167 -96q-99 -35 -221 -35q-100 0 -176 20v-45q0 -73 15 -118q16 -48 33 -69q20 -24 38 -32q19 -8 25 -8h-582q8 0 25 7q19 8 38 31q21 26 35 68q15 45 15 121v910q0 75 -15 119q-15 43 -35 68q-19 23 -38 31q-17 7 -25 9
h582q-7 0 -24 -7q-16 -7 -36 -31q-20 -25 -35 -69q-16 -48 -16 -120v-13q11 1 48 5.5t56 6.5q55 5 103 5q107 0 200 -29q92 -29 158 -84q67 -56 104 -135q38 -81 38 -182zM864 707q0 93 -46 146q-46 54 -142 54q-30 0 -75 -5q-33 -4 -75 -11v-393q62 -17 117 -17
q99 0 160 57t61 169z" />
    <glyph glyph-name="germandbls" unicode="&#xdf;" horiz-adv-x="1337" 
d="M1282 285q0 -83 -36 -140t-94 -94q-54 -35 -131 -54q-68 -17 -149 -17q-93 0 -174 22t-131 66l80 233q37 -60 93 -86q57 -27 110 -27q48 0 78 18t30 50q0 42 -30 77q-27 31 -77 65q-59 40 -100 65q-56 34 -101 72q-47 39 -77 86t-30 108q0 73 43 117q44 46 95 82
q60 43 95 73q43 37 43 93q0 68 -48 103q-47 34 -110 34q-95 0 -154 -73q-58 -71 -58 -187v-701q0 -90 15 -143q16 -55 36 -81q23 -29 38 -37q18 -9 23 -9h-547q6 0 25 8q17 7 39 35q21 27 36 81t15 146v652q0 113 43 205q44 94 121 159q78 66 187 102q106 35 245 35
q85 0 165 -18t139 -55q61 -38 96 -94q36 -57 36 -132q0 -82 -45 -135q-48 -56 -100 -91q-74 -50 -101 -68q-45 -30 -45 -64q0 -28 31 -53q27 -22 76 -51q45 -27 99 -60q55 -34 100 -77t75 -102q31 -60 31 -138z" />
    <glyph glyph-name="agrave" unicode="&#xe0;" horiz-adv-x="1101" 
d="M840 -51q-24 1 -52 14q-26 11 -48 29q-21 17 -38 35q-16 17 -22 34q-19 -19 -54 -39q-27 -16 -71 -29q-39 -12 -80 -18t-80 -6q-137 0 -222 72t-85 188q0 66 43 122t117 103q73 46 173 81q98 34 212 57v61q0 152 -109 152q-67 0 -95 -28t-28 -54q0 -19 11 -35
q10 -15 26 -22l-309 -113q-23 64 -23 115q0 82 42 142t107 101q66 41 141 62q73 20 147 20q119 0 194 -23q79 -24 125 -66q48 -44 67 -101q19 -58 19 -129v-346q0 -100 47 -147q46 -46 129 -46q4 0 10 2t9 2zM633 420q-132 -22 -192 -70q-58 -46 -58 -94q0 -36 31 -62
t84 -26q48 0 92 33q43 33 43 102v117zM248 1364h397l86 -338z" />
    <glyph glyph-name="aacute" unicode="&#xe1;" horiz-adv-x="1101" 
d="M840 -51q-24 1 -52 14q-26 11 -48 29q-21 17 -38 35q-16 17 -22 34q-19 -19 -54 -39q-27 -16 -71 -29q-39 -12 -80 -18t-80 -6q-137 0 -222 72t-85 188q0 66 43 122t117 103q73 46 173 81q98 34 212 57v61q0 152 -109 152q-67 0 -95 -28t-28 -54q0 -19 11 -35
q10 -15 26 -22l-309 -113q-23 64 -23 115q0 82 42 142t107 101q66 41 141 62q73 20 147 20q119 0 194 -23q79 -24 125 -66q48 -44 67 -101q19 -58 19 -129v-346q0 -100 47 -147q46 -46 129 -46q4 0 10 2t9 2zM633 420q-132 -22 -192 -70q-58 -46 -58 -94q0 -36 31 -62
t84 -26q48 0 92 33q43 33 43 102v117zM416 1026l78 338h397z" />
    <glyph glyph-name="acircumflex" unicode="&#xe2;" horiz-adv-x="1101" 
d="M840 -51q-24 1 -52 14q-26 11 -48 29q-21 17 -38 35q-16 17 -22 34q-19 -19 -54 -39q-27 -16 -71 -29q-39 -12 -80 -18t-80 -6q-137 0 -222 72t-85 188q0 66 43 122t117 103q73 46 173 81q98 34 212 57v61q0 152 -109 152q-67 0 -95 -28t-28 -54q0 -19 11 -35
q10 -15 26 -22l-309 -113q-23 64 -23 115q0 82 42 142t107 101q66 41 141 62q73 20 147 20q119 0 194 -23q79 -24 125 -66q48 -44 67 -101q19 -58 19 -129v-346q0 -100 47 -147q46 -46 129 -46q4 0 10 2t9 2zM633 420q-132 -22 -192 -70q-58 -46 -58 -94q0 -36 31 -62
t84 -26q48 0 92 33q43 33 43 102v117zM547 1440l311 -414l-311 141l-305 -141z" />
    <glyph glyph-name="atilde" unicode="&#xe3;" horiz-adv-x="1101" 
d="M840 -51q-24 1 -52 14q-26 11 -48 29q-21 17 -38 35q-16 17 -22 34q-19 -19 -54 -39q-27 -16 -71 -29q-39 -12 -80 -18t-80 -6q-137 0 -222 72t-85 188q0 66 43 122t117 103q73 46 173 81q98 34 212 57v61q0 152 -109 152q-67 0 -95 -28t-28 -54q0 -19 11 -35
q10 -15 26 -22l-309 -113q-23 64 -23 115q0 82 42 142t107 101q66 41 141 62q73 20 147 20q119 0 194 -23q79 -24 125 -66q48 -44 67 -101q19 -58 19 -129v-346q0 -100 47 -147q46 -46 129 -46q4 0 10 2t9 2zM633 420q-132 -22 -192 -70q-58 -46 -58 -94q0 -36 31 -62
t84 -26q48 0 92 33q43 33 43 102v117zM887 1286q0 -36 -15 -69q-16 -36 -38 -59q-24 -26 -61 -41q-36 -15 -79 -15q-47 0 -87 17q-50 22 -82 38q-27 14 -79 38q-37 17 -75 17q-47 0 -70 -29q-25 -31 -25 -108q-63 63 -63 148q0 70 49 120q50 52 135 52q44 0 92 -17
q58 -21 92 -37q15 -7 83 -36q40 -17 69 -17q55 0 75 36q19 35 19 103q60 -60 60 -141z" />
    <glyph glyph-name="adieresis" unicode="&#xe4;" horiz-adv-x="1101" 
d="M840 -51q-24 1 -52 14q-26 11 -48 29q-21 17 -38 35q-16 17 -22 34q-19 -19 -54 -39q-27 -16 -71 -29q-39 -12 -80 -18t-80 -6q-137 0 -222 72t-85 188q0 66 43 122t117 103q73 46 173 81q98 34 212 57v61q0 152 -109 152q-67 0 -95 -28t-28 -54q0 -19 11 -35
q10 -15 26 -22l-309 -113q-23 64 -23 115q0 82 42 142t107 101q66 41 141 62q73 20 147 20q119 0 194 -23q79 -24 125 -66q48 -44 67 -101q19 -58 19 -129v-346q0 -100 47 -147q46 -46 129 -46q4 0 10 2t9 2zM633 420q-132 -22 -192 -70q-58 -46 -58 -94q0 -36 31 -62
t84 -26q48 0 92 33q43 33 43 102v117zM915 1245q0 -63 -42 -105t-111 -42q-70 0 -111 42q-41 43 -41 105t41 103t111 41q71 0 112 -41t41 -103zM494 1245q0 -62 -41 -105q-40 -42 -111 -42t-115 42q-43 42 -43 105t43 103q44 41 115 41q70 0 111 -41t41 -103z" />
    <glyph glyph-name="aring" unicode="&#xe5;" horiz-adv-x="1101" 
d="M840 -51q-24 1 -52 14q-26 11 -48 29q-21 17 -38 35q-16 17 -22 34q-19 -19 -54 -39q-27 -16 -71 -29q-39 -12 -80 -18t-80 -6q-137 0 -222 72t-85 188q0 66 43 122t117 103q73 46 173 81q98 34 212 57v61q0 152 -109 152q-67 0 -95 -28t-28 -54q0 -19 11 -35
q10 -15 26 -22l-309 -113q-23 64 -23 115q0 82 42 142t107 101q66 41 141 62q73 20 147 20q119 0 194 -23q79 -24 125 -66q48 -44 67 -101q19 -58 19 -129v-346q0 -100 47 -147q46 -46 129 -46q4 0 10 2t9 2zM633 420q-132 -22 -192 -70q-58 -46 -58 -94q0 -36 31 -62
t84 -26q48 0 92 33q43 33 43 102v117zM762 1245q0 -50 -19 -93q-18 -40 -48 -66q-28 -24 -67 -38t-77 -14q-40 0 -79 14q-40 14 -66 39q-31 30 -48 66q-18 39 -18 92q0 51 18 90q17 38 48 65q28 26 66 39q36 13 79 13q39 0 77 -12q37 -12 67 -39t48 -66q19 -41 19 -90z
M651 1245q0 55 -30 81q-31 26 -70 26q-42 0 -73 -27q-32 -27 -32 -80t32 -82q31 -28 73 -28q40 0 70 27t30 83z" />
    <glyph glyph-name="ae" unicode="&#xe6;" horiz-adv-x="1619" 
d="M1554 324q-29 -181 -145 -269t-303 -88q-107 0 -194 36q-89 37 -150 101q-59 -71 -149 -103t-197 -32q-80 0 -142 21t-102 55q-41 35 -62 82q-22 49 -22 102q0 66 43 122t117 103q73 46 173 81q98 34 212 57v61q0 152 -109 152q-67 0 -95 -28t-28 -54q0 -19 11 -35
q10 -15 26 -22l-309 -113q-20 57 -20 115q0 82 42 142q43 61 105 101q64 41 140 62q73 20 147 20q114 0 187 -22q74 -22 122 -64q54 42 118 64q63 22 146 22q96 0 172 -32t133 -103q56 -69 86 -178q31 -112 31 -258h-600l8 -27q28 -93 114 -143q85 -49 185 -49q86 0 170 30
q82 29 139 91zM1247 600q0 100 -42 145q-43 46 -95 46q-58 0 -112 -51q-52 -49 -60 -140h309zM633 420q-132 -22 -192 -70q-58 -46 -58 -94q0 -36 31 -62t84 -26q48 0 92 33q43 33 43 102v117z" />
    <glyph glyph-name="ccedilla" unicode="&#xe7;" horiz-adv-x="985" 
d="M702 -217q0 -32 -14 -59q-16 -31 -43 -52q-26 -21 -70 -37q-38 -14 -96 -14q-52 0 -103 13q-54 14 -93 40q27 -6 61 -6q77 0 119 28q41 27 41 62q0 36 -41 63q-41 28 -129 29l80 130q-170 29 -257 153q-87 125 -87 309q0 128 41 231q40 101 109 173q68 71 159 109t188 38
q82 0 145 -25q62 -24 110 -71q47 -46 72 -107q26 -63 30 -135l-295 -114q16 36 16 82q0 58 -29 101q-28 42 -88 42q-36 0 -66 -18q-28 -17 -49 -52q-20 -34 -30 -74t-10 -87q0 -68 17 -125q19 -62 52 -107q36 -49 86 -75q51 -27 119 -27q75 0 154 33q80 33 147 102
q-12 -79 -49 -141q-41 -68 -89 -111q-56 -50 -115 -75q-68 -29 -128 -36l-32 -47q87 -11 127 -52t40 -91z" />
    <glyph glyph-name="egrave" unicode="&#xe8;" horiz-adv-x="1062" 
d="M997 324q-29 -182 -146 -268q-119 -87 -304 -87q-110 0 -197 37t-149 102t-96 154q-33 86 -33 199q0 108 32 201t97 169q64 75 153 118q91 44 205 44q96 0 172 -32t133 -103q56 -69 86 -178q31 -112 31 -258h-600l6 -27q28 -93 115 -143q85 -49 186 -49q86 0 170 30
q82 29 139 91zM227 1364h398l86 -338zM690 600q0 100 -42 145q-43 46 -95 46q-58 0 -112 -51q-52 -49 -60 -140h309z" />
    <glyph glyph-name="eacute" unicode="&#xe9;" horiz-adv-x="1062" 
d="M997 324q-29 -182 -146 -268q-119 -87 -304 -87q-110 0 -197 37t-149 102t-96 154q-33 86 -33 199q0 108 32 201t97 169q64 75 153 118q91 44 205 44q96 0 172 -32t133 -103q56 -69 86 -178q31 -112 31 -258h-600l6 -27q28 -93 115 -143q85 -49 186 -49q86 0 170 30
q82 29 139 91zM438 1026l78 338h397zM690 600q0 100 -42 145q-43 46 -95 46q-58 0 -112 -51q-52 -49 -60 -140h309z" />
    <glyph glyph-name="ecircumflex" unicode="&#xea;" horiz-adv-x="1062" 
d="M997 324q-29 -182 -146 -268q-119 -87 -304 -87q-110 0 -197 37t-149 102t-96 154q-33 86 -33 199q0 108 32 201t97 169q64 75 153 118q91 44 205 44q96 0 172 -32t133 -103q56 -69 86 -178q31 -112 31 -258h-600l6 -27q28 -93 115 -143q85 -49 186 -49q86 0 170 30
q82 29 139 91zM528 1440l312 -414l-312 141l-305 -141zM690 600q0 100 -42 145q-43 46 -95 46q-58 0 -112 -51q-52 -49 -60 -140h309z" />
    <glyph glyph-name="edieresis" unicode="&#xeb;" horiz-adv-x="1062" 
d="M997 324q-29 -182 -146 -268q-119 -87 -304 -87q-110 0 -197 37t-149 102t-96 154q-33 86 -33 199q0 108 32 201t97 169q64 75 153 118q91 44 205 44q96 0 172 -32t133 -103q56 -69 86 -178q31 -112 31 -258h-600l6 -27q28 -93 115 -143q85 -49 186 -49q86 0 170 30
q82 29 139 91zM475 1245q0 -62 -41 -105q-40 -42 -110 -42q-72 0 -115 42t-43 105t43 103q44 41 115 41q69 0 110 -41t41 -103zM897 1245q0 -63 -42 -105t-112 -42q-69 0 -110 42q-41 43 -41 105t41 103t110 41q72 0 113 -41t41 -103zM690 600q0 100 -42 145q-43 46 -95 46
q-58 0 -112 -51q-52 -49 -60 -140h309z" />
    <glyph glyph-name="igrave" unicode="&#xec;" horiz-adv-x="598" 
d="M461 238q0 -82 14 -125q16 -50 34 -72q21 -26 38 -33q19 -8 24 -8h-542q7 0 24 7q18 8 38 32t35 72q15 47 15 127v393q0 63 -12 102t-31 61q-17 20 -42 28q-22 7 -46 7h-28l479 175v-766zM16 1364h398l86 -338z" />
    <glyph glyph-name="iacute" unicode="&#xed;" horiz-adv-x="598" 
d="M461 238q0 -82 14 -125q16 -50 34 -72q21 -26 38 -33q19 -8 24 -8h-542q7 0 24 7q18 8 38 32t35 72q15 47 15 127v393q0 63 -12 102t-31 61q-17 20 -42 28q-22 7 -46 7h-28l479 175v-766zM123 1026l78 338h397z" />
    <glyph glyph-name="icircumflex" unicode="&#xee;" horiz-adv-x="598" 
d="M461 238q0 -82 14 -125q16 -50 34 -72q21 -26 38 -33q19 -8 24 -8h-542q7 0 24 7q18 8 38 32t35 72q15 47 15 127v393q0 63 -12 102t-31 61q-17 20 -42 28q-22 7 -46 7h-28l479 175v-766zM297 1440l311 -414l-311 141l-305 -141z" />
    <glyph glyph-name="idieresis" unicode="&#xef;" horiz-adv-x="598" 
d="M461 238q0 -82 14 -125q16 -50 34 -72q21 -26 38 -33q19 -8 24 -8h-542q7 0 24 7q18 8 38 32t35 72q15 47 15 127v393q0 63 -12 102t-31 61q-17 20 -42 28q-22 7 -46 7h-28l479 175v-766zM244 1245q0 -62 -41 -105q-41 -42 -111 -42q-72 0 -115 42t-43 105t43 103
q44 41 115 41q70 0 111 -41t41 -103zM666 1245q0 -63 -42 -105t-112 -42t-111 42q-41 43 -41 105t41 103t111 41q72 0 113 -41t41 -103z" />
    <glyph glyph-name="eth" unicode="&#xf0;" horiz-adv-x="1138" 
d="M1079 539q0 -117 -30 -221q-29 -100 -96 -181q-64 -78 -163 -124q-98 -46 -237 -46q-122 0 -214 47t-152 123q-60 77 -90 172q-29 93 -29 195q0 69 19 152t67 159t122 125q76 51 191 51q110 0 180 -38q71 -39 123 -101q-58 94 -115 161q-60 71 -129 126l-209 -78l-94 96
l178 66q-78 43 -172 77l334 125q38 -18 74 -41q33 -21 68 -47l196 74l92 -96l-184 -70q136 -142 203 -324t67 -382zM750 391q0 84 -23 155q-23 70 -58 117q-36 48 -78 72q-44 25 -81 25q-51 0 -87 -43t-36 -139q0 -87 24 -156q25 -73 59 -119q36 -49 79 -76q42 -26 82 -26
q49 0 84 45q35 46 35 145z" />
    <glyph glyph-name="ntilde" unicode="&#xf1;" horiz-adv-x="1185" 
d="M1053 240q0 -84 14 -127q16 -50 34 -72q21 -26 38 -33q19 -8 24 -8h-532q7 0 22 7q16 7 34 31t31 68q13 43 13 123v344q0 181 -121 181q-67 0 -111 -47t-44 -134v-346q0 -78 14 -119q16 -47 32 -68q19 -25 35 -32q19 -8 23 -8h-536q7 0 24 7q19 8 39 31q22 25 36 68
q15 45 15 125v404q0 67 -11 101q-13 40 -29 59q-17 19 -38 27q-20 7 -41 7h-32l458 175l2 -127q51 52 135 85q80 31 152 31q152 0 236 -84t84 -260v-409zM930 1286q0 -36 -15 -69q-16 -36 -38 -59q-24 -26 -61 -41q-36 -15 -79 -15q-47 0 -87 17q-50 22 -82 38
q-27 14 -79 38q-37 17 -75 17q-47 0 -70 -29q-25 -31 -25 -108q-63 63 -63 148q0 70 49 120q50 52 135 52q44 0 92 -17q58 -21 92 -37q15 -7 83 -36q40 -17 69 -17q56 0 75 36q19 35 19 103q60 -60 60 -141z" />
    <glyph glyph-name="ograve" unicode="&#xf2;" horiz-adv-x="1189" 
d="M1120 506q0 -127 -42 -226q-43 -101 -113 -168q-71 -68 -171 -106q-98 -37 -212 -37q-108 0 -202 32q-95 32 -163 94q-69 63 -108 156t-39 214q0 127 44 227q44 99 117 165q74 67 170 101q97 35 199 35q108 0 203 -30q92 -29 165 -93q71 -62 111 -152q41 -93 41 -212z
M793 465q0 63 -18 119q-18 55 -46 95q-27 38 -67 63q-39 24 -84 24q-78 0 -133 -70q-54 -69 -54 -186q0 -65 18 -122q18 -58 47 -98q32 -45 69 -67q41 -24 85 -24q78 0 130 71q53 73 53 195zM250 1364h397l86 -338z" />
    <glyph glyph-name="oacute" unicode="&#xf3;" horiz-adv-x="1189" 
d="M1120 506q0 -127 -42 -226q-43 -101 -113 -168q-71 -68 -171 -106q-98 -37 -212 -37q-108 0 -202 32q-95 32 -163 94q-69 63 -108 156t-39 214q0 127 44 227q44 99 117 165q74 67 170 101q97 35 199 35q108 0 203 -30q92 -29 165 -93q71 -62 111 -152q41 -93 41 -212z
M793 465q0 63 -18 119q-18 55 -46 95q-27 38 -67 63q-39 24 -84 24q-78 0 -133 -70q-54 -69 -54 -186q0 -65 18 -122q18 -58 47 -98q32 -45 69 -67q41 -24 85 -24q78 0 130 71q53 73 53 195zM481 1026l78 338h397z" />
    <glyph glyph-name="ocircumflex" unicode="&#xf4;" horiz-adv-x="1189" 
d="M1120 506q0 -127 -42 -226q-43 -101 -113 -168q-71 -68 -171 -106q-98 -37 -212 -37q-108 0 -202 32q-95 32 -163 94q-69 63 -108 156t-39 214q0 127 44 227q44 99 117 165q74 67 170 101q97 35 199 35q108 0 203 -30q92 -29 165 -93q71 -62 111 -152q41 -93 41 -212z
M793 465q0 63 -18 119q-18 55 -46 95q-27 38 -67 63q-39 24 -84 24q-78 0 -133 -70q-54 -69 -54 -186q0 -65 18 -122q18 -58 47 -98q32 -45 69 -67q41 -24 85 -24q78 0 130 71q53 73 53 195zM592 1440l311 -414l-311 141l-305 -141z" />
    <glyph glyph-name="otilde" unicode="&#xf5;" horiz-adv-x="1189" 
d="M1120 506q0 -127 -42 -226q-43 -101 -113 -168q-71 -68 -171 -106q-98 -37 -212 -37q-108 0 -202 32q-95 32 -163 94q-69 63 -108 156t-39 214q0 127 44 227q44 99 117 165q74 67 170 101q97 35 199 35q108 0 203 -30q92 -29 165 -93q71 -62 111 -152q41 -93 41 -212z
M793 465q0 63 -18 119q-18 55 -46 95q-27 38 -67 63q-39 24 -84 24q-78 0 -133 -70q-54 -69 -54 -186q0 -65 18 -122q18 -58 47 -98q32 -45 69 -67q41 -24 85 -24q78 0 130 71q53 73 53 195zM932 1286q0 -38 -14 -69q-15 -34 -39 -59q-24 -26 -61 -41q-36 -15 -79 -15
q-47 0 -87 17q-50 22 -82 38q-35 18 -78 38q-37 17 -76 17q-47 0 -70 -29q-24 -30 -24 -108q-64 64 -64 148q0 70 49 120q50 52 135 52q45 0 93 -17q54 -19 91 -37q15 -7 83 -36q40 -17 69 -17q56 0 75 36q19 35 19 103q60 -60 60 -141z" />
    <glyph glyph-name="odieresis" unicode="&#xf6;" horiz-adv-x="1189" 
d="M1120 506q0 -127 -42 -226q-43 -101 -113 -168q-71 -68 -171 -106q-98 -37 -212 -37q-108 0 -202 32q-95 32 -163 94q-69 63 -108 156t-39 214q0 127 44 227q44 99 117 165q74 67 170 101q97 35 199 35q108 0 203 -30q92 -29 165 -93q71 -62 111 -152q41 -93 41 -212z
M793 465q0 63 -18 119q-18 55 -46 95q-27 38 -67 63q-39 24 -84 24q-78 0 -133 -70q-54 -69 -54 -186q0 -65 18 -122q18 -58 47 -98q32 -45 69 -67q41 -24 85 -24q78 0 130 71q53 73 53 195zM961 1245q0 -63 -42 -105t-112 -42q-71 0 -111 42q-41 43 -41 105t41 103t111 41
q72 0 113 -41t41 -103zM539 1245q0 -62 -41 -105q-40 -42 -111 -42t-115 42q-43 42 -43 105t43 103q44 41 115 41q70 0 111 -41t41 -103z" />
    <glyph glyph-name="divide" unicode="&#xf7;" horiz-adv-x="1443" 
d="M862 977q0 -71 -46 -105t-95 -34q-53 0 -95 35q-44 36 -44 104q0 66 43 103q44 38 96 38q54 0 97 -37q44 -38 44 -104zM154 485v213h1132v-213h-1132zM860 205q0 -68 -45 -104q-44 -35 -96 -35q-54 0 -96 35q-43 36 -43 104q0 67 43 103t96 36q50 0 96 -35
q45 -35 45 -104z" />
    <glyph glyph-name="oslash" unicode="&#xf8;" horiz-adv-x="1189" 
d="M1120 506q0 -127 -42 -226q-43 -101 -113 -168q-71 -68 -171 -106q-98 -37 -212 -37q-104 0 -195 31l-55 -94l-142 33l72 124q-90 61 -141 162t-51 240q0 127 44 227q44 99 117 165q74 67 170 101q97 35 199 35q109 0 191 -26l73 125l140 -39l-86 -148q92 -60 147 -159
q55 -98 55 -240zM662 743q-41 23 -84 23q-78 0 -133 -70q-54 -69 -54 -186q0 -46 9 -86t26 -76zM793 465q0 87 -35 162l-240 -400q44 -28 92 -28q78 0 130 71q53 73 53 195z" />
    <glyph glyph-name="ugrave" unicode="&#xf9;" horiz-adv-x="1181" 
d="M741 -41l-4 127q-53 -54 -133 -85q-81 -32 -151 -32q-152 0 -236 84t-84 260v406q0 77 -19 122q-19 46 -46 70t-52 32q-23 7 -32 9h471v-563q0 -180 120 -180q67 0 111 48q43 47 43 134v340q0 74 -14 115q-14 42 -33 65t-37 31q-21 9 -27 10h429v-624q0 -63 11 -102
q13 -40 28 -58q18 -21 38 -28t41 -7h33zM287 1364h397l86 -338z" />
    <glyph glyph-name="uacute" unicode="&#xfa;" horiz-adv-x="1181" 
d="M741 -41l-4 127q-53 -54 -133 -85q-81 -32 -151 -32q-152 0 -236 84t-84 260v406q0 77 -19 122q-19 46 -46 70t-52 32q-23 7 -32 9h471v-563q0 -180 120 -180q67 0 111 48q43 47 43 134v340q0 74 -14 115q-14 42 -33 65t-37 31q-21 9 -27 10h429v-624q0 -63 11 -102
q13 -40 28 -58q18 -21 38 -28t41 -7h33zM457 1026l78 338h397z" />
    <glyph glyph-name="ucircumflex" unicode="&#xfb;" horiz-adv-x="1181" 
d="M741 -41l-4 127q-53 -54 -133 -85q-81 -32 -151 -32q-152 0 -236 84t-84 260v406q0 77 -19 122q-19 46 -46 70t-52 32q-23 7 -32 9h471v-563q0 -180 120 -180q67 0 111 48q43 47 43 134v340q0 74 -14 115q-14 42 -33 65t-37 31q-21 9 -27 10h429v-624q0 -63 11 -102
q13 -40 28 -58q18 -21 38 -28t41 -7h33zM588 1440l311 -414l-311 141l-305 -141z" />
    <glyph glyph-name="udieresis" unicode="&#xfc;" horiz-adv-x="1181" 
d="M741 -41l-4 127q-53 -54 -133 -85q-81 -32 -151 -32q-152 0 -236 84t-84 260v406q0 77 -19 122q-19 46 -46 70t-52 32q-23 7 -32 9h471v-563q0 -180 120 -180q67 0 111 48q43 47 43 134v340q0 74 -14 115q-14 42 -33 65t-37 31q-21 9 -27 10h429v-624q0 -63 11 -102
q13 -40 28 -58q18 -21 38 -28t41 -7h33zM535 1245q0 -62 -41 -105q-40 -42 -111 -42t-115 42q-43 42 -43 105t43 103q44 41 115 41q70 0 111 -41t41 -103zM956 1245q0 -63 -42 -105t-111 -42q-71 0 -111 42q-41 43 -41 105t41 103t111 41q71 0 112 -41t41 -103z" />
    <glyph glyph-name="yacute" unicode="&#xfd;" horiz-adv-x="1181" 
d="M791 854q0 31 -12 49q-14 21 -25 30q-13 10 -29 15q-13 4 -23 4h486q-5 0 -18 -7q-12 -7 -33 -26q-18 -17 -46 -58q-26 -39 -53 -101l-297 -688q-38 -90 -86 -170q-47 -78 -96 -138t-97 -100q-47 -39 -89 -55l-342 209q5 -3 32 -8q24 -4 35 2q94 -8 184 47q92 56 171 190
l-291 721q-23 58 -51 95t-51 56q-24 19 -41 25q-18 6 -23 6h569q-5 0 -16 -4q-15 -6 -26 -14q-12 -10 -22 -29q-9 -18 -9 -49q0 -20 7 -41q2 -5 7.5 -23.5t9.5 -29.5l125 -334l121 315q9 23 21 63q8 27 8 48zM559 1026l78 338h397z" />
    <glyph glyph-name="thorn" unicode="&#xfe;" horiz-adv-x="1163" 
d="M1098 518q0 -125 -36 -224q-37 -102 -101 -169q-68 -71 -156 -108q-89 -37 -197 -37q-46 0 -90 9q-43 9 -65 25v-149q0 -77 15 -124q15 -46 35 -71q19 -23 38 -31l24 -10h-522q5 0 19 7q15 8 32 32q17 25 29 71q12 47 12 126v1161q0 80 -12 127t-32 73q-18 24 -44 32
t-47 8h-20l471 168v-545q47 51 118 77q72 27 144 27t138 -26q68 -27 124 -84q53 -55 89 -148q34 -89 34 -217zM760 451q0 63 -9 118q-9 57 -30 97t-51 64t-76 24q-65 0 -105 -55q-38 -53 -38 -152v-234q0 -114 129 -114q88 0 134 70t46 182z" />
    <glyph glyph-name="ydieresis" unicode="&#xff;" horiz-adv-x="1181" 
d="M791 854q0 31 -12 49q-14 21 -25 30q-13 10 -29 15q-13 4 -23 4h486q-5 0 -18 -7q-12 -7 -33 -26q-18 -17 -46 -58q-26 -39 -53 -101l-297 -688q-38 -90 -86 -170q-47 -78 -96 -138t-97 -100q-47 -39 -89 -55l-342 209q5 -3 32 -8q24 -4 35 2q94 -8 184 47q92 56 171 190
l-291 721q-23 58 -51 95t-51 56q-24 19 -41 25q-18 6 -23 6h569q-5 0 -16 -4q-15 -6 -26 -14q-12 -10 -22 -29q-9 -18 -9 -49q0 -20 7 -41q2 -5 7.5 -23.5t9.5 -29.5l125 -334l121 315q9 23 21 63q8 27 8 48zM555 1245q0 -62 -41 -105q-41 -42 -111 -42q-71 0 -114 42
t-43 105t43 103q44 41 114 41t111 -41t41 -103zM977 1245q0 -63 -42 -105t-112 -42q-69 0 -110 42q-41 43 -41 105t41 103t110 41q72 0 113 -41t41 -103z" />
    <glyph glyph-name="OE" unicode="&#x152;" horiz-adv-x="2109" 
d="M1991 0h-987q-105 -33 -240 -33q-171 0 -298 60q-130 61 -213 156t-128 223q-43 123 -43 256q0 136 46 267q46 130 138 236q89 103 230 169q138 65 321 65q120 0 230 -35h927v-442q-6 39 -23 74q-19 40 -48 69t-78 51q-47 21 -115 21h-237v-336h213q55 0 86 14
q33 15 51 33q17 17 24 37l8 24v-446q0 5 -6 23t-24 36q-19 19 -50 34t-85 15h-217v-338h260q129 0 209 60t126 176zM1126 647q0 114 -22 203q-23 92 -69 158t-114 101q-69 36 -159 36q-67 0 -124 -27q-55 -26 -98 -80q-42 -52 -66 -132q-23 -76 -23 -183q0 -231 94 -364
q95 -134 270 -134q137 0 224 111t87 311z" />
    <glyph glyph-name="oe" unicode="&#x153;" horiz-adv-x="1781" 
d="M1716 324q-29 -181 -145 -269t-303 -88q-99 0 -183 33q-86 34 -147 92q-146 -123 -356 -123q-108 0 -202 32q-95 32 -163 94q-69 63 -108 156t-39 214q0 127 44 227q44 99 117 165q74 66 169 101q96 35 200 35q113 0 201 -29q92 -30 164 -90q64 58 139 88q77 31 174 31
q96 0 172 -32t133 -103q56 -69 86 -178q31 -112 31 -258h-600q7 -51 38 -92q33 -45 71 -69q44 -28 94 -43q51 -15 104 -15q86 0 170 30q82 29 139 91zM1409 600q0 100 -42 145q-43 46 -95 46q-58 0 -112 -51q-52 -49 -60 -140h309zM793 465q0 63 -18 119q-18 55 -46 95
q-27 38 -67 63q-39 24 -84 24q-78 0 -133 -70q-54 -69 -54 -186q0 -65 18 -122q18 -58 47 -98q32 -45 69 -67q41 -24 85 -24q78 0 130 71q53 73 53 195z" />
    <glyph glyph-name="Scaron" unicode="&#x160;" horiz-adv-x="1146" 
d="M1067 395q0 -108 -44 -188q-43 -79 -120 -132t-176 -78q-102 -26 -211 -26q-122 0 -236 27q-113 27 -192 74v432q39 -79 91 -136q48 -53 106 -87q56 -33 113 -48q55 -14 118 -14q91 0 148 33t57 92q0 48 -33 82q-32 34 -86 63q-60 32 -119 58q-60 26 -131 63
q-50 27 -96 60q-51 36 -83 75q-36 43 -57 98q-22 57 -22 124q0 107 42 186q43 81 113 133q71 53 166 80t203 27q103 0 199 -26q91 -25 154 -67v-364q-23 43 -67 84q-41 38 -91 67q-54 31 -104 46q-54 16 -107 16q-96 0 -136 -34t-40 -81q0 -36 20 -62q22 -28 57 -50
q40 -25 82 -44q7 -3 42 -19t55 -25q51 -23 136 -67q68 -35 124 -87q56 -51 90 -120q35 -70 35 -165zM571 1425l-352 420l352 -141l347 141z" />
    <glyph glyph-name="scaron" unicode="&#x161;" horiz-adv-x="856" 
d="M807 285q0 -72 -29 -133q-28 -58 -82 -100q-51 -39 -128 -61q-79 -22 -165 -22q-94 0 -189 23t-140 61v326q45 -79 130 -136q86 -57 193 -57q55 0 84 17t29 45q0 25 -16 41q-15 15 -48 33q-12 7 -75 36q-45 21 -105 54q-98 52 -139 116t-41 150q0 146 100 231
q101 86 287 86q67 0 141 -15q72 -15 121 -40v-301q-11 17 -38 42q-24 23 -59 44q-30 18 -75 35q-38 14 -88 14q-96 0 -96 -59q0 -21 11 -35q12 -15 36 -30q26 -16 62 -32q77 -34 90 -40q128 -60 178 -128q51 -69 51 -165zM432 1028l-311 412l311 -142l305 142z" />
    <glyph glyph-name="Ydieresis" unicode="&#x178;" horiz-adv-x="1439" 
d="M997 1280q0 26 -8 42q-8 15 -19 25q-11 8 -22 13q-9 4 -16 4h520q-1 0 -17 -8q-15 -7 -43 -34q-31 -30 -69 -77q-46 -57 -94 -139l-328 -535v-321q0 -85 14 -131q15 -50 34 -76q20 -27 38 -35q19 -8 25 -8h-588q6 0 25 8q15 6 38 34q21 26 36 75q16 53 16 133v309
l-318 549q-53 90 -89 134q-43 53 -70 77q-31 28 -48 35q-16 8 -24 10h645q-5 0 -17 -3t-24 -12q-14 -10 -22 -27q-9 -18 -9 -44q0 -30 11 -64q12 -38 42 -90l162 -274l137 229q43 72 63 122q19 47 19 79zM684 1602q0 -63 -41 -106q-41 -42 -111 -42t-114 42q-43 42 -43 106
q0 62 43 102q44 41 114 41t111 -41t41 -102zM1106 1602q0 -64 -42 -106t-112 -42t-110 42q-41 43 -41 106q0 61 41 102t110 41q72 0 113 -41t41 -102z" />
    <glyph glyph-name="Zcaron" unicode="&#x17d;" horiz-adv-x="1298" 
d="M1206 0h-1167l629 1137h-275q-89 0 -143 -14t-85 -39t-49 -62q-19 -40 -36 -82v424h1120l-625 -1131h347q126 0 205 54q77 53 122 149zM651 1440l-311 411l311 -141l305 141z" />
    <glyph glyph-name="zcaron" unicode="&#x17e;" horiz-adv-x="1015" 
d="M45 0l436 764h-178q-73 0 -119 -26t-69 -58q-25 -35 -34 -64q-10 -34 -11 -38v374h880l-440 -753h254q68 0 108 22q43 24 63 51q22 29 29 56q8 28 9 34v-362h-928zM510 1028l-311 412l311 -142l305 142z" />
    <glyph glyph-name="florin" unicode="&#x192;" 
d="M1036 1100q-39 22 -83 33q-41 10 -70 10q-54 0 -81 -33t-39 -80q-11 -44 -13 -99q-1 -40 -7 -93h211l-16 -207h-211l-39 -395q-29 -275 -142 -421q-114 -147 -345 -147q-56 0 -108 13q-51 13 -105 34l67 265q26 -18 47 -29q26 -13 45 -19q26 -8 50 -8q25 0 49 8
q22 7 39 34q15 24 28 76q14 59 21 134l45 455h-193l17 207h192q28 296 151 428q122 131 328 131q59 0 127 -13q66 -13 113 -34z" />
    <glyph glyph-name="circumflex" unicode="&#x2c6;" horiz-adv-x="1036" 
d="M514 1440l311 -414l-311 141l-305 -141z" />
    <glyph glyph-name="tilde" unicode="&#x2dc;" horiz-adv-x="1036" 
d="M852 1286q0 -38 -14 -69q-15 -34 -39 -59q-24 -26 -61 -41q-36 -15 -79 -15q-47 0 -87 17q-50 22 -82 38q-35 18 -78 38q-37 17 -76 17q-47 0 -70 -29q-24 -30 -24 -108q-64 64 -64 148q0 70 49 120q50 52 135 52q45 0 93 -17q54 -19 91 -37q15 -7 83 -36q40 -17 69 -17
q56 0 75 36q20 37 20 103q59 -59 59 -141z" />
    <glyph glyph-name="endash" unicode="&#x2013;" horiz-adv-x="1363" 
d="M68 381v201h1228v-201h-1228z" />
    <glyph glyph-name="emdash" unicode="&#x2014;" horiz-adv-x="2183" 
d="M68 381v201h2048v-201h-2048z" />
    <glyph glyph-name="quoteleft" unicode="&#x2018;" horiz-adv-x="555" 
d="M512 1415q-44 -22 -88 -57q-41 -33 -76 -80q-32 -44 -52 -96t-20 -103v-24q0 -4 3 -25q14 2 28 2q77 0 118 -51q40 -50 40 -117q0 -36 -12 -72q-12 -35 -38 -66q-23 -27 -64 -47q-35 -17 -87 -17q-58 0 -100 23t-73 65q-28 38 -44 93q-14 49 -14 111q0 76 27 157
q27 80 86 147q61 69 150 111q94 45 216 46z" />
    <glyph glyph-name="quoteright" unicode="&#x2019;" horiz-adv-x="555" 
d="M520 1104q0 -78 -27 -159q-27 -80 -86 -147q-61 -69 -150 -111q-94 -45 -216 -46q48 22 88 57q42 36 76 81q32 42 52 95q19 50 19 105q0 15 -1 25t-3 24q-14 -2 -28 -2q-77 0 -118 50q-40 49 -40 116q0 38 13 73q13 34 39 65q23 28 64 47q38 18 87 18q57 0 100 -24
q45 -25 72 -63q29 -41 44 -94q15 -52 15 -110z" />
    <glyph glyph-name="quotesinglbase" unicode="&#x201a;" horiz-adv-x="555" 
d="M504 76q0 -75 -28 -159q-27 -80 -86 -147q-62 -69 -149 -111q-94 -45 -216 -46q48 22 88 57q39 34 75 81q34 44 53 95q19 50 19 105v24q0 11 -2 25q-14 -2 -29 -2q-76 0 -117 50q-40 49 -40 116q0 37 12 73q11 33 38 65q24 28 63 47q37 18 87 18q58 0 101 -24
q44 -24 71 -63q29 -41 44 -94q16 -56 16 -110z" />
    <glyph glyph-name="quotedblleft" unicode="&#x201c;" horiz-adv-x="1173" 
d="M1114 1415q-44 -22 -88 -57q-41 -33 -76 -80q-32 -44 -52 -96q-19 -50 -19 -103v-24q0 -11 2 -25q14 2 28 2q77 0 118 -51q40 -50 40 -117q0 -36 -12 -72q-12 -35 -38 -66q-23 -27 -64 -47q-35 -17 -87 -17q-58 0 -100 23t-73 65q-28 38 -44 93q-14 49 -14 111
q0 73 28 157q27 80 86 147q62 69 149 111q94 45 216 46zM584 1415q-44 -22 -88 -57q-41 -33 -76 -80q-32 -44 -52 -96t-20 -103q0 -14 1 -24q1 -13 3 -25q14 2 29 2q78 0 117 -51t39 -117q0 -33 -13 -72q-12 -35 -38 -66q-24 -28 -63 -47q-35 -17 -87 -17q-58 0 -100 23
t-73 65q-28 38 -44 93q-15 53 -15 111q0 73 28 157q27 80 86 147q61 69 150 111q94 45 216 46z" />
    <glyph glyph-name="quotedblright" unicode="&#x201d;" horiz-adv-x="1173" 
d="M1069 1104q0 -75 -28 -159q-27 -80 -86 -147q-62 -69 -149 -111q-94 -45 -216 -46q48 22 88 57q42 36 76 81q32 42 52 95q19 50 19 105v25q0 10 -2 24q-14 -2 -28 -2q-77 0 -118 50q-40 49 -40 116q0 37 12 73q11 33 38 65q23 28 64 47q37 18 87 18q56 0 100 -24
q45 -25 72 -63q29 -41 44 -94q15 -52 15 -110zM541 1104q0 -75 -28 -159q-27 -80 -86 -147q-62 -69 -149 -111q-94 -45 -217 -46q50 23 89 57t75 81q34 44 53 95q19 50 19 105q0 15 -1 25t-3 24q-14 -2 -29 -2q-77 0 -118 50q-40 49 -40 116q0 36 14 73q13 34 39 65
q24 28 63 47q38 18 87 18q57 0 101 -24t71 -63q29 -41 44 -94q16 -56 16 -110z" />
    <glyph glyph-name="quotedblbase" unicode="&#x201e;" horiz-adv-x="1114" 
d="M1044 76q0 -78 -27 -159q-27 -80 -86 -147q-61 -69 -150 -111q-94 -45 -216 -46q48 22 88 57q42 36 76 81q32 42 52 95q20 52 20 105v24q0 11 -2 25q-14 -2 -29 -2q-77 0 -118 50q-40 49 -40 116q0 34 13 73q11 33 38 65q24 28 63 47q38 18 87 18q57 0 100 -24
q45 -25 72 -63q29 -41 44 -94t15 -110zM537 76q0 -75 -28 -159q-27 -80 -86 -147q-61 -69 -150 -111q-94 -45 -216 -46q48 22 88 57q42 36 76 81q32 42 52 95q20 52 20 105q0 14 -1 24q-1 13 -3 25q-14 -2 -29 -2q-77 0 -118 50q-40 49 -40 116q0 36 14 73q13 34 39 65
q24 28 63 47q38 18 87 18q57 0 101 -24t71 -63q29 -41 44 -94q16 -56 16 -110z" />
    <glyph glyph-name="dagger" unicode="&#x2020;" horiz-adv-x="1234" 
d="M958 971q49 0 77 7q31 8 45 16q15 9 22 18q6 8 6 10v-315q0 2 -5 10q-4 6 -22 18q-19 12 -46 19q-32 8 -81 8h-221v-739q0 -98 -17 -170q-19 -79 -40 -129q-23 -62 -58 -115q-32 50 -57 115q-21 50 -40 129q-17 72 -17 170v739h-221q-51 0 -79 -7q-26 -7 -47 -17
q-18 -9 -24 -18t-6 -11v313l5 -8q5 -8 21 -18t45 -17q32 -8 78 -8h228v153q0 83 -10 127q-11 49 -24 72q-15 26 -26 33q-13 8 -16 8h379q-3 0 -16 -8q-12 -8 -25 -33q-12 -25 -23 -72q-10 -44 -10 -127v-153h225z" />
    <glyph glyph-name="daggerdbl" unicode="&#x2021;" horiz-adv-x="1234" 
d="M954 231q47 0 79 8q31 8 46 16q18 10 22 17q6 10 7 13v-314l-5 9q-4 7 -21 17q-16 10 -45 17q-36 9 -79 9h-225v-154q0 -83 10 -127q11 -47 23 -72q12 -24 25 -32q14 -9 16 -9h-379q2 0 16 9q12 8 26 32q13 23 24 72q10 44 10 127v154h-228q-44 0 -76 -8q-31 -8 -45 -16
q-16 -10 -22 -17q-6 -8 -6 -11v314l5 -10q4 -8 22 -18t47 -17q36 -9 82 -9h221v531h-221q-51 0 -79 -7q-26 -7 -47 -17q-18 -9 -24 -18t-6 -11v313l5 -8q5 -8 21 -18t45 -17q32 -8 78 -8h228v153q0 83 -10 127q-11 49 -24 72q-15 26 -26 33q-13 8 -16 8h379q-3 0 -16 -8
q-12 -8 -25 -33q-12 -25 -23 -72q-10 -44 -10 -127v-153h225q49 0 77 7q31 8 45 16q15 9 22 18q6 8 6 10v-315q-5 13 -25 26q-18 12 -46 20q-30 9 -83 9h-221v-531h221z" />
    <glyph glyph-name="bullet" unicode="&#x2022;" horiz-adv-x="1024" 
d="M879 580q0 -80 -28 -150q-27 -67 -76 -116q-46 -46 -114 -74q-66 -27 -143 -27q-76 0 -144 28t-115 76q-50 51 -76 117q-27 68 -27 148t27 147q26 66 76 117q48 50 115 77q66 27 144 27q79 0 145 -27q65 -27 114 -77q48 -50 75 -118q27 -69 27 -148z" />
    <glyph glyph-name="ellipsis" unicode="&#x2026;" horiz-adv-x="2469" 
d="M2267 170q0 -86 -58 -143q-60 -58 -153 -58t-151 58t-58 143q0 84 58 142q57 57 151 57t153 -57q58 -57 58 -142zM1446 170q0 -86 -58 -143q-60 -58 -153 -58q-94 0 -152 58q-57 57 -57 143q0 85 57 142t152 57t153 -57t58 -142zM625 170q0 -85 -58 -143t-151 -58
t-153 58q-58 57 -58 143q0 85 58 142q59 57 153 57t151 -57q58 -58 58 -142z" />
    <glyph glyph-name="perthousand" unicode="&#x2030;" horiz-adv-x="2455" 
d="M483 0h-254l936 1364h250zM1602 303q0 -57 -22 -118q-19 -54 -66 -104q-44 -47 -108 -75q-66 -29 -151 -29q-84 0 -151 29q-65 28 -109 75q-43 46 -64 104q-22 61 -22 118q0 59 22 120q21 58 64 104q45 48 109 74q68 28 151 28q84 0 151 -28q64 -27 108 -74
q47 -50 66 -104q22 -61 22 -120zM1372 301q0 90 -34 123t-83 33t-83 -33q-33 -32 -33 -123q0 -94 33 -123q36 -31 83 -31q48 0 83 32q34 31 34 122zM745 1069q0 -60 -21 -118q-19 -54 -66 -104q-44 -47 -108 -75q-66 -29 -151 -29q-84 0 -151 29q-65 28 -109 75
q-43 46 -64 104q-22 61 -22 118q0 59 22 120q21 58 64 104q45 48 109 74q68 28 151 28q84 0 151 -28q64 -27 108 -74q47 -50 66 -104q21 -59 21 -120zM516 1067q0 90 -34 123q-35 33 -83 33q-49 0 -83 -33q-33 -32 -33 -123q0 -94 33 -123q36 -31 83 -31q48 0 83 32
q34 31 34 122zM2386 303q0 -57 -22 -118q-20 -56 -65 -104q-43 -46 -109 -75t-150 -29q-85 0 -152 29q-63 27 -108 75t-65 104q-21 58 -21 118q0 61 21 120q20 56 65 104t108 74q68 28 152 28q83 0 150 -28q65 -27 109 -74q45 -48 65 -104q22 -61 22 -120zM2157 301
q0 90 -34 123q-35 33 -83 33t-83 -33q-34 -33 -34 -123q0 -93 34 -123q36 -31 83 -31q48 0 83 32q34 31 34 122z" />
    <glyph glyph-name="guilsinglleft" unicode="&#x2039;" horiz-adv-x="532" 
d="M264 119l-221 395l221 395h234l-224 -395l224 -395h-234z" />
    <glyph glyph-name="guilsinglright" unicode="&#x203a;" horiz-adv-x="532" 
d="M266 123h-231l223 393l-223 393h231l223 -393z" />
    <glyph glyph-name="Euro" unicode="&#x20ac;" 
d="M991 1057q-39 47 -91 68q-51 20 -103 20q-98 0 -170 -63q-73 -64 -107 -167h414l-70 -172h-375q-2 -22 -2 -31v-32q0 -27 1 -40q1 -7 2.5 -19.5t1.5 -18.5h317l-70 -172h-217q39 -110 108 -157q68 -46 146 -46q44 0 91 15t86 41q42 28 73 63q32 36 53 80v-315
q-48 -56 -138 -98q-94 -44 -216 -44q-121 0 -216 36q-97 37 -167 98q-71 62 -118 147q-45 81 -68 180h-144v172h117q-2 22 -2 34v34q0 25 1 37l3 36h-119v172h148q27 99 78 186q50 85 129 152t186 104q109 38 250 38q94 0 172 -21q80 -22 125 -49z" />
    <glyph glyph-name="trademark" unicode="&#x2122;" horiz-adv-x="1302" 
d="M1219 922q0 -34 6 -53q5 -15 14 -30q7 -11 15 -16q7 -4 10 -4h-234q2 0 8 3q7 3 14 15q8 12 13 31q6 21 6 56v305l-158 -434l-161 428v-295q0 -36 6 -57q5 -18 14 -32q7 -11 15 -16q7 -4 10 -4h-203q2 0 9 3t15 16q10 16 16 33q7 20 7 59v340q0 25 -7 42q-6 13 -16 28
q-7 12 -16 17q-8 5 -10 7h260l86 -221l80 221h246l-8 -5q-6 -4 -15 -16q-8 -11 -15 -28t-7 -47v-346zM535 1364l8 -197q0 1 -5 18q-3 11 -16 33q-9 16 -25 30t-36 14h-88v-340q0 -66 17 -83q19 -19 22 -20h-232q2 0 8 3q7 3 14 15t13 30q6 19 6 55v340h-86q-20 0 -36 -14
q-15 -14 -25 -29q-12 -19 -16 -32q-5 -17 -5 -20l6 197h476z" />
    </font>
</defs>
</svg>
